<svg width="20" height="18" viewBox="0 0 20 18" fill="none" xmlns="http://www.w3.org/2000/svg">
<path d="M4.43475 7.06909C6.44614 3.50997 7.45184 1.73041 8.83187 1.27232C9.59108 1.02031 10.4089 1.02031 11.1681 1.27232C12.5481 1.73041 13.5538 3.50997 15.5652 7.06909C17.5766 10.6282 18.5823 12.4078 18.2806 13.8578C18.1147 14.6555 17.7058 15.379 17.1125 15.9247C16.0342 16.9166 14.0228 16.9166 9.99999 16.9166C5.9772 16.9166 3.9658 16.9166 2.88746 15.9247C2.29422 15.379 1.88531 14.6555 1.71934 13.8578C1.41765 12.4078 2.42335 10.6282 4.43475 7.06909Z" stroke="white" stroke-width="2"/>
<path d="M9.99334 12.3333H10.0008" stroke="white" stroke-width="2" stroke-linecap="round" stroke-linejoin="round"/>
<path d="M10 9.83331L10 6.49998" stroke="white" stroke-width="2" stroke-linecap="round" stroke-linejoin="round"/>
</svg>
