<svg width="174" height="28" viewBox="0 0 174 28" fill="none" xmlns="http://www.w3.org/2000/svg">
<rect width="28" height="28" rx="3.5" fill="url(#paint0_linear_1_6559)"/>
<path d="M23.4604 16.6841H19.2021V17.5591H23.4604V16.6841Z" fill="#050614"/>
<path d="M9.42425 20.7012H5.16602V21.5762H9.42425V20.7012Z" fill="white"/>
<path d="M16.7494 18.3633H12.4912V19.2383H16.7494V18.3633Z" fill="#050614"/>
<path d="M19.3237 10.2148H15.0654V11.0898H19.3237V10.2148Z" fill="#050614"/>
<path d="M14.9711 13.1514H10.7129V14.0264H14.9711V13.1514Z" fill="#050614"/>
<path d="M8.0385 22.6021H3.78027V23.4771H8.0385V22.6021Z" fill="#050614"/>
<path d="M25.061 10.0859H20.8027V10.9609H25.061V10.0859Z" fill="#050614"/>
<path d="M24.3793 6.53613H20.1211V7.41113H24.3793V6.53613Z" fill="#050614"/>
<path d="M11.0912 5.14062H6.83301V6.01563H11.0912V5.14062Z" fill="#050614"/>
<path d="M24.2431 12.5234C24.3869 11.7102 24.4157 10.9425 24.3343 10.232H23.1584C22.9858 8.72412 22.3169 7.47321 21.1982 6.58854H22.9464C21.7782 5.66477 20.1195 5.14062 18.0232 5.14062H11.4082L11.1525 6.58854H9.40427L8.76064 10.232H9.93654L8.76064 16.8882H10.3358L9.53119 21.4424H8.00529L7.75488 22.8593H13.0706L13.3178 21.4424H14.8437L15.3643 18.4591H17.6382C19.9135 18.4591 21.7764 17.89 23.1568 16.8882H21.5816C23.0141 15.8486 23.9273 14.3429 24.2431 12.5234ZM18.8094 12.0213C18.5732 13.3207 17.7167 13.7342 16.2106 13.7342H14.6455L15.2603 10.232H14.0844L14.1488 9.86549H16.0688C16.6608 9.86549 17.121 9.99732 17.4498 10.232H18.2414C18.765 10.6059 18.9545 11.241 18.8094 12.0213Z" fill="#050614"/>
<path d="M21.3495 12.5234C21.4934 11.7102 21.5222 10.9425 21.4408 10.232H20.2649C20.0922 8.72412 19.4233 7.47321 18.3047 6.58854H20.0529C18.8846 5.66477 17.226 5.14062 15.1296 5.14062H8.51469L8.2589 6.58854H6.51072L5.86709 10.232H7.04298L5.86709 16.8882H7.44227L6.63764 21.4424H5.11174L4.86133 22.8593H10.177L10.4242 21.4424H11.9501L12.4707 18.4591H14.7446C17.0199 18.4591 18.8828 17.89 20.2633 16.8882H18.6881C20.1206 15.8486 21.0337 14.3429 21.3495 12.5234ZM15.9158 12.0213C15.6796 13.3207 14.8232 13.7342 13.3171 13.7342H11.752L12.3668 10.232H11.1909L11.2552 9.86549H13.1753C13.7672 9.86549 14.2275 9.99732 14.5562 10.232H15.3478C15.8715 10.6059 16.0609 11.241 15.9158 12.0213Z" fill="#050614"/>
<path d="M22.7958 12.5234C22.9397 11.7102 22.9685 10.9425 22.8871 10.232H21.7112C21.5385 8.72412 20.8696 7.47321 19.751 6.58854H21.4992C20.3309 5.66477 18.6723 5.14062 16.5759 5.14062H9.96098L9.70519 6.58854H7.95701L7.31337 10.232H8.48927L7.31337 16.8882H8.88856L8.08393 21.4424H6.55803L6.30762 22.8593H11.6233L11.8705 21.4424H13.3964L13.917 18.4591H16.1909C18.4662 18.4591 20.3291 17.89 21.7096 16.8882H20.1344C21.5669 15.8486 22.48 14.3429 22.7958 12.5234ZM17.3621 12.0213C17.1259 13.3207 16.2695 13.7342 14.7634 13.7342H13.1982L13.8131 10.232H12.6372L12.7015 9.86549H14.6216C15.2135 9.86549 15.6738 9.99732 16.0025 10.232H16.7941C17.3178 10.6059 17.5072 11.241 17.3621 12.0213Z" fill="white"/>
<path d="M9.99456 7.99707H5.73633V8.87207H9.99456V7.99707Z" fill="white"/>
<g clip-path="url(#clip0_1_6559)">
<path d="M52.0117 9.2328V7.63636H51.2217V6.83538H50.4263V6.04545H48.8299V5.25H38.5V22.75H43.2672V18.7727H44.0682V17.9773H48.8354V17.1818H50.4263V16.3864H51.2273V15.5909H52.0172V14H52.8127V9.2328H52.0117ZM47.2721 13.2211H45.6646V14H44.0682V13.2211H43.2893V10.0227H47.2721V13.2211Z" fill="white"/>
<path d="M59.1766 6.0565V21.949H58.3977V22.75H54.4094V21.949H53.625V6.0565H54.4094V5.25H58.3977V6.0565H59.1766Z" fill="white"/>
<path d="M83.0506 6.0565V21.949H82.2718V22.75H78.2834V21.949H77.499V6.0565H78.2834V5.25H82.2718V6.0565H83.0506Z" fill="white"/>
<path d="M71.9142 12.4091V11.6136H71.1188V10.0227H69.5279V9.22727H67.1415V10.0227H65.5506V11.6136H64.7551V16.3864H65.5506V17.9773H67.1415V18.7727H69.5279V17.9773H71.1188V16.3864H71.9142V15.5909H76.687V17.9773H75.8915V19.5682H75.0961V20.3636H74.3006V21.1591H73.5051V21.9545H72.7097V22.75H64.7607V21.9545H63.1642V21.1591H62.3688V20.3636H61.5733V19.5682H60.7779V17.9773H59.9824V10.0227H60.7779V8.43182H61.5733V7.63636H62.3688V6.84091H63.1642V6.04545H64.7607V5.25H72.7097V6.04545H73.5051V6.84091H74.3006V7.63636H75.0961V8.43182H75.8915V10.0227H76.687V12.4091H71.9142Z" fill="white"/>
<path d="M83.0508 11.6136H83.8573V10.8292H84.6362V9.22175H85.4427V8.44839H86.216V6.84091H87.0225V6.03993H87.8235V5.25H93.3917V6.04545H92.5907V6.84091H91.8008V7.63636H90.9998V9.22727H90.2099V10.0227H89.4089V10.8182H88.6134V12.4091H87.8235V13.2045H87.0225V14.801H83.0508V11.6136Z" fill="white"/>
<path d="M83.0508 16.3861H83.8573V17.165H84.6362V18.778H85.4427V19.5513H86.216V21.1588H87.0225V21.9543H87.8235V22.7497H93.3917V21.9543H92.5907V21.1588H91.8008V20.3633H90.9998V18.7724H90.2099V17.977H89.4089V17.1815H88.6134V15.5906H87.8235V14.7952H87.0225V13.1987H83.0508V16.3861Z" fill="white"/>
<path d="M91.8008 8.43182H92.5907V6.84091H93.3917V6.04545H94.9826V5.25H103.733V6.04545H104.528V6.84091H105.324V7.63636H106.119V9.22727V10.8182H101.346V10.0227H100.551V9.22727H97.369V10.8182H98.1644V11.6081H102.136V12.4091H104.523V13.2045H105.318V14H106.119V14.7955H106.914V19.5682H106.119V21.148H104.523V21.9435H102.932V22.75H95.7836V21.949H94.1927V21.1536H93.3917V20.3581H92.6018V19.5737H91.8008V17.1818H93.3917V16.3864H96.568V17.1873H97.3634V17.9773H98.1644V18.7727H101.346V17.9773H102.142V17.1763H101.346V16.3808H98.9599V15.5909H95.7781V14.7955H94.1871V14H93.3917V13.199H92.5907V12.4036H91.8008V8.43182Z" fill="white"/>
<path d="M107.38 22.4091L110.392 5.3584H115.507L114.428 11.4114H120.111L121.191 5.3584H126.306L123.294 22.4091H118.179L119.259 16.2424H113.575L112.495 22.4091H107.38Z" fill="white"/>
<path d="M138.114 22.4091H124.531L127.543 5.3584H141.127L140.274 10.1894H131.805L131.493 11.8945H139.393L138.711 15.7878H130.811L130.498 17.5781H138.967L138.114 22.4091Z" fill="white"/>
<path d="M149.184 22.4091L147.053 16.6971H145.433L144.41 22.4091H139.294L142.307 5.3584H149.923C154.328 5.3584 156.516 7.83075 155.834 11.7808C155.379 14.2532 154.129 15.5604 152.196 16.214L155.123 22.3523V22.4091H149.184ZM149.212 9.90525H146.626L146.115 12.7186H148.786C150.065 12.7186 150.662 12.3208 150.804 11.5251C151.003 10.3599 150.434 9.90525 149.212 9.90525Z" fill="white"/>
<path d="M163.984 22.8354C158.045 22.8354 155.118 18.6011 156.141 12.8891C156.993 8.25702 160.716 4.93213 165.661 4.93213C171.486 4.93213 174.555 9.08114 173.532 14.8784C172.737 19.4537 169.128 22.8354 163.984 22.8354ZM164.297 18.2885C166.769 18.2885 168.076 16.6971 168.559 14.0543C169.014 11.6387 168.048 9.5074 165.433 9.5074C162.989 9.5074 161.569 11.3546 161.171 13.4859C160.631 16.4698 161.654 18.2885 164.297 18.2885Z" fill="white"/>
</g>
<defs>
<linearGradient id="paint0_linear_1_6559" x1="-5.24219e-09" y1="14" x2="29.7446" y2="14.4702" gradientUnits="userSpaceOnUse">
<stop stop-color="#53FC18"/>
<stop offset="0.236967" stop-color="#51EE1A"/>
<stop offset="0.49" stop-color="#96FF72"/>
<stop offset="0.584473" stop-color="#96FF72"/>
<stop offset="1" stop-color="#53FC18"/>
</linearGradient>
<clipPath id="clip0_1_6559">
<rect width="135.227" height="17.5" fill="white" transform="translate(38.5 5.25)"/>
</clipPath>
</defs>
</svg>
