<svg width="56" height="56" viewBox="0 0 56 56" fill="none" xmlns="http://www.w3.org/2000/svg">
<rect width="56" height="56" rx="28" fill="url(#paint0_linear_1_20478)"/>
<path d="M34.1476 25.0947C33.6717 23.3185 32.4011 21.8332 30.6154 20.9656C28.8297 20.0979 26.6752 19.919 24.6257 20.4682C22.5763 21.0173 20.7999 22.2495 19.6872 23.8938C18.5746 25.538 18.2169 27.4596 18.6928 29.2358C19.4802 32.1745 19.3273 34.519 18.8301 36.3006C18.2633 38.331 17.9799 39.3463 18.0565 39.5501C18.1441 39.7834 18.2074 39.8474 18.4398 39.9374C18.6428 40.0161 19.4958 39.7875 21.2019 39.3304L37.022 35.0914C38.728 34.6342 39.5811 34.4057 39.7176 34.236C39.8738 34.0419 39.8966 33.9548 39.8559 33.709C39.8202 33.4942 39.0672 32.7567 37.5611 31.2816C36.2397 29.9874 34.9351 28.0334 34.1476 25.0947Z" fill="#52FC18"/>
<path d="M31.6877 36.5207C32.2595 38.6546 30.9932 40.8479 28.8593 41.4197C26.7254 41.9914 24.5321 40.7251 23.9603 38.5912M27.0218 20.1554C27.4274 19.4257 27.561 18.5437 27.3279 17.6736C26.8514 15.8954 25.0236 14.8401 23.2454 15.3166C21.4672 15.793 20.4119 17.6208 20.8883 19.399C21.1215 20.2692 21.6782 20.9662 22.3943 21.3954M34.1476 25.0947C33.6717 23.3185 32.4011 21.8332 30.6154 20.9656C28.8297 20.0979 26.6752 19.919 24.6257 20.4682C22.5763 21.0173 20.7999 22.2495 19.6872 23.8938C18.5746 25.538 18.2169 27.4596 18.6928 29.2358C19.4802 32.1745 19.3273 34.519 18.8301 36.3006C18.2633 38.331 17.9799 39.3463 18.0565 39.5501C18.1441 39.7834 18.2074 39.8474 18.4398 39.9374C18.6428 40.0161 19.4958 39.7875 21.2019 39.3304L37.022 35.0914C38.728 34.6342 39.5811 34.4057 39.7176 34.236C39.8738 34.0419 39.8966 33.9548 39.8559 33.709C39.8202 33.4942 39.0672 32.7567 37.5611 31.2816C36.2397 29.9874 34.9351 28.0334 34.1476 25.0947Z" stroke="#52FC18" stroke-width="2.66667" stroke-linecap="round" stroke-linejoin="round"/>
<defs>
<linearGradient id="paint0_linear_1_20478" x1="28" y1="0" x2="28" y2="56" gradientUnits="userSpaceOnUse">
<stop stop-color="#52FC18" stop-opacity="0.08"/>
<stop offset="1" stop-color="#52FC18" stop-opacity="0"/>
</linearGradient>
</defs>
</svg>
