<svg width="12" height="12" viewBox="0 0 12 12" fill="none" xmlns="http://www.w3.org/2000/svg">
<path d="M5.12152 3.36821C5.5347 3.78139 5.74129 3.98798 5.99805 3.98798C6.25476 3.98798 6.46127 3.78147 6.87432 3.36842L6.87452 3.36822L7.75129 2.49146C7.95509 2.28767 8.05702 2.18574 8.16303 2.12453C8.69621 1.8167 9.13534 2.12222 9.50459 2.49146C9.87383 2.86071 10.1794 3.29985 9.87152 3.83303C9.81032 3.93903 9.70842 4.04093 9.50463 4.24473L8.62794 5.12143C8.21476 5.53461 8.00806 5.74131 8.00806 5.99806C8.00806 6.25482 8.21465 6.46141 8.62784 6.87459L9.50459 7.75138C9.70841 7.95518 9.81031 8.05708 9.87152 8.16308C10.1793 8.69628 9.87386 9.1354 9.50459 9.50464C9.13539 9.87391 8.69617 10.1794 8.16303 9.87157C8.05702 9.8104 7.95511 9.7085 7.75129 9.50464L6.87463 8.62801L6.87431 8.62769C6.46143 8.21481 6.25471 8.00809 5.99805 8.00809C5.74132 8.00809 5.53451 8.2149 5.12142 8.62799L5.12141 8.628L4.24475 9.50463C4.04093 9.70848 3.93903 9.81039 3.83301 9.87156C3.29987 10.1794 2.86066 9.8739 2.49145 9.50463C2.12218 9.13538 1.8167 8.69627 2.12452 8.16307C2.18573 8.05707 2.28764 7.95517 2.49145 7.75137L3.36821 6.87457C3.78139 6.46139 3.98798 6.2548 3.98798 5.99805C3.98798 5.74129 3.78128 5.5346 3.3681 5.12142L2.49141 4.24471C2.28762 4.04092 2.18573 3.93902 2.12452 3.83301C1.81669 3.29984 2.12221 2.8607 2.49145 2.49145C2.8607 2.12221 3.29983 1.81669 3.83301 2.12452C3.93902 2.18573 4.04095 2.28766 4.24475 2.49145L4.24475 2.49145L5.12152 3.36821Z" stroke="#F74418" stroke-linecap="round" stroke-linejoin="round"/>
</svg>
