<svg width="88" height="20" viewBox="0 0 88 20" fill="none" xmlns="http://www.w3.org/2000/svg">
<rect width="88" height="20" rx="4" fill="#F74418" fill-opacity="0.12"/>
<rect x="0.5" y="0.5" width="87" height="19" rx="3.5" stroke="#F74418" stroke-opacity="0.24"/>
<path d="M11.1215 7.36821C11.5347 7.78139 11.7413 7.98798 11.998 7.98798C12.2548 7.98798 12.4613 7.78147 12.8743 7.36842L12.8745 7.36822L13.7513 6.49146C13.9551 6.28767 14.057 6.18574 14.163 6.12453C14.6962 5.8167 15.1353 6.12222 15.5046 6.49146C15.8738 6.86071 16.1794 7.29985 15.8715 7.83303C15.8103 7.93903 15.7084 8.04093 15.5046 8.24473L14.6279 9.12143C14.2148 9.53461 14.0081 9.74131 14.0081 9.99806C14.0081 10.2548 14.2147 10.4614 14.6278 10.8746L15.5046 11.7514C15.7084 11.9552 15.8103 12.0571 15.8715 12.1631C16.1793 12.6963 15.8739 13.1354 15.5046 13.5046C15.1354 13.8739 14.6962 14.1794 14.163 13.8716C14.057 13.8104 13.9551 13.7085 13.7513 13.5046L12.8746 12.628L12.8743 12.6277C12.4614 12.2148 12.2547 12.0081 11.998 12.0081C11.7413 12.0081 11.5345 12.2149 11.1214 12.628L11.1214 12.628L10.2448 13.5046C10.0409 13.7085 9.93903 13.8104 9.83301 13.8716C9.29987 14.1794 8.86066 13.8739 8.49145 13.5046C8.12218 13.1354 7.8167 12.6963 8.12452 12.1631C8.18573 12.0571 8.28764 11.9552 8.49145 11.7514L9.36821 10.8746C9.78139 10.4614 9.98798 10.2548 9.98798 9.99805C9.98798 9.74129 9.78128 9.5346 9.3681 9.12142L8.49141 8.24471C8.28762 8.04092 8.18573 7.93902 8.12452 7.83301C7.81669 7.29984 8.12221 6.8607 8.49145 6.49145C8.8607 6.12221 9.29983 5.81669 9.83301 6.12452C9.93902 6.18573 10.041 6.28766 10.2447 6.49145L10.2448 6.49145L11.1215 7.36821Z" stroke="#F74418" stroke-linecap="round" stroke-linejoin="round"/>
<path d="M26.152 10.404H24.364V12.6H26.236C27.124 12.6 27.532 12.192 27.532 11.496C27.532 10.776 27.244 10.404 26.152 10.404ZM26.08 7.26H24.364V9.516H25.996C26.764 9.516 27.268 9.204 27.268 8.364C27.268 7.584 26.944 7.26 26.08 7.26ZM23.008 13.5V6.3H26.02C27.772 6.3 28.528 6.876 28.528 8.136C28.528 9.156 27.808 9.636 26.692 9.792V10.044C28.204 10.116 28.852 10.464 28.852 11.544C28.852 12.732 28.132 13.5 26.248 13.5H23.008ZM33.0922 7.392H31.7002V9.864H33.1162C34.1602 9.864 34.6762 9.516 34.6762 8.604C34.6762 7.716 34.2802 7.392 33.0922 7.392ZM34.8682 13.5L33.1762 10.956H31.7002V13.5H30.3202V6.3H33.2362C35.1442 6.3 36.0322 7.032 36.0322 8.568C36.0322 9.684 35.4802 10.44 34.4962 10.776L36.3922 13.26V13.5H34.8682ZM37.7148 13.5V6.3H42.9228V7.392H39.0948V9.312H42.5508V10.392H39.0948V12.408H42.8988V13.5H37.7148ZM49.5209 13.5L48.9449 11.616H45.8969L45.3209 13.5H43.9049L46.3769 6.3H48.5129L50.9849 13.5H49.5209ZM46.4729 9.756L46.1849 10.692H48.6569L48.3689 9.756C48.1169 8.976 47.8889 8.088 47.7089 7.332H47.1569C46.9529 8.1 46.7129 8.964 46.4729 9.756ZM54.4114 13.656C52.1914 13.656 51.0874 12.336 51.0874 9.888C51.0874 7.44 52.2994 6.144 54.4714 6.144C56.2714 6.144 57.2674 6.972 57.5194 8.604L56.2354 8.892C55.9954 7.8 55.5034 7.308 54.4354 7.308C52.9594 7.308 52.4434 8.328 52.4434 9.888C52.4434 11.58 52.9714 12.516 54.3994 12.516C55.5874 12.516 56.0314 12.024 56.2954 10.908L57.5914 11.172C57.3274 12.84 56.3194 13.656 54.4114 13.656ZM65.3761 13.5H64.0201V10.512H60.5281V13.5H59.1721V6.3H60.5281V9.348H64.0201V6.3H65.3761V13.5ZM67.3749 13.5V6.3H72.5829V7.392H68.7549V9.312H72.2109V10.392H68.7549V12.408H72.5589V13.5H67.3749ZM77.0838 7.416H75.7038V12.384H77.1558C78.8598 12.384 79.4838 11.508 79.4838 9.84C79.4838 8.016 78.8118 7.416 77.0838 7.416ZM74.3478 13.5V6.3H77.2638C79.7478 6.3 80.8398 7.44 80.8398 9.84C80.8398 12.24 79.4478 13.5 77.2398 13.5H74.3478Z" fill="#F74418"/>
</svg>
