<svg width="16" height="16" viewBox="0 0 16 16" fill="none" xmlns="http://www.w3.org/2000/svg">
<g clip-path="url(#clip0_1_25783)">
<path d="M11.999 1.33398V2.66732M3.99902 1.33398V2.66732" stroke="white" stroke-width="1.5" stroke-linecap="round" stroke-linejoin="round"/>
<path d="M6.66569 11.3337L6.66568 8.89847C6.66568 8.77063 6.57453 8.66699 6.46208 8.66699H5.99902M9.08546 11.3337L9.98847 8.89977C10.0307 8.78596 9.94092 8.66699 9.81281 8.66699H8.66569" stroke="white" stroke-width="1.5" stroke-linecap="round"/>
<path d="M1.66602 8.16314C1.66602 5.25827 1.66602 3.80583 2.50076 2.9034C3.33551 2.00098 4.67901 2.00098 7.36602 2.00098H8.63268C11.3197 2.00098 12.6632 2.00098 13.4979 2.9034C14.3327 3.80583 14.3327 5.25827 14.3327 8.16314V8.50548C14.3327 11.4104 14.3327 12.8628 13.4979 13.7652C12.6632 14.6676 11.3197 14.6676 8.63268 14.6676H7.36602C4.67901 14.6676 3.33551 14.6676 2.50076 13.7652C1.66602 12.8628 1.66602 11.4104 1.66602 8.50548V8.16314Z" stroke="white" stroke-width="1.5" stroke-linecap="round" stroke-linejoin="round"/>
<path d="M3.99902 5.33398H11.999" stroke="white" stroke-width="1.5" stroke-linecap="round" stroke-linejoin="round"/>
</g>
<defs>
<clipPath id="clip0_1_25783">
<rect width="16" height="16" fill="white"/>
</clipPath>
</defs>
</svg>
