<svg width="17" height="16" viewBox="0 0 17 16" fill="none" xmlns="http://www.w3.org/2000/svg">
<path d="M8.16667 14.6668C5.49537 14.6668 4.15973 14.6668 3.32986 13.6905C2.5 12.7142 2.5 11.1429 2.5 8.00016C2.5 4.85747 2.5 3.28612 3.32986 2.30981C4.15973 1.3335 5.49537 1.3335 8.16667 1.3335C10.838 1.3335 12.1736 1.3335 13.0035 2.30981C13.6715 3.09571 13.8018 4.26719 13.8272 6.3335" stroke="white" stroke-linecap="round" stroke-linejoin="round"/>
<path d="M5.83334 5.3335H10.5M5.83334 8.66683H7.83334" stroke="white" stroke-width="1.5" stroke-linecap="round" stroke-linejoin="round"/>
<path d="M13.5728 12.0707C14.1348 11.6617 14.5 10.9987 14.5 10.2505C14.5 9.00785 13.4927 8.00049 12.25 8.00049H12.0833C10.8407 8.00049 9.83334 9.00785 9.83334 10.2505C9.83334 10.9987 10.1986 11.6617 10.7605 12.0707M13.5728 12.0707C13.2016 12.341 12.7444 12.5005 12.25 12.5005H12.0833C11.5889 12.5005 11.1318 12.341 10.7605 12.0707M13.5728 12.0707L13.9614 13.2941C14.1096 13.7607 14.1837 13.994 14.1634 14.1393C14.1212 14.4416 13.8746 14.6661 13.5835 14.6672C13.4436 14.6677 13.234 14.5577 12.8149 14.3377C12.6351 14.2434 12.5453 14.1962 12.4533 14.1685C12.266 14.112 12.0673 14.112 11.88 14.1685C11.7881 14.1962 11.6982 14.2434 11.5185 14.3377C11.0993 14.5577 10.8898 14.6677 10.7499 14.6672C10.4587 14.6661 10.2121 14.4416 10.17 14.1393C10.1497 13.994 10.2238 13.7607 10.372 13.2941L10.7605 12.0707" stroke="white"/>
</svg>
