<svg width="94" height="20" viewBox="0 0 94 20" fill="none" xmlns="http://www.w3.org/2000/svg">
<rect width="94" height="20" rx="4" fill="#C02FF5" fill-opacity="0.12"/>
<rect x="0.5" y="0.5" width="93" height="19" rx="3.5" stroke="#C02FF5" stroke-opacity="0.24"/>
<g clip-path="url(#clip0_1_4237)">
<path d="M12 10V13" stroke="#C02FF5" stroke-linecap="round"/>
<path d="M12 13C11.1632 13 10.4349 13.506 10.0588 14.2525C9.87923 14.609 10.1369 15 10.4794 15H13.5206C13.8631 15 14.1208 14.609 13.9412 14.2525C13.5651 13.506 12.8368 13 12 13Z" stroke="#C02FF5" stroke-linecap="round"/>
<path d="M8.5 6.5H7.99235C7.49909 6.5 7.25246 6.5 7.10008 6.68526C6.94771 6.87053 6.99239 7.07799 7.08176 7.4929C7.25247 8.28543 7.62274 8.9817 8.12445 9.5" stroke="#C02FF5" stroke-linecap="round"/>
<path d="M15.5 6.5H16.0076C16.5009 6.5 16.7475 6.5 16.8999 6.68526C17.0523 6.87053 17.0076 7.07799 16.9182 7.4929C16.7475 8.28543 16.3773 8.9817 15.8756 9.5" stroke="#C02FF5" stroke-linecap="round"/>
<path d="M12 10C13.933 10 15.5 8.44155 15.5 6.51911C15.5 6.4687 15.4989 6.41853 15.4968 6.36865C15.4754 5.86903 15.4647 5.61922 15.1261 5.30961C14.7875 5 14.4124 5 13.662 5H10.338C9.58763 5 9.21246 5 8.87386 5.30961C8.53526 5.61922 8.52458 5.86903 8.50321 6.36865C8.50108 6.41853 8.5 6.4687 8.5 6.51911C8.5 8.44155 10.067 10 12 10Z" stroke="#C02FF5" stroke-linecap="round"/>
</g>
<path d="M25.888 13.656C23.668 13.656 22.564 12.336 22.564 9.888C22.564 7.44 23.776 6.144 25.948 6.144C27.748 6.144 28.744 6.972 28.996 8.604L27.712 8.892C27.472 7.8 26.98 7.308 25.912 7.308C24.436 7.308 23.92 8.328 23.92 9.888C23.92 11.58 24.448 12.516 25.876 12.516C27.064 12.516 27.508 12.024 27.772 10.908L29.068 11.172C28.804 12.84 27.796 13.656 25.888 13.656ZM36.8526 13.5H35.4966V10.512H32.0046V13.5H30.6486V6.3H32.0046V9.348H35.4966V6.3H36.8526V13.5ZM43.5795 13.5L43.0035 11.616H39.9555L39.3795 13.5H37.9635L40.4355 6.3H42.5715L45.0435 13.5H43.5795ZM40.5315 9.756L40.2435 10.692H42.7155L42.4275 9.756C42.1755 8.976 41.9475 8.088 41.7675 7.332H41.2155C41.0115 8.1 40.7715 8.964 40.5315 9.756ZM47.5203 6.3V12.348H50.7723V13.5H46.1643V6.3H47.5203ZM53.532 6.3V12.348H56.784V13.5H52.176V6.3H53.532ZM58.1757 13.5V6.3H63.3837V7.392H59.5557V9.312H63.0117V10.392H59.5557V12.408H63.3597V13.5H58.1757ZM69.5646 13.5L67.7526 10.224C67.3446 9.456 66.9246 8.34 66.6126 7.404L66.1686 7.452C66.2886 8.628 66.3846 10.548 66.3846 11.724V13.5H65.1366V6.3H67.0446L68.6526 9.12C69.2166 10.116 69.7206 11.472 69.9846 12.312L70.4166 12.276C70.2846 11.136 70.1766 9.324 70.1766 8.136V6.3H71.4006V13.5H69.5646ZM75.7861 13.62C74.2261 13.62 72.9181 12.696 72.9181 9.996C72.9181 7.524 74.0581 6.156 76.3501 6.156C78.2341 6.156 79.1461 6.888 79.4581 8.436L78.1741 8.724C77.9101 7.764 77.4541 7.308 76.3741 7.308C74.8141 7.308 74.2861 8.256 74.2861 9.996C74.2861 11.676 74.8861 12.528 76.3381 12.528C77.8741 12.528 78.2821 11.676 78.3181 10.776H76.4221V9.756H79.6021V13.5H78.3781V11.952H78.1621C77.7781 12.888 77.0821 13.62 75.7861 13.62ZM81.3671 13.5V6.3H86.5751V7.392H82.7471V9.312H86.2031V10.392H82.7471V12.408H86.5511V13.5H81.3671Z" fill="#C02FF5"/>
<defs>
<clipPath id="clip0_1_4237">
<rect width="12" height="12" fill="white" transform="translate(6 4)"/>
</clipPath>
</defs>
</svg>
