<svg width="14" height="14" viewBox="0 0 14 14" fill="none" xmlns="http://www.w3.org/2000/svg">
<path d="M4.90497 7.3374C3.246 6.09708 2.06376 4.73277 1.41822 3.96578C1.2184 3.72835 1.15292 3.5546 1.11355 3.24854C0.978743 2.20054 0.911339 1.67654 1.21864 1.33827C1.52593 1 2.06936 1 3.15622 1H10.8438C11.9306 1 12.4741 1 12.7814 1.33827C13.0887 1.67654 13.0213 2.20054 12.8864 3.24854C12.8471 3.55461 12.7816 3.72836 12.5818 3.96578C11.9353 4.73375 10.7507 6.10047 9.08838 7.34236C8.93799 7.45472 8.83885 7.63782 8.82047 7.84093C8.65579 9.66132 8.50393 10.6584 8.40941 11.1628C8.25684 11.9771 7.10211 12.4671 6.48401 12.9042C6.11604 13.1644 5.66953 12.8546 5.62185 12.4519C5.53095 11.6841 5.35974 10.1242 5.17285 7.84093C5.15606 7.63596 5.05657 7.45072 4.90497 7.3374Z" stroke="white" stroke-width="1.5" stroke-linecap="round" stroke-linejoin="round"/>
</svg>
