<svg width="16" height="16" viewBox="0 0 16 16" fill="none" xmlns="http://www.w3.org/2000/svg">
<path d="M14.1996 4.03442C14.0981 3.48451 13.8266 2.97066 13.424 2.56656C13.0198 2.16411 12.5058 1.89268 11.9557 1.7912C9.15782 1.32528 6.21823 2.17376 4.19849 4.19019C2.17918 6.20617 1.32619 9.14354 1.78888 11.9413C1.89038 12.4912 2.16189 13.0051 2.56446 13.4092C2.96869 13.8116 3.4827 14.0831 4.03278 14.1845C6.81337 14.7157 9.79895 13.8016 11.7937 11.7861C13.8322 9.78179 14.6853 6.83297 14.1996 4.03442Z" stroke="white" stroke-width="1.5"/>
<path d="M2.66602 13.3332L13.3327 2.6665" stroke="white" stroke-width="1.5" stroke-linecap="round" stroke-linejoin="round"/>
<path d="M5.99902 7.99976L7.99902 9.99976M7.99902 5.99976L9.99902 7.99976" stroke="white" stroke-width="1.5" stroke-linecap="round" stroke-linejoin="round"/>
</svg>
