<svg width="31" height="31" viewBox="0 0 31 31" fill="none" xmlns="http://www.w3.org/2000/svg">
<g filter="url(#filter0_ddi_1_15435)">
<path opacity="0.4" d="M14.7367 2.39651C15.2272 2.20116 15.7728 2.20116 16.2633 2.39651C16.572 2.51947 16.8098 2.72566 17.0171 2.94349C17.2156 3.15216 17.4555 3.4509 17.7112 3.76948C17.889 3.9948 18.417 4.40133 19.1066 4.22484C19.495 4.1197 19.8588 4.02119 20.1373 3.96993C20.4274 3.91656 20.7363 3.88902 21.0533 3.96797C21.5854 4.10049 22.0418 4.43892 22.3265 4.90651C22.4948 5.18282 22.5634 5.48235 22.6023 5.77511C22.6397 6.05584 22.6589 6.43127 22.6795 6.83329L22.6795 6.83345C22.6929 7.12396 22.8845 7.77108 23.543 8.03554C23.9145 8.17872 24.2624 8.31281 24.5151 8.43473C24.7788 8.56188 25.0409 8.7198 25.2497 8.9657C25.6123 9.39279 25.7889 9.94766 25.7428 10.5055C25.7164 10.825 25.5978 11.1052 25.4592 11.3632C25.3265 11.6103 25.1245 11.9228 24.9085 12.257L24.9084 12.2571C24.7248 12.5365 24.4678 13.2247 24.9084 13.7429L24.9085 13.7429C25.1245 14.0772 25.3265 14.3897 25.4592 14.6368C25.5978 14.8948 25.7164 15.175 25.7428 15.4945C25.7889 16.0523 25.6123 16.6072 25.2497 17.0343C25.0409 17.2802 24.7788 17.4381 24.5151 17.5653C24.2624 17.6872 23.9419 17.8107 23.5705 17.9539C23.2448 18.0053 22.6106 18.3199 22.6795 19.1665L22.6795 19.1667C22.6589 19.5687 22.6397 19.9442 22.6023 20.2249C22.5634 20.5176 22.4948 20.8172 22.3265 21.0935C22.0418 21.5611 21.5854 21.8995 21.0533 22.032C20.7363 22.111 20.4274 22.0834 20.1373 22.0301C19.8588 21.9788 19.5238 21.8881 19.1355 21.783L19.1354 21.7829C18.8486 21.6726 18.1584 21.6125 17.6922 22.2543C17.4364 22.5728 17.2156 22.8478 17.0171 23.0565C16.8098 23.2743 16.572 23.4805 16.2633 23.6035C15.7728 23.7988 15.2272 23.7988 14.7367 23.6035C14.4281 23.4805 14.1902 23.2743 13.9829 23.0565C13.7844 22.8478 13.5445 22.5491 13.2888 22.2305C12.8204 21.6644 12.1634 21.6911 11.8934 21.7752L11.8934 21.7752C11.505 21.8803 11.1412 21.9788 10.8627 22.0301C10.5726 22.0834 10.2637 22.111 9.94667 22.032C9.41456 21.8995 8.95819 21.5611 8.67347 21.0935C8.50521 20.8172 8.43661 20.5177 8.39766 20.2249C8.36031 19.9441 8.3411 19.5686 8.32052 19.1665C8.26944 18.4082 7.72357 18.0492 7.45701 17.9645C7.08555 17.8213 6.73764 17.6872 6.48486 17.5653C6.22123 17.4381 5.95907 17.2802 5.7503 17.0343C5.38771 16.6072 5.21109 16.0523 5.2572 15.4945C5.28361 15.175 5.40216 14.8948 5.54077 14.6368C5.67355 14.3897 5.87552 14.0772 6.09157 13.7429C6.50356 13.0799 6.26323 12.4761 6.09157 12.2571L6.09155 12.2571C5.87551 11.9228 5.67355 11.6103 5.54077 11.3632C5.40216 11.1052 5.28361 10.825 5.2572 10.5055C5.21109 9.94766 5.38771 9.39279 5.7503 8.9657C5.95907 8.7198 6.22123 8.56188 6.48486 8.43473C6.73764 8.31281 7.08553 8.17872 7.45699 8.03555L7.45701 8.03554C8.23473 7.80442 8.35674 7.13785 8.32052 6.83345C8.3411 6.43137 8.36031 6.05588 8.39766 5.77511C8.43661 5.48235 8.50521 5.18282 8.67347 4.90651C8.95819 4.43892 9.41456 4.10049 9.94667 3.96797C10.2637 3.88902 10.5726 3.91656 10.8627 3.96993C11.1412 4.02119 11.5051 4.1197 11.8934 4.22484C12.6574 4.41705 13.142 4.00135 13.2888 3.76948C13.5445 3.45089 13.7844 3.15217 13.9829 2.94349C14.1902 2.72566 14.428 2.51947 14.7367 2.39651Z" fill="#52FC18"/>
<path d="M20.4475 10.6807C20.6241 11.204 20.3429 11.7713 19.8196 11.9478C19.3696 12.0996 18.843 12.4291 18.2784 12.9006C17.7234 13.3641 17.182 13.9223 16.7008 14.4717C16.2214 15.0189 15.4214 16.0465 15.0819 16.5552C14.8861 16.8486 14.5499 17.0174 14.1976 16.9989C13.8452 16.9804 13.5286 16.7776 13.3646 16.4651C12.9913 15.754 12.625 15.3828 12.4003 15.3287C11.8948 15.2786 11.5 14.8522 11.5 14.3336C11.5 13.7813 11.9477 13.3336 12.5 13.3336C12.9219 13.3336 13.3325 13.5387 13.5829 13.6977C13.8061 13.8395 14.0377 14.0287 14.2701 14.2786C14.5323 13.9408 14.8459 13.5539 15.1963 13.1539C15.7188 12.5574 16.3354 11.9177 16.9964 11.3656C17.6478 10.8215 18.3951 10.3176 19.1804 10.0527C19.7037 9.87621 20.271 10.1573 20.4475 10.6807Z" fill="#52FC18"/>
</g>
<defs>
<filter id="filter0_ddi_1_15435" x="0.75" y="0" width="29.5" height="30.5" filterUnits="userSpaceOnUse" color-interpolation-filters="sRGB">
<feFlood flood-opacity="0" result="BackgroundImageFix"/>
<feColorMatrix in="SourceAlpha" type="matrix" values="0 0 0 0 0 0 0 0 0 0 0 0 0 0 0 0 0 0 127 0" result="hardAlpha"/>
<feOffset dy="0.75"/>
<feGaussianBlur stdDeviation="0.75"/>
<feComposite in2="hardAlpha" operator="out"/>
<feColorMatrix type="matrix" values="0 0 0 0 0 0 0 0 0 0 0 0 0 0 0 0 0 0 0.5 0"/>
<feBlend mode="normal" in2="BackgroundImageFix" result="effect1_dropShadow_1_15435"/>
<feColorMatrix in="SourceAlpha" type="matrix" values="0 0 0 0 0 0 0 0 0 0 0 0 0 0 0 0 0 0 127 0" result="hardAlpha"/>
<feOffset dy="2.25"/>
<feGaussianBlur stdDeviation="2.25"/>
<feComposite in2="hardAlpha" operator="out"/>
<feColorMatrix type="matrix" values="0 0 0 0 0.321569 0 0 0 0 0.988235 0 0 0 0 0.0941176 0 0 0 0.25 0"/>
<feBlend mode="normal" in2="effect1_dropShadow_1_15435" result="effect2_dropShadow_1_15435"/>
<feBlend mode="normal" in="SourceGraphic" in2="effect2_dropShadow_1_15435" result="shape"/>
<feColorMatrix in="SourceAlpha" type="matrix" values="0 0 0 0 0 0 0 0 0 0 0 0 0 0 0 0 0 0 127 0" result="hardAlpha"/>
<feOffset dy="0.75"/>
<feGaussianBlur stdDeviation="1.5"/>
<feComposite in2="hardAlpha" operator="arithmetic" k2="-1" k3="1"/>
<feColorMatrix type="matrix" values="0 0 0 0 0.705882 0 0 0 0 1 0 0 0 0 0.572549 0 0 0 1 0"/>
<feBlend mode="normal" in2="shape" result="effect3_innerShadow_1_15435"/>
</filter>
</defs>
</svg>
