<svg width="74" height="20" viewBox="0 0 74 20" fill="none" xmlns="http://www.w3.org/2000/svg">
<rect width="74" height="20" rx="4" fill="#53FC18" fill-opacity="0.12"/>
<rect x="0.5" y="0.5" width="73" height="19" rx="3.5" stroke="#53FC18" stroke-opacity="0.24"/>
<g clip-path="url(#clip0_1_4250)">
<path d="M17 10C17 7.23858 14.7614 5 12 5C9.23858 5 7 7.23858 7 10C7 12.7614 9.23858 15 12 15C14.7614 15 17 12.7614 17 10Z" stroke="#52FC18"/>
<path d="M10 10.25L11.25 11.5L14 8.5" stroke="#52FC18" stroke-linecap="round" stroke-linejoin="round"/>
</g>
<path d="M27.616 11.004H24.364V13.5H23.008V6.3H27.964V7.512H24.364V9.924H27.616V11.004ZM32.5024 12.516C33.7624 12.516 34.1584 11.928 34.1584 10.776V6.3H35.5144V10.788C35.5144 12.696 34.4464 13.644 32.5024 13.644C30.5344 13.644 29.4064 12.72 29.4064 10.788V6.3H30.7624V10.74C30.7624 11.832 31.1344 12.516 32.5024 12.516ZM41.9318 13.5L40.1198 10.224C39.7118 9.456 39.2918 8.34 38.9798 7.404L38.5358 7.452C38.6558 8.628 38.7518 10.548 38.7518 11.724V13.5H37.5038V6.3H39.4118L41.0198 9.12C41.5838 10.116 42.0878 11.472 42.3518 12.312L42.7838 12.276C42.6518 11.136 42.5438 9.324 42.5438 8.136V6.3H43.7678V13.5H41.9318ZM48.5253 7.416H47.1453V12.384H48.5973C50.3013 12.384 50.9253 11.508 50.9253 9.84C50.9253 8.016 50.2533 7.416 48.5253 7.416ZM45.7893 13.5V6.3H48.7053C51.1893 6.3 52.2812 7.44 52.2812 9.84C52.2812 12.24 50.8893 13.5 48.6813 13.5H45.7893ZM53.8163 13.5V6.3H59.0243V7.392H55.1963V9.312H58.6523V10.392H55.1963V12.408H59.0003V13.5H53.8163ZM63.5253 7.416H62.1453V12.384H63.5973C65.3013 12.384 65.9253 11.508 65.9253 9.84C65.9253 8.016 65.2533 7.416 63.5253 7.416ZM60.7893 13.5V6.3H63.7053C66.1893 6.3 67.2812 7.44 67.2812 9.84C67.2812 12.24 65.8893 13.5 63.6813 13.5H60.7893Z" fill="#53FC18"/>
<defs>
<clipPath id="clip0_1_4250">
<rect width="12" height="12" fill="white" transform="translate(6 4)"/>
</clipPath>
</defs>
</svg>
