<svg width="16" height="16" viewBox="0 0 16 16" fill="none" xmlns="http://www.w3.org/2000/svg">
<path d="M7.90757 12.8159L13.8987 2.48076C14.1126 2.1118 13.977 1.64771 13.5937 1.43699C13.2173 1.23005 12.7365 1.34189 12.5027 1.69077L5.74152 11.7792C5.49035 12.154 4.97389 12.2741 4.56955 12.0518C4.03332 11.757 4.11355 11.2316 4.29721 10.7648C4.47258 10.3191 4.28382 9.81793 3.85093 9.57993C3.27646 9.26411 2.68686 9.55242 2.38074 10.0573C1.50156 11.5073 2.23559 13.5698 3.65577 14.3506C5.16727 15.1815 7.06413 14.2709 7.90757 12.8159Z" stroke="#848BAC" stroke-width="1.5" stroke-linecap="round" stroke-linejoin="round"/>
<circle cx="12.3337" cy="12.9999" r="1.66667" stroke="#848BAC" stroke-width="1.5" stroke-linejoin="round"/>
<path d="M10.667 4.66675L12.0003 5.66675" stroke="#848BAC" stroke-width="1.5" stroke-linecap="round" stroke-linejoin="round"/>
</svg>
