<svg width="16" height="16" viewBox="0 0 16 16" fill="none" xmlns="http://www.w3.org/2000/svg">
<path d="M1.3335 12.0007C1.3335 10.9737 1.3335 10.4602 1.56465 10.083C1.69399 9.87194 1.87145 9.69448 2.08252 9.56514C2.45972 9.33398 2.9732 9.33398 4.00016 9.33398C5.02712 9.33398 5.5406 9.33398 5.91781 9.56514C6.12888 9.69448 6.30633 9.87194 6.43568 10.083C6.66683 10.4602 6.66683 10.9737 6.66683 12.0007C6.66683 13.0276 6.66683 13.5411 6.43568 13.9183C6.30633 14.1294 6.12888 14.3068 5.91781 14.4362C5.5406 14.6673 5.02712 14.6673 4.00016 14.6673C2.9732 14.6673 2.45972 14.6673 2.08252 14.4362C1.87145 14.3068 1.69399 14.1294 1.56465 13.9183C1.3335 13.5411 1.3335 13.0276 1.3335 12.0007Z" stroke="#848BAC" stroke-width="1.5"/>
<path d="M9.3335 12.0007C9.3335 10.9737 9.3335 10.4602 9.56465 10.083C9.69399 9.87194 9.87145 9.69448 10.0825 9.56514C10.4597 9.33398 10.9732 9.33398 12.0002 9.33398C13.0271 9.33398 13.5406 9.33398 13.9178 9.56514C14.1289 9.69448 14.3063 9.87194 14.4357 10.083C14.6668 10.4602 14.6668 10.9737 14.6668 12.0007C14.6668 13.0276 14.6668 13.5411 14.4357 13.9183C14.3063 14.1294 14.1289 14.3068 13.9178 14.4362C13.5406 14.6673 13.0271 14.6673 12.0002 14.6673C10.9732 14.6673 10.4597 14.6673 10.0825 14.4362C9.87145 14.3068 9.69399 14.1294 9.56465 13.9183C9.3335 13.5411 9.3335 13.0276 9.3335 12.0007Z" stroke="#848BAC" stroke-width="1.5"/>
<path d="M1.3335 4.00065C1.3335 2.97369 1.3335 2.46021 1.56465 2.08301C1.69399 1.87194 1.87145 1.69448 2.08252 1.56514C2.45972 1.33398 2.9732 1.33398 4.00016 1.33398C5.02712 1.33398 5.5406 1.33398 5.91781 1.56514C6.12888 1.69448 6.30633 1.87194 6.43568 2.08301C6.66683 2.46021 6.66683 2.97369 6.66683 4.00065C6.66683 5.02761 6.66683 5.54109 6.43568 5.9183C6.30633 6.12936 6.12888 6.30682 5.91781 6.43617C5.5406 6.66732 5.02712 6.66732 4.00016 6.66732C2.9732 6.66732 2.45972 6.66732 2.08252 6.43617C1.87145 6.30682 1.69399 6.12936 1.56465 5.9183C1.3335 5.54109 1.3335 5.02761 1.3335 4.00065Z" stroke="#848BAC" stroke-width="1.5"/>
<path d="M9.3335 4.00065C9.3335 2.97369 9.3335 2.46021 9.56465 2.08301C9.69399 1.87194 9.87145 1.69448 10.0825 1.56514C10.4597 1.33398 10.9732 1.33398 12.0002 1.33398C13.0271 1.33398 13.5406 1.33398 13.9178 1.56514C14.1289 1.69448 14.3063 1.87194 14.4357 2.08301C14.6668 2.46021 14.6668 2.97369 14.6668 4.00065C14.6668 5.02761 14.6668 5.54109 14.4357 5.9183C14.3063 6.12936 14.1289 6.30682 13.9178 6.43617C13.5406 6.66732 13.0271 6.66732 12.0002 6.66732C10.9732 6.66732 10.4597 6.66732 10.0825 6.43617C9.87145 6.30682 9.69399 6.12936 9.56465 5.9183C9.3335 5.54109 9.3335 5.02761 9.3335 4.00065Z" stroke="#848BAC" stroke-width="1.5"/>
</svg>
