<svg width="20" height="20" viewBox="0 0 20 20" fill="none" xmlns="http://www.w3.org/2000/svg">
<path d="M4.43475 8.06909C6.44614 4.50997 7.45184 2.73041 8.83187 2.27232C9.59108 2.02031 10.4089 2.02031 11.1681 2.27232C12.5481 2.73041 13.5538 4.50997 15.5652 8.06909C17.5766 11.6282 18.5823 13.4078 18.2806 14.8578C18.1147 15.6555 17.7058 16.379 17.1125 16.9247C16.0342 17.9166 14.0228 17.9166 9.99999 17.9166C5.9772 17.9166 3.9658 17.9166 2.88746 16.9247C2.29422 16.379 1.88531 15.6555 1.71934 14.8578C1.41765 13.4078 2.42335 11.6282 4.43475 8.06909Z" stroke="white" stroke-width="2"/>
<path d="M9.99334 13.3333H10.0008" stroke="white" stroke-width="2" stroke-linecap="round" stroke-linejoin="round"/>
<path d="M10 10.8333L10 7.49998" stroke="white" stroke-width="2" stroke-linecap="round" stroke-linejoin="round"/>
</svg>
