<svg width="29" height="31" viewBox="0 0 29 31" fill="none" xmlns="http://www.w3.org/2000/svg">
<g filter="url(#filter0_ddi_1_15449)">
<g opacity="0.4">
<path d="M19.3355 9.11274C21.7507 11.4506 23.3804 14.5816 23.9339 17.8954C24.2172 19.5918 23.5624 21.0804 22.4372 22.12C21.3233 23.1493 19.7439 23.75 18.0967 23.75H10.9028C9.25561 23.75 7.67625 23.1493 6.5623 22.12C5.43708 21.0804 4.78233 19.5918 5.06564 17.8954C5.73574 13.883 7.81986 10.8974 9.63799 9.13796C9.73045 9.04847 9.82296 8.96078 9.92712 8.88473C10.1522 8.72042 10.5545 8.5576 10.8305 8.51914C10.9678 8.5 11.0666 8.5 11.2641 8.5H17.7354C17.9329 8.5 18.0317 8.5 18.1691 8.51914C18.445 8.5576 18.8473 8.72042 19.0724 8.88473C19.1844 8.9665 19.2348 9.01526 19.3355 9.11274Z" fill="#52FC18"/>
</g>
<path fill-rule="evenodd" clip-rule="evenodd" d="M14.4128 12.0547C14.827 12.0547 15.1628 12.3905 15.1628 12.8047V12.9185C15.7753 13.0619 16.3227 13.3813 16.6796 13.8508C16.9302 14.1806 16.8661 14.6511 16.5364 14.9018C16.2066 15.1524 15.7361 15.0883 15.4854 14.7585C15.3285 14.5521 14.9476 14.3326 14.4128 14.3326C14.0283 14.3326 13.7099 14.4486 13.5054 14.5995C13.3006 14.7506 13.2498 14.8987 13.2498 14.9941C13.2498 15.1921 13.2998 15.2332 13.3536 15.2694C13.4708 15.3484 13.7655 15.454 14.4128 15.454C15.1508 15.454 15.8536 15.5551 16.3877 15.9035C16.9894 16.2959 17.2498 16.9119 17.2498 17.6155C17.2498 18.4018 16.8615 18.9899 16.2747 19.3423C15.9421 19.5421 15.5586 19.6605 15.1628 19.7221V19.8047C15.1628 20.2189 14.827 20.5547 14.4128 20.5547C13.9986 20.5547 13.6628 20.2189 13.6628 19.8047V19.7026C13.1188 19.5922 12.6229 19.3614 12.2466 19.0246C11.938 18.7484 11.9117 18.2743 12.1879 17.9656C12.4642 17.657 12.9383 17.6307 13.247 17.9069C13.4649 18.1019 13.8794 18.2771 14.4128 18.2771C14.9209 18.2771 15.2882 18.185 15.5023 18.0565C15.6709 17.9552 15.7498 17.8375 15.7498 17.6155C15.7498 17.3109 15.6623 17.2212 15.5683 17.1599C15.4068 17.0546 15.0661 16.954 14.4128 16.954C13.6688 16.954 13.007 16.8445 12.5155 16.5134C11.9606 16.1396 11.7498 15.5757 11.7498 14.9941C11.7498 14.31 12.1272 13.7523 12.6148 13.3925C12.916 13.1703 13.2744 13.0091 13.6628 12.9182V12.8047C13.6628 12.3905 13.9986 12.0547 14.4128 12.0547Z" fill="#52FC18"/>
<path d="M13.1412 2.90644C13.3875 2.65936 13.8525 2.25 14.4998 2.25C15.147 2.25 15.612 2.65936 15.8583 2.90644C16.1568 3.20598 16.3946 3.65371 16.7735 3.85411C17.0867 4.01979 17.4906 3.85885 17.8032 3.77744C18.1011 3.69989 18.5552 3.58244 19.0364 3.64649C19.2455 3.67432 19.5199 3.74083 19.7325 3.9301C19.9842 4.15425 20.0248 4.43315 19.988 4.64394C19.9432 4.90039 19.7844 5.11086 19.6285 5.31102L18.7362 6.4599C18.5062 6.75681 18.2785 7.06194 17.9729 7.28636C17.7465 7.4526 17.4601 7.5 17.1792 7.5H11.8203C11.5394 7.5 11.253 7.4526 11.0266 7.28636C10.721 7.06194 10.4933 6.75681 10.2634 6.4599L9.37103 5.31102C9.2151 5.11086 9.05627 4.9004 9.01148 4.64394C8.97467 4.43315 9.0153 4.15425 9.26705 3.9301C9.47962 3.74083 9.75399 3.67432 9.96309 3.64649C10.4443 3.58244 10.8984 3.69989 11.1963 3.77744C11.5089 3.85885 11.9128 4.01979 12.226 3.85411C12.6049 3.65371 12.8427 3.20598 13.1412 2.90644Z" fill="#52FC18"/>
</g>
<defs>
<filter id="filter0_ddi_1_15449" x="0.499756" y="0" width="28" height="30.5" filterUnits="userSpaceOnUse" color-interpolation-filters="sRGB">
<feFlood flood-opacity="0" result="BackgroundImageFix"/>
<feColorMatrix in="SourceAlpha" type="matrix" values="0 0 0 0 0 0 0 0 0 0 0 0 0 0 0 0 0 0 127 0" result="hardAlpha"/>
<feOffset dy="0.75"/>
<feGaussianBlur stdDeviation="0.75"/>
<feComposite in2="hardAlpha" operator="out"/>
<feColorMatrix type="matrix" values="0 0 0 0 0 0 0 0 0 0 0 0 0 0 0 0 0 0 0.5 0"/>
<feBlend mode="normal" in2="BackgroundImageFix" result="effect1_dropShadow_1_15449"/>
<feColorMatrix in="SourceAlpha" type="matrix" values="0 0 0 0 0 0 0 0 0 0 0 0 0 0 0 0 0 0 127 0" result="hardAlpha"/>
<feOffset dy="2.25"/>
<feGaussianBlur stdDeviation="2.25"/>
<feComposite in2="hardAlpha" operator="out"/>
<feColorMatrix type="matrix" values="0 0 0 0 0.321569 0 0 0 0 0.988235 0 0 0 0 0.0941176 0 0 0 0.25 0"/>
<feBlend mode="normal" in2="effect1_dropShadow_1_15449" result="effect2_dropShadow_1_15449"/>
<feBlend mode="normal" in="SourceGraphic" in2="effect2_dropShadow_1_15449" result="shape"/>
<feColorMatrix in="SourceAlpha" type="matrix" values="0 0 0 0 0 0 0 0 0 0 0 0 0 0 0 0 0 0 127 0" result="hardAlpha"/>
<feOffset dy="0.75"/>
<feGaussianBlur stdDeviation="1.5"/>
<feComposite in2="hardAlpha" operator="arithmetic" k2="-1" k3="1"/>
<feColorMatrix type="matrix" values="0 0 0 0 0.705882 0 0 0 0 1 0 0 0 0 0.572549 0 0 0 1 0"/>
<feBlend mode="normal" in2="shape" result="effect3_innerShadow_1_15449"/>
</filter>
</defs>
</svg>
