<svg width="16" height="16" viewBox="0 0 16 16" fill="none" xmlns="http://www.w3.org/2000/svg">
<path d="M3.98545 7.50705C3.92744 9.32204 6.06617 11.5592 8.07146 12.2624M3.98545 7.50705C3.78242 7.85553 1.70855 9.51806 1.67229 10.2223C1.49658 11.6208 3.87262 14.2482 5.70463 14.3379C6.38878 14.4349 7.33773 13.2836 8.29965 12.4283C8.82949 11.9572 9.59303 11.8482 12.6493 11.0898C13.7584 10.897 15.0908 8.98395 13.1155 7.36236M3.98545 7.50705C4.60427 6.0396 5.67406 3.20273 7.77207 2.08246C8.6241 1.59837 10.837 1.15265 13.0054 3.21412C13.7514 3.84152 15.0445 5.21583 13.841 6.79927C13.0385 7.73444 11.8251 7.46371 11.7072 9.08113" stroke="#848BAC" stroke-width="1.5" stroke-linecap="round" stroke-linejoin="round"/>
</svg>
