<svg width="40" height="40" viewBox="0 0 40 40" fill="none" xmlns="http://www.w3.org/2000/svg">
<rect width="40" height="40" rx="10" fill="#52FC18" fill-opacity="0.11"/>
<rect x="0.5" y="0.5" width="39" height="39" rx="9.5" stroke="#52FC18" stroke-opacity="0.24"/>
<path d="M28.9427 24.8354C28.2864 20.8866 26.2432 17.9461 24.467 16.219C23.9501 15.7164 23.6917 15.4651 23.1208 15.2326C22.5499 15 22.0592 15 21.0778 15H18.9222C17.9408 15 17.4501 15 16.8792 15.2326C16.3083 15.4651 16.0499 15.7164 15.533 16.219C13.7568 17.9461 11.7136 20.8866 11.0573 24.8354C10.5689 27.7734 13.2793 30 16.3083 30H23.6917C26.7207 30 29.4311 27.7734 28.9427 24.8354Z" stroke="#52FC18" stroke-width="1.5" stroke-linecap="round" stroke-linejoin="round"/>
<path d="M15.2566 12.4429C15.0503 12.1426 14.7513 11.735 15.369 11.6421C16.0039 11.5465 16.6632 11.9811 17.3085 11.9722C17.8924 11.9641 18.1898 11.7052 18.5089 11.3355C18.8449 10.9462 19.3652 10 20 10C20.6348 10 21.1551 10.9462 21.4911 11.3355C21.8102 11.7052 22.1076 11.9641 22.6914 11.9722C23.3368 11.9811 23.9961 11.5465 24.631 11.6421C25.2487 11.735 24.9497 12.1426 24.7434 12.4429L23.8105 13.8006C23.4115 14.3815 23.212 14.6719 22.7944 14.8359C22.3769 15 21.8373 15 20.7582 15H19.2418C18.1627 15 17.6231 15 17.2056 14.8359C16.788 14.6719 16.5885 14.3815 16.1895 13.8006L15.2566 12.4429Z" stroke="#52FC18" stroke-width="1.5" stroke-linejoin="round"/>
<path d="M21.6267 20.9181C21.4105 20.12 20.3101 19.3998 18.9892 19.9386C17.6683 20.4774 17.4585 22.2109 19.4565 22.395C20.3595 22.4782 20.9483 22.2984 21.4873 22.8071C22.0264 23.3157 22.1265 24.7303 20.7485 25.1115C19.3705 25.4927 18.006 24.8971 17.8574 24.0512M19.8417 18.9922V19.7526M19.8417 25.2289V25.9922" stroke="#52FC18" stroke-width="1.5" stroke-linecap="round" stroke-linejoin="round"/>
</svg>
