<svg width="16" height="16" viewBox="0 0 16 16" fill="none" xmlns="http://www.w3.org/2000/svg">
<path d="M9.66732 7.99967C9.66732 8.92015 8.92113 9.66634 8.00065 9.66634C7.08018 9.66634 6.33398 8.92015 6.33398 7.99967C6.33398 7.0792 7.08018 6.33301 8.00065 6.33301C8.92113 6.33301 9.66732 7.0792 9.66732 7.99967Z" stroke="#848BAC" stroke-width="1.5"/>
<path d="M12.6673 7.42769C12.4506 7.3963 12.228 7.37238 12.0007 7.35648M4.00065 8.64355C3.7733 8.62765 3.55073 8.60373 3.33398 8.57235" stroke="#848BAC" stroke-width="1.5" stroke-linecap="round" stroke-linejoin="round"/>
<path d="M8.00065 12.9997C7.11229 13.4146 5.94536 13.6663 4.66732 13.6663C3.9567 13.6663 3.28044 13.5885 2.66732 13.4481C1.66703 13.219 1.33398 12.6173 1.33398 11.5904V4.40899C1.33398 3.75244 2.02734 3.30149 2.66732 3.44808C3.28044 3.58851 3.9567 3.66634 4.66732 3.66634C5.94536 3.66634 7.11229 3.41458 8.00065 2.99967C8.88901 2.58477 10.0559 2.33301 11.334 2.33301C12.0446 2.33301 12.7209 2.41084 13.334 2.55127C14.3885 2.7928 14.6673 3.41325 14.6673 4.40899V11.5904C14.6673 12.2469 13.974 12.6979 13.334 12.5513C12.7209 12.4108 12.0446 12.333 11.334 12.333C10.0559 12.333 8.88901 12.5848 8.00065 12.9997Z" stroke="#848BAC" stroke-width="1.5"/>
</svg>
