<svg width="16" height="16" viewBox="0 0 16 16" fill="none" xmlns="http://www.w3.org/2000/svg">
<path d="M9.66683 8.00016C9.66683 8.92064 8.92064 9.66683 8.00016 9.66683C7.07969 9.66683 6.3335 8.92064 6.3335 8.00016C6.3335 7.07969 7.07969 6.3335 8.00016 6.3335C8.92064 6.3335 9.66683 7.07969 9.66683 8.00016Z" stroke="#52FC18" stroke-width="1.5"/>
<path d="M12.6668 7.42769C12.4501 7.3963 12.2275 7.37238 12.0002 7.35648M4.00016 8.64355C3.77281 8.62765 3.55024 8.60373 3.3335 8.57235" stroke="#52FC18" stroke-width="1.5" stroke-linecap="round" stroke-linejoin="round"/>
<path d="M8.00016 13.0002C7.1118 13.4151 5.94488 13.6668 4.66683 13.6668C3.95622 13.6668 3.27995 13.589 2.66683 13.4486C1.66655 13.2195 1.3335 12.6177 1.3335 11.5908V4.40948C1.3335 3.75292 2.02685 3.30198 2.66683 3.44857C3.27995 3.589 3.95622 3.66683 4.66683 3.66683C5.94488 3.66683 7.1118 3.41507 8.00016 3.00016C8.88852 2.58525 10.0554 2.3335 11.3335 2.3335C12.0441 2.3335 12.7204 2.41133 13.3335 2.55176C14.388 2.79328 14.6668 3.41374 14.6668 4.40948V11.5908C14.6668 12.2474 13.9735 12.6983 13.3335 12.5518C12.7204 12.4113 12.0441 12.3335 11.3335 12.3335C10.0554 12.3335 8.88852 12.5853 8.00016 13.0002Z" stroke="#52FC18" stroke-width="1.5"/>
</svg>
