<svg width="16" height="16" viewBox="0 0 16 16" fill="none" xmlns="http://www.w3.org/2000/svg">
<path d="M11.667 3.3335C12.2193 3.3335 12.667 3.78121 12.667 4.3335C12.667 4.88578 12.2193 5.3335 11.667 5.3335C11.1147 5.3335 10.667 4.88578 10.667 4.3335C10.667 3.78121 11.1147 3.3335 11.667 3.3335Z" stroke="#52FC18" stroke-linecap="round" stroke-linejoin="round"/>
<path d="M1.84916 7.42943C1.1804 8.17636 1.16601 9.30323 1.77978 10.096C2.99775 11.669 4.33084 13.0021 5.9039 14.22C6.69661 14.8338 7.82348 14.8194 8.57041 14.1507C10.5983 12.335 12.4553 10.4374 14.2476 8.3521C14.4248 8.14596 14.5356 7.8933 14.5605 7.62256C14.6705 6.42548 14.8965 2.97661 13.9599 2.03999C13.0232 1.10337 9.57434 1.32934 8.37728 1.43934C8.10654 1.46422 7.85388 1.57505 7.64768 1.75224C5.56242 3.54447 3.66488 5.40157 1.84916 7.42943Z" stroke="#52FC18"/>
<path d="M9.19257 8.2445C9.2068 7.97719 9.28182 7.48815 8.87533 7.11645M8.87533 7.11645C8.74954 7.00143 8.57764 6.89764 8.34356 6.81514C7.50585 6.51988 6.47689 7.50811 7.20478 8.4127C7.59604 8.89895 7.89775 9.04849 7.86934 9.60069C7.84935 9.98909 7.46778 10.3949 6.96493 10.5495C6.52806 10.6838 6.04616 10.506 5.74136 10.1654C5.3692 9.74957 5.40679 9.35755 5.4036 9.18666M8.87533 7.11645L9.33407 6.65771M5.77453 10.2172L5.33887 10.6529" stroke="#52FC18" stroke-linecap="round" stroke-linejoin="round"/>
</svg>
