<svg width="20" height="20" viewBox="0 0 20 20" fill="none" xmlns="http://www.w3.org/2000/svg">
<path d="M12.9173 9.99967C12.9173 11.6105 11.6115 12.9163 10.0007 12.9163C8.38982 12.9163 7.08398 11.6105 7.08398 9.99967C7.08398 8.38884 8.38982 7.08301 10.0007 7.08301C11.6115 7.08301 12.9173 8.38884 12.9173 9.99967Z" stroke="white" stroke-width="1.5"/>
<path d="M17.5095 11.7468C17.9444 11.6295 18.1619 11.5708 18.2478 11.4587C18.3337 11.3466 18.3337 11.1662 18.3337 10.8054V9.19404C18.3337 8.83325 18.3337 8.65286 18.2478 8.54073C18.1619 8.4286 17.9444 8.36995 17.5095 8.25266C15.8842 7.81433 14.8669 6.1151 15.2864 4.5004C15.4018 4.05634 15.4594 3.8343 15.4044 3.70408C15.3493 3.57386 15.1912 3.48412 14.8751 3.30464L13.4379 2.48862C13.1277 2.3125 12.9726 2.22444 12.8334 2.24319C12.6942 2.26194 12.5371 2.41861 12.223 2.73195C11.007 3.94508 8.99498 3.94503 7.77894 2.73188C7.46485 2.41853 7.30781 2.26186 7.1686 2.24311C7.0294 2.22436 6.8743 2.31242 6.5641 2.48854L5.12686 3.30456C4.81076 3.48403 4.65272 3.57376 4.59764 3.70397C4.54256 3.83418 4.60022 4.05623 4.71553 4.50034C5.1348 6.11509 4.11676 7.81436 2.49118 8.25267C2.05626 8.36994 1.8388 8.42857 1.7529 8.54071C1.66699 8.65284 1.66699 8.83324 1.66699 9.19404V10.8054C1.66699 11.1662 1.66699 11.3466 1.75289 11.4587C1.83879 11.5708 2.05625 11.6295 2.49117 11.7468C4.11649 12.1851 5.13373 13.8843 4.71426 15.499C4.5989 15.9431 4.54122 16.1651 4.5963 16.2953C4.65137 16.4256 4.80943 16.5153 5.12554 16.6948L6.56279 17.5108C6.873 17.6869 7.02811 17.775 7.16733 17.7562C7.30655 17.7375 7.46356 17.5808 7.77758 17.2674C8.99427 16.0533 11.0077 16.0533 12.2244 17.2674C12.5384 17.5807 12.6954 17.7374 12.8346 17.7562C12.9739 17.7749 13.129 17.6869 13.4392 17.5107L14.8764 16.6947C15.1926 16.5152 15.3506 16.4255 15.4057 16.2952C15.4608 16.165 15.4031 15.943 15.2877 15.499C14.868 13.8843 15.8844 12.1851 17.5095 11.7468Z" stroke="white" stroke-width="1.5" stroke-linecap="round"/>
</svg>
