<svg width="16" height="16" viewBox="0 0 16 16" fill="none" xmlns="http://www.w3.org/2000/svg">
<g clip-path="url(#clip0_1_9457)">
<path d="M14.6673 8.00016C14.6673 11.6821 11.6825 14.6668 8.00065 14.6668C4.31875 14.6668 1.33398 11.6821 1.33398 8.00016C1.33398 4.31826 4.31875 1.3335 8.00065 1.3335C11.6825 1.3335 14.6673 4.31826 14.6673 8.00016Z" stroke="#848BAC" stroke-width="1.5"/>
<path d="M7.80549 6.2327C7.92167 6.14476 8.07898 6.14476 8.19516 6.2327L9.697 7.36944C9.81318 7.45737 9.86179 7.61324 9.81741 7.75552L9.24376 9.5948C9.19939 9.73708 9.07211 9.83341 8.92851 9.83341H7.07214C6.92854 9.83341 6.80126 9.73708 6.75689 9.5948L6.18324 7.75552C6.13886 7.61324 6.18748 7.45737 6.30365 7.36944L7.80549 6.2327Z" stroke="#848BAC" stroke-width="1.5"/>
<path d="M8.00065 6.00016V3.3335M10.0007 7.3335L12.6673 6.3335M9.33398 10.0002L10.6673 12.0002M6.66732 9.66683L5.33398 11.3335M6.00065 7.66683L3.33398 7.00016" stroke="#848BAC" stroke-width="1.5" stroke-linecap="round" stroke-linejoin="round"/>
<path d="M6.00065 1.66675L8.01168 3.08169L10.0007 1.66675M1.33398 8.53327L3.46502 6.95931L2.37097 4.48038M12.9808 12.5688L10.4112 12.1037L9.51099 14.6667M13.3538 4.13066L12.5363 6.25993L14.6673 7.83389M5.3406 14.2707L5.36826 11.4444L2.66952 11.4734" stroke="#848BAC" stroke-width="1.5" stroke-linejoin="round"/>
</g>
<defs>
<clipPath id="clip0_1_9457">
<rect width="16" height="16" fill="white"/>
</clipPath>
</defs>
</svg>
