<svg width="16" height="16" viewBox="0 0 16 16" fill="none" xmlns="http://www.w3.org/2000/svg">
<path d="M14.6668 6.33325C14.6425 4.83172 14.5263 3.96429 13.9711 3.34185C13.8588 3.21594 13.735 3.09949 13.6011 2.99383C12.7643 2.33325 11.5108 2.33325 9.00387 2.33325H7.0029C4.49597 2.33325 3.24251 2.33325 2.40565 2.99383C2.2718 3.09949 2.14801 3.21594 2.0357 3.34185C1.3335 4.1291 1.3335 5.30826 1.3335 7.66659C1.3335 10.0249 1.3335 11.2041 2.0357 11.9913C2.14801 12.1172 2.2718 12.2337 2.40565 12.3393C3.24251 12.9999 4.49597 12.9999 7.0029 12.9999H7.3335" stroke="#52FC18" stroke-width="1.5" stroke-linecap="round" stroke-linejoin="round"/>
<path d="M1.3335 5.66675H14.6668" stroke="#52FC18" stroke-width="1.5" stroke-linejoin="round"/>
<path d="M12.8891 8.33325L13.4378 8.8385C13.5573 8.95592 13.617 9.01463 13.596 9.06451C13.575 9.1144 13.4905 9.1144 13.3216 9.1144H11.252C10.1924 9.1144 9.3335 9.95857 9.3335 10.9999C9.3335 11.2346 9.37713 11.4593 9.45686 11.6666M11.1113 13.6666L10.5625 13.1613C10.443 13.0439 10.3833 12.9852 10.4043 12.9353C10.4253 12.8854 10.5098 12.8854 10.6788 12.8854H12.7484C13.8079 12.8854 14.6668 12.0413 14.6668 10.9999C14.6668 10.7652 14.6232 10.5405 14.5435 10.3333" stroke="#52FC18" stroke-width="1.5" stroke-linecap="round" stroke-linejoin="round"/>
</svg>
