<svg width="60" height="60" viewBox="0 0 60 60" fill="none" xmlns="http://www.w3.org/2000/svg">
<g filter="url(#filter0_i_1_13407)">
<rect width="60" height="60" rx="30" fill="#FF3B30"/>
<rect x="2" y="2" width="56" height="56" rx="28" stroke="#FF9500" stroke-width="4"/>
<mask id="path-3-outside-1_1_13407" maskUnits="userSpaceOnUse" x="23.5" y="18" width="12" height="21" fill="black">
<rect fill="white" x="23.5" y="18" width="12" height="21"/>
<path d="M25.8403 36.904L26.7763 32.584C26.8723 32.104 26.9923 31.52 27.1363 30.832C27.2803 30.128 27.4243 29.392 27.5683 28.624C27.7283 27.856 27.8723 27.128 28.0003 26.44C28.1283 25.752 28.2323 25.168 28.3123 24.688C27.9123 24.72 27.5363 24.768 27.1842 24.832L26.2483 24.976C25.9283 25.04 25.6483 25.088 25.4083 25.12C25.4243 25.008 25.4403 24.864 25.4563 24.688C25.4883 24.512 25.5203 24.312 25.5523 24.088L25.7683 22.696C25.8003 22.424 25.8323 22.144 25.8643 21.856C25.9123 21.552 25.9603 21.24 26.0083 20.92C26.1843 20.888 26.4003 20.848 26.6562 20.8C26.9283 20.736 27.2243 20.672 27.5443 20.608L29.7763 20.248C30.2403 20.168 30.7603 20.088 31.3363 20.008C31.9123 19.912 32.5443 19.808 33.2323 19.696C32.5923 22.384 32.0243 25.056 31.5283 27.712C31.0323 30.368 30.5603 33.12 30.1123 35.968C29.7443 36.08 29.3203 36.192 28.8403 36.304C28.3603 36.416 27.8883 36.512 27.4243 36.592C27.1683 36.656 26.9043 36.712 26.6323 36.76C26.3763 36.808 26.1123 36.856 25.8403 36.904Z"/>
</mask>
<path d="M25.8403 36.904L26.7763 32.584C26.8723 32.104 26.9923 31.52 27.1363 30.832C27.2803 30.128 27.4243 29.392 27.5683 28.624C27.7283 27.856 27.8723 27.128 28.0003 26.44C28.1283 25.752 28.2323 25.168 28.3123 24.688C27.9123 24.72 27.5363 24.768 27.1842 24.832L26.2483 24.976C25.9283 25.04 25.6483 25.088 25.4083 25.12C25.4243 25.008 25.4403 24.864 25.4563 24.688C25.4883 24.512 25.5203 24.312 25.5523 24.088L25.7683 22.696C25.8003 22.424 25.8323 22.144 25.8643 21.856C25.9123 21.552 25.9603 21.24 26.0083 20.92C26.1843 20.888 26.4003 20.848 26.6562 20.8C26.9283 20.736 27.2243 20.672 27.5443 20.608L29.7763 20.248C30.2403 20.168 30.7603 20.088 31.3363 20.008C31.9123 19.912 32.5443 19.808 33.2323 19.696C32.5923 22.384 32.0243 25.056 31.5283 27.712C31.0323 30.368 30.5603 33.12 30.1123 35.968C29.7443 36.08 29.3203 36.192 28.8403 36.304C28.3603 36.416 27.8883 36.512 27.4243 36.592C27.1683 36.656 26.9043 36.712 26.6323 36.76C26.3763 36.808 26.1123 36.856 25.8403 36.904Z" fill="#001E45"/>
<path d="M25.8403 36.904L24.8629 36.6922L24.5476 38.1476L26.014 37.8888L25.8403 36.904ZM26.7763 32.584L27.7536 32.7958L27.7553 32.7879L27.7568 32.7801L26.7763 32.584ZM27.1363 30.832L28.1151 31.0369L28.116 31.0324L27.1363 30.832ZM27.5683 28.624L26.5893 28.42L26.5872 28.4299L26.5854 28.4397L27.5683 28.624ZM28.0003 26.44L27.0171 26.2571L28.0003 26.44ZM28.3123 24.688L29.2986 24.8524L29.5092 23.589L28.2325 23.6912L28.3123 24.688ZM27.1842 24.832L27.3363 25.8204L27.3498 25.8183L27.3631 25.8159L27.1842 24.832ZM26.2483 24.976L26.0962 23.9876L26.0741 23.991L26.0521 23.9954L26.2483 24.976ZM25.4083 25.12L24.4183 24.9786L24.2316 26.2857L25.5404 26.1112L25.4083 25.12ZM25.4563 24.688L24.4724 24.5091L24.4644 24.553L24.4604 24.5975L25.4563 24.688ZM25.5523 24.088L24.564 23.9347L24.5623 23.9466L25.5523 24.088ZM25.7683 22.696L26.7564 22.8493L26.7592 22.8311L26.7614 22.8128L25.7683 22.696ZM25.8643 21.856L24.8765 21.7L24.8729 21.7227L24.8704 21.7456L25.8643 21.856ZM26.0083 20.92L25.8294 19.9361L25.1254 20.0641L25.0193 20.7717L26.0083 20.92ZM26.6562 20.8L26.8405 21.7829L26.863 21.7787L26.8853 21.7734L26.6562 20.8ZM27.5443 20.608L27.385 19.6208L27.3665 19.6237L27.3481 19.6274L27.5443 20.608ZM29.7763 20.248L29.9355 21.2353L29.9462 21.2335L29.7763 20.248ZM31.3363 20.008L31.4738 20.9985L31.4873 20.9966L31.5007 20.9944L31.3363 20.008ZM33.2323 19.696L34.2051 19.9276L34.5526 18.4679L33.0716 18.709L33.2323 19.696ZM31.5282 27.712L30.5452 27.5284L31.5282 27.712ZM30.1123 35.968L30.4034 36.9247L31.0028 36.7423L31.1001 36.1234L30.1123 35.968ZM28.8403 36.304L29.0675 37.2778L28.8403 36.304ZM27.4243 36.592L27.2543 35.6065L27.2177 35.6129L27.1817 35.6219L27.4243 36.592ZM26.6323 36.76L26.4585 35.7752L26.448 35.7771L26.6323 36.76ZM26.8176 37.1158L27.7536 32.7958L25.7989 32.3722L24.8629 36.6922L26.8176 37.1158ZM27.7568 32.7801C27.8521 32.304 27.9714 31.7231 28.115 31.0369L26.1575 30.6271C26.0131 31.3169 25.8924 31.904 25.7957 32.3879L27.7568 32.7801ZM28.116 31.0324C28.2612 30.3226 28.4062 29.5812 28.5511 28.8083L26.5854 28.4397C26.4423 29.2028 26.2993 29.9334 26.1565 30.6316L28.116 31.0324ZM28.5472 28.828C28.7085 28.0538 28.8539 27.3187 28.9834 26.6229L27.0171 26.2571C26.8906 26.9373 26.748 27.6582 26.5893 28.42L28.5472 28.828ZM28.9834 26.6229C29.1121 25.9312 29.2173 25.3406 29.2986 24.8524L27.3259 24.5236C27.2472 24.9954 27.1444 25.5728 27.0171 26.2571L28.9834 26.6229ZM28.2325 23.6912C27.8032 23.7255 27.3938 23.7775 27.0054 23.8481L27.3631 25.8159C27.6787 25.7585 28.0213 25.7145 28.392 25.6848L28.2325 23.6912ZM27.0322 23.8436L26.0962 23.9876L26.4003 25.9644L27.3363 25.8204L27.0322 23.8436ZM26.0521 23.9954C25.7466 24.0565 25.4888 24.1004 25.2761 24.1288L25.5404 26.1112C25.8077 26.0756 26.1099 26.0235 26.4444 25.9566L26.0521 23.9954ZM26.3982 25.2614C26.4176 25.1259 26.4354 24.9633 26.4521 24.7785L24.4604 24.5975C24.4451 24.7647 24.4309 24.8901 24.4183 24.9786L26.3982 25.2614ZM26.4401 24.8669C26.4749 24.6757 26.5089 24.4628 26.5422 24.2294L24.5623 23.9466C24.5316 24.1612 24.5016 24.3483 24.4724 24.5091L26.4401 24.8669ZM26.5404 24.2413L26.7564 22.8493L24.7801 22.5427L24.5641 23.9347L26.5404 24.2413ZM26.7614 22.8128C26.7937 22.5386 26.8259 22.2564 26.8581 21.9664L24.8704 21.7456C24.8386 22.0316 24.8068 22.3094 24.7751 22.5792L26.7614 22.8128ZM26.852 22.012C26.9004 21.7053 26.9488 21.3908 26.9972 21.0683L25.0193 20.7717C24.9717 21.0892 24.9241 21.3987 24.8765 21.7L26.852 22.012ZM26.1871 21.9039C26.3655 21.8714 26.5835 21.8311 26.8405 21.7829L26.472 19.8171C26.217 19.8649 26.003 19.9046 25.8294 19.9361L26.1871 21.9039ZM26.8853 21.7734C27.1447 21.7124 27.4296 21.6507 27.7404 21.5886L27.3481 19.6274C27.0189 19.6933 26.7118 19.7596 26.4272 19.8266L26.8853 21.7734ZM27.7035 21.5952L29.9355 21.2352L29.617 19.2608L27.385 19.6208L27.7035 21.5952ZM29.9462 21.2335C30.3973 21.1557 30.9062 21.0773 31.4738 20.9985L31.1987 19.0175C30.6143 19.0987 30.0832 19.1803 29.6063 19.2625L29.9462 21.2335ZM31.5007 20.9944C32.0752 20.8986 32.7059 20.7948 33.3929 20.683L33.0716 18.709C32.3826 18.8212 31.7493 18.9254 31.1719 19.0216L31.5007 20.9944ZM32.2594 19.4644C31.6157 22.1679 31.0443 24.856 30.5452 27.5284L32.5113 27.8956C33.0042 25.256 33.5688 22.6 34.2051 19.9276L32.2594 19.4644ZM30.5452 27.5284C30.0474 30.1944 29.5738 32.9558 29.1244 35.8126L31.1001 36.1234C31.5467 33.2842 32.0171 30.5416 32.5113 27.8956L30.5452 27.5284ZM29.8211 35.0113C29.4791 35.1154 29.0772 35.2219 28.613 35.3302L29.0675 37.2778C29.5633 37.1621 30.0094 37.0446 30.4034 36.9247L29.8211 35.0113ZM28.613 35.3302C28.1511 35.4379 27.6983 35.53 27.2543 35.6065L27.5942 37.5775C28.0782 37.494 28.5694 37.3941 29.0675 37.2778L28.613 35.3302ZM27.1817 35.6219C26.9495 35.6799 26.7084 35.7311 26.4585 35.7752L26.806 37.7448C27.1001 37.6929 27.387 37.6321 27.6668 37.5621L27.1817 35.6219ZM26.448 35.7771C26.1957 35.8244 25.9352 35.8718 25.6665 35.9192L26.014 37.8888C26.2893 37.8402 26.5568 37.7916 26.8165 37.7429L26.448 35.7771Z" fill="white" mask="url(#path-3-outside-1_1_13407)"/>
</g>
<defs>
<filter id="filter0_i_1_13407" x="0" y="0" width="60" height="64" filterUnits="userSpaceOnUse" color-interpolation-filters="sRGB">
<feFlood flood-opacity="0" result="BackgroundImageFix"/>
<feBlend mode="normal" in="SourceGraphic" in2="BackgroundImageFix" result="shape"/>
<feColorMatrix in="SourceAlpha" type="matrix" values="0 0 0 0 0 0 0 0 0 0 0 0 0 0 0 0 0 0 127 0" result="hardAlpha"/>
<feOffset dy="4"/>
<feGaussianBlur stdDeviation="2"/>
<feComposite in2="hardAlpha" operator="arithmetic" k2="-1" k3="1"/>
<feColorMatrix type="matrix" values="0 0 0 0 0 0 0 0 0 0 0 0 0 0 0 0 0 0 1 0"/>
<feBlend mode="normal" in2="shape" result="effect1_innerShadow_1_13407"/>
</filter>
</defs>
</svg>
