<svg width="60" height="60" viewBox="0 0 60 60" fill="none" xmlns="http://www.w3.org/2000/svg">
<g filter="url(#filter0_i_1_13436)">
<rect width="60" height="60" rx="30" fill="#34C759"/>
<rect x="2" y="2" width="56" height="56" rx="28" stroke="#34C759" stroke-width="4"/>
<mask id="path-3-outside-1_1_13436" maskUnits="userSpaceOnUse" x="22" y="19" width="16" height="20" fill="black">
<rect fill="white" x="22" y="19" width="16" height="20"/>
<path d="M23.4224 37.784L23.8304 34.76C23.8784 34.28 24.1184 33.768 24.5504 33.224C24.9984 32.664 25.5424 32.104 26.1824 31.544C26.8224 30.968 27.4624 30.44 28.1024 29.96C28.7744 29.448 29.4144 28.952 30.0224 28.472C30.6304 27.992 31.1264 27.544 31.5104 27.128C31.8944 26.712 32.0864 26.36 32.0864 26.072C32.0864 25.592 31.9904 25.224 31.7984 24.968C31.6224 24.696 31.3984 24.56 31.1264 24.56C30.5984 24.56 30.2224 24.76 29.9984 25.16C29.7744 25.56 29.6624 26.008 29.6624 26.504V26.744C29.6624 26.792 29.6704 26.824 29.6864 26.84C29.4784 26.856 29.2544 26.872 29.0144 26.888C28.7904 26.904 28.5664 26.928 28.3424 26.96C28.1344 26.976 27.9184 26.992 27.6944 27.008C27.4864 27.024 27.2624 27.048 27.0224 27.08C26.7664 27.112 26.5184 27.144 26.2784 27.176C26.0384 27.192 25.7984 27.216 25.5584 27.248C25.5424 27.12 25.5264 26.992 25.5104 26.864C25.5104 26.72 25.5104 26.592 25.5104 26.48C25.5104 25.536 25.6864 24.696 26.0384 23.96C26.4064 23.208 26.8864 22.576 27.4784 22.064C28.0864 21.552 28.7584 21.168 29.4944 20.912C30.2304 20.64 30.9664 20.504 31.7024 20.504C32.5184 20.504 33.2704 20.68 33.9584 21.032C34.6624 21.368 35.2304 21.896 35.6624 22.616C36.0944 23.32 36.3104 24.216 36.3104 25.304C36.3104 26.104 36.1024 26.888 35.6864 27.656C35.2704 28.408 34.6944 29.144 33.9584 29.864C33.2224 30.6 32.3504 31.312 31.3424 32C30.3344 32.688 29.2384 33.344 28.0544 33.968C28.7744 33.968 29.6304 33.936 30.6224 33.872C31.6304 33.808 32.7984 33.72 34.1264 33.608L33.7424 37.088C32.9904 37.152 32.0544 37.216 30.9344 37.28C29.8144 37.344 28.6624 37.416 27.4784 37.496L23.4224 37.784Z"/>
</mask>
<path d="M23.4224 37.784L23.8304 34.76C23.8784 34.28 24.1184 33.768 24.5504 33.224C24.9984 32.664 25.5424 32.104 26.1824 31.544C26.8224 30.968 27.4624 30.44 28.1024 29.96C28.7744 29.448 29.4144 28.952 30.0224 28.472C30.6304 27.992 31.1264 27.544 31.5104 27.128C31.8944 26.712 32.0864 26.36 32.0864 26.072C32.0864 25.592 31.9904 25.224 31.7984 24.968C31.6224 24.696 31.3984 24.56 31.1264 24.56C30.5984 24.56 30.2224 24.76 29.9984 25.16C29.7744 25.56 29.6624 26.008 29.6624 26.504V26.744C29.6624 26.792 29.6704 26.824 29.6864 26.84C29.4784 26.856 29.2544 26.872 29.0144 26.888C28.7904 26.904 28.5664 26.928 28.3424 26.96C28.1344 26.976 27.9184 26.992 27.6944 27.008C27.4864 27.024 27.2624 27.048 27.0224 27.08C26.7664 27.112 26.5184 27.144 26.2784 27.176C26.0384 27.192 25.7984 27.216 25.5584 27.248C25.5424 27.12 25.5264 26.992 25.5104 26.864C25.5104 26.72 25.5104 26.592 25.5104 26.48C25.5104 25.536 25.6864 24.696 26.0384 23.96C26.4064 23.208 26.8864 22.576 27.4784 22.064C28.0864 21.552 28.7584 21.168 29.4944 20.912C30.2304 20.64 30.9664 20.504 31.7024 20.504C32.5184 20.504 33.2704 20.68 33.9584 21.032C34.6624 21.368 35.2304 21.896 35.6624 22.616C36.0944 23.32 36.3104 24.216 36.3104 25.304C36.3104 26.104 36.1024 26.888 35.6864 27.656C35.2704 28.408 34.6944 29.144 33.9584 29.864C33.2224 30.6 32.3504 31.312 31.3424 32C30.3344 32.688 29.2384 33.344 28.0544 33.968C28.7744 33.968 29.6304 33.936 30.6224 33.872C31.6304 33.808 32.7984 33.72 34.1264 33.608L33.7424 37.088C32.9904 37.152 32.0544 37.216 30.9344 37.28C29.8144 37.344 28.6624 37.416 27.4784 37.496L23.4224 37.784Z" fill="#001E45"/>
<path d="M23.4224 37.784L22.4314 37.6503L22.267 38.8686L23.4933 38.7815L23.4224 37.784ZM23.8304 34.76L24.8215 34.8937L24.8238 34.8766L24.8255 34.8595L23.8304 34.76ZM24.5504 33.224L23.7696 32.5993L23.7673 32.6021L24.5504 33.224ZM26.1824 31.544L26.841 32.2966L26.8514 32.2873L26.1824 31.544ZM28.1024 29.96L28.7025 30.76L28.7085 30.7554L28.1024 29.96ZM30.0224 28.472L30.6421 29.2569H30.6421L30.0224 28.472ZM31.5104 27.128L32.2452 27.8063L32.2452 27.8063L31.5104 27.128ZM31.7984 24.968L30.9589 25.5113L30.9777 25.5403L30.9984 25.568L31.7984 24.968ZM29.6864 26.84L29.7631 27.8371L31.931 27.6703L30.3935 26.1329L29.6864 26.84ZM29.0144 26.888L28.9479 25.8902L28.9432 25.8905L29.0144 26.888ZM28.3424 26.96L28.4191 27.9571L28.4516 27.9546L28.4839 27.9499L28.3424 26.96ZM27.6944 27.008L27.6232 26.0105L27.6177 26.0109L27.6944 27.008ZM27.0224 27.08L27.1465 28.0723L27.1546 28.0712L27.0224 27.08ZM26.2784 27.176L26.345 28.1738L26.3779 28.1716L26.4106 28.1672L26.2784 27.176ZM25.5584 27.248L24.5662 27.372L24.6912 28.3725L25.6906 28.2392L25.5584 27.248ZM25.5104 26.864H24.5104V26.9263L24.5182 26.988L25.5104 26.864ZM26.0384 23.96L25.1402 23.5204L25.1363 23.5285L26.0384 23.96ZM27.4784 22.064L26.8342 21.299L26.8243 21.3076L27.4784 22.064ZM29.4944 20.912L29.823 21.8565L29.8321 21.8533L29.8411 21.85L29.4944 20.912ZM33.9584 21.032L33.503 21.9222L33.5153 21.9285L33.5277 21.9345L33.9584 21.032ZM35.6624 22.616L34.8049 23.1305L34.8101 23.139L35.6624 22.616ZM35.6864 27.656L36.5615 28.1401L36.5657 28.1323L35.6864 27.656ZM33.9584 29.864L33.2591 29.1491L33.2513 29.1569L33.9584 29.864ZM31.3424 32L31.9062 32.8259H31.9062L31.3424 32ZM28.0544 33.968L27.5882 33.0833L28.0544 34.968V33.968ZM30.6224 33.872L30.5591 32.874L30.5581 32.8741L30.6224 33.872ZM34.1264 33.608L35.1204 33.7177L35.2537 32.5094L34.0424 32.6115L34.1264 33.608ZM33.7424 37.088L33.8272 38.0844L34.6463 38.0147L34.7364 37.1977L33.7424 37.088ZM27.4784 37.496L27.411 36.4983L27.4076 36.4985L27.4784 37.496ZM24.4135 37.9177L24.8215 34.8937L22.8394 34.6263L22.4314 37.6503L24.4135 37.9177ZM24.8255 34.8595C24.8477 34.6369 24.971 34.3024 25.3335 33.8459L23.7673 32.6021C23.2659 33.2336 22.9091 33.9231 22.8354 34.6605L24.8255 34.8595ZM25.3313 33.8487C25.7363 33.3424 26.2375 32.8246 26.8409 32.2966L25.5239 30.7914C24.8474 31.3834 24.2605 31.9856 23.7696 32.5993L25.3313 33.8487ZM26.8514 32.2873C27.4709 31.7297 28.088 31.2208 28.7024 30.76L27.5024 29.16C26.8369 29.6592 26.1739 30.2063 25.5135 30.8007L26.8514 32.2873ZM28.7085 30.7554C29.3846 30.2403 30.0292 29.7407 30.6421 29.2569L29.4028 27.6871C28.7997 28.1633 28.1642 28.6557 27.4964 29.1646L28.7085 30.7554ZM30.6421 29.2569C31.2774 28.7554 31.8155 28.2719 32.2452 27.8063L30.7756 26.4497C30.4374 26.8161 29.9835 27.2286 29.4028 27.6871L30.6421 29.2569ZM32.2452 27.8063C32.6572 27.36 33.0864 26.7629 33.0864 26.072H31.0864C31.0864 25.9959 31.1102 25.9894 31.0645 26.0731C31.0203 26.1543 30.9328 26.2794 30.7756 26.4497L32.2452 27.8063ZM33.0864 26.072C33.0864 25.4785 32.9708 24.8644 32.5984 24.368L30.9984 25.568C31.0101 25.5836 31.0864 25.7055 31.0864 26.072H33.0864ZM32.638 24.4247C32.3185 23.931 31.8064 23.56 31.1264 23.56V25.56C31.1103 25.56 31.086 25.5579 31.057 25.5499C31.0278 25.5419 31.0013 25.53 30.9795 25.5168C30.9356 25.4902 30.9339 25.4727 30.9589 25.5113L32.638 24.4247ZM31.1264 23.56C30.3025 23.56 29.5569 23.9019 29.1259 24.6714L30.8709 25.6486C30.8857 25.6223 30.8969 25.6097 30.902 25.6046C30.9067 25.5999 30.9111 25.5965 30.9181 25.5929C30.9308 25.5861 30.9876 25.56 31.1264 25.56V23.56ZM29.1259 24.6714C28.8116 25.2328 28.6624 25.8513 28.6624 26.504H30.6624C30.6624 26.1647 30.7373 25.8872 30.8709 25.6486L29.1259 24.6714ZM28.6624 26.504V26.744H30.6624V26.504H28.6624ZM28.6624 26.744C28.6624 26.8163 28.6677 26.9242 28.6983 27.0465C28.7274 27.1628 28.7975 27.3652 28.9793 27.5471L30.3935 26.1329C30.5594 26.2988 30.6175 26.4772 30.6386 26.5615C30.6612 26.6518 30.6624 26.7197 30.6624 26.744H28.6624ZM29.6097 25.8429C29.4056 25.8586 29.185 25.8744 28.9479 25.8902L29.081 27.8858C29.3239 27.8696 29.5513 27.8534 29.7631 27.8371L29.6097 25.8429ZM28.9432 25.8905C28.6955 25.9082 28.4481 25.9347 28.201 25.9701L28.4839 27.9499C28.6847 27.9213 28.8853 27.8998 29.0857 27.8855L28.9432 25.8905ZM28.2657 25.9629C28.0597 25.9788 27.8455 25.9947 27.6232 26.0105L27.7657 28.0055C27.9914 27.9893 28.2092 27.9732 28.4191 27.9571L28.2657 25.9629ZM27.6177 26.0109C27.3885 26.0286 27.1459 26.0547 26.8903 26.0888L27.1546 28.0712C27.379 28.0413 27.5843 28.0194 27.7711 28.0051L27.6177 26.0109ZM26.8984 26.0877C26.6399 26.12 26.3892 26.1524 26.1463 26.1848L26.4106 28.1672C26.6477 28.1356 26.893 28.104 27.1465 28.0723L26.8984 26.0877ZM26.2119 26.1782C25.9498 26.1957 25.6879 26.2219 25.4263 26.2568L25.6906 28.2392C25.9089 28.2101 26.127 28.1883 26.345 28.1738L26.2119 26.1782ZM26.5507 27.124C26.5347 26.996 26.5187 26.868 26.5027 26.74L24.5182 26.988C24.5342 27.116 24.5502 27.244 24.5662 27.372L26.5507 27.124ZM26.5104 26.864C26.5104 26.8637 26.5104 26.8634 26.5104 26.8632C26.5104 26.8629 26.5104 26.8626 26.5104 26.8623C26.5104 26.862 26.5104 26.8618 26.5104 26.8615C26.5104 26.8612 26.5104 26.8609 26.5104 26.8606C26.5104 26.8603 26.5104 26.8601 26.5104 26.8598C26.5104 26.8595 26.5104 26.8592 26.5104 26.8589C26.5104 26.8587 26.5104 26.8584 26.5104 26.8581C26.5104 26.8578 26.5104 26.8575 26.5104 26.8573C26.5104 26.857 26.5104 26.8567 26.5104 26.8564C26.5104 26.8561 26.5104 26.8559 26.5104 26.8556C26.5104 26.8553 26.5104 26.855 26.5104 26.8547C26.5104 26.8545 26.5104 26.8542 26.5104 26.8539C26.5104 26.8536 26.5104 26.8533 26.5104 26.8531C26.5104 26.8528 26.5104 26.8525 26.5104 26.8522C26.5104 26.8519 26.5104 26.8517 26.5104 26.8514C26.5104 26.8511 26.5104 26.8508 26.5104 26.8505C26.5104 26.8503 26.5104 26.85 26.5104 26.8497C26.5104 26.8494 26.5104 26.8492 26.5104 26.8489C26.5104 26.8486 26.5104 26.8483 26.5104 26.848C26.5104 26.8478 26.5104 26.8475 26.5104 26.8472C26.5104 26.8469 26.5104 26.8466 26.5104 26.8464C26.5104 26.8461 26.5104 26.8458 26.5104 26.8455C26.5104 26.8452 26.5104 26.845 26.5104 26.8447C26.5104 26.8444 26.5104 26.8441 26.5104 26.8439C26.5104 26.8436 26.5104 26.8433 26.5104 26.843C26.5104 26.8427 26.5104 26.8425 26.5104 26.8422C26.5104 26.8419 26.5104 26.8416 26.5104 26.8414C26.5104 26.8411 26.5104 26.8408 26.5104 26.8405C26.5104 26.8402 26.5104 26.84 26.5104 26.8397C26.5104 26.8394 26.5104 26.8391 26.5104 26.8389C26.5104 26.8386 26.5104 26.8383 26.5104 26.838C26.5104 26.8377 26.5104 26.8375 26.5104 26.8372C26.5104 26.8369 26.5104 26.8366 26.5104 26.8364C26.5104 26.8361 26.5104 26.8358 26.5104 26.8355C26.5104 26.8352 26.5104 26.835 26.5104 26.8347C26.5104 26.8344 26.5104 26.8341 26.5104 26.8339C26.5104 26.8336 26.5104 26.8333 26.5104 26.833C26.5104 26.8328 26.5104 26.8325 26.5104 26.8322C26.5104 26.8319 26.5104 26.8316 26.5104 26.8314C26.5104 26.8311 26.5104 26.8308 26.5104 26.8305C26.5104 26.8303 26.5104 26.83 26.5104 26.8297C26.5104 26.8294 26.5104 26.8292 26.5104 26.8289C26.5104 26.8286 26.5104 26.8283 26.5104 26.8281C26.5104 26.8278 26.5104 26.8275 26.5104 26.8272C26.5104 26.827 26.5104 26.8267 26.5104 26.8264C26.5104 26.8261 26.5104 26.8259 26.5104 26.8256C26.5104 26.8253 26.5104 26.825 26.5104 26.8247C26.5104 26.8245 26.5104 26.8242 26.5104 26.8239C26.5104 26.8236 26.5104 26.8234 26.5104 26.8231C26.5104 26.8228 26.5104 26.8225 26.5104 26.8223C26.5104 26.822 26.5104 26.8217 26.5104 26.8214C26.5104 26.8212 26.5104 26.8209 26.5104 26.8206C26.5104 26.8203 26.5104 26.8201 26.5104 26.8198C26.5104 26.8195 26.5104 26.8192 26.5104 26.819C26.5104 26.8187 26.5104 26.8184 26.5104 26.8181C26.5104 26.8179 26.5104 26.8176 26.5104 26.8173C26.5104 26.817 26.5104 26.8168 26.5104 26.8165C26.5104 26.8162 26.5104 26.816 26.5104 26.8157C26.5104 26.8154 26.5104 26.8151 26.5104 26.8149C26.5104 26.8146 26.5104 26.8143 26.5104 26.814C26.5104 26.8138 26.5104 26.8135 26.5104 26.8132C26.5104 26.8129 26.5104 26.8127 26.5104 26.8124C26.5104 26.8121 26.5104 26.8118 26.5104 26.8116C26.5104 26.8113 26.5104 26.811 26.5104 26.8108C26.5104 26.8105 26.5104 26.8102 26.5104 26.8099C26.5104 26.8097 26.5104 26.8094 26.5104 26.8091C26.5104 26.8088 26.5104 26.8086 26.5104 26.8083C26.5104 26.808 26.5104 26.8077 26.5104 26.8075C26.5104 26.8072 26.5104 26.8069 26.5104 26.8067C26.5104 26.8064 26.5104 26.8061 26.5104 26.8058C26.5104 26.8056 26.5104 26.8053 26.5104 26.805C26.5104 26.8047 26.5104 26.8045 26.5104 26.8042C26.5104 26.8039 26.5104 26.8037 26.5104 26.8034C26.5104 26.8031 26.5104 26.8028 26.5104 26.8026C26.5104 26.8023 26.5104 26.802 26.5104 26.8017C26.5104 26.8015 26.5104 26.8012 26.5104 26.8009C26.5104 26.8007 26.5104 26.8004 26.5104 26.8001C26.5104 26.7998 26.5104 26.7996 26.5104 26.7993C26.5104 26.799 26.5104 26.7988 26.5104 26.7985C26.5104 26.7982 26.5104 26.7979 26.5104 26.7977C26.5104 26.7974 26.5104 26.7971 26.5104 26.7969C26.5104 26.7966 26.5104 26.7963 26.5104 26.796C26.5104 26.7958 26.5104 26.7955 26.5104 26.7952C26.5104 26.795 26.5104 26.7947 26.5104 26.7944C26.5104 26.7941 26.5104 26.7939 26.5104 26.7936C26.5104 26.7933 26.5104 26.7931 26.5104 26.7928C26.5104 26.7925 26.5104 26.7922 26.5104 26.792C26.5104 26.7917 26.5104 26.7914 26.5104 26.7912C26.5104 26.7909 26.5104 26.7906 26.5104 26.7904C26.5104 26.7901 26.5104 26.7898 26.5104 26.7895C26.5104 26.7893 26.5104 26.789 26.5104 26.7887C26.5104 26.7885 26.5104 26.7882 26.5104 26.7879C26.5104 26.7877 26.5104 26.7874 26.5104 26.7871C26.5104 26.7868 26.5104 26.7866 26.5104 26.7863C26.5104 26.786 26.5104 26.7858 26.5104 26.7855C26.5104 26.7852 26.5104 26.785 26.5104 26.7847C26.5104 26.7844 26.5104 26.7841 26.5104 26.7839C26.5104 26.7836 26.5104 26.7833 26.5104 26.7831C26.5104 26.7828 26.5104 26.7825 26.5104 26.7823C26.5104 26.782 26.5104 26.7817 26.5104 26.7815C26.5104 26.7812 26.5104 26.7809 26.5104 26.7806C26.5104 26.7804 26.5104 26.7801 26.5104 26.7798C26.5104 26.7796 26.5104 26.7793 26.5104 26.779C26.5104 26.7788 26.5104 26.7785 26.5104 26.7782C26.5104 26.778 26.5104 26.7777 26.5104 26.7774C26.5104 26.7772 26.5104 26.7769 26.5104 26.7766C26.5104 26.7764 26.5104 26.7761 26.5104 26.7758C26.5104 26.7755 26.5104 26.7753 26.5104 26.775C26.5104 26.7747 26.5104 26.7745 26.5104 26.7742C26.5104 26.7739 26.5104 26.7737 26.5104 26.7734C26.5104 26.7731 26.5104 26.7729 26.5104 26.7726C26.5104 26.7723 26.5104 26.7721 26.5104 26.7718C26.5104 26.7715 26.5104 26.7713 26.5104 26.771C26.5104 26.7707 26.5104 26.7705 26.5104 26.7702C26.5104 26.7699 26.5104 26.7697 26.5104 26.7694C26.5104 26.7691 26.5104 26.7689 26.5104 26.7686C26.5104 26.7683 26.5104 26.7681 26.5104 26.7678C26.5104 26.7675 26.5104 26.7673 26.5104 26.767C26.5104 26.7667 26.5104 26.7665 26.5104 26.7662C26.5104 26.7659 26.5104 26.7657 26.5104 26.7654C26.5104 26.7651 26.5104 26.7649 26.5104 26.7646C26.5104 26.7643 26.5104 26.7641 26.5104 26.7638C26.5104 26.7635 26.5104 26.7633 26.5104 26.763C26.5104 26.7627 26.5104 26.7625 26.5104 26.7622C26.5104 26.7619 26.5104 26.7617 26.5104 26.7614C26.5104 26.7611 26.5104 26.7609 26.5104 26.7606C26.5104 26.7603 26.5104 26.7601 26.5104 26.7598C26.5104 26.7595 26.5104 26.7593 26.5104 26.759C26.5104 26.7587 26.5104 26.7585 26.5104 26.7582C26.5104 26.7579 26.5104 26.7577 26.5104 26.7574C26.5104 26.7571 26.5104 26.7569 26.5104 26.7566C26.5104 26.7563 26.5104 26.7561 26.5104 26.7558C26.5104 26.7555 26.5104 26.7553 26.5104 26.755C26.5104 26.7548 26.5104 26.7545 26.5104 26.7542C26.5104 26.754 26.5104 26.7537 26.5104 26.7534C26.5104 26.7532 26.5104 26.7529 26.5104 26.7526C26.5104 26.7524 26.5104 26.7521 26.5104 26.7518C26.5104 26.7516 26.5104 26.7513 26.5104 26.751C26.5104 26.7508 26.5104 26.7505 26.5104 26.7503C26.5104 26.75 26.5104 26.7497 26.5104 26.7495C26.5104 26.7492 26.5104 26.7489 26.5104 26.7487C26.5104 26.7484 26.5104 26.7481 26.5104 26.7479C26.5104 26.7476 26.5104 26.7474 26.5104 26.7471C26.5104 26.7468 26.5104 26.7466 26.5104 26.7463C26.5104 26.746 26.5104 26.7458 26.5104 26.7455C26.5104 26.7452 26.5104 26.745 26.5104 26.7447C26.5104 26.7445 26.5104 26.7442 26.5104 26.7439C26.5104 26.7437 26.5104 26.7434 26.5104 26.7431C26.5104 26.7429 26.5104 26.7426 26.5104 26.7423C26.5104 26.7421 26.5104 26.7418 26.5104 26.7416C26.5104 26.7413 26.5104 26.741 26.5104 26.7408C26.5104 26.7405 26.5104 26.7402 26.5104 26.74C26.5104 26.7397 26.5104 26.7395 26.5104 26.7392C26.5104 26.7389 26.5104 26.7387 26.5104 26.7384C26.5104 26.7381 26.5104 26.7379 26.5104 26.7376C26.5104 26.7374 26.5104 26.7371 26.5104 26.7368C26.5104 26.7366 26.5104 26.7363 26.5104 26.736C26.5104 26.7358 26.5104 26.7355 26.5104 26.7353C26.5104 26.735 26.5104 26.7347 26.5104 26.7345C26.5104 26.7342 26.5104 26.7339 26.5104 26.7337C26.5104 26.7334 26.5104 26.7332 26.5104 26.7329C26.5104 26.7326 26.5104 26.7324 26.5104 26.7321C26.5104 26.7319 26.5104 26.7316 26.5104 26.7313C26.5104 26.7311 26.5104 26.7308 26.5104 26.7305C26.5104 26.7303 26.5104 26.73 26.5104 26.7298C26.5104 26.7295 26.5104 26.7292 26.5104 26.729C26.5104 26.7287 26.5104 26.7285 26.5104 26.7282C26.5104 26.7279 26.5104 26.7277 26.5104 26.7274C26.5104 26.7272 26.5104 26.7269 26.5104 26.7266C26.5104 26.7264 26.5104 26.7261 26.5104 26.7259C26.5104 26.7256 26.5104 26.7253 26.5104 26.7251C26.5104 26.7248 26.5104 26.7246 26.5104 26.7243C26.5104 26.724 26.5104 26.7238 26.5104 26.7235C26.5104 26.7233 26.5104 26.723 26.5104 26.7227C26.5104 26.7225 26.5104 26.7222 26.5104 26.722C26.5104 26.7217 26.5104 26.7214 26.5104 26.7212C26.5104 26.7209 26.5104 26.7207 26.5104 26.7204C26.5104 26.7201 26.5104 26.7199 26.5104 26.7196C26.5104 26.7194 26.5104 26.7191 26.5104 26.7188C26.5104 26.7186 26.5104 26.7183 26.5104 26.7181C26.5104 26.7178 26.5104 26.7175 26.5104 26.7173C26.5104 26.717 26.5104 26.7168 26.5104 26.7165C26.5104 26.7162 26.5104 26.716 26.5104 26.7157C26.5104 26.7155 26.5104 26.7152 26.5104 26.7149C26.5104 26.7147 26.5104 26.7144 26.5104 26.7142C26.5104 26.7139 26.5104 26.7137 26.5104 26.7134C26.5104 26.7131 26.5104 26.7129 26.5104 26.7126C26.5104 26.7124 26.5104 26.7121 26.5104 26.7118C26.5104 26.7116 26.5104 26.7113 26.5104 26.7111C26.5104 26.7108 26.5104 26.7106 26.5104 26.7103C26.5104 26.71 26.5104 26.7098 26.5104 26.7095C26.5104 26.7093 26.5104 26.709 26.5104 26.7087C26.5104 26.7085 26.5104 26.7082 26.5104 26.708C26.5104 26.7077 26.5104 26.7075 26.5104 26.7072C26.5104 26.7069 26.5104 26.7067 26.5104 26.7064C26.5104 26.7062 26.5104 26.7059 26.5104 26.7057C26.5104 26.7054 26.5104 26.7051 26.5104 26.7049C26.5104 26.7046 26.5104 26.7044 26.5104 26.7041C26.5104 26.7039 26.5104 26.7036 26.5104 26.7033C26.5104 26.7031 26.5104 26.7028 26.5104 26.7026C26.5104 26.7023 26.5104 26.7021 26.5104 26.7018C26.5104 26.7015 26.5104 26.7013 26.5104 26.701C26.5104 26.7008 26.5104 26.7005 26.5104 26.7003C26.5104 26.7 26.5104 26.6998 26.5104 26.6995C26.5104 26.6992 26.5104 26.699 26.5104 26.6987C26.5104 26.6985 26.5104 26.6982 26.5104 26.698C26.5104 26.6977 26.5104 26.6974 26.5104 26.6972C26.5104 26.6969 26.5104 26.6967 26.5104 26.6964C26.5104 26.6962 26.5104 26.6959 26.5104 26.6957C26.5104 26.6954 26.5104 26.6951 26.5104 26.6949C26.5104 26.6946 26.5104 26.6944 26.5104 26.6941C26.5104 26.6939 26.5104 26.6936 26.5104 26.6934C26.5104 26.6931 26.5104 26.6928 26.5104 26.6926C26.5104 26.6923 26.5104 26.6921 26.5104 26.6918C26.5104 26.6916 26.5104 26.6913 26.5104 26.6911C26.5104 26.6908 26.5104 26.6905 26.5104 26.6903C26.5104 26.69 26.5104 26.6898 26.5104 26.6895C26.5104 26.6893 26.5104 26.689 26.5104 26.6888C26.5104 26.6885 26.5104 26.6883 26.5104 26.688C26.5104 26.6877 26.5104 26.6875 26.5104 26.6872C26.5104 26.687 26.5104 26.6867 26.5104 26.6865C26.5104 26.6862 26.5104 26.686 26.5104 26.6857C26.5104 26.6855 26.5104 26.6852 26.5104 26.6849C26.5104 26.6847 26.5104 26.6844 26.5104 26.6842C26.5104 26.6839 26.5104 26.6837 26.5104 26.6834C26.5104 26.6832 26.5104 26.6829 26.5104 26.6827C26.5104 26.6824 26.5104 26.6822 26.5104 26.6819C26.5104 26.6817 26.5104 26.6814 26.5104 26.6811C26.5104 26.6809 26.5104 26.6806 26.5104 26.6804C26.5104 26.6801 26.5104 26.6799 26.5104 26.6796C26.5104 26.6794 26.5104 26.6791 26.5104 26.6789C26.5104 26.6786 26.5104 26.6784 26.5104 26.6781C26.5104 26.6779 26.5104 26.6776 26.5104 26.6773C26.5104 26.6771 26.5104 26.6768 26.5104 26.6766C26.5104 26.6763 26.5104 26.6761 26.5104 26.6758C26.5104 26.6756 26.5104 26.6753 26.5104 26.6751C26.5104 26.6748 26.5104 26.6746 26.5104 26.6743C26.5104 26.6741 26.5104 26.6738 26.5104 26.6736C26.5104 26.6733 26.5104 26.6731 26.5104 26.6728C26.5104 26.6726 26.5104 26.6723 26.5104 26.672C26.5104 26.6718 26.5104 26.6715 26.5104 26.6713C26.5104 26.671 26.5104 26.6708 26.5104 26.6705C26.5104 26.6703 26.5104 26.67 26.5104 26.6698C26.5104 26.6695 26.5104 26.6693 26.5104 26.669C26.5104 26.6688 26.5104 26.6685 26.5104 26.6683C26.5104 26.668 26.5104 26.6678 26.5104 26.6675C26.5104 26.6673 26.5104 26.667 26.5104 26.6668C26.5104 26.6665 26.5104 26.6663 26.5104 26.666C26.5104 26.6658 26.5104 26.6655 26.5104 26.6653C26.5104 26.665 26.5104 26.6648 26.5104 26.6645C26.5104 26.6643 26.5104 26.664 26.5104 26.6638C26.5104 26.6635 26.5104 26.6633 26.5104 26.663C26.5104 26.6628 26.5104 26.6625 26.5104 26.6623C26.5104 26.662 26.5104 26.6618 26.5104 26.6615C26.5104 26.6613 26.5104 26.661 26.5104 26.6607C26.5104 26.6605 26.5104 26.6602 26.5104 26.66C26.5104 26.6597 26.5104 26.6595 26.5104 26.6592C26.5104 26.659 26.5104 26.6587 26.5104 26.6585C26.5104 26.6583 26.5104 26.658 26.5104 26.6578C26.5104 26.6575 26.5104 26.6573 26.5104 26.657C26.5104 26.6568 26.5104 26.6565 26.5104 26.6563C26.5104 26.656 26.5104 26.6558 26.5104 26.6555C26.5104 26.6553 26.5104 26.655 26.5104 26.6548C26.5104 26.6545 26.5104 26.6543 26.5104 26.654C26.5104 26.6538 26.5104 26.6535 26.5104 26.6533C26.5104 26.653 26.5104 26.6528 26.5104 26.6525C26.5104 26.6523 26.5104 26.652 26.5104 26.6518C26.5104 26.6515 26.5104 26.6513 26.5104 26.651C26.5104 26.6508 26.5104 26.6505 26.5104 26.6503C26.5104 26.65 26.5104 26.6498 26.5104 26.6495C26.5104 26.6493 26.5104 26.649 26.5104 26.6488C26.5104 26.6485 26.5104 26.6483 26.5104 26.648C26.5104 26.6478 26.5104 26.6476 26.5104 26.6473C26.5104 26.6471 26.5104 26.6468 26.5104 26.6466C26.5104 26.6463 26.5104 26.6461 26.5104 26.6458C26.5104 26.6456 26.5104 26.6453 26.5104 26.6451C26.5104 26.6448 26.5104 26.6446 26.5104 26.6443C26.5104 26.6441 26.5104 26.6438 26.5104 26.6436C26.5104 26.6433 26.5104 26.6431 26.5104 26.6428C26.5104 26.6426 26.5104 26.6424 26.5104 26.6421C26.5104 26.6419 26.5104 26.6416 26.5104 26.6414C26.5104 26.6411 26.5104 26.6409 26.5104 26.6406C26.5104 26.6404 26.5104 26.6401 26.5104 26.6399C26.5104 26.6396 26.5104 26.6394 26.5104 26.6391C26.5104 26.6389 26.5104 26.6386 26.5104 26.6384C26.5104 26.6382 26.5104 26.6379 26.5104 26.6377C26.5104 26.6374 26.5104 26.6372 26.5104 26.6369C26.5104 26.6367 26.5104 26.6364 26.5104 26.6362C26.5104 26.6359 26.5104 26.6357 26.5104 26.6354C26.5104 26.6352 26.5104 26.635 26.5104 26.6347C26.5104 26.6345 26.5104 26.6342 26.5104 26.634C26.5104 26.6337 26.5104 26.6335 26.5104 26.6332C26.5104 26.633 26.5104 26.6327 26.5104 26.6325C26.5104 26.6323 26.5104 26.632 26.5104 26.6318C26.5104 26.6315 26.5104 26.6313 26.5104 26.631C26.5104 26.6308 26.5104 26.6305 26.5104 26.6303C26.5104 26.63 26.5104 26.6298 26.5104 26.6296C26.5104 26.6293 26.5104 26.6291 26.5104 26.6288C26.5104 26.6286 26.5104 26.6283 26.5104 26.6281C26.5104 26.6278 26.5104 26.6276 26.5104 26.6274C26.5104 26.6271 26.5104 26.6269 26.5104 26.6266C26.5104 26.6264 26.5104 26.6261 26.5104 26.6259C26.5104 26.6256 26.5104 26.6254 26.5104 26.6252C26.5104 26.6249 26.5104 26.6247 26.5104 26.6244C26.5104 26.6242 26.5104 26.6239 26.5104 26.6237C26.5104 26.6234 26.5104 26.6232 26.5104 26.623C26.5104 26.6227 26.5104 26.6225 26.5104 26.6222C26.5104 26.622 26.5104 26.6217 26.5104 26.6215C26.5104 26.6213 26.5104 26.621 26.5104 26.6208C26.5104 26.6205 26.5104 26.6203 26.5104 26.62C26.5104 26.6198 26.5104 26.6195 26.5104 26.6193C26.5104 26.6191 26.5104 26.6188 26.5104 26.6186C26.5104 26.6183 26.5104 26.6181 26.5104 26.6178C26.5104 26.6176 26.5104 26.6174 26.5104 26.6171C26.5104 26.6169 26.5104 26.6166 26.5104 26.6164C26.5104 26.6161 26.5104 26.6159 26.5104 26.6157C26.5104 26.6154 26.5104 26.6152 26.5104 26.6149C26.5104 26.6147 26.5104 26.6144 26.5104 26.6142C26.5104 26.614 26.5104 26.6137 26.5104 26.6135C26.5104 26.6132 26.5104 26.613 26.5104 26.6127C26.5104 26.6125 26.5104 26.6123 26.5104 26.612C26.5104 26.6118 26.5104 26.6115 26.5104 26.6113C26.5104 26.6111 26.5104 26.6108 26.5104 26.6106C26.5104 26.6103 26.5104 26.6101 26.5104 26.6098C26.5104 26.6096 26.5104 26.6094 26.5104 26.6091C26.5104 26.6089 26.5104 26.6086 26.5104 26.6084C26.5104 26.6082 26.5104 26.6079 26.5104 26.6077C26.5104 26.6074 26.5104 26.6072 26.5104 26.6069C26.5104 26.6067 26.5104 26.6065 26.5104 26.6062C26.5104 26.606 26.5104 26.6057 26.5104 26.6055C26.5104 26.6053 26.5104 26.605 26.5104 26.6048C26.5104 26.6045 26.5104 26.6043 26.5104 26.6041C26.5104 26.6038 26.5104 26.6036 26.5104 26.6033C26.5104 26.6031 26.5104 26.6029 26.5104 26.6026C26.5104 26.6024 26.5104 26.6021 26.5104 26.6019C26.5104 26.6017 26.5104 26.6014 26.5104 26.6012C26.5104 26.6009 26.5104 26.6007 26.5104 26.6005C26.5104 26.6002 26.5104 26.6 26.5104 26.5997C26.5104 26.5995 26.5104 26.5993 26.5104 26.599C26.5104 26.5988 26.5104 26.5985 26.5104 26.5983C26.5104 26.5981 26.5104 26.5978 26.5104 26.5976C26.5104 26.5973 26.5104 26.5971 26.5104 26.5969C26.5104 26.5966 26.5104 26.5964 26.5104 26.5961C26.5104 26.5959 26.5104 26.5957 26.5104 26.5954C26.5104 26.5952 26.5104 26.5949 26.5104 26.5947C26.5104 26.5945 26.5104 26.5942 26.5104 26.594C26.5104 26.5937 26.5104 26.5935 26.5104 26.5933C26.5104 26.593 26.5104 26.5928 26.5104 26.5925C26.5104 26.5923 26.5104 26.5921 26.5104 26.5918C26.5104 26.5916 26.5104 26.5914 26.5104 26.5911C26.5104 26.5909 26.5104 26.5906 26.5104 26.5904C26.5104 26.5902 26.5104 26.5899 26.5104 26.5897C26.5104 26.5894 26.5104 26.5892 26.5104 26.589C26.5104 26.5887 26.5104 26.5885 26.5104 26.5883C26.5104 26.588 26.5104 26.5878 26.5104 26.5875C26.5104 26.5873 26.5104 26.5871 26.5104 26.5868C26.5104 26.5866 26.5104 26.5864 26.5104 26.5861C26.5104 26.5859 26.5104 26.5856 26.5104 26.5854C26.5104 26.5852 26.5104 26.5849 26.5104 26.5847C26.5104 26.5845 26.5104 26.5842 26.5104 26.584C26.5104 26.5837 26.5104 26.5835 26.5104 26.5833C26.5104 26.583 26.5104 26.5828 26.5104 26.5826C26.5104 26.5823 26.5104 26.5821 26.5104 26.5818C26.5104 26.5816 26.5104 26.5814 26.5104 26.5811C26.5104 26.5809 26.5104 26.5807 26.5104 26.5804C26.5104 26.5802 26.5104 26.58 26.5104 26.5797C26.5104 26.5795 26.5104 26.5792 26.5104 26.579C26.5104 26.5788 26.5104 26.5785 26.5104 26.5783C26.5104 26.5781 26.5104 26.5778 26.5104 26.5776C26.5104 26.5774 26.5104 26.5771 26.5104 26.5769C26.5104 26.5766 26.5104 26.5764 26.5104 26.5762C26.5104 26.5759 26.5104 26.5757 26.5104 26.5755C26.5104 26.5752 26.5104 26.575 26.5104 26.5748C26.5104 26.5745 26.5104 26.5743 26.5104 26.574C26.5104 26.5738 26.5104 26.5736 26.5104 26.5733C26.5104 26.5731 26.5104 26.5729 26.5104 26.5726C26.5104 26.5724 26.5104 26.5722 26.5104 26.5719C26.5104 26.5717 26.5104 26.5715 26.5104 26.5712C26.5104 26.571 26.5104 26.5708 26.5104 26.5705C26.5104 26.5703 26.5104 26.5701 26.5104 26.5698C26.5104 26.5696 26.5104 26.5693 26.5104 26.5691C26.5104 26.5689 26.5104 26.5686 26.5104 26.5684C26.5104 26.5682 26.5104 26.5679 26.5104 26.5677C26.5104 26.5675 26.5104 26.5672 26.5104 26.567C26.5104 26.5668 26.5104 26.5665 26.5104 26.5663C26.5104 26.5661 26.5104 26.5658 26.5104 26.5656C26.5104 26.5654 26.5104 26.5651 26.5104 26.5649C26.5104 26.5647 26.5104 26.5644 26.5104 26.5642C26.5104 26.564 26.5104 26.5637 26.5104 26.5635C26.5104 26.5633 26.5104 26.563 26.5104 26.5628C26.5104 26.5626 26.5104 26.5623 26.5104 26.5621C26.5104 26.5619 26.5104 26.5616 26.5104 26.5614C26.5104 26.5612 26.5104 26.5609 26.5104 26.5607C26.5104 26.5605 26.5104 26.5602 26.5104 26.56C26.5104 26.5598 26.5104 26.5595 26.5104 26.5593C26.5104 26.5591 26.5104 26.5588 26.5104 26.5586C26.5104 26.5584 26.5104 26.5581 26.5104 26.5579C26.5104 26.5577 26.5104 26.5574 26.5104 26.5572C26.5104 26.557 26.5104 26.5567 26.5104 26.5565C26.5104 26.5563 26.5104 26.556 26.5104 26.5558C26.5104 26.5556 26.5104 26.5553 26.5104 26.5551C26.5104 26.5549 26.5104 26.5546 26.5104 26.5544C26.5104 26.5542 26.5104 26.5539 26.5104 26.5537C26.5104 26.5535 26.5104 26.5532 26.5104 26.553C26.5104 26.5528 26.5104 26.5525 26.5104 26.5523C26.5104 26.5521 26.5104 26.5519 26.5104 26.5516C26.5104 26.5514 26.5104 26.5512 26.5104 26.5509C26.5104 26.5507 26.5104 26.5505 26.5104 26.5502C26.5104 26.55 26.5104 26.5498 26.5104 26.5495C26.5104 26.5493 26.5104 26.5491 26.5104 26.5488C26.5104 26.5486 26.5104 26.5484 26.5104 26.5481C26.5104 26.5479 26.5104 26.5477 26.5104 26.5475C26.5104 26.5472 26.5104 26.547 26.5104 26.5468C26.5104 26.5465 26.5104 26.5463 26.5104 26.5461C26.5104 26.5458 26.5104 26.5456 26.5104 26.5454C26.5104 26.5451 26.5104 26.5449 26.5104 26.5447C26.5104 26.5445 26.5104 26.5442 26.5104 26.544C26.5104 26.5438 26.5104 26.5435 26.5104 26.5433C26.5104 26.5431 26.5104 26.5428 26.5104 26.5426C26.5104 26.5424 26.5104 26.5422 26.5104 26.5419C26.5104 26.5417 26.5104 26.5415 26.5104 26.5412C26.5104 26.541 26.5104 26.5408 26.5104 26.5405C26.5104 26.5403 26.5104 26.5401 26.5104 26.5399C26.5104 26.5396 26.5104 26.5394 26.5104 26.5392C26.5104 26.5389 26.5104 26.5387 26.5104 26.5385C26.5104 26.5382 26.5104 26.538 26.5104 26.5378C26.5104 26.5376 26.5104 26.5373 26.5104 26.5371C26.5104 26.5369 26.5104 26.5366 26.5104 26.5364C26.5104 26.5362 26.5104 26.536 26.5104 26.5357C26.5104 26.5355 26.5104 26.5353 26.5104 26.535C26.5104 26.5348 26.5104 26.5346 26.5104 26.5344C26.5104 26.5341 26.5104 26.5339 26.5104 26.5337C26.5104 26.5334 26.5104 26.5332 26.5104 26.533C26.5104 26.5328 26.5104 26.5325 26.5104 26.5323C26.5104 26.5321 26.5104 26.5318 26.5104 26.5316C26.5104 26.5314 26.5104 26.5312 26.5104 26.5309C26.5104 26.5307 26.5104 26.5305 26.5104 26.5302C26.5104 26.53 26.5104 26.5298 26.5104 26.5296C26.5104 26.5293 26.5104 26.5291 26.5104 26.5289C26.5104 26.5287 26.5104 26.5284 26.5104 26.5282C26.5104 26.528 26.5104 26.5277 26.5104 26.5275C26.5104 26.5273 26.5104 26.5271 26.5104 26.5268C26.5104 26.5266 26.5104 26.5264 26.5104 26.5262C26.5104 26.5259 26.5104 26.5257 26.5104 26.5255C26.5104 26.5252 26.5104 26.525 26.5104 26.5248C26.5104 26.5246 26.5104 26.5243 26.5104 26.5241C26.5104 26.5239 26.5104 26.5237 26.5104 26.5234C26.5104 26.5232 26.5104 26.523 26.5104 26.5227C26.5104 26.5225 26.5104 26.5223 26.5104 26.5221C26.5104 26.5218 26.5104 26.5216 26.5104 26.5214C26.5104 26.5212 26.5104 26.5209 26.5104 26.5207C26.5104 26.5205 26.5104 26.5203 26.5104 26.52C26.5104 26.5198 26.5104 26.5196 26.5104 26.5194C26.5104 26.5191 26.5104 26.5189 26.5104 26.5187C26.5104 26.5185 26.5104 26.5182 26.5104 26.518C26.5104 26.5178 26.5104 26.5175 26.5104 26.5173C26.5104 26.5171 26.5104 26.5169 26.5104 26.5166C26.5104 26.5164 26.5104 26.5162 26.5104 26.516C26.5104 26.5157 26.5104 26.5155 26.5104 26.5153C26.5104 26.5151 26.5104 26.5148 26.5104 26.5146C26.5104 26.5144 26.5104 26.5142 26.5104 26.5139C26.5104 26.5137 26.5104 26.5135 26.5104 26.5133C26.5104 26.513 26.5104 26.5128 26.5104 26.5126C26.5104 26.5124 26.5104 26.5121 26.5104 26.5119C26.5104 26.5117 26.5104 26.5115 26.5104 26.5112C26.5104 26.511 26.5104 26.5108 26.5104 26.5106C26.5104 26.5104 26.5104 26.5101 26.5104 26.5099C26.5104 26.5097 26.5104 26.5095 26.5104 26.5092C26.5104 26.509 26.5104 26.5088 26.5104 26.5086C26.5104 26.5083 26.5104 26.5081 26.5104 26.5079C26.5104 26.5077 26.5104 26.5074 26.5104 26.5072C26.5104 26.507 26.5104 26.5068 26.5104 26.5065C26.5104 26.5063 26.5104 26.5061 26.5104 26.5059C26.5104 26.5056 26.5104 26.5054 26.5104 26.5052C26.5104 26.505 26.5104 26.5048 26.5104 26.5045C26.5104 26.5043 26.5104 26.5041 26.5104 26.5039C26.5104 26.5036 26.5104 26.5034 26.5104 26.5032C26.5104 26.503 26.5104 26.5027 26.5104 26.5025C26.5104 26.5023 26.5104 26.5021 26.5104 26.5019C26.5104 26.5016 26.5104 26.5014 26.5104 26.5012C26.5104 26.501 26.5104 26.5007 26.5104 26.5005C26.5104 26.5003 26.5104 26.5001 26.5104 26.4999C26.5104 26.4996 26.5104 26.4994 26.5104 26.4992C26.5104 26.499 26.5104 26.4987 26.5104 26.4985C26.5104 26.4983 26.5104 26.4981 26.5104 26.4979C26.5104 26.4976 26.5104 26.4974 26.5104 26.4972C26.5104 26.497 26.5104 26.4967 26.5104 26.4965C26.5104 26.4963 26.5104 26.4961 26.5104 26.4959C26.5104 26.4956 26.5104 26.4954 26.5104 26.4952C26.5104 26.495 26.5104 26.4947 26.5104 26.4945C26.5104 26.4943 26.5104 26.4941 26.5104 26.4939C26.5104 26.4936 26.5104 26.4934 26.5104 26.4932C26.5104 26.493 26.5104 26.4928 26.5104 26.4925C26.5104 26.4923 26.5104 26.4921 26.5104 26.4919C26.5104 26.4917 26.5104 26.4914 26.5104 26.4912C26.5104 26.491 26.5104 26.4908 26.5104 26.4905C26.5104 26.4903 26.5104 26.4901 26.5104 26.4899C26.5104 26.4897 26.5104 26.4894 26.5104 26.4892C26.5104 26.489 26.5104 26.4888 26.5104 26.4886C26.5104 26.4883 26.5104 26.4881 26.5104 26.4879C26.5104 26.4877 26.5104 26.4875 26.5104 26.4872C26.5104 26.487 26.5104 26.4868 26.5104 26.4866C26.5104 26.4864 26.5104 26.4861 26.5104 26.4859C26.5104 26.4857 26.5104 26.4855 26.5104 26.4853C26.5104 26.485 26.5104 26.4848 26.5104 26.4846C26.5104 26.4844 26.5104 26.4842 26.5104 26.4839C26.5104 26.4837 26.5104 26.4835 26.5104 26.4833C26.5104 26.4831 26.5104 26.4828 26.5104 26.4826C26.5104 26.4824 26.5104 26.4822 26.5104 26.482C26.5104 26.4818 26.5104 26.4815 26.5104 26.4813C26.5104 26.4811 26.5104 26.4809 26.5104 26.4807C26.5104 26.4804 26.5104 26.4802 26.5104 26.48H24.5104C24.5104 26.4802 24.5104 26.4804 24.5104 26.4807C24.5104 26.4809 24.5104 26.4811 24.5104 26.4813C24.5104 26.4815 24.5104 26.4818 24.5104 26.482C24.5104 26.4822 24.5104 26.4824 24.5104 26.4826C24.5104 26.4828 24.5104 26.4831 24.5104 26.4833C24.5104 26.4835 24.5104 26.4837 24.5104 26.4839C24.5104 26.4842 24.5104 26.4844 24.5104 26.4846C24.5104 26.4848 24.5104 26.485 24.5104 26.4853C24.5104 26.4855 24.5104 26.4857 24.5104 26.4859C24.5104 26.4861 24.5104 26.4864 24.5104 26.4866C24.5104 26.4868 24.5104 26.487 24.5104 26.4872C24.5104 26.4875 24.5104 26.4877 24.5104 26.4879C24.5104 26.4881 24.5104 26.4883 24.5104 26.4886C24.5104 26.4888 24.5104 26.489 24.5104 26.4892C24.5104 26.4894 24.5104 26.4897 24.5104 26.4899C24.5104 26.4901 24.5104 26.4903 24.5104 26.4905C24.5104 26.4908 24.5104 26.491 24.5104 26.4912C24.5104 26.4914 24.5104 26.4917 24.5104 26.4919C24.5104 26.4921 24.5104 26.4923 24.5104 26.4925C24.5104 26.4928 24.5104 26.493 24.5104 26.4932C24.5104 26.4934 24.5104 26.4936 24.5104 26.4939C24.5104 26.4941 24.5104 26.4943 24.5104 26.4945C24.5104 26.4947 24.5104 26.495 24.5104 26.4952C24.5104 26.4954 24.5104 26.4956 24.5104 26.4959C24.5104 26.4961 24.5104 26.4963 24.5104 26.4965C24.5104 26.4967 24.5104 26.497 24.5104 26.4972C24.5104 26.4974 24.5104 26.4976 24.5104 26.4979C24.5104 26.4981 24.5104 26.4983 24.5104 26.4985C24.5104 26.4987 24.5104 26.499 24.5104 26.4992C24.5104 26.4994 24.5104 26.4996 24.5104 26.4999C24.5104 26.5001 24.5104 26.5003 24.5104 26.5005C24.5104 26.5007 24.5104 26.501 24.5104 26.5012C24.5104 26.5014 24.5104 26.5016 24.5104 26.5019C24.5104 26.5021 24.5104 26.5023 24.5104 26.5025C24.5104 26.5027 24.5104 26.503 24.5104 26.5032C24.5104 26.5034 24.5104 26.5036 24.5104 26.5039C24.5104 26.5041 24.5104 26.5043 24.5104 26.5045C24.5104 26.5048 24.5104 26.505 24.5104 26.5052C24.5104 26.5054 24.5104 26.5056 24.5104 26.5059C24.5104 26.5061 24.5104 26.5063 24.5104 26.5065C24.5104 26.5068 24.5104 26.507 24.5104 26.5072C24.5104 26.5074 24.5104 26.5077 24.5104 26.5079C24.5104 26.5081 24.5104 26.5083 24.5104 26.5086C24.5104 26.5088 24.5104 26.509 24.5104 26.5092C24.5104 26.5095 24.5104 26.5097 24.5104 26.5099C24.5104 26.5101 24.5104 26.5104 24.5104 26.5106C24.5104 26.5108 24.5104 26.511 24.5104 26.5112C24.5104 26.5115 24.5104 26.5117 24.5104 26.5119C24.5104 26.5121 24.5104 26.5124 24.5104 26.5126C24.5104 26.5128 24.5104 26.513 24.5104 26.5133C24.5104 26.5135 24.5104 26.5137 24.5104 26.5139C24.5104 26.5142 24.5104 26.5144 24.5104 26.5146C24.5104 26.5148 24.5104 26.5151 24.5104 26.5153C24.5104 26.5155 24.5104 26.5157 24.5104 26.516C24.5104 26.5162 24.5104 26.5164 24.5104 26.5166C24.5104 26.5169 24.5104 26.5171 24.5104 26.5173C24.5104 26.5175 24.5104 26.5178 24.5104 26.518C24.5104 26.5182 24.5104 26.5185 24.5104 26.5187C24.5104 26.5189 24.5104 26.5191 24.5104 26.5194C24.5104 26.5196 24.5104 26.5198 24.5104 26.52C24.5104 26.5203 24.5104 26.5205 24.5104 26.5207C24.5104 26.5209 24.5104 26.5212 24.5104 26.5214C24.5104 26.5216 24.5104 26.5218 24.5104 26.5221C24.5104 26.5223 24.5104 26.5225 24.5104 26.5227C24.5104 26.523 24.5104 26.5232 24.5104 26.5234C24.5104 26.5237 24.5104 26.5239 24.5104 26.5241C24.5104 26.5243 24.5104 26.5246 24.5104 26.5248C24.5104 26.525 24.5104 26.5252 24.5104 26.5255C24.5104 26.5257 24.5104 26.5259 24.5104 26.5262C24.5104 26.5264 24.5104 26.5266 24.5104 26.5268C24.5104 26.5271 24.5104 26.5273 24.5104 26.5275C24.5104 26.5277 24.5104 26.528 24.5104 26.5282C24.5104 26.5284 24.5104 26.5287 24.5104 26.5289C24.5104 26.5291 24.5104 26.5293 24.5104 26.5296C24.5104 26.5298 24.5104 26.53 24.5104 26.5302C24.5104 26.5305 24.5104 26.5307 24.5104 26.5309C24.5104 26.5312 24.5104 26.5314 24.5104 26.5316C24.5104 26.5318 24.5104 26.5321 24.5104 26.5323C24.5104 26.5325 24.5104 26.5328 24.5104 26.533C24.5104 26.5332 24.5104 26.5334 24.5104 26.5337C24.5104 26.5339 24.5104 26.5341 24.5104 26.5344C24.5104 26.5346 24.5104 26.5348 24.5104 26.535C24.5104 26.5353 24.5104 26.5355 24.5104 26.5357C24.5104 26.536 24.5104 26.5362 24.5104 26.5364C24.5104 26.5366 24.5104 26.5369 24.5104 26.5371C24.5104 26.5373 24.5104 26.5376 24.5104 26.5378C24.5104 26.538 24.5104 26.5382 24.5104 26.5385C24.5104 26.5387 24.5104 26.5389 24.5104 26.5392C24.5104 26.5394 24.5104 26.5396 24.5104 26.5399C24.5104 26.5401 24.5104 26.5403 24.5104 26.5405C24.5104 26.5408 24.5104 26.541 24.5104 26.5412C24.5104 26.5415 24.5104 26.5417 24.5104 26.5419C24.5104 26.5422 24.5104 26.5424 24.5104 26.5426C24.5104 26.5428 24.5104 26.5431 24.5104 26.5433C24.5104 26.5435 24.5104 26.5438 24.5104 26.544C24.5104 26.5442 24.5104 26.5445 24.5104 26.5447C24.5104 26.5449 24.5104 26.5451 24.5104 26.5454C24.5104 26.5456 24.5104 26.5458 24.5104 26.5461C24.5104 26.5463 24.5104 26.5465 24.5104 26.5468C24.5104 26.547 24.5104 26.5472 24.5104 26.5475C24.5104 26.5477 24.5104 26.5479 24.5104 26.5481C24.5104 26.5484 24.5104 26.5486 24.5104 26.5488C24.5104 26.5491 24.5104 26.5493 24.5104 26.5495C24.5104 26.5498 24.5104 26.55 24.5104 26.5502C24.5104 26.5505 24.5104 26.5507 24.5104 26.5509C24.5104 26.5512 24.5104 26.5514 24.5104 26.5516C24.5104 26.5519 24.5104 26.5521 24.5104 26.5523C24.5104 26.5525 24.5104 26.5528 24.5104 26.553C24.5104 26.5532 24.5104 26.5535 24.5104 26.5537C24.5104 26.5539 24.5104 26.5542 24.5104 26.5544C24.5104 26.5546 24.5104 26.5549 24.5104 26.5551C24.5104 26.5553 24.5104 26.5556 24.5104 26.5558C24.5104 26.556 24.5104 26.5563 24.5104 26.5565C24.5104 26.5567 24.5104 26.557 24.5104 26.5572C24.5104 26.5574 24.5104 26.5577 24.5104 26.5579C24.5104 26.5581 24.5104 26.5584 24.5104 26.5586C24.5104 26.5588 24.5104 26.5591 24.5104 26.5593C24.5104 26.5595 24.5104 26.5598 24.5104 26.56C24.5104 26.5602 24.5104 26.5605 24.5104 26.5607C24.5104 26.5609 24.5104 26.5612 24.5104 26.5614C24.5104 26.5616 24.5104 26.5619 24.5104 26.5621C24.5104 26.5623 24.5104 26.5626 24.5104 26.5628C24.5104 26.563 24.5104 26.5633 24.5104 26.5635C24.5104 26.5637 24.5104 26.564 24.5104 26.5642C24.5104 26.5644 24.5104 26.5647 24.5104 26.5649C24.5104 26.5651 24.5104 26.5654 24.5104 26.5656C24.5104 26.5658 24.5104 26.5661 24.5104 26.5663C24.5104 26.5665 24.5104 26.5668 24.5104 26.567C24.5104 26.5672 24.5104 26.5675 24.5104 26.5677C24.5104 26.5679 24.5104 26.5682 24.5104 26.5684C24.5104 26.5686 24.5104 26.5689 24.5104 26.5691C24.5104 26.5693 24.5104 26.5696 24.5104 26.5698C24.5104 26.5701 24.5104 26.5703 24.5104 26.5705C24.5104 26.5708 24.5104 26.571 24.5104 26.5712C24.5104 26.5715 24.5104 26.5717 24.5104 26.5719C24.5104 26.5722 24.5104 26.5724 24.5104 26.5726C24.5104 26.5729 24.5104 26.5731 24.5104 26.5733C24.5104 26.5736 24.5104 26.5738 24.5104 26.574C24.5104 26.5743 24.5104 26.5745 24.5104 26.5748C24.5104 26.575 24.5104 26.5752 24.5104 26.5755C24.5104 26.5757 24.5104 26.5759 24.5104 26.5762C24.5104 26.5764 24.5104 26.5766 24.5104 26.5769C24.5104 26.5771 24.5104 26.5774 24.5104 26.5776C24.5104 26.5778 24.5104 26.5781 24.5104 26.5783C24.5104 26.5785 24.5104 26.5788 24.5104 26.579C24.5104 26.5792 24.5104 26.5795 24.5104 26.5797C24.5104 26.58 24.5104 26.5802 24.5104 26.5804C24.5104 26.5807 24.5104 26.5809 24.5104 26.5811C24.5104 26.5814 24.5104 26.5816 24.5104 26.5818C24.5104 26.5821 24.5104 26.5823 24.5104 26.5826C24.5104 26.5828 24.5104 26.583 24.5104 26.5833C24.5104 26.5835 24.5104 26.5837 24.5104 26.584C24.5104 26.5842 24.5104 26.5845 24.5104 26.5847C24.5104 26.5849 24.5104 26.5852 24.5104 26.5854C24.5104 26.5856 24.5104 26.5859 24.5104 26.5861C24.5104 26.5864 24.5104 26.5866 24.5104 26.5868C24.5104 26.5871 24.5104 26.5873 24.5104 26.5875C24.5104 26.5878 24.5104 26.588 24.5104 26.5883C24.5104 26.5885 24.5104 26.5887 24.5104 26.589C24.5104 26.5892 24.5104 26.5894 24.5104 26.5897C24.5104 26.5899 24.5104 26.5902 24.5104 26.5904C24.5104 26.5906 24.5104 26.5909 24.5104 26.5911C24.5104 26.5914 24.5104 26.5916 24.5104 26.5918C24.5104 26.5921 24.5104 26.5923 24.5104 26.5925C24.5104 26.5928 24.5104 26.593 24.5104 26.5933C24.5104 26.5935 24.5104 26.5937 24.5104 26.594C24.5104 26.5942 24.5104 26.5945 24.5104 26.5947C24.5104 26.5949 24.5104 26.5952 24.5104 26.5954C24.5104 26.5957 24.5104 26.5959 24.5104 26.5961C24.5104 26.5964 24.5104 26.5966 24.5104 26.5969C24.5104 26.5971 24.5104 26.5973 24.5104 26.5976C24.5104 26.5978 24.5104 26.5981 24.5104 26.5983C24.5104 26.5985 24.5104 26.5988 24.5104 26.599C24.5104 26.5993 24.5104 26.5995 24.5104 26.5997C24.5104 26.6 24.5104 26.6002 24.5104 26.6005C24.5104 26.6007 24.5104 26.6009 24.5104 26.6012C24.5104 26.6014 24.5104 26.6017 24.5104 26.6019C24.5104 26.6021 24.5104 26.6024 24.5104 26.6026C24.5104 26.6029 24.5104 26.6031 24.5104 26.6033C24.5104 26.6036 24.5104 26.6038 24.5104 26.6041C24.5104 26.6043 24.5104 26.6045 24.5104 26.6048C24.5104 26.605 24.5104 26.6053 24.5104 26.6055C24.5104 26.6057 24.5104 26.606 24.5104 26.6062C24.5104 26.6065 24.5104 26.6067 24.5104 26.6069C24.5104 26.6072 24.5104 26.6074 24.5104 26.6077C24.5104 26.6079 24.5104 26.6082 24.5104 26.6084C24.5104 26.6086 24.5104 26.6089 24.5104 26.6091C24.5104 26.6094 24.5104 26.6096 24.5104 26.6098C24.5104 26.6101 24.5104 26.6103 24.5104 26.6106C24.5104 26.6108 24.5104 26.6111 24.5104 26.6113C24.5104 26.6115 24.5104 26.6118 24.5104 26.612C24.5104 26.6123 24.5104 26.6125 24.5104 26.6127C24.5104 26.613 24.5104 26.6132 24.5104 26.6135C24.5104 26.6137 24.5104 26.614 24.5104 26.6142C24.5104 26.6144 24.5104 26.6147 24.5104 26.6149C24.5104 26.6152 24.5104 26.6154 24.5104 26.6157C24.5104 26.6159 24.5104 26.6161 24.5104 26.6164C24.5104 26.6166 24.5104 26.6169 24.5104 26.6171C24.5104 26.6174 24.5104 26.6176 24.5104 26.6178C24.5104 26.6181 24.5104 26.6183 24.5104 26.6186C24.5104 26.6188 24.5104 26.6191 24.5104 26.6193C24.5104 26.6195 24.5104 26.6198 24.5104 26.62C24.5104 26.6203 24.5104 26.6205 24.5104 26.6208C24.5104 26.621 24.5104 26.6213 24.5104 26.6215C24.5104 26.6217 24.5104 26.622 24.5104 26.6222C24.5104 26.6225 24.5104 26.6227 24.5104 26.623C24.5104 26.6232 24.5104 26.6234 24.5104 26.6237C24.5104 26.6239 24.5104 26.6242 24.5104 26.6244C24.5104 26.6247 24.5104 26.6249 24.5104 26.6252C24.5104 26.6254 24.5104 26.6256 24.5104 26.6259C24.5104 26.6261 24.5104 26.6264 24.5104 26.6266C24.5104 26.6269 24.5104 26.6271 24.5104 26.6274C24.5104 26.6276 24.5104 26.6278 24.5104 26.6281C24.5104 26.6283 24.5104 26.6286 24.5104 26.6288C24.5104 26.6291 24.5104 26.6293 24.5104 26.6296C24.5104 26.6298 24.5104 26.63 24.5104 26.6303C24.5104 26.6305 24.5104 26.6308 24.5104 26.631C24.5104 26.6313 24.5104 26.6315 24.5104 26.6318C24.5104 26.632 24.5104 26.6323 24.5104 26.6325C24.5104 26.6327 24.5104 26.633 24.5104 26.6332C24.5104 26.6335 24.5104 26.6337 24.5104 26.634C24.5104 26.6342 24.5104 26.6345 24.5104 26.6347C24.5104 26.635 24.5104 26.6352 24.5104 26.6354C24.5104 26.6357 24.5104 26.6359 24.5104 26.6362C24.5104 26.6364 24.5104 26.6367 24.5104 26.6369C24.5104 26.6372 24.5104 26.6374 24.5104 26.6377C24.5104 26.6379 24.5104 26.6382 24.5104 26.6384C24.5104 26.6386 24.5104 26.6389 24.5104 26.6391C24.5104 26.6394 24.5104 26.6396 24.5104 26.6399C24.5104 26.6401 24.5104 26.6404 24.5104 26.6406C24.5104 26.6409 24.5104 26.6411 24.5104 26.6414C24.5104 26.6416 24.5104 26.6419 24.5104 26.6421C24.5104 26.6424 24.5104 26.6426 24.5104 26.6428C24.5104 26.6431 24.5104 26.6433 24.5104 26.6436C24.5104 26.6438 24.5104 26.6441 24.5104 26.6443C24.5104 26.6446 24.5104 26.6448 24.5104 26.6451C24.5104 26.6453 24.5104 26.6456 24.5104 26.6458C24.5104 26.6461 24.5104 26.6463 24.5104 26.6466C24.5104 26.6468 24.5104 26.6471 24.5104 26.6473C24.5104 26.6476 24.5104 26.6478 24.5104 26.648C24.5104 26.6483 24.5104 26.6485 24.5104 26.6488C24.5104 26.649 24.5104 26.6493 24.5104 26.6495C24.5104 26.6498 24.5104 26.65 24.5104 26.6503C24.5104 26.6505 24.5104 26.6508 24.5104 26.651C24.5104 26.6513 24.5104 26.6515 24.5104 26.6518C24.5104 26.652 24.5104 26.6523 24.5104 26.6525C24.5104 26.6528 24.5104 26.653 24.5104 26.6533C24.5104 26.6535 24.5104 26.6538 24.5104 26.654C24.5104 26.6543 24.5104 26.6545 24.5104 26.6548C24.5104 26.655 24.5104 26.6553 24.5104 26.6555C24.5104 26.6558 24.5104 26.656 24.5104 26.6563C24.5104 26.6565 24.5104 26.6568 24.5104 26.657C24.5104 26.6573 24.5104 26.6575 24.5104 26.6578C24.5104 26.658 24.5104 26.6583 24.5104 26.6585C24.5104 26.6587 24.5104 26.659 24.5104 26.6592C24.5104 26.6595 24.5104 26.6597 24.5104 26.66C24.5104 26.6602 24.5104 26.6605 24.5104 26.6607C24.5104 26.661 24.5104 26.6613 24.5104 26.6615C24.5104 26.6618 24.5104 26.662 24.5104 26.6623C24.5104 26.6625 24.5104 26.6628 24.5104 26.663C24.5104 26.6633 24.5104 26.6635 24.5104 26.6638C24.5104 26.664 24.5104 26.6643 24.5104 26.6645C24.5104 26.6648 24.5104 26.665 24.5104 26.6653C24.5104 26.6655 24.5104 26.6658 24.5104 26.666C24.5104 26.6663 24.5104 26.6665 24.5104 26.6668C24.5104 26.667 24.5104 26.6673 24.5104 26.6675C24.5104 26.6678 24.5104 26.668 24.5104 26.6683C24.5104 26.6685 24.5104 26.6688 24.5104 26.669C24.5104 26.6693 24.5104 26.6695 24.5104 26.6698C24.5104 26.67 24.5104 26.6703 24.5104 26.6705C24.5104 26.6708 24.5104 26.671 24.5104 26.6713C24.5104 26.6715 24.5104 26.6718 24.5104 26.672C24.5104 26.6723 24.5104 26.6726 24.5104 26.6728C24.5104 26.6731 24.5104 26.6733 24.5104 26.6736C24.5104 26.6738 24.5104 26.6741 24.5104 26.6743C24.5104 26.6746 24.5104 26.6748 24.5104 26.6751C24.5104 26.6753 24.5104 26.6756 24.5104 26.6758C24.5104 26.6761 24.5104 26.6763 24.5104 26.6766C24.5104 26.6768 24.5104 26.6771 24.5104 26.6773C24.5104 26.6776 24.5104 26.6779 24.5104 26.6781C24.5104 26.6784 24.5104 26.6786 24.5104 26.6789C24.5104 26.6791 24.5104 26.6794 24.5104 26.6796C24.5104 26.6799 24.5104 26.6801 24.5104 26.6804C24.5104 26.6806 24.5104 26.6809 24.5104 26.6811C24.5104 26.6814 24.5104 26.6817 24.5104 26.6819C24.5104 26.6822 24.5104 26.6824 24.5104 26.6827C24.5104 26.6829 24.5104 26.6832 24.5104 26.6834C24.5104 26.6837 24.5104 26.6839 24.5104 26.6842C24.5104 26.6844 24.5104 26.6847 24.5104 26.6849C24.5104 26.6852 24.5104 26.6855 24.5104 26.6857C24.5104 26.686 24.5104 26.6862 24.5104 26.6865C24.5104 26.6867 24.5104 26.687 24.5104 26.6872C24.5104 26.6875 24.5104 26.6877 24.5104 26.688C24.5104 26.6883 24.5104 26.6885 24.5104 26.6888C24.5104 26.689 24.5104 26.6893 24.5104 26.6895C24.5104 26.6898 24.5104 26.69 24.5104 26.6903C24.5104 26.6905 24.5104 26.6908 24.5104 26.6911C24.5104 26.6913 24.5104 26.6916 24.5104 26.6918C24.5104 26.6921 24.5104 26.6923 24.5104 26.6926C24.5104 26.6928 24.5104 26.6931 24.5104 26.6934C24.5104 26.6936 24.5104 26.6939 24.5104 26.6941C24.5104 26.6944 24.5104 26.6946 24.5104 26.6949C24.5104 26.6951 24.5104 26.6954 24.5104 26.6957C24.5104 26.6959 24.5104 26.6962 24.5104 26.6964C24.5104 26.6967 24.5104 26.6969 24.5104 26.6972C24.5104 26.6974 24.5104 26.6977 24.5104 26.698C24.5104 26.6982 24.5104 26.6985 24.5104 26.6987C24.5104 26.699 24.5104 26.6992 24.5104 26.6995C24.5104 26.6998 24.5104 26.7 24.5104 26.7003C24.5104 26.7005 24.5104 26.7008 24.5104 26.701C24.5104 26.7013 24.5104 26.7015 24.5104 26.7018C24.5104 26.7021 24.5104 26.7023 24.5104 26.7026C24.5104 26.7028 24.5104 26.7031 24.5104 26.7033C24.5104 26.7036 24.5104 26.7039 24.5104 26.7041C24.5104 26.7044 24.5104 26.7046 24.5104 26.7049C24.5104 26.7051 24.5104 26.7054 24.5104 26.7057C24.5104 26.7059 24.5104 26.7062 24.5104 26.7064C24.5104 26.7067 24.5104 26.7069 24.5104 26.7072C24.5104 26.7075 24.5104 26.7077 24.5104 26.708C24.5104 26.7082 24.5104 26.7085 24.5104 26.7087C24.5104 26.709 24.5104 26.7093 24.5104 26.7095C24.5104 26.7098 24.5104 26.71 24.5104 26.7103C24.5104 26.7106 24.5104 26.7108 24.5104 26.7111C24.5104 26.7113 24.5104 26.7116 24.5104 26.7118C24.5104 26.7121 24.5104 26.7124 24.5104 26.7126C24.5104 26.7129 24.5104 26.7131 24.5104 26.7134C24.5104 26.7137 24.5104 26.7139 24.5104 26.7142C24.5104 26.7144 24.5104 26.7147 24.5104 26.7149C24.5104 26.7152 24.5104 26.7155 24.5104 26.7157C24.5104 26.716 24.5104 26.7162 24.5104 26.7165C24.5104 26.7168 24.5104 26.717 24.5104 26.7173C24.5104 26.7175 24.5104 26.7178 24.5104 26.7181C24.5104 26.7183 24.5104 26.7186 24.5104 26.7188C24.5104 26.7191 24.5104 26.7194 24.5104 26.7196C24.5104 26.7199 24.5104 26.7201 24.5104 26.7204C24.5104 26.7207 24.5104 26.7209 24.5104 26.7212C24.5104 26.7214 24.5104 26.7217 24.5104 26.722C24.5104 26.7222 24.5104 26.7225 24.5104 26.7227C24.5104 26.723 24.5104 26.7233 24.5104 26.7235C24.5104 26.7238 24.5104 26.724 24.5104 26.7243C24.5104 26.7246 24.5104 26.7248 24.5104 26.7251C24.5104 26.7253 24.5104 26.7256 24.5104 26.7259C24.5104 26.7261 24.5104 26.7264 24.5104 26.7266C24.5104 26.7269 24.5104 26.7272 24.5104 26.7274C24.5104 26.7277 24.5104 26.7279 24.5104 26.7282C24.5104 26.7285 24.5104 26.7287 24.5104 26.729C24.5104 26.7292 24.5104 26.7295 24.5104 26.7298C24.5104 26.73 24.5104 26.7303 24.5104 26.7305C24.5104 26.7308 24.5104 26.7311 24.5104 26.7313C24.5104 26.7316 24.5104 26.7319 24.5104 26.7321C24.5104 26.7324 24.5104 26.7326 24.5104 26.7329C24.5104 26.7332 24.5104 26.7334 24.5104 26.7337C24.5104 26.7339 24.5104 26.7342 24.5104 26.7345C24.5104 26.7347 24.5104 26.735 24.5104 26.7353C24.5104 26.7355 24.5104 26.7358 24.5104 26.736C24.5104 26.7363 24.5104 26.7366 24.5104 26.7368C24.5104 26.7371 24.5104 26.7374 24.5104 26.7376C24.5104 26.7379 24.5104 26.7381 24.5104 26.7384C24.5104 26.7387 24.5104 26.7389 24.5104 26.7392C24.5104 26.7395 24.5104 26.7397 24.5104 26.74C24.5104 26.7402 24.5104 26.7405 24.5104 26.7408C24.5104 26.741 24.5104 26.7413 24.5104 26.7416C24.5104 26.7418 24.5104 26.7421 24.5104 26.7423C24.5104 26.7426 24.5104 26.7429 24.5104 26.7431C24.5104 26.7434 24.5104 26.7437 24.5104 26.7439C24.5104 26.7442 24.5104 26.7445 24.5104 26.7447C24.5104 26.745 24.5104 26.7452 24.5104 26.7455C24.5104 26.7458 24.5104 26.746 24.5104 26.7463C24.5104 26.7466 24.5104 26.7468 24.5104 26.7471C24.5104 26.7474 24.5104 26.7476 24.5104 26.7479C24.5104 26.7481 24.5104 26.7484 24.5104 26.7487C24.5104 26.7489 24.5104 26.7492 24.5104 26.7495C24.5104 26.7497 24.5104 26.75 24.5104 26.7503C24.5104 26.7505 24.5104 26.7508 24.5104 26.751C24.5104 26.7513 24.5104 26.7516 24.5104 26.7518C24.5104 26.7521 24.5104 26.7524 24.5104 26.7526C24.5104 26.7529 24.5104 26.7532 24.5104 26.7534C24.5104 26.7537 24.5104 26.754 24.5104 26.7542C24.5104 26.7545 24.5104 26.7548 24.5104 26.755C24.5104 26.7553 24.5104 26.7555 24.5104 26.7558C24.5104 26.7561 24.5104 26.7563 24.5104 26.7566C24.5104 26.7569 24.5104 26.7571 24.5104 26.7574C24.5104 26.7577 24.5104 26.7579 24.5104 26.7582C24.5104 26.7585 24.5104 26.7587 24.5104 26.759C24.5104 26.7593 24.5104 26.7595 24.5104 26.7598C24.5104 26.7601 24.5104 26.7603 24.5104 26.7606C24.5104 26.7609 24.5104 26.7611 24.5104 26.7614C24.5104 26.7617 24.5104 26.7619 24.5104 26.7622C24.5104 26.7625 24.5104 26.7627 24.5104 26.763C24.5104 26.7633 24.5104 26.7635 24.5104 26.7638C24.5104 26.7641 24.5104 26.7643 24.5104 26.7646C24.5104 26.7649 24.5104 26.7651 24.5104 26.7654C24.5104 26.7657 24.5104 26.7659 24.5104 26.7662C24.5104 26.7665 24.5104 26.7667 24.5104 26.767C24.5104 26.7673 24.5104 26.7675 24.5104 26.7678C24.5104 26.7681 24.5104 26.7683 24.5104 26.7686C24.5104 26.7689 24.5104 26.7691 24.5104 26.7694C24.5104 26.7697 24.5104 26.7699 24.5104 26.7702C24.5104 26.7705 24.5104 26.7707 24.5104 26.771C24.5104 26.7713 24.5104 26.7715 24.5104 26.7718C24.5104 26.7721 24.5104 26.7723 24.5104 26.7726C24.5104 26.7729 24.5104 26.7731 24.5104 26.7734C24.5104 26.7737 24.5104 26.7739 24.5104 26.7742C24.5104 26.7745 24.5104 26.7747 24.5104 26.775C24.5104 26.7753 24.5104 26.7755 24.5104 26.7758C24.5104 26.7761 24.5104 26.7764 24.5104 26.7766C24.5104 26.7769 24.5104 26.7772 24.5104 26.7774C24.5104 26.7777 24.5104 26.778 24.5104 26.7782C24.5104 26.7785 24.5104 26.7788 24.5104 26.779C24.5104 26.7793 24.5104 26.7796 24.5104 26.7798C24.5104 26.7801 24.5104 26.7804 24.5104 26.7806C24.5104 26.7809 24.5104 26.7812 24.5104 26.7815C24.5104 26.7817 24.5104 26.782 24.5104 26.7823C24.5104 26.7825 24.5104 26.7828 24.5104 26.7831C24.5104 26.7833 24.5104 26.7836 24.5104 26.7839C24.5104 26.7841 24.5104 26.7844 24.5104 26.7847C24.5104 26.785 24.5104 26.7852 24.5104 26.7855C24.5104 26.7858 24.5104 26.786 24.5104 26.7863C24.5104 26.7866 24.5104 26.7868 24.5104 26.7871C24.5104 26.7874 24.5104 26.7877 24.5104 26.7879C24.5104 26.7882 24.5104 26.7885 24.5104 26.7887C24.5104 26.789 24.5104 26.7893 24.5104 26.7895C24.5104 26.7898 24.5104 26.7901 24.5104 26.7904C24.5104 26.7906 24.5104 26.7909 24.5104 26.7912C24.5104 26.7914 24.5104 26.7917 24.5104 26.792C24.5104 26.7922 24.5104 26.7925 24.5104 26.7928C24.5104 26.7931 24.5104 26.7933 24.5104 26.7936C24.5104 26.7939 24.5104 26.7941 24.5104 26.7944C24.5104 26.7947 24.5104 26.795 24.5104 26.7952C24.5104 26.7955 24.5104 26.7958 24.5104 26.796C24.5104 26.7963 24.5104 26.7966 24.5104 26.7969C24.5104 26.7971 24.5104 26.7974 24.5104 26.7977C24.5104 26.7979 24.5104 26.7982 24.5104 26.7985C24.5104 26.7988 24.5104 26.799 24.5104 26.7993C24.5104 26.7996 24.5104 26.7998 24.5104 26.8001C24.5104 26.8004 24.5104 26.8007 24.5104 26.8009C24.5104 26.8012 24.5104 26.8015 24.5104 26.8017C24.5104 26.802 24.5104 26.8023 24.5104 26.8026C24.5104 26.8028 24.5104 26.8031 24.5104 26.8034C24.5104 26.8037 24.5104 26.8039 24.5104 26.8042C24.5104 26.8045 24.5104 26.8047 24.5104 26.805C24.5104 26.8053 24.5104 26.8056 24.5104 26.8058C24.5104 26.8061 24.5104 26.8064 24.5104 26.8067C24.5104 26.8069 24.5104 26.8072 24.5104 26.8075C24.5104 26.8077 24.5104 26.808 24.5104 26.8083C24.5104 26.8086 24.5104 26.8088 24.5104 26.8091C24.5104 26.8094 24.5104 26.8097 24.5104 26.8099C24.5104 26.8102 24.5104 26.8105 24.5104 26.8108C24.5104 26.811 24.5104 26.8113 24.5104 26.8116C24.5104 26.8118 24.5104 26.8121 24.5104 26.8124C24.5104 26.8127 24.5104 26.8129 24.5104 26.8132C24.5104 26.8135 24.5104 26.8138 24.5104 26.814C24.5104 26.8143 24.5104 26.8146 24.5104 26.8149C24.5104 26.8151 24.5104 26.8154 24.5104 26.8157C24.5104 26.816 24.5104 26.8162 24.5104 26.8165C24.5104 26.8168 24.5104 26.817 24.5104 26.8173C24.5104 26.8176 24.5104 26.8179 24.5104 26.8181C24.5104 26.8184 24.5104 26.8187 24.5104 26.819C24.5104 26.8192 24.5104 26.8195 24.5104 26.8198C24.5104 26.8201 24.5104 26.8203 24.5104 26.8206C24.5104 26.8209 24.5104 26.8212 24.5104 26.8214C24.5104 26.8217 24.5104 26.822 24.5104 26.8223C24.5104 26.8225 24.5104 26.8228 24.5104 26.8231C24.5104 26.8234 24.5104 26.8236 24.5104 26.8239C24.5104 26.8242 24.5104 26.8245 24.5104 26.8247C24.5104 26.825 24.5104 26.8253 24.5104 26.8256C24.5104 26.8259 24.5104 26.8261 24.5104 26.8264C24.5104 26.8267 24.5104 26.827 24.5104 26.8272C24.5104 26.8275 24.5104 26.8278 24.5104 26.8281C24.5104 26.8283 24.5104 26.8286 24.5104 26.8289C24.5104 26.8292 24.5104 26.8294 24.5104 26.8297C24.5104 26.83 24.5104 26.8303 24.5104 26.8305C24.5104 26.8308 24.5104 26.8311 24.5104 26.8314C24.5104 26.8316 24.5104 26.8319 24.5104 26.8322C24.5104 26.8325 24.5104 26.8328 24.5104 26.833C24.5104 26.8333 24.5104 26.8336 24.5104 26.8339C24.5104 26.8341 24.5104 26.8344 24.5104 26.8347C24.5104 26.835 24.5104 26.8352 24.5104 26.8355C24.5104 26.8358 24.5104 26.8361 24.5104 26.8364C24.5104 26.8366 24.5104 26.8369 24.5104 26.8372C24.5104 26.8375 24.5104 26.8377 24.5104 26.838C24.5104 26.8383 24.5104 26.8386 24.5104 26.8389C24.5104 26.8391 24.5104 26.8394 24.5104 26.8397C24.5104 26.84 24.5104 26.8402 24.5104 26.8405C24.5104 26.8408 24.5104 26.8411 24.5104 26.8414C24.5104 26.8416 24.5104 26.8419 24.5104 26.8422C24.5104 26.8425 24.5104 26.8427 24.5104 26.843C24.5104 26.8433 24.5104 26.8436 24.5104 26.8439C24.5104 26.8441 24.5104 26.8444 24.5104 26.8447C24.5104 26.845 24.5104 26.8452 24.5104 26.8455C24.5104 26.8458 24.5104 26.8461 24.5104 26.8464C24.5104 26.8466 24.5104 26.8469 24.5104 26.8472C24.5104 26.8475 24.5104 26.8478 24.5104 26.848C24.5104 26.8483 24.5104 26.8486 24.5104 26.8489C24.5104 26.8492 24.5104 26.8494 24.5104 26.8497C24.5104 26.85 24.5104 26.8503 24.5104 26.8505C24.5104 26.8508 24.5104 26.8511 24.5104 26.8514C24.5104 26.8517 24.5104 26.8519 24.5104 26.8522C24.5104 26.8525 24.5104 26.8528 24.5104 26.8531C24.5104 26.8533 24.5104 26.8536 24.5104 26.8539C24.5104 26.8542 24.5104 26.8545 24.5104 26.8547C24.5104 26.855 24.5104 26.8553 24.5104 26.8556C24.5104 26.8559 24.5104 26.8561 24.5104 26.8564C24.5104 26.8567 24.5104 26.857 24.5104 26.8573C24.5104 26.8575 24.5104 26.8578 24.5104 26.8581C24.5104 26.8584 24.5104 26.8587 24.5104 26.8589C24.5104 26.8592 24.5104 26.8595 24.5104 26.8598C24.5104 26.8601 24.5104 26.8603 24.5104 26.8606C24.5104 26.8609 24.5104 26.8612 24.5104 26.8615C24.5104 26.8618 24.5104 26.862 24.5104 26.8623C24.5104 26.8626 24.5104 26.8629 24.5104 26.8632C24.5104 26.8634 24.5104 26.8637 24.5104 26.864H26.5104ZM26.5104 26.48C26.5104 25.6619 26.6624 24.9731 26.9406 24.3915L25.1363 23.5285C24.7105 24.4189 24.5104 25.4101 24.5104 26.48H26.5104ZM26.9367 24.3996C27.2496 23.76 27.6494 23.2383 28.1326 22.8204L26.8243 21.3076C26.1235 21.9137 25.5632 22.656 25.1402 23.5204L26.9367 24.3996ZM28.1226 22.8289C28.6391 22.3939 29.2046 22.0716 29.823 21.8565L29.1659 19.9675C28.3123 20.2644 27.5338 20.7101 26.8343 21.2991L28.1226 22.8289ZM29.8411 21.85C30.4735 21.6163 31.0924 21.504 31.7024 21.504V19.504C30.8405 19.504 29.9874 19.6637 29.1478 19.974L29.8411 21.85ZM31.7024 21.504C32.3692 21.504 32.9638 21.6464 33.503 21.9222L34.4139 20.1418C33.577 19.7136 32.6677 19.504 31.7024 19.504V21.504ZM33.5277 21.9345C34.0408 22.1794 34.4659 22.5655 34.8049 23.1305L36.5199 22.1015C35.995 21.2265 35.2841 20.5566 34.3892 20.1295L33.5277 21.9345ZM34.8101 23.139C35.1195 23.6432 35.3104 24.3435 35.3104 25.304H37.3104C37.3104 24.0885 37.0694 22.9968 36.5148 22.093L34.8101 23.139ZM35.3104 25.304C35.3104 25.9227 35.1514 26.5442 34.8071 27.1797L36.5657 28.1323C37.0535 27.2318 37.3104 26.2853 37.3104 25.304H35.3104ZM34.8114 27.1719C34.4507 27.824 33.939 28.4841 33.2591 29.1492L34.6577 30.5788C35.4499 29.8039 36.0902 28.992 36.5615 28.1401L34.8114 27.1719ZM33.2513 29.1569C32.5661 29.8422 31.7439 30.5153 30.7787 31.1741L31.9062 32.8259C32.957 32.1087 33.8788 31.3578 34.6655 30.5711L33.2513 29.1569ZM30.7787 31.1741C29.8049 31.8387 28.7418 32.4754 27.5882 33.0833L28.5207 34.8527C29.7351 34.2126 30.864 33.5373 31.9062 32.8259L30.7787 31.1741ZM28.0544 34.968C28.8022 34.968 29.6808 34.9348 30.6868 34.8699L30.5581 32.8741C29.5801 32.9372 28.7466 32.968 28.0544 32.968V34.968ZM30.6858 34.87C31.7025 34.8054 32.8776 34.7169 34.2105 34.6045L34.0424 32.6115C32.7193 32.7231 31.5584 32.8106 30.5591 32.874L30.6858 34.87ZM33.1325 33.4983L32.7485 36.9783L34.7364 37.1977L35.1204 33.7177L33.1325 33.4983ZM33.6576 36.0916C32.9181 36.1545 31.9921 36.2179 30.8774 36.2816L30.9915 38.2784C32.1168 38.2141 33.0627 38.1495 33.8272 38.0844L33.6576 36.0916ZM30.8774 36.2816C29.7537 36.3458 28.5983 36.4181 27.411 36.4983L27.5459 38.4937C28.7266 38.4139 29.8751 38.3422 30.9915 38.2784L30.8774 36.2816ZM27.4076 36.4985L23.3516 36.7865L23.4933 38.7815L27.5493 38.4935L27.4076 36.4985Z" fill="white" mask="url(#path-3-outside-1_1_13436)"/>
</g>
<defs>
<filter id="filter0_i_1_13436" x="0" y="0" width="60" height="64" filterUnits="userSpaceOnUse" color-interpolation-filters="sRGB">
<feFlood flood-opacity="0" result="BackgroundImageFix"/>
<feBlend mode="normal" in="SourceGraphic" in2="BackgroundImageFix" result="shape"/>
<feColorMatrix in="SourceAlpha" type="matrix" values="0 0 0 0 0 0 0 0 0 0 0 0 0 0 0 0 0 0 127 0" result="hardAlpha"/>
<feOffset dy="4"/>
<feGaussianBlur stdDeviation="2"/>
<feComposite in2="hardAlpha" operator="arithmetic" k2="-1" k3="1"/>
<feColorMatrix type="matrix" values="0 0 0 0 0 0 0 0 0 0 0 0 0 0 0 0 0 0 1 0"/>
<feBlend mode="normal" in2="shape" result="effect1_innerShadow_1_13436"/>
</filter>
</defs>
</svg>
