<svg width="60" height="60" viewBox="0 0 60 60" fill="none" xmlns="http://www.w3.org/2000/svg">
<g filter="url(#filter0_i_1_13465)">
<rect width="60" height="60" rx="30" fill="#FFCC00"/>
<rect x="2" y="2" width="56" height="56" rx="28" stroke="#FFCC00" stroke-width="4"/>
<mask id="path-3-outside-1_1_13465" maskUnits="userSpaceOnUse" x="23" y="19" width="15" height="21" fill="black">
<rect fill="white" x="23" y="19" width="15" height="21"/>
<path d="M28.2039 38.288C27.4679 38.288 26.7959 38.176 26.1879 37.952C25.5959 37.712 25.1239 37.352 24.7719 36.872C24.4199 36.392 24.2439 35.784 24.2439 35.048C24.2439 34.68 24.3159 34.272 24.4599 33.824L28.6599 33.584C28.6599 33.904 28.7399 34.136 28.8999 34.28C29.0599 34.424 29.2599 34.496 29.4999 34.496C29.7879 34.496 30.0919 34.408 30.4119 34.232C30.7319 34.056 31.0039 33.824 31.2279 33.536C31.4679 33.232 31.5879 32.912 31.5879 32.576C31.5879 32.192 31.4039 31.84 31.0359 31.52C30.6679 31.2 30.0599 31.04 29.2119 31.04C28.9079 31.04 28.5959 31.056 28.2759 31.088C27.9719 31.104 27.6679 31.128 27.3639 31.16C27.0599 31.208 26.7799 31.248 26.5239 31.28C26.2679 31.312 26.0359 31.336 25.8279 31.352L26.2599 27.8C26.7399 27.496 27.2359 27.176 27.7479 26.84C28.2599 26.488 28.7239 26.152 29.1399 25.832C29.3959 25.656 29.6359 25.48 29.8599 25.304C30.0999 25.112 30.3319 24.928 30.5559 24.752L26.6919 24.824L26.9799 20.696C27.7159 20.664 28.4199 20.632 29.0919 20.6C29.7639 20.568 30.4119 20.536 31.0359 20.504C32.2199 20.504 33.2279 20.48 34.0599 20.432C34.9079 20.368 35.6999 20.336 36.4359 20.336L35.8599 25.448L31.0599 27.968C32.7079 28.272 33.8599 28.784 34.5159 29.504C35.1879 30.208 35.5239 30.992 35.5239 31.856C35.5239 32.608 35.3239 33.368 34.9239 34.136C34.5239 34.888 33.9799 35.576 33.2919 36.2C32.6039 36.824 31.8199 37.328 30.9399 37.712C30.0759 38.096 29.1639 38.288 28.2039 38.288Z"/>
</mask>
<path d="M28.2039 38.288C27.4679 38.288 26.7959 38.176 26.1879 37.952C25.5959 37.712 25.1239 37.352 24.7719 36.872C24.4199 36.392 24.2439 35.784 24.2439 35.048C24.2439 34.68 24.3159 34.272 24.4599 33.824L28.6599 33.584C28.6599 33.904 28.7399 34.136 28.8999 34.28C29.0599 34.424 29.2599 34.496 29.4999 34.496C29.7879 34.496 30.0919 34.408 30.4119 34.232C30.7319 34.056 31.0039 33.824 31.2279 33.536C31.4679 33.232 31.5879 32.912 31.5879 32.576C31.5879 32.192 31.4039 31.84 31.0359 31.52C30.6679 31.2 30.0599 31.04 29.2119 31.04C28.9079 31.04 28.5959 31.056 28.2759 31.088C27.9719 31.104 27.6679 31.128 27.3639 31.16C27.0599 31.208 26.7799 31.248 26.5239 31.28C26.2679 31.312 26.0359 31.336 25.8279 31.352L26.2599 27.8C26.7399 27.496 27.2359 27.176 27.7479 26.84C28.2599 26.488 28.7239 26.152 29.1399 25.832C29.3959 25.656 29.6359 25.48 29.8599 25.304C30.0999 25.112 30.3319 24.928 30.5559 24.752L26.6919 24.824L26.9799 20.696C27.7159 20.664 28.4199 20.632 29.0919 20.6C29.7639 20.568 30.4119 20.536 31.0359 20.504C32.2199 20.504 33.2279 20.48 34.0599 20.432C34.9079 20.368 35.6999 20.336 36.4359 20.336L35.8599 25.448L31.0599 27.968C32.7079 28.272 33.8599 28.784 34.5159 29.504C35.1879 30.208 35.5239 30.992 35.5239 31.856C35.5239 32.608 35.3239 33.368 34.9239 34.136C34.5239 34.888 33.9799 35.576 33.2919 36.2C32.6039 36.824 31.8199 37.328 30.9399 37.712C30.0759 38.096 29.1639 38.288 28.2039 38.288Z" fill="#001E45"/>
<path d="M26.1879 37.952L25.8122 38.8787L25.8271 38.8848L25.8422 38.8903L26.1879 37.952ZM24.7719 36.872L23.9655 37.4634H23.9655L24.7719 36.872ZM24.4599 33.824L24.4029 32.8256L23.7178 32.8648L23.5079 33.518L24.4599 33.824ZM28.6599 33.584H29.6599V32.5252L28.6029 32.5856L28.6599 33.584ZM28.8999 34.28L28.2309 35.0233H28.2309L28.8999 34.28ZM30.4119 34.232L30.8938 35.1082H30.8938L30.4119 34.232ZM31.2279 33.536L30.443 32.9163L30.4386 32.9221L31.2279 33.536ZM28.2759 31.088L28.3285 32.0866L28.352 32.0854L28.3754 32.083L28.2759 31.088ZM27.3639 31.16L27.2592 30.1655L27.2335 30.1682L27.2079 30.1722L27.3639 31.16ZM26.5239 31.28L26.6479 32.2723H26.6479L26.5239 31.28ZM25.8279 31.352L24.8352 31.2313L24.6879 32.4426L25.9046 32.3491L25.8279 31.352ZM26.2599 27.8L25.7249 26.9552L25.3244 27.2088L25.2672 27.6793L26.2599 27.8ZM27.7479 26.84L28.2966 27.676L28.3056 27.6701L28.3144 27.664L27.7479 26.84ZM29.1399 25.832L28.5734 25.008L28.5514 25.0231L28.5302 25.0394L29.1399 25.832ZM29.8599 25.304L30.4778 26.0903L30.4846 26.0849L29.8599 25.304ZM30.5559 24.752L31.1737 25.5383L33.5177 23.6966L30.5373 23.7522L30.5559 24.752ZM26.6919 24.824L25.6943 24.7544L25.6183 25.8442L26.7105 25.8238L26.6919 24.824ZM26.9799 20.696L26.9365 19.6969L26.0445 19.7357L25.9823 20.6264L26.9799 20.696ZM29.0919 20.6L29.1395 21.5989H29.1395L29.0919 20.6ZM31.0359 20.504V19.504H31.0103L30.9847 19.5053L31.0359 20.504ZM34.0599 20.432L34.1175 21.4303L34.1263 21.4298L34.1352 21.4292L34.0599 20.432ZM36.4359 20.336L37.4296 20.448L37.5549 19.336H36.4359V20.336ZM35.8599 25.448L36.3247 26.3334L36.7942 26.0869L36.8536 25.56L35.8599 25.448ZM31.0599 27.968L30.5951 27.0826L28.0347 28.4268L30.8785 28.9514L31.0599 27.968ZM34.5159 29.504L33.7767 30.1775L33.7845 30.1861L33.7926 30.1945L34.5159 29.504ZM34.9239 34.136L35.8068 34.6056L35.8108 34.5979L34.9239 34.136ZM33.2919 36.2L33.9637 36.9407H33.9637L33.2919 36.2ZM30.9399 37.712L30.54 36.7954L30.5338 36.7982L30.9399 37.712ZM28.2039 37.288C27.57 37.288 27.017 37.1917 26.5336 37.0137L25.8422 38.8903C26.5749 39.1603 27.3658 39.288 28.2039 39.288V37.288ZM26.5636 37.0253C26.1304 36.8496 25.8126 36.6001 25.5783 36.2806L23.9655 37.4634C24.4353 38.1039 25.0614 38.5744 25.8122 38.8787L26.5636 37.0253ZM25.5783 36.2806C25.3793 36.0092 25.2439 35.6224 25.2439 35.048H23.2439C23.2439 35.9456 23.4605 36.7748 23.9655 37.4634L25.5783 36.2806ZM25.2439 35.048C25.2439 34.8082 25.2913 34.5053 25.4119 34.13L23.5079 33.518C23.3405 34.0387 23.2439 34.5518 23.2439 35.048H25.2439ZM24.517 34.8224L28.717 34.5824L28.6029 32.5856L24.4029 32.8256L24.517 34.8224ZM27.6599 33.584C27.6599 34.0484 27.7752 34.6132 28.2309 35.0233L29.5689 33.5367C29.5982 33.5631 29.6211 33.5913 29.6378 33.6175C29.6542 33.6431 29.6621 33.6629 29.6653 33.672C29.6705 33.6873 29.6599 33.6649 29.6599 33.584H27.6599ZM28.2309 35.0233C28.5961 35.3519 29.0435 35.496 29.4999 35.496V33.496C29.4806 33.496 29.4869 33.4933 29.5086 33.5011C29.519 33.5049 29.5305 33.5101 29.5419 33.517C29.5533 33.5239 29.5624 33.5309 29.5689 33.5367L28.2309 35.0233ZM29.4999 35.496C29.9957 35.496 30.4649 35.3441 30.8938 35.1082L29.93 33.3558C29.7189 33.4719 29.5801 33.496 29.4999 33.496V35.496ZM30.8938 35.1082C31.333 34.8667 31.7096 34.5455 32.0173 34.1499L30.4386 32.9221C30.2982 33.1025 30.1308 33.2453 29.93 33.3558L30.8938 35.1082ZM32.0128 34.1556C32.3698 33.7034 32.5879 33.1704 32.5879 32.576H30.5879C30.5879 32.6536 30.566 32.7606 30.443 32.9164L32.0128 34.1556ZM32.5879 32.576C32.5879 31.828 32.2151 31.2202 31.6921 30.7654L30.3797 32.2746C30.5927 32.4598 30.5879 32.556 30.5879 32.576H32.5879ZM31.6921 30.7654C31.0488 30.206 30.139 30.04 29.2119 30.04V32.04C29.9809 32.04 30.287 32.194 30.3797 32.2746L31.6921 30.7654ZM29.2119 30.04C28.8728 30.04 28.5276 30.0578 28.1764 30.093L28.3754 32.083C28.6642 32.0542 28.943 32.04 29.2119 32.04V30.04ZM28.2233 30.0894C27.9019 30.1063 27.5805 30.1317 27.2592 30.1655L27.4686 32.1545C27.7553 32.1243 28.0419 32.1017 28.3285 32.0866L28.2233 30.0894ZM27.2079 30.1722C26.9126 30.2189 26.6434 30.2573 26.3999 30.2877L26.6479 32.2723C26.9164 32.2387 27.2072 32.1971 27.5199 32.1478L27.2079 30.1722ZM26.3999 30.2877C26.1561 30.3182 25.9402 30.3404 25.7512 30.3549L25.9046 32.3491C26.1316 32.3316 26.3797 32.3058 26.6479 32.2723L26.3999 30.2877ZM26.8206 31.4727L27.2526 27.9207L25.2672 27.6793L24.8352 31.2313L26.8206 31.4727ZM26.795 28.6448C27.2799 28.3377 27.7804 28.0148 28.2966 27.676L27.1992 26.004C26.6914 26.3372 26.2 26.6543 25.7249 26.9552L26.795 28.6448ZM28.3144 27.664C28.8385 27.3037 29.3172 26.9572 29.7496 26.6246L28.5302 25.0394C28.1306 25.3468 27.6813 25.6723 27.1814 26.016L28.3144 27.664ZM29.7064 26.656C29.9784 26.4691 30.2356 26.2805 30.4777 26.0903L29.2421 24.5177C29.0362 24.6795 28.8134 24.8429 28.5734 25.008L29.7064 26.656ZM30.4846 26.0849C30.7225 25.8946 30.9522 25.7124 31.1737 25.5383L29.9381 23.9657C29.7116 24.1436 29.4773 24.3294 29.2352 24.5231L30.4846 26.0849ZM30.5373 23.7522L26.6733 23.8242L26.7105 25.8238L30.5745 25.7518L30.5373 23.7522ZM27.6895 24.8936L27.9775 20.7656L25.9823 20.6264L25.6943 24.7544L27.6895 24.8936ZM27.0233 21.6951C27.7606 21.663 28.466 21.6309 29.1395 21.5989L29.0443 19.6011C28.3738 19.6331 27.6712 19.665 26.9365 19.6969L27.0233 21.6951ZM29.1395 21.5989C29.8126 21.5668 30.4618 21.5348 31.0871 21.5027L30.9847 19.5053C30.362 19.5372 29.7152 19.5692 29.0443 19.6011L29.1395 21.5989ZM31.0359 21.504C32.2319 21.504 33.2602 21.4798 34.1175 21.4303L34.0023 19.4337C33.1956 19.4802 32.208 19.504 31.0359 19.504V21.504ZM34.1352 21.4292C34.9619 21.3668 35.7285 21.336 36.4359 21.336V19.336C35.6713 19.336 34.8539 19.3692 33.9846 19.4348L34.1352 21.4292ZM35.4422 20.224L34.8662 25.336L36.8536 25.56L37.4296 20.448L35.4422 20.224ZM35.3951 24.5626L30.5951 27.0826L31.5247 28.8534L36.3247 26.3334L35.3951 24.5626ZM30.8785 28.9514C32.4508 29.2414 33.3408 29.6991 33.7767 30.1775L35.2551 28.8305C34.379 27.8689 32.965 27.3026 31.2413 26.9846L30.8785 28.9514ZM33.7926 30.1945C34.3113 30.7379 34.5239 31.2824 34.5239 31.856H36.5239C36.5239 30.7016 36.0645 29.6781 35.2393 28.8135L33.7926 30.1945ZM34.5239 31.856C34.5239 32.4243 34.374 33.027 34.037 33.6741L35.8108 34.5979C36.2738 33.709 36.5239 32.7917 36.5239 31.856H34.5239ZM34.041 33.6664C33.6999 34.3077 33.2304 34.9058 32.6201 35.4593L33.9637 36.9407C34.7295 36.2462 35.3479 35.4683 35.8068 34.6056L34.041 33.6664ZM32.6201 35.4593C32.0153 36.0078 31.3238 36.4534 30.54 36.7955L31.3399 38.6285C32.316 38.2026 33.1926 37.6402 33.9637 36.9407L32.6201 35.4593ZM30.5338 36.7982C29.7996 37.1245 29.0262 37.288 28.2039 37.288V39.288C29.3016 39.288 30.3522 39.0675 31.346 38.6258L30.5338 36.7982Z" fill="white" mask="url(#path-3-outside-1_1_13465)"/>
</g>
<defs>
<filter id="filter0_i_1_13465" x="0" y="0" width="60" height="64" filterUnits="userSpaceOnUse" color-interpolation-filters="sRGB">
<feFlood flood-opacity="0" result="BackgroundImageFix"/>
<feBlend mode="normal" in="SourceGraphic" in2="BackgroundImageFix" result="shape"/>
<feColorMatrix in="SourceAlpha" type="matrix" values="0 0 0 0 0 0 0 0 0 0 0 0 0 0 0 0 0 0 127 0" result="hardAlpha"/>
<feOffset dy="4"/>
<feGaussianBlur stdDeviation="2"/>
<feComposite in2="hardAlpha" operator="arithmetic" k2="-1" k3="1"/>
<feColorMatrix type="matrix" values="0 0 0 0 0 0 0 0 0 0 0 0 0 0 0 0 0 0 1 0"/>
<feBlend mode="normal" in2="shape" result="effect1_innerShadow_1_13465"/>
</filter>
</defs>
</svg>
