<svg width="60" height="60" viewBox="0 0 60 60" fill="none" xmlns="http://www.w3.org/2000/svg">
<g filter="url(#filter0_i_1_13494)">
<path d="M30 0L55.9808 15V45L30 60L4.01924 45V15L30 0Z" fill="#007AFF"/>
</g>
<path d="M6.01924 16.1547L30 2.3094L53.9808 16.1547V43.8453L30 57.6906L6.01924 43.8453V16.1547Z" stroke="#007AFF" stroke-width="4"/>
<mask id="path-3-outside-1_1_13494" maskUnits="userSpaceOnUse" x="22" y="19" width="15" height="21" fill="black">
<rect fill="white" x="22" y="19" width="15" height="21"/>
<path d="M28.232 38.048L28.712 34.208L24.584 34.52L23.528 32.36L25.04 27.824C25.504 26.464 25.928 25.176 26.312 23.96C26.696 22.728 27.032 21.712 27.32 20.912C27.992 20.912 28.624 20.896 29.216 20.864C29.824 20.816 30.472 20.744 31.16 20.648C30.568 22.136 30.016 23.632 29.504 25.136C29.008 26.64 28.52 28.168 28.04 29.72C28.024 29.928 27.984 30.12 27.92 30.296H29.624C29.72 29.64 29.832 29.016 29.96 28.424C30.088 27.816 30.208 27.192 30.32 26.552C30.4 26.088 30.488 25.6 30.584 25.088C30.68 24.576 30.784 24.048 30.896 23.504L32.456 23.288C32.888 23.224 33.336 23.168 33.8 23.12C34.264 23.072 34.664 23.032 35 23C34.984 23.256 34.912 23.704 34.784 24.344C34.656 24.968 34.52 25.736 34.376 26.648C34.28 27.208 34.168 27.824 34.04 28.496C33.928 29.152 33.816 29.752 33.704 30.296H35.072L34.088 34.136H32.864L32.648 37.28L28.232 38.048Z"/>
</mask>
<path d="M28.232 38.048L28.712 34.208L24.584 34.52L23.528 32.36L25.04 27.824C25.504 26.464 25.928 25.176 26.312 23.96C26.696 22.728 27.032 21.712 27.32 20.912C27.992 20.912 28.624 20.896 29.216 20.864C29.824 20.816 30.472 20.744 31.16 20.648C30.568 22.136 30.016 23.632 29.504 25.136C29.008 26.64 28.52 28.168 28.04 29.72C28.024 29.928 27.984 30.12 27.92 30.296H29.624C29.72 29.64 29.832 29.016 29.96 28.424C30.088 27.816 30.208 27.192 30.32 26.552C30.4 26.088 30.488 25.6 30.584 25.088C30.68 24.576 30.784 24.048 30.896 23.504L32.456 23.288C32.888 23.224 33.336 23.168 33.8 23.12C34.264 23.072 34.664 23.032 35 23C34.984 23.256 34.912 23.704 34.784 24.344C34.656 24.968 34.52 25.736 34.376 26.648C34.28 27.208 34.168 27.824 34.04 28.496C33.928 29.152 33.816 29.752 33.704 30.296H35.072L34.088 34.136H32.864L32.648 37.28L28.232 38.048Z" fill="#001E45"/>
<path d="M28.232 38.048L27.2397 37.924L27.0721 39.2647L28.4033 39.0332L28.232 38.048ZM28.712 34.208L29.7043 34.332L29.8559 33.1187L28.6366 33.2108L28.712 34.208ZM24.584 34.52L23.6856 34.9592L23.9834 35.5682L24.6594 35.5172L24.584 34.52ZM23.528 32.36L22.5793 32.0438L22.45 32.4318L22.6296 32.7992L23.528 32.36ZM25.04 27.824L24.0935 27.5011L24.0913 27.5078L25.04 27.824ZM26.312 23.96L27.2656 24.2611L27.2667 24.2576L26.312 23.96ZM27.32 20.912V19.912H26.6172L26.3791 20.5733L27.32 20.912ZM29.216 20.864L29.27 21.8625L29.2823 21.8619L29.2947 21.8609L29.216 20.864ZM31.16 20.648L32.0892 21.0177L32.7248 19.42L31.0218 19.6576L31.16 20.648ZM29.504 25.136L28.5573 24.8137L28.5543 24.8228L29.504 25.136ZM28.04 29.72L27.0846 29.4245L27.0515 29.5316L27.0429 29.6433L28.04 29.72ZM27.92 30.296L26.9802 29.9543L26.4923 31.296H27.92V30.296ZM29.624 30.296V31.296H30.4883L30.6135 30.4408L29.624 30.296ZM29.96 28.424L30.9374 28.6353L30.9386 28.63L29.96 28.424ZM30.32 26.552L31.305 26.7244L31.3055 26.7219L30.32 26.552ZM30.896 23.504L30.7588 22.5134L30.059 22.6103L29.9165 23.3023L30.896 23.504ZM32.456 23.288L32.5932 24.2786L32.6025 24.2772L32.456 23.288ZM33.8 23.12L33.9029 24.1147H33.9029L33.8 23.12ZM35 23L35.9981 23.0624L36.0711 21.8935L34.9052 22.0045L35 23ZM34.784 24.344L35.7636 24.5449L35.7646 24.5401L34.784 24.344ZM34.376 26.648L35.3617 26.817L35.3638 26.804L34.376 26.648ZM34.04 28.496L33.0577 28.3089L33.0559 28.3183L33.0543 28.3277L34.04 28.496ZM33.704 30.296L32.7245 30.0943L32.4771 31.296H33.704V30.296ZM35.072 30.296L36.0407 30.5442L36.3606 29.296H35.072V30.296ZM34.088 34.136V35.136H34.8641L35.0567 34.3842L34.088 34.136ZM32.864 34.136V33.136H31.9303L31.8664 34.0675L32.864 34.136ZM32.648 37.28L32.8193 38.2652L33.5919 38.1309L33.6456 37.3485L32.648 37.28ZM29.2243 38.172L29.7043 34.332L27.7197 34.084L27.2397 37.924L29.2243 38.172ZM28.6366 33.2108L24.5086 33.5228L24.6594 35.5172L28.7874 35.2052L28.6366 33.2108ZM25.4824 34.0808L24.4264 31.9208L22.6296 32.7992L23.6856 34.9592L25.4824 34.0808ZM24.4767 32.6762L25.9887 28.1402L24.0913 27.5078L22.5793 32.0438L24.4767 32.6762ZM25.9864 28.1469C26.4526 26.7806 26.879 25.4853 27.2656 24.2611L25.3584 23.6589C24.977 24.8667 24.5554 26.1474 24.0936 27.5011L25.9864 28.1469ZM27.2667 24.2576C27.6483 23.0331 27.9796 22.0321 28.2609 21.2507L26.3791 20.5733C26.0844 21.3919 25.7437 22.4229 25.3573 23.6624L27.2667 24.2576ZM27.32 21.912C28.0077 21.912 28.6578 21.8956 29.27 21.8625L29.162 19.8655C28.5902 19.8964 27.9763 19.912 27.32 19.912V21.912ZM29.2947 21.8609C29.9251 21.8111 30.5931 21.7368 31.2982 21.6384L31.0218 19.6576C30.3509 19.7512 29.7229 19.8209 29.1373 19.8671L29.2947 21.8609ZM30.2308 20.2783C29.6327 21.7819 29.0748 23.2937 28.5574 24.8137L30.4507 25.4583C30.9572 23.9703 31.5033 22.4901 32.0892 21.0177L30.2308 20.2783ZM28.5543 24.8228C28.0563 26.3328 27.5664 27.8668 27.0846 29.4245L28.9954 30.0155C29.4736 28.4692 29.9597 26.9472 30.4537 25.4492L28.5543 24.8228ZM27.0429 29.6433C27.0331 29.7709 27.0099 29.8727 26.9802 29.9543L28.8598 30.6377C28.9581 30.3673 29.0149 30.0851 29.0371 29.7967L27.0429 29.6433ZM27.92 31.296H29.624V29.296H27.92V31.296ZM30.6135 30.4408C30.7065 29.805 30.8146 29.2033 30.9374 28.6353L28.9826 28.2127C28.8494 28.8286 28.7335 29.475 28.6345 30.1512L30.6135 30.4408ZM30.9386 28.63C31.069 28.0103 31.1912 27.3751 31.305 26.7244L29.335 26.3796C29.2248 27.0089 29.107 27.6217 28.9815 28.218L30.9386 28.63ZM31.3055 26.7219C31.3846 26.2632 31.4717 25.78 31.5669 25.2723L29.6011 24.9037C29.5043 25.42 29.4154 25.9128 29.3345 26.3821L31.3055 26.7219ZM31.5669 25.2723C31.6617 24.7665 31.7646 24.2443 31.8755 23.7057L29.9165 23.3023C29.8034 23.8517 29.6983 24.3855 29.6011 24.9037L31.5669 25.2723ZM31.0332 24.4945L32.5932 24.2785L32.3188 22.2974L30.7588 22.5134L31.0332 24.4945ZM32.6025 24.2772C33.0191 24.2155 33.4525 24.1613 33.9029 24.1147L33.6971 22.1253C33.2195 22.1747 32.7569 22.2325 32.3095 22.2988L32.6025 24.2772ZM33.9029 24.1147C34.3651 24.0669 34.7623 24.0272 35.0948 23.9955L34.9052 22.0045C34.5657 22.0368 34.1629 22.0771 33.6971 22.1253L33.9029 24.1147ZM34.0019 22.9376C33.9907 23.118 33.932 23.505 33.8034 24.1479L35.7646 24.5401C35.892 23.903 35.9773 23.394 35.9981 23.0624L34.0019 22.9376ZM33.8044 24.1431C33.6723 24.787 33.5337 25.571 33.3882 26.492L35.3638 26.804C35.5063 25.901 35.6397 25.149 35.7636 24.5449L33.8044 24.1431ZM33.3904 26.479C33.2956 27.0319 33.1847 27.6418 33.0577 28.3089L35.0223 28.6831C35.1513 28.0062 35.2644 27.3841 35.3616 26.817L33.3904 26.479ZM33.0543 28.3277C32.9438 28.9747 32.8339 29.5633 32.7245 30.0943L34.6835 30.4977C34.7981 29.9407 34.9122 29.3293 35.0257 28.6643L33.0543 28.3277ZM33.704 31.296H35.072V29.296H33.704V31.296ZM34.1033 30.0478L33.1193 33.8878L35.0567 34.3842L36.0407 30.5442L34.1033 30.0478ZM34.088 33.136H32.864V35.136H34.088V33.136ZM31.8664 34.0675L31.6504 37.2115L33.6456 37.3485L33.8616 34.2045L31.8664 34.0675ZM32.4767 36.2948L28.0607 37.0628L28.4033 39.0332L32.8193 38.2652L32.4767 36.2948Z" fill="white" mask="url(#path-3-outside-1_1_13494)"/>
<defs>
<filter id="filter0_i_1_13494" x="4.01904" y="0" width="51.9619" height="64" filterUnits="userSpaceOnUse" color-interpolation-filters="sRGB">
<feFlood flood-opacity="0" result="BackgroundImageFix"/>
<feBlend mode="normal" in="SourceGraphic" in2="BackgroundImageFix" result="shape"/>
<feColorMatrix in="SourceAlpha" type="matrix" values="0 0 0 0 0 0 0 0 0 0 0 0 0 0 0 0 0 0 127 0" result="hardAlpha"/>
<feOffset dy="4"/>
<feGaussianBlur stdDeviation="2"/>
<feComposite in2="hardAlpha" operator="arithmetic" k2="-1" k3="1"/>
<feColorMatrix type="matrix" values="0 0 0 0 0 0 0 0 0 0 0 0 0 0 0 0 0 0 1 0"/>
<feBlend mode="normal" in2="shape" result="effect1_innerShadow_1_13494"/>
</filter>
</defs>
</svg>
