<svg width="64" height="60" viewBox="0 0 64 60" fill="none" xmlns="http://www.w3.org/2000/svg">
<path d="M23.8228 19.3716H39.823V59.1487C39.823 59.503 39.421 59.7076 39.1346 59.4991L32.0142 54.316C31.9001 54.233 31.7456 54.233 31.6316 54.316L24.5112 59.4991C24.2247 59.7076 23.8228 59.503 23.8228 59.1487V19.3716Z" fill="url(#paint0_linear_1_13524)"/>
<path fill-rule="evenodd" clip-rule="evenodd" d="M34.2416 55.9374L32.0142 54.316C31.9002 54.233 31.7457 54.233 31.6316 54.316L29.4043 55.9373V19.3716H34.2416V55.9374Z" fill="url(#paint1_linear_1_13524)"/>
<path fill-rule="evenodd" clip-rule="evenodd" d="M28.7842 56.3887L28.2881 56.7498V19.3716H28.7842V56.3887Z" fill="url(#paint2_linear_1_13524)"/>
<path fill-rule="evenodd" clip-rule="evenodd" d="M35.3579 56.75L34.8618 56.3889V19.3716H35.3579V56.75Z" fill="url(#paint3_linear_1_13524)"/>
<path fill-rule="evenodd" clip-rule="evenodd" d="M39.823 59.202V58.1186C39.823 58.4729 39.421 58.6775 39.1346 58.469L32.0142 53.2859C31.9001 53.2029 31.7456 53.2029 31.6316 53.2859L24.5112 58.469C24.2247 58.6775 23.8228 58.4729 23.8228 58.1186V59.202C23.8228 59.5563 24.2247 59.7609 24.5112 59.5524L31.6316 54.3693C31.7456 54.2863 31.9001 54.2863 32.0142 54.3693L39.1346 59.5524C39.421 59.7609 39.823 59.5563 39.823 59.202Z" fill="#001E45" fill-opacity="0.2"/>
<g opacity="0.8" filter="url(#filter0_f_1_13524)">
<path d="M31.8723 51.6004L39.8371 46.4887V44.5718H23.8228V46.4887L31.8723 51.6004Z" fill="#1A375E" fill-opacity="0.68"/>
</g>
<path d="M30.6394 0.707187L13.3454 10.9793C12.6381 11.3994 12.2046 12.1612 12.2046 12.9838L12.2046 36.8171C12.2046 37.6397 12.6381 38.4015 13.3454 38.8216L30.6394 49.0937C31.3733 49.5297 32.2868 49.5297 33.0207 49.0937L50.3147 38.8216C51.022 38.4015 51.4555 37.6398 51.4555 36.8171L51.4555 12.9838C51.4555 12.1612 51.022 11.3994 50.3147 10.9793L33.0207 0.707187C32.2868 0.271277 31.3733 0.271277 30.6394 0.707187Z" fill="#5856D6"/>
<path d="M30.6198 4.4765L16.3235 12.968C15.6189 13.3865 15.187 14.1454 15.187 14.965L15.187 34.7505C15.187 35.57 15.6189 36.3289 16.3235 36.7474L30.6197 45.2389C31.3509 45.6732 32.2609 45.6732 32.992 45.2389L47.2882 36.7474C47.9928 36.3289 48.4247 35.57 48.4247 34.7505L48.4247 14.965C48.4247 14.1454 47.9928 13.3865 47.2882 12.968L32.992 4.4765C32.2609 4.04223 31.3509 4.04223 30.6198 4.4765Z" fill="#5856D6"/>
<g filter="url(#filter1_f_1_13524)">
<path d="M30.6198 4.4765L16.3235 12.968C15.6189 13.3865 15.187 14.1454 15.187 14.965L15.187 34.7505C15.187 35.57 15.6189 36.3289 16.3235 36.7474L30.6197 45.2389C31.3509 45.6732 32.2609 45.6732 32.992 45.2389L47.2882 36.7474C47.9928 36.3289 48.4247 35.57 48.4247 34.7505L48.4247 14.965C48.4247 14.1454 47.9928 13.3865 47.2882 12.968L32.992 4.4765C32.2609 4.04223 31.3509 4.04223 30.6198 4.4765Z" stroke="#001E45" stroke-opacity="0.5" stroke-width="0.137143"/>
</g>
<g opacity="0.44">
<mask id="mask0_1_13524" style="mask-type:alpha" maskUnits="userSpaceOnUse" x="16" y="5" width="32" height="39">
<path d="M30.7814 6.15446L17.6829 13.9276C17.0122 14.3256 16.6011 15.0477 16.6011 15.8276L16.6011 33.9529C16.6011 34.7328 17.0122 35.4549 17.6829 35.8529L30.7814 43.6261C31.4765 44.0385 32.3414 44.0385 33.0365 43.6261L46.135 35.8529C46.8056 35.4549 47.2168 34.7328 47.2168 33.9529L47.2168 15.8276C47.2168 15.0477 46.8056 14.3256 46.135 13.9276L33.0365 6.15446C32.3414 5.74197 31.4765 5.74197 30.7814 6.15446Z" fill="#A6D3DE"/>
</mask>
<g mask="url(#mask0_1_13524)">
<rect x="16.6001" y="22.584" width="30.6157" height="21.7094" fill="url(#paint4_linear_1_13524)"/>
<g filter="url(#filter2_i_1_13524)">
<path d="M30.7814 6.15446L17.6829 13.9276C17.0122 14.3256 16.6011 15.0477 16.6011 15.8276L16.6011 33.9529C16.6011 34.7328 17.0122 35.4549 17.6829 35.8529L30.7814 43.6261C31.4765 44.0385 32.3414 44.0385 33.0365 43.6261L46.135 35.8529C46.8056 35.4549 47.2168 34.7328 47.2168 33.9529L47.2168 15.8276C47.2168 15.0477 46.8056 14.3256 46.135 13.9276L33.0365 6.15446C32.3414 5.74197 31.4765 5.74197 30.7814 6.15446Z" fill="#6052B4" fill-opacity="0.01"/>
</g>
</g>
</g>
<g filter="url(#filter3_d_1_13524)">
<path d="M56.9178 25.4273L48.5037 28.1625L47.8881 29.3384L56.9178 25.4273Z" fill="url(#paint5_linear_1_13524)"/>
<g filter="url(#filter4_d_1_13524)">
<path fill-rule="evenodd" clip-rule="evenodd" d="M48.1443 28.7937C46.5361 31.4851 43.9133 34.3152 39.8633 37.1162C38.2612 38.2243 36.8896 39.2542 35.7216 40.2102C55.4083 40.7827 61.3819 29.3567 61.9315 23.4563L48.1443 28.7937Z" fill="#5856D6"/>
</g>
<path d="M35.8184 40.1059C36.9655 39.1719 38.3061 38.1678 39.8648 37.0898C43.8981 34.3003 46.5159 31.482 48.1258 28.8006L61.931 23.4561" stroke="url(#paint6_linear_1_13524)" stroke-width="0.230608"/>
<path d="M48.8338 36.1022L44.1099 33.6178L43.1982 34.415L48.8338 36.1022Z" fill="url(#paint7_linear_1_13524)"/>
<path fill-rule="evenodd" clip-rule="evenodd" d="M43.7496 34.0194C42.6316 35.0414 41.3434 36.0677 39.8651 37.0901C36.2304 39.604 33.7817 41.7158 32.2061 43.4748C32.4228 43.9821 33.5386 43.8823 35.1918 42.7389C38.5428 40.4213 41.5584 39.9439 46.895 40.0594C52.0807 40.1716 53.6643 39.5064 54.5544 38.4607C52.413 37.5283 47.0602 35.3255 43.7496 34.0194Z" fill="url(#paint8_linear_1_13524)"/>
<path d="M39.9316 37.1869C41.3913 36.1774 42.6667 35.1637 43.7768 34.1534C47.0152 35.4321 52.1445 37.5421 54.3611 38.5016C53.4849 39.4381 51.8732 40.0509 46.8935 39.9432C41.5472 39.8275 38.504 40.3053 35.1253 42.6421C34.3051 43.2093 33.6268 43.5115 33.1341 43.6118C32.8874 43.6621 32.6952 43.6601 32.5578 43.6224C32.4577 43.595 32.39 43.55 32.3468 43.4935C33.9165 41.7555 36.343 39.6689 39.9316 37.1869Z" fill="#5856D6" stroke="url(#paint9_linear_1_13524)" stroke-width="0.230608"/>
<g filter="url(#filter5_d_1_13524)">
<path d="M30.3617 46.546C32.1101 44.3551 31.3649 44.7534 40.9261 36.3882C44.802 33.8314 47.1252 30.9026 48.551 28.3408C48.551 28.113 48.551 28.113 48.1822 28.4558C46.9124 30.593 44.928 32.9434 41.5645 35.4919C35.3625 39.6745 31.015 44.0231 29.8901 45.8489L30.3617 46.546Z" fill="url(#paint10_linear_1_13524)"/>
<path d="M29.8909 46.6458C30.5294 45.2184 33.9222 41.2084 40.9268 36.5876C44.8907 33.8541 47.244 30.7624 48.6689 28.1132C48.5517 28.0275 48.4732 28.1132 48.236 28.2846C46.74 30.7453 44.3255 33.5663 40.2884 36.2888C34.0864 40.4715 30.8334 44.1229 29.7085 45.9487L29.8909 46.6458Z" fill="#C4C4C4"/>
<path fill-rule="evenodd" clip-rule="evenodd" d="M40.24 36.2041C47.4536 31.3393 49.4655 26.165 50.3251 23.3115L50.4984 23.3738C49.6284 26.2616 47.5936 31.4789 40.3358 36.3735C34.1398 40.5521 30.8986 44.1947 29.7837 46.0042L29.6323 45.8931C30.7672 44.0511 34.032 40.3907 40.24 36.2041Z" fill="url(#paint11_linear_1_13524)"/>
<path fill-rule="evenodd" clip-rule="evenodd" d="M44.5471 33.6006C43.5205 34.6177 42.3237 35.6254 40.9269 36.5886C39.8738 37.2834 38.9023 37.9643 38.0095 38.6247L37.5854 38.2132C38.4161 37.5885 39.316 36.9457 40.2885 36.2899C41.61 35.3986 42.7577 34.4968 43.7562 33.6006H44.5471Z" fill="url(#paint12_linear_1_13524)"/>
</g>
</g>
<g filter="url(#filter6_d_1_13524)">
<path d="M7.08223 25.4273L15.4963 28.1625L16.1119 29.3384L7.08223 25.4273Z" fill="url(#paint13_linear_1_13524)"/>
<g filter="url(#filter7_d_1_13524)">
<path fill-rule="evenodd" clip-rule="evenodd" d="M15.8557 28.7937C17.4639 31.4851 20.0867 34.3152 24.1367 37.1162C25.7388 38.2243 27.1104 39.2542 28.2784 40.2102C8.59174 40.7827 2.61805 29.3567 2.06855 23.4563L15.8557 28.7937Z" fill="#5856D6"/>
</g>
<path d="M28.1816 40.1059C27.0345 39.1719 25.6939 38.1678 24.1352 37.0898C20.1019 34.3003 17.4841 31.482 15.8742 28.8006L2.06899 23.4561" stroke="url(#paint14_linear_1_13524)" stroke-width="0.230608"/>
<path d="M15.1662 36.1022L19.8901 33.6178L20.8018 34.415L15.1662 36.1022Z" fill="url(#paint15_linear_1_13524)"/>
<path fill-rule="evenodd" clip-rule="evenodd" d="M20.2504 34.0194C21.3684 35.0414 22.6566 36.0677 24.1349 37.0901C27.7696 39.604 30.2183 41.7158 31.7939 43.4748C31.5772 43.9821 30.4614 43.8823 28.8082 42.7389C25.4572 40.4213 22.4416 39.9439 17.105 40.0594C11.9193 40.1716 10.3357 39.5064 9.44557 38.4607C11.587 37.5283 16.9398 35.3255 20.2504 34.0194Z" fill="url(#paint16_linear_1_13524)"/>
<path d="M24.0684 37.1869C22.6087 36.1774 21.3333 35.1637 20.2232 34.1534C16.9848 35.4321 11.8555 37.5421 9.63895 38.5016C10.5151 39.4381 12.1268 40.0509 17.1065 39.9432C22.4528 39.8275 25.496 40.3053 28.8747 42.6421C29.6949 43.2093 30.3732 43.5115 30.8659 43.6118C31.1126 43.6621 31.3048 43.6601 31.4422 43.6224C31.5423 43.595 31.61 43.55 31.6532 43.4935C30.0835 41.7555 27.657 39.6689 24.0684 37.1869Z" fill="#5856D6" stroke="url(#paint17_linear_1_13524)" stroke-width="0.230608"/>
<g filter="url(#filter8_d_1_13524)">
<path d="M33.6374 46.546C31.8889 44.3551 32.6341 44.7534 23.0729 36.3882C19.1971 33.8314 16.8738 30.9026 15.4481 28.3408C15.4481 28.113 15.4481 28.113 15.8168 28.4558C17.0866 30.593 19.071 32.9434 22.4345 35.4919C28.6365 39.6745 32.984 44.0231 34.1089 45.8489L33.6374 46.546Z" fill="url(#paint18_linear_1_13524)"/>
<path d="M34.1091 46.6458C33.4706 45.2184 30.0778 41.2084 23.0732 36.5876C19.1093 33.8541 16.756 30.7624 15.3311 28.1132C15.4483 28.0275 15.5268 28.1132 15.764 28.2846C17.26 30.7453 19.6745 33.5663 23.7116 36.2888C29.9136 40.4715 33.1666 44.1229 34.2915 45.9487L34.1091 46.6458Z" fill="#C4C4C4"/>
<path fill-rule="evenodd" clip-rule="evenodd" d="M23.76 36.2041C16.5464 31.3393 14.5345 26.165 13.6749 23.3115L13.5016 23.3738C14.3716 26.2616 16.4064 31.4789 23.6642 36.3735C29.8602 40.5521 33.1014 44.1947 34.2163 46.0042L34.3677 45.8931C33.2328 44.0511 29.968 40.3907 23.76 36.2041Z" fill="url(#paint19_linear_1_13524)"/>
<path fill-rule="evenodd" clip-rule="evenodd" d="M19.4529 33.6006C20.4795 34.6177 21.6763 35.6254 23.0731 36.5886C24.1262 37.2834 25.0977 37.9643 25.9905 38.6247L26.4146 38.2132C25.5839 37.5885 24.684 36.9457 23.7115 36.2899C22.39 35.3986 21.2423 34.4968 20.2438 33.6006H19.4529Z" fill="url(#paint20_linear_1_13524)"/>
</g>
</g>
<g filter="url(#filter9_f_1_13524)">
<path d="M31.8296 38.0552L35.5977 47.998L28.0615 47.998L31.8296 38.0552Z" fill="url(#paint21_linear_1_13524)"/>
</g>
<mask id="mask1_1_13524" style="mask-type:alpha" maskUnits="userSpaceOnUse" x="27" y="40" width="9" height="10">
<path fill-rule="evenodd" clip-rule="evenodd" d="M31.8323 49.9136C31.8323 49.9136 31.8323 49.9136 31.8323 49.9136L31.8323 49.9136C31.8323 49.9136 31.8323 49.9136 31.8323 49.9135C31.8323 49.9135 31.8323 49.9135 31.8324 49.9135L35.6255 48.3771C35.7787 48.3151 35.8426 48.1326 35.7616 47.9885L31.8324 40.9995C31.8323 40.9995 31.8323 40.9995 31.8323 40.9995L31.8323 40.9994C31.8323 40.9994 31.8323 40.9993 31.8323 40.9994C31.8323 40.9994 31.8323 40.9994 31.8323 40.9994C31.8322 40.9993 31.8322 40.9994 31.8322 40.9994L31.8322 40.9995C31.8322 40.9995 31.8322 40.9995 31.8322 40.9995L27.903 47.9885C27.822 48.1326 27.8859 48.3151 28.0391 48.3771L31.8322 49.9135C31.8322 49.9135 31.8322 49.9135 31.8322 49.9135C31.8322 49.9136 31.8322 49.9136 31.8322 49.9136L31.8323 49.9136Z" fill="url(#paint22_linear_1_13524)"/>
</mask>
<g mask="url(#mask1_1_13524)">
<path d="M31.8546 50.1006L35.9009 48.286L31.8546 40.3178L31.8546 50.1006Z" fill="#5856D6"/>
<path d="M31.8553 50.1006L27.8091 48.286L31.8553 40.3178L31.8553 50.1006Z" fill="#5856D6"/>
</g>
<mask id="path-37-outside-1_1_13524" maskUnits="userSpaceOnUse" x="23.9995" y="13" width="14" height="21" fill="black">
<rect fill="white" x="23.9995" y="13" width="14" height="21"/>
<path d="M28.9435 32.12C27.7275 32.12 26.7755 31.728 26.0875 30.944C25.3995 30.16 25.0555 29.128 25.0555 27.848C25.0555 27.544 25.0635 27.224 25.0795 26.888C25.1115 26.552 25.1435 26.2 25.1755 25.832L28.8715 26.12C28.7915 26.392 28.7515 26.584 28.7515 26.696C28.7515 27.016 28.8475 27.248 29.0395 27.392C29.2315 27.536 29.4555 27.608 29.7115 27.608C30.1595 27.608 30.5755 27.416 30.9595 27.032C31.3595 26.648 31.5595 26.08 31.5595 25.328C31.5595 24.912 31.3915 24.56 31.0555 24.272C30.7355 23.984 30.0555 23.84 29.0155 23.84C28.8395 23.84 28.6395 23.848 28.4155 23.864C28.2075 23.88 27.8955 23.92 27.4795 23.984C27.0635 24.032 26.4555 24.128 25.6555 24.272C25.8315 23.072 26.0475 21.696 26.3035 20.144C26.5595 18.576 26.8715 16.808 27.2395 14.84L36.3835 14.504L35.9035 18.416C35.4555 18.432 35.0075 18.448 34.5595 18.464C34.1115 18.48 33.6555 18.496 33.1915 18.512C32.7275 18.528 32.2555 18.544 31.7755 18.56C31.3115 18.576 30.8395 18.6 30.3595 18.632L30.1195 20.648C31.1435 20.648 32.0155 20.744 32.7355 20.936C33.4555 21.128 34.0395 21.392 34.4875 21.728C34.9355 22.064 35.2555 22.464 35.4475 22.928C35.6555 23.376 35.7595 23.88 35.7595 24.44C35.7595 25.224 35.5595 26.072 35.1595 26.984C34.7755 27.88 34.2315 28.728 33.5275 29.528C32.8075 30.344 32.0475 30.984 31.2475 31.448C30.4475 31.896 29.6795 32.12 28.9435 32.12Z"/>
</mask>
<path d="M28.9435 32.12C27.7275 32.12 26.7755 31.728 26.0875 30.944C25.3995 30.16 25.0555 29.128 25.0555 27.848C25.0555 27.544 25.0635 27.224 25.0795 26.888C25.1115 26.552 25.1435 26.2 25.1755 25.832L28.8715 26.12C28.7915 26.392 28.7515 26.584 28.7515 26.696C28.7515 27.016 28.8475 27.248 29.0395 27.392C29.2315 27.536 29.4555 27.608 29.7115 27.608C30.1595 27.608 30.5755 27.416 30.9595 27.032C31.3595 26.648 31.5595 26.08 31.5595 25.328C31.5595 24.912 31.3915 24.56 31.0555 24.272C30.7355 23.984 30.0555 23.84 29.0155 23.84C28.8395 23.84 28.6395 23.848 28.4155 23.864C28.2075 23.88 27.8955 23.92 27.4795 23.984C27.0635 24.032 26.4555 24.128 25.6555 24.272C25.8315 23.072 26.0475 21.696 26.3035 20.144C26.5595 18.576 26.8715 16.808 27.2395 14.84L36.3835 14.504L35.9035 18.416C35.4555 18.432 35.0075 18.448 34.5595 18.464C34.1115 18.48 33.6555 18.496 33.1915 18.512C32.7275 18.528 32.2555 18.544 31.7755 18.56C31.3115 18.576 30.8395 18.6 30.3595 18.632L30.1195 20.648C31.1435 20.648 32.0155 20.744 32.7355 20.936C33.4555 21.128 34.0395 21.392 34.4875 21.728C34.9355 22.064 35.2555 22.464 35.4475 22.928C35.6555 23.376 35.7595 23.88 35.7595 24.44C35.7595 25.224 35.5595 26.072 35.1595 26.984C34.7755 27.88 34.2315 28.728 33.5275 29.528C32.8075 30.344 32.0475 30.984 31.2475 31.448C30.4475 31.896 29.6795 32.12 28.9435 32.12Z" fill="white"/>
<path d="M26.0875 30.944L26.8391 30.2844L26.0875 30.944ZM25.0795 26.888L24.084 26.7932L24.0818 26.8168L24.0806 26.8404L25.0795 26.888ZM25.1755 25.832L25.2532 24.835L24.2651 24.758L24.1793 25.7454L25.1755 25.832ZM28.8715 26.12L29.8309 26.4022L30.1789 25.2188L28.9492 25.123L28.8715 26.12ZM29.0395 27.392L28.4395 28.192L28.4395 28.192L29.0395 27.392ZM30.9595 27.032L30.267 26.3106L30.2596 26.3177L30.2524 26.3249L30.9595 27.032ZM31.0555 24.272L30.3865 25.0153L30.3955 25.0234L30.4047 25.0313L31.0555 24.272ZM28.4155 23.864L28.3443 22.8665L28.3388 22.8669L28.4155 23.864ZM27.4795 23.984L27.5941 24.9774L27.6129 24.9752L27.6316 24.9724L27.4795 23.984ZM25.6555 24.272L24.6661 24.1269L24.4643 25.5025L25.8327 25.2562L25.6555 24.272ZM26.3035 20.144L27.2902 20.3067L27.2904 20.3051L26.3035 20.144ZM27.2395 14.84L27.2028 13.8407L26.4036 13.87L26.2565 14.6562L27.2395 14.84ZM36.3835 14.504L37.3761 14.6258L37.5189 13.4616L36.3468 13.5047L36.3835 14.504ZM35.9035 18.416L35.9392 19.4154L36.7921 19.3849L36.8961 18.5378L35.9035 18.416ZM31.7755 18.56L31.7422 17.5606L31.741 17.5606L31.7755 18.56ZM30.3595 18.632L30.293 17.6342L29.4647 17.6894L29.3665 18.5138L30.3595 18.632ZM30.1195 20.648L29.1265 20.5298L28.9934 21.648H30.1195V20.648ZM32.7355 20.936L32.9932 19.9698L32.7355 20.936ZM34.4875 21.728L35.0875 20.928L34.4875 21.728ZM35.4475 22.928L34.5235 23.3104L34.5316 23.3299L34.5405 23.3491L35.4475 22.928ZM35.1595 26.984L34.2437 26.5823L34.2404 26.5901L35.1595 26.984ZM33.5275 29.528L34.2774 30.1896L34.2782 30.1886L33.5275 29.528ZM31.2475 31.448L31.7361 32.3205L31.7427 32.3168L31.7492 32.313L31.2475 31.448ZM28.9435 31.12C27.9627 31.12 27.3051 30.8154 26.8391 30.2844L25.3359 31.6036C26.2459 32.6406 27.4923 33.12 28.9435 33.12V31.12ZM26.8391 30.2844C26.3455 29.7218 26.0555 28.9427 26.0555 27.848H24.0555C24.0555 29.3133 24.4536 30.5982 25.3359 31.6036L26.8391 30.2844ZM26.0555 27.848C26.0555 27.5614 26.0631 27.2574 26.0784 26.9356L24.0806 26.8404C24.064 27.1906 24.0555 27.5266 24.0555 27.848H26.0555ZM26.075 26.9828C26.1073 26.6438 26.1395 26.2891 26.1718 25.9186L24.1793 25.7454C24.1475 26.1109 24.1157 26.4602 24.084 26.7932L26.075 26.9828ZM25.0978 26.829L28.7938 27.117L28.9492 25.123L25.2532 24.835L25.0978 26.829ZM27.9121 25.8378C27.834 26.1035 27.7515 26.4227 27.7515 26.696H29.7515C29.7515 26.7242 29.7492 26.7368 29.7505 26.7275C29.7515 26.7198 29.7542 26.702 29.7605 26.672C29.7732 26.611 29.7954 26.5226 29.8309 26.4022L27.9121 25.8378ZM27.7515 26.696C27.7515 27.217 27.9168 27.8 28.4395 28.192L29.6395 26.592C29.6636 26.6101 29.6871 26.6329 29.7074 26.6594C29.7275 26.6857 29.7402 26.7099 29.7475 26.7276C29.7614 26.7612 29.7515 26.7594 29.7515 26.696H27.7515ZM28.4395 28.192C28.8165 28.4747 29.2545 28.608 29.7115 28.608V26.608C29.6565 26.608 29.6465 26.5973 29.6395 26.592L28.4395 28.192ZM29.7115 28.608C30.4793 28.608 31.1375 28.2682 31.6666 27.7391L30.2524 26.3249C30.0135 26.5638 29.8397 26.608 29.7115 26.608V28.608ZM31.652 27.7534C32.3106 27.1211 32.5595 26.2521 32.5595 25.328H30.5595C30.5595 25.9079 30.4084 26.1749 30.267 26.3106L31.652 27.7534ZM32.5595 25.328C32.5595 24.5995 32.2479 23.9769 31.7063 23.5127L30.4047 25.0313C30.5352 25.1431 30.5595 25.2245 30.5595 25.328H32.5595ZM31.7245 23.5287C31.3769 23.2159 30.9296 23.058 30.5127 22.9697C30.08 22.8781 29.5745 22.84 29.0155 22.84V24.84C29.4966 24.84 29.851 24.8739 30.0983 24.9263C30.3614 24.982 30.4141 25.0401 30.3865 25.0153L31.7245 23.5287ZM29.0155 22.84C28.8103 22.84 28.5859 22.8493 28.3443 22.8665L28.4868 24.8615C28.6932 24.8467 28.8687 24.84 29.0155 24.84V22.84ZM28.3388 22.8669C28.0914 22.886 27.7487 22.9308 27.3275 22.9956L27.6316 24.9724C28.0423 24.9092 28.3236 24.874 28.4922 24.8611L28.3388 22.8669ZM27.3649 22.9906C26.9167 23.0423 26.2837 23.1429 25.4784 23.2878L25.8327 25.2562C26.6273 25.1131 27.2103 25.0217 27.5941 24.9774L27.3649 22.9906ZM26.6449 24.4171C26.8199 23.2244 27.0349 21.8545 27.2902 20.3067L25.3168 19.9813C25.0601 21.5375 24.8432 22.9196 24.6661 24.1269L26.6449 24.4171ZM27.2904 20.3051C27.5449 18.7463 27.8555 16.9861 28.2225 15.0238L26.2565 14.6562C25.8875 16.6299 25.5741 18.4057 25.3166 19.9829L27.2904 20.3051ZM27.2762 15.8393L36.4202 15.5033L36.3468 13.5047L27.2028 13.8407L27.2762 15.8393ZM35.391 14.3822L34.911 18.2942L36.8961 18.5378L37.3761 14.6258L35.391 14.3822ZM35.8678 17.4166C35.4198 17.4326 34.9718 17.4486 34.5238 17.4646L34.5952 19.4634C35.0432 19.4474 35.4912 19.4314 35.9392 19.4154L35.8678 17.4166ZM34.5238 17.4646C34.0762 17.4806 33.6207 17.4966 33.1571 17.5126L33.226 19.5114C33.6904 19.4954 34.1468 19.4794 34.5952 19.4634L34.5238 17.4646ZM33.1571 17.5126C32.6934 17.5286 32.2218 17.5446 31.7422 17.5606L31.8088 19.5594C32.2892 19.5434 32.7616 19.5274 33.226 19.5114L33.1571 17.5126ZM31.741 17.5606C31.266 17.577 30.7833 17.6015 30.293 17.6342L30.426 19.6298C30.8957 19.5985 31.357 19.575 31.81 19.5594L31.741 17.5606ZM29.3665 18.5138L29.1265 20.5298L31.1125 20.7662L31.3525 18.7502L29.3665 18.5138ZM30.1195 21.648C31.0865 21.648 31.8666 21.7392 32.4778 21.9022L32.9932 19.9698C32.1644 19.7488 31.2005 19.648 30.1195 19.648V21.648ZM32.4778 21.9022C33.1128 22.0715 33.5697 22.2896 33.8875 22.528L35.0875 20.928C34.5093 20.4944 33.7982 20.1845 32.9932 19.9698L32.4778 21.9022ZM33.8875 22.528C34.209 22.7691 34.4078 23.0307 34.5235 23.3104L36.3715 22.5456C36.1033 21.8973 35.6621 21.3589 35.0875 20.928L33.8875 22.528ZM34.5405 23.3491C34.6795 23.6486 34.7595 24.006 34.7595 24.44H36.7595C36.7595 23.754 36.6315 23.1034 36.3545 22.5069L34.5405 23.3491ZM34.7595 24.44C34.7595 25.0538 34.6027 25.764 34.2437 26.5823L36.0753 27.3857C36.5164 26.38 36.7595 25.3942 36.7595 24.44H34.7595ZM34.2404 26.5901C33.9017 27.3802 33.4174 28.1394 32.7768 28.8674L34.2782 30.1886C35.0456 29.3166 35.6493 28.3798 36.0787 27.3779L34.2404 26.5901ZM32.7777 28.8664C32.1166 29.6156 31.4379 30.1816 30.7458 30.583L31.7492 32.313C32.6571 31.7864 33.4984 31.0724 34.2774 30.1896L32.7777 28.8664ZM30.7589 30.5755C30.072 30.9602 29.4712 31.12 28.9435 31.12V33.12C29.8878 33.12 30.823 32.8318 31.7361 32.3205L30.7589 30.5755Z" fill="black" mask="url(#path-37-outside-1_1_13524)"/>
<defs>
<filter id="filter0_f_1_13524" x="23.4113" y="44.1603" width="16.837" height="7.85167" filterUnits="userSpaceOnUse" color-interpolation-filters="sRGB">
<feFlood flood-opacity="0" result="BackgroundImageFix"/>
<feBlend mode="normal" in="SourceGraphic" in2="BackgroundImageFix" result="shape"/>
<feGaussianBlur stdDeviation="0.205714" result="effect1_foregroundBlur_1_13524"/>
</filter>
<filter id="filter1_f_1_13524" x="15.0775" y="4.04089" width="33.4568" height="41.6336" filterUnits="userSpaceOnUse" color-interpolation-filters="sRGB">
<feFlood flood-opacity="0" result="BackgroundImageFix"/>
<feBlend mode="normal" in="SourceGraphic" in2="BackgroundImageFix" result="shape"/>
<feGaussianBlur stdDeviation="0.0205714" result="effect1_foregroundBlur_1_13524"/>
</filter>
<filter id="filter2_i_1_13524" x="16.6011" y="5.84521" width="30.6157" height="38.0903" filterUnits="userSpaceOnUse" color-interpolation-filters="sRGB">
<feFlood flood-opacity="0" result="BackgroundImageFix"/>
<feBlend mode="normal" in="SourceGraphic" in2="BackgroundImageFix" result="shape"/>
<feColorMatrix in="SourceAlpha" type="matrix" values="0 0 0 0 0 0 0 0 0 0 0 0 0 0 0 0 0 0 127 0" result="hardAlpha"/>
<feOffset/>
<feGaussianBlur stdDeviation="0.922167"/>
<feComposite in2="hardAlpha" operator="arithmetic" k2="-1" k3="1"/>
<feColorMatrix type="matrix" values="0 0 0 0 0.297222 0 0 0 0 0.329917 0 0 0 0 0.445833 0 0 0 1 0"/>
<feBlend mode="normal" in2="shape" result="effect1_innerShadow_1_13524"/>
</filter>
<filter id="filter3_d_1_13524" x="28.995" y="23.3115" width="33.6175" height="24.6092" filterUnits="userSpaceOnUse" color-interpolation-filters="sRGB">
<feFlood flood-opacity="0" result="BackgroundImageFix"/>
<feColorMatrix in="SourceAlpha" type="matrix" values="0 0 0 0 0 0 0 0 0 0 0 0 0 0 0 0 0 0 127 0" result="hardAlpha"/>
<feOffset dy="0.637349"/>
<feGaussianBlur stdDeviation="0.318674"/>
<feColorMatrix type="matrix" values="0 0 0 0 0.214861 0 0 0 0 0.236708 0 0 0 0 0.433333 0 0 0 0.25 0"/>
<feBlend mode="normal" in2="BackgroundImageFix" result="effect1_dropShadow_1_13524"/>
<feBlend mode="normal" in="SourceGraphic" in2="effect1_dropShadow_1_13524" result="shape"/>
</filter>
<filter id="filter4_d_1_13524" x="34.1843" y="21.6" width="29.2847" height="19.8497" filterUnits="userSpaceOnUse" color-interpolation-filters="sRGB">
<feFlood flood-opacity="0" result="BackgroundImageFix"/>
<feColorMatrix in="SourceAlpha" type="matrix" values="0 0 0 0 0 0 0 0 0 0 0 0 0 0 0 0 0 0 127 0" result="hardAlpha"/>
<feOffset dy="-0.318674"/>
<feGaussianBlur stdDeviation="0.768694"/>
<feColorMatrix type="matrix" values="0 0 0 0 0.365689 0 0 0 0 0.351111 0 0 0 0 0.533333 0 0 0 0.2 0"/>
<feBlend mode="normal" in2="BackgroundImageFix" result="effect1_dropShadow_1_13524"/>
<feBlend mode="normal" in="SourceGraphic" in2="effect1_dropShadow_1_13524" result="shape"/>
</filter>
<filter id="filter5_d_1_13524" x="29.1543" y="23.1522" width="21.8222" height="24.2905" filterUnits="userSpaceOnUse" color-interpolation-filters="sRGB">
<feFlood flood-opacity="0" result="BackgroundImageFix"/>
<feColorMatrix in="SourceAlpha" type="matrix" values="0 0 0 0 0 0 0 0 0 0 0 0 0 0 0 0 0 0 127 0" result="hardAlpha"/>
<feOffset dy="0.318674"/>
<feGaussianBlur stdDeviation="0.239006"/>
<feColorMatrix type="matrix" values="0 0 0 0 0.302882 0 0 0 0 0.323427 0 0 0 0 0.508333 0 0 0 0.25 0"/>
<feBlend mode="normal" in2="BackgroundImageFix" result="effect1_dropShadow_1_13524"/>
<feBlend mode="normal" in="SourceGraphic" in2="effect1_dropShadow_1_13524" result="shape"/>
</filter>
<filter id="filter6_d_1_13524" x="1.38755" y="23.3115" width="33.6175" height="24.6092" filterUnits="userSpaceOnUse" color-interpolation-filters="sRGB">
<feFlood flood-opacity="0" result="BackgroundImageFix"/>
<feColorMatrix in="SourceAlpha" type="matrix" values="0 0 0 0 0 0 0 0 0 0 0 0 0 0 0 0 0 0 127 0" result="hardAlpha"/>
<feOffset dy="0.637349"/>
<feGaussianBlur stdDeviation="0.318674"/>
<feColorMatrix type="matrix" values="0 0 0 0 0.214861 0 0 0 0 0.236708 0 0 0 0 0.433333 0 0 0 0.25 0"/>
<feBlend mode="normal" in2="BackgroundImageFix" result="effect1_dropShadow_1_13524"/>
<feBlend mode="normal" in="SourceGraphic" in2="effect1_dropShadow_1_13524" result="shape"/>
</filter>
<filter id="filter7_d_1_13524" x="0.530972" y="21.6" width="29.2847" height="19.8497" filterUnits="userSpaceOnUse" color-interpolation-filters="sRGB">
<feFlood flood-opacity="0" result="BackgroundImageFix"/>
<feColorMatrix in="SourceAlpha" type="matrix" values="0 0 0 0 0 0 0 0 0 0 0 0 0 0 0 0 0 0 127 0" result="hardAlpha"/>
<feOffset dy="-0.318674"/>
<feGaussianBlur stdDeviation="0.768694"/>
<feColorMatrix type="matrix" values="0 0 0 0 0.365689 0 0 0 0 0.351111 0 0 0 0 0.533333 0 0 0 0.2 0"/>
<feBlend mode="normal" in2="BackgroundImageFix" result="effect1_dropShadow_1_13524"/>
<feBlend mode="normal" in="SourceGraphic" in2="effect1_dropShadow_1_13524" result="shape"/>
</filter>
<filter id="filter8_d_1_13524" x="13.0235" y="23.1522" width="21.8222" height="24.2905" filterUnits="userSpaceOnUse" color-interpolation-filters="sRGB">
<feFlood flood-opacity="0" result="BackgroundImageFix"/>
<feColorMatrix in="SourceAlpha" type="matrix" values="0 0 0 0 0 0 0 0 0 0 0 0 0 0 0 0 0 0 127 0" result="hardAlpha"/>
<feOffset dy="0.318674"/>
<feGaussianBlur stdDeviation="0.239006"/>
<feColorMatrix type="matrix" values="0 0 0 0 0.302882 0 0 0 0 0.323427 0 0 0 0 0.508333 0 0 0 0.25 0"/>
<feBlend mode="normal" in2="BackgroundImageFix" result="effect1_dropShadow_1_13524"/>
<feBlend mode="normal" in="SourceGraphic" in2="effect1_dropShadow_1_13524" result="shape"/>
</filter>
<filter id="filter9_f_1_13524" x="27.513" y="37.5066" width="8.63328" height="11.04" filterUnits="userSpaceOnUse" color-interpolation-filters="sRGB">
<feFlood flood-opacity="0" result="BackgroundImageFix"/>
<feBlend mode="normal" in="SourceGraphic" in2="BackgroundImageFix" result="shape"/>
<feGaussianBlur stdDeviation="0.274286" result="effect1_foregroundBlur_1_13524"/>
</filter>
<linearGradient id="paint0_linear_1_13524" x1="31.8849" y1="30.5445" x2="31.8849" y2="54.3799" gradientUnits="userSpaceOnUse">
<stop stop-color="#1B6C07"/>
<stop offset="0.541667" stop-color="#28B601"/>
<stop offset="0.744062" stop-color="#37E300"/>
<stop offset="1" stop-color="#1A5B0B"/>
</linearGradient>
<linearGradient id="paint1_linear_1_13524" x1="28.0465" y1="19.3716" x2="28.0465" y2="57.8805" gradientUnits="userSpaceOnUse">
<stop stop-color="#98B4E1"/>
<stop offset="0.783601" stop-color="#FAFCFF"/>
<stop offset="1" stop-color="#DFE7FF"/>
</linearGradient>
<linearGradient id="paint2_linear_1_13524" x1="28.1488" y1="19.3716" x2="28.1488" y2="58.7362" gradientUnits="userSpaceOnUse">
<stop stop-color="#98B4E1"/>
<stop offset="0.783601" stop-color="#FAFCFF"/>
<stop offset="1" stop-color="#DFE7FF"/>
</linearGradient>
<linearGradient id="paint3_linear_1_13524" x1="34.7226" y1="19.3716" x2="34.7226" y2="58.7362" gradientUnits="userSpaceOnUse">
<stop stop-color="#98B4E1"/>
<stop offset="0.783601" stop-color="#FAFCFF"/>
<stop offset="1" stop-color="#DFE7FF"/>
</linearGradient>
<linearGradient id="paint4_linear_1_13524" x1="31.908" y1="31.9978" x2="31.7978" y2="42.9481" gradientUnits="userSpaceOnUse">
<stop stop-color="white" stop-opacity="0"/>
<stop offset="1" stop-color="#D0DBFF"/>
</linearGradient>
<linearGradient id="paint5_linear_1_13524" x1="53.59" y1="29.5168" x2="47.7175" y2="27.7911" gradientUnits="userSpaceOnUse">
<stop offset="0.209488" stop-color="#9196AA"/>
<stop offset="0.583159" stop-color="#C9C9DC"/>
<stop offset="0.986946" stop-color="#797D87"/>
</linearGradient>
<linearGradient id="paint6_linear_1_13524" x1="60.8248" y1="24.3629" x2="50.4251" y2="34.8087" gradientUnits="userSpaceOnUse">
<stop stop-color="#F8F8F9" stop-opacity="0.86"/>
<stop offset="0.319253" stop-color="#F8F8F9"/>
<stop offset="0.615431" stop-color="white" stop-opacity="0.88"/>
<stop offset="0.867925" stop-color="white"/>
</linearGradient>
<linearGradient id="paint7_linear_1_13524" x1="47.1633" y1="35.4288" x2="43.3159" y2="33.4389" gradientUnits="userSpaceOnUse">
<stop offset="0.209488" stop-color="#717995"/>
<stop offset="0.583159" stop-color="#A4A5BB"/>
<stop offset="0.986946" stop-color="#797D87"/>
</linearGradient>
<linearGradient id="paint8_linear_1_13524" x1="44.4072" y1="34.132" x2="45.5959" y2="46.2686" gradientUnits="userSpaceOnUse">
<stop offset="0.0306468" stop-color="#DBDCE7"/>
<stop offset="0.274204" stop-color="#CBCCD7"/>
<stop offset="0.675444" stop-color="#D1D2D9"/>
</linearGradient>
<linearGradient id="paint9_linear_1_13524" x1="46.4495" y1="34.6273" x2="41.3596" y2="47.2495" gradientUnits="userSpaceOnUse">
<stop stop-color="#F8F8F9" stop-opacity="0.78"/>
<stop offset="0.319253" stop-color="#F8F8F9" stop-opacity="0"/>
<stop offset="0.615431" stop-color="white" stop-opacity="0"/>
<stop offset="0.867925" stop-color="white" stop-opacity="0"/>
</linearGradient>
<linearGradient id="paint10_linear_1_13524" x1="40.242" y1="23.2429" x2="40.242" y2="46.6456" gradientUnits="userSpaceOnUse">
<stop stop-color="#C4C4C4"/>
<stop offset="1" stop-color="#63687B"/>
</linearGradient>
<linearGradient id="paint11_linear_1_13524" x1="42.1121" y1="34.1975" x2="38.4707" y2="38.3662" gradientUnits="userSpaceOnUse">
<stop stop-color="white" stop-opacity="0"/>
<stop offset="0.445395" stop-color="white"/>
<stop offset="1" stop-color="white" stop-opacity="0"/>
</linearGradient>
<linearGradient id="paint12_linear_1_13524" x1="40.8363" y1="34.3973" x2="41.1104" y2="38.6218" gradientUnits="userSpaceOnUse">
<stop offset="0.0495744" stop-color="#C4C4C4"/>
<stop offset="0.454268" stop-color="#EDEDED"/>
<stop offset="1" stop-color="#C4C4C4" stop-opacity="0"/>
</linearGradient>
<linearGradient id="paint13_linear_1_13524" x1="10.41" y1="29.5168" x2="16.2825" y2="27.7911" gradientUnits="userSpaceOnUse">
<stop offset="0.209488" stop-color="#9196AA"/>
<stop offset="0.583159" stop-color="#C9C9DC"/>
<stop offset="0.986946" stop-color="#797D87"/>
</linearGradient>
<linearGradient id="paint14_linear_1_13524" x1="3.17523" y1="24.3629" x2="13.5749" y2="34.8087" gradientUnits="userSpaceOnUse">
<stop stop-color="#F8F8F9" stop-opacity="0.86"/>
<stop offset="0.319253" stop-color="#F8F8F9"/>
<stop offset="0.615431" stop-color="white" stop-opacity="0.88"/>
<stop offset="0.867925" stop-color="white"/>
</linearGradient>
<linearGradient id="paint15_linear_1_13524" x1="16.8367" y1="35.4288" x2="20.6841" y2="33.4389" gradientUnits="userSpaceOnUse">
<stop offset="0.209488" stop-color="#717995"/>
<stop offset="0.583159" stop-color="#A4A5BB"/>
<stop offset="0.986946" stop-color="#797D87"/>
</linearGradient>
<linearGradient id="paint16_linear_1_13524" x1="19.5928" y1="34.132" x2="18.4041" y2="46.2686" gradientUnits="userSpaceOnUse">
<stop offset="0.0306468" stop-color="#DBDCE7"/>
<stop offset="0.274204" stop-color="#CBCCD7"/>
<stop offset="0.675444" stop-color="#D1D2D9"/>
</linearGradient>
<linearGradient id="paint17_linear_1_13524" x1="17.5505" y1="34.6273" x2="22.6404" y2="47.2495" gradientUnits="userSpaceOnUse">
<stop stop-color="#F8F8F9" stop-opacity="0.78"/>
<stop offset="0.319253" stop-color="#F8F8F9" stop-opacity="0"/>
<stop offset="0.615431" stop-color="white" stop-opacity="0"/>
<stop offset="0.867925" stop-color="white" stop-opacity="0"/>
</linearGradient>
<linearGradient id="paint18_linear_1_13524" x1="23.757" y1="23.2429" x2="23.757" y2="46.6456" gradientUnits="userSpaceOnUse">
<stop stop-color="#C4C4C4"/>
<stop offset="1" stop-color="#63687B"/>
</linearGradient>
<linearGradient id="paint19_linear_1_13524" x1="21.8879" y1="34.1975" x2="25.5293" y2="38.3662" gradientUnits="userSpaceOnUse">
<stop stop-color="white" stop-opacity="0"/>
<stop offset="0.445395" stop-color="white"/>
<stop offset="1" stop-color="white" stop-opacity="0"/>
</linearGradient>
<linearGradient id="paint20_linear_1_13524" x1="23.1637" y1="34.3973" x2="22.8896" y2="38.6218" gradientUnits="userSpaceOnUse">
<stop offset="0.0495744" stop-color="#C4C4C4"/>
<stop offset="0.454268" stop-color="#EDEDED"/>
<stop offset="1" stop-color="#C4C4C4" stop-opacity="0"/>
</linearGradient>
<linearGradient id="paint21_linear_1_13524" x1="31.8296" y1="48.083" x2="31.8296" y2="41.2845" gradientUnits="userSpaceOnUse">
<stop stop-color="#585B77" stop-opacity="0.75"/>
<stop offset="1" stop-color="#525787" stop-opacity="0"/>
</linearGradient>
<linearGradient id="paint22_linear_1_13524" x1="32.2271" y1="43.4207" x2="29.2031" y2="47.4219" gradientUnits="userSpaceOnUse">
<stop stop-color="#D5D7D9"/>
<stop offset="1" stop-color="#E2E3E7"/>
</linearGradient>
</defs>
</svg>
