<svg width="60" height="60" viewBox="0 0 60 60" fill="none" xmlns="http://www.w3.org/2000/svg">
<rect width="60" height="60" rx="30" fill="#001E45" fill-opacity="0.1"/>
<path fill-rule="evenodd" clip-rule="evenodd" d="M34.2425 25.0073C34.6567 25.0073 34.9925 25.343 34.9925 25.7573L34.9925 31.4141C34.9925 31.8283 34.6567 32.1641 34.2425 32.1641C33.8283 32.1641 33.4925 31.8283 33.4925 31.4141L33.4925 27.5679L26.2875 34.7729C25.9946 35.0658 25.5198 35.0658 25.2269 34.7729C24.934 34.48 24.934 34.0051 25.2269 33.7122L32.4318 26.5073L28.5856 26.5073C28.1714 26.5073 27.8356 26.1715 27.8356 25.7573C27.8356 25.343 28.1714 25.0073 28.5856 25.0073H34.2425Z" fill="#001E45"/>
</svg>
