<svg width="60" height="61" viewBox="0 0 60 61" fill="none" xmlns="http://www.w3.org/2000/svg">
<rect y="0.5" width="60" height="60" rx="30" fill="#001E45" fill-opacity="0.1"/>
<path fill-rule="evenodd" clip-rule="evenodd" d="M32.6667 23.8333C32.6667 26.7789 30.2789 29.1667 27.3333 29.1667C24.3878 29.1667 22 26.7789 22 23.8333C22 20.8878 24.3878 18.5 27.3333 18.5C30.2789 18.5 32.6667 20.8878 32.6667 23.8333ZM36.6667 37.1667C36.6667 40.1122 32.488 42.5 27.3333 42.5C22.1787 42.5 18 40.1122 18 37.1667C18 34.2211 22.1787 31.8333 27.3333 31.8333C32.488 31.8333 36.6667 34.2211 36.6667 37.1667ZM38 31.5C37.4477 31.5 37 31.0523 37 30.5V28.8333H35.3333C34.781 28.8333 34.3333 28.3856 34.3333 27.8333C34.3333 27.281 34.781 26.8333 35.3333 26.8333H37V25.1667C37 24.6144 37.4477 24.1667 38 24.1667C38.5523 24.1667 39 24.6144 39 25.1667V26.8333H40.6667C41.219 26.8333 41.6667 27.281 41.6667 27.8333C41.6667 28.3856 41.219 28.8333 40.6667 28.8333H39V30.5C39 31.0523 38.5523 31.5 38 31.5Z" fill="#001E45"/>
</svg>
