<svg width="122" height="40" viewBox="0 0 122 40" fill="none" xmlns="http://www.w3.org/2000/svg">
<rect width="122" height="40" rx="20" fill="#5C63EA"/>
<path d="M39.2701 13.33C37.9401 12.71 36.5001 12.26 35.0001 12C34.9737 12.0004 34.9486 12.0112 34.9301 12.03C34.7501 12.36 34.5401 12.79 34.4001 13.12C32.8091 12.8802 31.1911 12.8802 29.6001 13.12C29.4601 12.78 29.2501 12.36 29.0601 12.03C29.0501 12.01 29.0201 12 28.9901 12C27.4901 12.26 26.0601 12.71 24.7201 13.33C24.7101 13.33 24.7001 13.34 24.6901 13.35C21.9701 17.42 21.2201 21.38 21.5901 25.3C21.5901 25.32 21.6001 25.34 21.6201 25.35C23.4201 26.67 25.1501 27.47 26.8601 28C26.8901 28.01 26.9201 28 26.9301 27.98C27.3301 27.43 27.6901 26.85 28.0001 26.24C28.0201 26.2 28.0001 26.16 27.9601 26.15C27.3901 25.93 26.8501 25.67 26.3201 25.37C26.2801 25.35 26.2801 25.29 26.3101 25.26C26.4201 25.18 26.5301 25.09 26.6401 25.01C26.6601 24.99 26.6901 24.99 26.7101 25C30.1501 26.57 33.8601 26.57 37.2601 25C37.2801 24.99 37.3101 24.99 37.3301 25.01C37.4401 25.1 37.5501 25.18 37.6601 25.27C37.7001 25.3 37.7001 25.36 37.6501 25.38C37.1301 25.69 36.5801 25.94 36.0101 26.16C35.9701 26.17 35.9601 26.22 35.9701 26.25C36.2901 26.86 36.6501 27.44 37.0401 27.99C37.0701 28 37.1001 28.01 37.1301 28C38.8501 27.47 40.5801 26.67 42.3801 25.35C42.4001 25.34 42.4101 25.32 42.4101 25.3C42.8501 20.77 41.6801 16.84 39.3101 13.35C39.3001 13.34 39.2901 13.33 39.2701 13.33ZM28.5201 22.91C27.4901 22.91 26.6301 21.96 26.6301 20.79C26.6301 19.62 27.4701 18.67 28.5201 18.67C29.5801 18.67 30.4201 19.63 30.4101 20.79C30.4101 21.96 29.5701 22.91 28.5201 22.91ZM35.4901 22.91C34.4601 22.91 33.6001 21.96 33.6001 20.79C33.6001 19.62 34.4401 18.67 35.4901 18.67C36.5501 18.67 37.3901 19.63 37.3801 20.79C37.3801 21.96 36.5501 22.91 35.4901 22.91Z" fill="white"/>
<path d="M57.9238 25H55.7773L55.791 23.5234H57.9238C58.5026 23.5234 58.988 23.3958 59.3799 23.1406C59.7718 22.8809 60.068 22.5094 60.2686 22.0264C60.4691 21.5387 60.5693 20.9554 60.5693 20.2764V19.7637C60.5693 19.2396 60.5124 18.777 60.3984 18.376C60.2845 17.9749 60.1159 17.6377 59.8926 17.3643C59.6738 17.0908 59.4027 16.8835 59.0791 16.7422C58.7555 16.6009 58.3841 16.5303 57.9648 16.5303H55.7363V15.0469H57.9648C58.6302 15.0469 59.2363 15.1585 59.7832 15.3818C60.3346 15.6051 60.8109 15.9264 61.2119 16.3457C61.6175 16.7604 61.9274 17.2572 62.1416 17.8359C62.3604 18.4147 62.4697 19.0618 62.4697 19.7773V20.2764C62.4697 20.9873 62.3604 21.6344 62.1416 22.2178C61.9274 22.7965 61.6175 23.2933 61.2119 23.708C60.8109 24.1227 60.3324 24.4417 59.7764 24.665C59.2204 24.8883 58.6029 25 57.9238 25ZM56.8301 15.0469V25H54.9502V15.0469H56.8301ZM65.8467 17.6035V25H64.0352V17.6035H65.8467ZM63.9121 15.6689C63.9121 15.4001 64.0033 15.1768 64.1855 14.999C64.3724 14.8213 64.623 14.7324 64.9375 14.7324C65.252 14.7324 65.5003 14.8213 65.6826 14.999C65.8695 15.1768 65.9629 15.4001 65.9629 15.6689C65.9629 15.9333 65.8695 16.1543 65.6826 16.332C65.5003 16.5098 65.252 16.5986 64.9375 16.5986C64.623 16.5986 64.3724 16.5098 64.1855 16.332C64.0033 16.1543 63.9121 15.9333 63.9121 15.6689ZM71.6367 22.9766C71.6367 22.8216 71.5957 22.6826 71.5137 22.5596C71.4316 22.4365 71.2767 22.3249 71.0488 22.2246C70.8255 22.1198 70.4974 22.0218 70.0645 21.9307C69.6816 21.8486 69.3285 21.7461 69.0049 21.623C68.6813 21.5 68.4033 21.3519 68.1709 21.1787C67.9385 21.001 67.7562 20.7936 67.624 20.5566C67.4964 20.3151 67.4326 20.0371 67.4326 19.7227C67.4326 19.4173 67.4987 19.1302 67.6309 18.8613C67.763 18.5879 67.9544 18.3486 68.2051 18.1436C68.4557 17.9339 68.7611 17.7699 69.1211 17.6514C69.4811 17.5283 69.8867 17.4668 70.3379 17.4668C70.9668 17.4668 71.5068 17.5693 71.958 17.7744C72.4137 17.9795 72.7624 18.262 73.0039 18.6221C73.2454 18.9775 73.3662 19.3786 73.3662 19.8252H71.5615C71.5615 19.6292 71.516 19.4515 71.4248 19.292C71.3382 19.1325 71.2038 19.0049 71.0215 18.9092C70.8392 18.8089 70.609 18.7588 70.3311 18.7588C70.0804 18.7588 69.8685 18.7998 69.6953 18.8818C69.5267 18.9639 69.3991 19.071 69.3125 19.2031C69.2259 19.3353 69.1826 19.4811 69.1826 19.6406C69.1826 19.7591 69.2054 19.8662 69.251 19.9619C69.3011 20.0531 69.3809 20.1374 69.4902 20.2148C69.5996 20.2923 69.7477 20.363 69.9346 20.4268C70.126 20.4906 70.3607 20.5521 70.6387 20.6113C71.1901 20.7207 71.6709 20.8665 72.0811 21.0488C72.4958 21.2266 72.8193 21.4635 73.0518 21.7598C73.2842 22.056 73.4004 22.4342 73.4004 22.8945C73.4004 23.2227 73.3298 23.5234 73.1885 23.7969C73.0472 24.0658 72.8421 24.3005 72.5732 24.501C72.3044 24.7015 71.9831 24.8587 71.6094 24.9727C71.2357 25.082 70.8141 25.1367 70.3447 25.1367C69.6657 25.1367 69.0915 25.016 68.6221 24.7744C68.1527 24.5283 67.7972 24.2184 67.5557 23.8447C67.3141 23.4665 67.1934 23.0745 67.1934 22.6689H68.9229C68.9365 22.9561 69.014 23.1862 69.1553 23.3594C69.2965 23.5326 69.4743 23.6579 69.6885 23.7354C69.9072 23.8083 70.1374 23.8447 70.3789 23.8447C70.6523 23.8447 70.8825 23.8083 71.0693 23.7354C71.2562 23.6579 71.3975 23.5553 71.4932 23.4277C71.5889 23.2956 71.6367 23.1452 71.6367 22.9766ZM77.8096 23.7148C78.0648 23.7148 78.2926 23.6647 78.4932 23.5645C78.6937 23.4642 78.8532 23.3229 78.9717 23.1406C79.0947 22.9583 79.1608 22.7464 79.1699 22.5049H80.8721C80.863 23.0062 80.7217 23.4551 80.4482 23.8516C80.1748 24.248 79.8102 24.5625 79.3545 24.7949C78.9033 25.0228 78.3975 25.1367 77.8369 25.1367C77.2673 25.1367 76.7705 25.041 76.3467 24.8496C75.9229 24.6582 75.5697 24.3916 75.2871 24.0498C75.0091 23.708 74.7995 23.3115 74.6582 22.8604C74.5215 22.4092 74.4531 21.9261 74.4531 21.4111V21.1924C74.4531 20.6774 74.5215 20.1943 74.6582 19.7432C74.7995 19.292 75.0091 18.8955 75.2871 18.5537C75.5697 18.2119 75.9229 17.9453 76.3467 17.7539C76.7705 17.5625 77.265 17.4668 77.8301 17.4668C78.4271 17.4668 78.9512 17.583 79.4023 17.8154C79.8581 18.0479 80.2135 18.376 80.4688 18.7998C80.7285 19.2236 80.863 19.7227 80.8721 20.2969H79.1699C79.1608 20.0326 79.1016 19.7956 78.9922 19.5859C78.8828 19.3763 78.7279 19.2077 78.5273 19.0801C78.3268 18.9525 78.083 18.8887 77.7959 18.8887C77.4906 18.8887 77.2354 18.9525 77.0303 19.0801C76.8298 19.2077 76.6725 19.3831 76.5586 19.6064C76.4492 19.8252 76.3717 20.0713 76.3262 20.3447C76.2852 20.6136 76.2646 20.8962 76.2646 21.1924V21.4111C76.2646 21.7119 76.2852 21.999 76.3262 22.2725C76.3717 22.5459 76.4492 22.792 76.5586 23.0107C76.6725 23.2249 76.8298 23.3958 77.0303 23.5234C77.2354 23.651 77.4951 23.7148 77.8096 23.7148ZM81.7539 21.377V21.2334C81.7539 20.6911 81.8314 20.1921 81.9863 19.7363C82.1413 19.276 82.3669 18.8773 82.6631 18.54C82.9593 18.2028 83.3216 17.9408 83.75 17.7539C84.1784 17.5625 84.666 17.4668 85.2129 17.4668C85.7689 17.4668 86.2611 17.5625 86.6895 17.7539C87.1224 17.9408 87.487 18.2028 87.7832 18.54C88.0794 18.8773 88.305 19.276 88.46 19.7363C88.6149 20.1921 88.6924 20.6911 88.6924 21.2334V21.377C88.6924 21.9147 88.6149 22.4137 88.46 22.874C88.305 23.3298 88.0794 23.7285 87.7832 24.0703C87.487 24.4076 87.1247 24.6696 86.6963 24.8564C86.2679 25.0433 85.778 25.1367 85.2266 25.1367C84.6797 25.1367 84.1898 25.0433 83.7568 24.8564C83.3239 24.6696 82.9593 24.4076 82.6631 24.0703C82.3669 23.7285 82.1413 23.3298 81.9863 22.874C81.8314 22.4137 81.7539 21.9147 81.7539 21.377ZM83.5586 21.2334V21.377C83.5586 21.7005 83.5905 22.0036 83.6543 22.2861C83.7181 22.5687 83.8161 22.8171 83.9482 23.0312C84.0804 23.2454 84.2513 23.4141 84.4609 23.5371C84.6751 23.6556 84.9303 23.7148 85.2266 23.7148C85.5182 23.7148 85.7689 23.6556 85.9785 23.5371C86.1882 23.4141 86.359 23.2454 86.4912 23.0312C86.6279 22.8171 86.7282 22.5687 86.792 22.2861C86.8558 22.0036 86.8877 21.7005 86.8877 21.377V21.2334C86.8877 20.9144 86.8558 20.6159 86.792 20.3379C86.7282 20.0553 86.6279 19.807 86.4912 19.5928C86.359 19.374 86.1859 19.2031 85.9717 19.0801C85.762 18.9525 85.5091 18.8887 85.2129 18.8887C84.9212 18.8887 84.6706 18.9525 84.4609 19.0801C84.2513 19.2031 84.0804 19.374 83.9482 19.5928C83.8161 19.807 83.7181 20.0553 83.6543 20.3379C83.5905 20.6159 83.5586 20.9144 83.5586 21.2334ZM91.8096 19.1143V25H90.0049V17.6035H91.7139L91.8096 19.1143ZM94.0586 17.5557L94.0312 19.2373C93.931 19.2191 93.8171 19.2054 93.6895 19.1963C93.5664 19.1872 93.4502 19.1826 93.3408 19.1826C93.0628 19.1826 92.819 19.2214 92.6094 19.2988C92.3997 19.3717 92.2243 19.4788 92.083 19.6201C91.9463 19.7614 91.8415 19.9346 91.7686 20.1396C91.6956 20.3402 91.6546 20.568 91.6455 20.8232L91.2559 20.7754C91.2559 20.306 91.3037 19.8708 91.3994 19.4697C91.4951 19.0687 91.6341 18.7178 91.8164 18.417C91.9987 18.1162 92.2266 17.8838 92.5 17.7197C92.778 17.5511 93.097 17.4668 93.457 17.4668C93.5573 17.4668 93.6644 17.4759 93.7783 17.4941C93.8968 17.5078 93.9902 17.5283 94.0586 17.5557ZM99.3496 23.4277V14.5H101.168V25H99.5273L99.3496 23.4277ZM94.5986 21.3906V21.2471C94.5986 20.682 94.6624 20.1693 94.79 19.709C94.9222 19.2441 95.1136 18.8454 95.3643 18.5127C95.6149 18.18 95.918 17.9225 96.2734 17.7402C96.6335 17.5579 97.0413 17.4668 97.4971 17.4668C97.9391 17.4668 98.3242 17.5557 98.6523 17.7334C98.985 17.9111 99.2676 18.1641 99.5 18.4922C99.737 18.8203 99.9261 19.21 100.067 19.6611C100.209 20.1077 100.311 20.5999 100.375 21.1377V21.5273C100.311 22.0514 100.209 22.5322 100.067 22.9697C99.9261 23.4072 99.737 23.79 99.5 24.1182C99.2676 24.4417 98.985 24.6924 98.6523 24.8701C98.3197 25.0479 97.93 25.1367 97.4834 25.1367C97.0322 25.1367 96.6266 25.0433 96.2666 24.8564C95.9111 24.6696 95.6081 24.4076 95.3574 24.0703C95.1113 23.7331 94.9222 23.3366 94.79 22.8809C94.6624 22.4251 94.5986 21.9284 94.5986 21.3906ZM96.4102 21.2471V21.3906C96.4102 21.7096 96.4375 22.0081 96.4922 22.2861C96.5469 22.5641 96.6357 22.8102 96.7588 23.0244C96.8818 23.234 97.0391 23.3981 97.2305 23.5166C97.4264 23.6351 97.6634 23.6943 97.9414 23.6943C98.2969 23.6943 98.5885 23.6169 98.8164 23.4619C99.0488 23.3024 99.2288 23.0859 99.3564 22.8125C99.484 22.5345 99.5661 22.2223 99.6025 21.876V20.8027C99.5843 20.5293 99.5365 20.2764 99.459 20.0439C99.3861 19.8115 99.2812 19.611 99.1445 19.4424C99.0124 19.2738 98.8483 19.1416 98.6523 19.0459C98.4564 18.9502 98.224 18.9023 97.9551 18.9023C97.6771 18.9023 97.4401 18.9639 97.2441 19.0869C97.0482 19.2054 96.8887 19.3717 96.7656 19.5859C96.6426 19.8001 96.5514 20.0485 96.4922 20.3311C96.4375 20.6136 96.4102 20.9189 96.4102 21.2471Z" fill="white"/>
</svg>
