<svg width="422" height="106" viewBox="0 0 422 106" fill="none" xmlns="http://www.w3.org/2000/svg">
<g filter="url(#filter0_d_210_14148)">
<rect width="418" height="102" rx="20" fill="white" shape-rendering="crispEdges"/>
<path d="M27.582 50.816C26.7433 50.816 25.9387 50.6347 25.168 50.272C24.42 49.9093 23.774 49.354 23.23 48.606C22.6633 47.8807 22.2213 46.9627 21.904 45.852C21.5867 44.7413 21.428 43.438 21.428 41.942C21.428 39.018 21.8473 36.468 22.686 34.292C23.5247 32.116 24.59 30.3027 25.882 28.852C27.1513 27.4013 28.5113 26.3247 29.962 25.622C31.4353 24.9193 32.8067 24.568 34.076 24.568C35.3 24.568 36.2973 24.84 37.068 25.384C37.8387 25.9053 38.4053 26.608 38.768 27.492C39.1307 28.376 39.312 29.362 39.312 30.45L34.654 31.334C34.45 30.4273 34.178 29.7813 33.838 29.396C33.498 29.0107 33.1127 28.818 32.682 28.818C32.1833 28.818 31.662 29.09 31.118 29.634C30.5967 30.178 30.0753 30.9147 29.554 31.844C29.0553 32.7507 28.602 33.7707 28.194 34.904C27.786 36.0373 27.446 37.2047 27.174 38.406C26.9247 39.6073 26.7773 40.7407 26.732 41.806C26.732 43.2113 26.936 44.22 27.344 44.832C27.7747 45.4213 28.3187 45.716 28.976 45.716C29.6107 45.716 30.234 45.512 30.846 45.104C31.4807 44.696 32.002 44.152 32.41 43.472C32.8407 42.7693 33.0673 41.9873 33.09 41.126L29.452 41.67L30.098 38.304L33.226 37.896C34.0873 37.7827 34.994 37.6467 35.946 37.488C36.9207 37.3293 37.7707 37.182 38.496 37.046C38.3373 39.358 37.884 41.3867 37.136 43.132C36.4107 44.8547 35.504 46.2827 34.416 47.416C33.328 48.5493 32.1833 49.3993 30.982 49.966C29.8033 50.5327 28.67 50.816 27.582 50.816ZM37.2388 50.034L41.6928 25.86L52.4368 24.942C52.2781 25.4407 52.1421 25.9507 52.0288 26.472C51.9155 26.9027 51.8021 27.356 51.6888 27.832C51.5981 28.2853 51.5188 28.6933 51.4508 29.056C51.1561 29.0787 50.7368 29.1013 50.1928 29.124C49.6488 29.124 49.0935 29.1353 48.5268 29.158C47.9601 29.158 47.4728 29.158 47.0648 29.158C46.6568 29.158 46.4415 29.158 46.4188 29.158L45.2288 35.244L47.2008 35.142C47.4501 35.1193 47.6995 35.108 47.9488 35.108C48.2208 35.108 48.4815 35.108 48.7308 35.108C48.9801 35.108 49.2068 35.108 49.4108 35.108C49.6148 35.108 49.7735 35.0967 49.8868 35.074C49.8415 35.3913 49.7961 35.7087 49.7508 36.026C49.7281 36.3207 49.6941 36.6267 49.6488 36.944L49.3428 38.814C49.2295 38.8367 49.0821 38.848 48.9008 38.848C48.7195 38.848 48.5041 38.848 48.2548 38.848C48.0055 38.8707 47.7448 38.882 47.4728 38.882C47.2008 38.882 46.9401 38.8933 46.6908 38.916C46.3961 38.9387 46.0901 38.95 45.7728 38.95C45.4555 38.95 45.1155 38.9613 44.7528 38.984L43.5968 45.24L48.5608 44.458L48.2208 48.334L37.2388 50.034ZM51.6147 50.034C51.864 48.7873 52.1134 47.552 52.3627 46.328C52.6347 45.0813 52.884 43.8573 53.1107 42.656C53.972 38.3493 54.6747 34.224 55.2187 30.28C54.9694 30.2347 54.7087 30.212 54.4367 30.212C54.1647 30.1893 53.904 30.1893 53.6547 30.212C53.1107 30.2573 52.578 30.1893 52.0567 30.008C52.0794 29.8267 52.0907 29.634 52.0907 29.43C52.0907 29.2033 52.0907 28.9767 52.0907 28.75C52.0907 28.5007 52.0907 28.2627 52.0907 28.036C52.0907 27.7867 52.102 27.5487 52.1247 27.322C52.1474 27.0727 52.1587 26.812 52.1587 26.54C52.1587 26.2453 52.17 25.9507 52.1927 25.656C52.782 25.7013 53.3714 25.7353 53.9607 25.758C54.55 25.7807 55.1394 25.792 55.7287 25.792C57.406 25.792 59.004 25.7353 60.5227 25.622C62.064 25.5087 63.4807 25.3727 64.7727 25.214L64.3987 27.05L64.0927 28.648C63.9794 29.2373 63.8774 29.702 63.7867 30.042C63.5374 30.11 63.288 30.1667 63.0387 30.212C62.7894 30.2573 62.54 30.2913 62.2907 30.314C62.0414 30.3367 61.7807 30.3707 61.5087 30.416C61.2594 30.4613 61.01 30.5067 60.7607 30.552C60.4207 32.2293 60.1374 33.68 59.9107 34.904C59.7067 36.128 59.514 37.3067 59.3327 38.44C59.174 39.5507 58.9814 40.7747 58.7547 42.112C58.3694 44.4013 58.0294 46.7247 57.7347 49.082L51.6147 50.034ZM67.6497 50.034C67.967 48.946 68.273 47.7107 68.5677 46.328C68.8623 44.9227 69.1343 43.4947 69.3837 42.044C69.6557 40.5933 69.905 39.2447 70.1317 37.998C70.3583 36.7513 70.5397 35.72 70.6757 34.904C70.925 33.3853 71.163 31.8553 71.3897 30.314C71.639 28.75 71.877 27.1633 72.1037 25.554L83.4937 24.976L82.5077 29.158H77.1697L76.1157 35.21C76.4783 35.1873 76.8183 35.176 77.1357 35.176C77.4757 35.176 77.8043 35.176 78.1217 35.176H79.7197C79.9917 35.176 80.2297 35.176 80.4337 35.176C80.6377 35.176 80.819 35.1647 80.9777 35.142C80.955 35.4593 80.921 35.7767 80.8757 36.094C80.8303 36.3887 80.785 36.6947 80.7397 37.012L80.4337 38.848C79.9577 38.848 79.2663 38.8367 78.3597 38.814C77.4757 38.7687 76.535 38.7347 75.5377 38.712L73.9737 48.742C73.5883 48.81 73.203 48.878 72.8177 48.946C72.455 49.014 72.081 49.0933 71.6957 49.184C71.061 49.2973 70.3697 49.4333 69.6217 49.592C68.8737 49.7507 68.2163 49.898 67.6497 50.034ZM84.7116 50.612C84.0316 50.612 83.3402 50.4647 82.6376 50.17C81.9349 49.8753 81.3456 49.422 80.8696 48.81C80.3936 48.198 80.1556 47.416 80.1556 46.464V46.192C80.1556 46.0787 80.1669 45.988 80.1896 45.92C80.2576 45.3307 80.3482 44.56 80.4616 43.608C80.5976 42.656 80.7562 41.6247 80.9376 40.514C81.1189 39.3807 81.3002 38.2587 81.4816 37.148C81.6856 36.0373 81.8669 35.0287 82.0256 34.122C82.3656 32.3087 82.6376 30.8467 82.8416 29.736C83.0456 28.6253 83.2042 27.7753 83.3176 27.186C83.4536 26.574 83.5556 26.1207 83.6236 25.826C83.8729 25.8033 84.1336 25.7807 84.4056 25.758C84.7002 25.7127 85.0062 25.6787 85.3236 25.656C85.6409 25.6107 85.9469 25.5767 86.2416 25.554C86.5589 25.5313 86.8649 25.5087 87.1596 25.486L89.2336 25.282C88.9389 26.6647 88.6556 27.9793 88.3836 29.226C88.1342 30.45 87.8962 31.6173 87.6696 32.728L86.1056 40.242C85.9696 40.8087 85.8676 41.2847 85.7996 41.67C85.7089 42.0327 85.6069 42.4973 85.4936 43.064C85.4029 43.608 85.3576 44.1067 85.3576 44.56C85.3576 44.9227 85.4482 45.2287 85.6296 45.478C85.8109 45.7047 86.0376 45.818 86.3096 45.818C86.6949 45.818 87.0122 45.6707 87.2616 45.376C87.5109 45.0813 87.7149 44.7187 87.8736 44.288C88.0322 43.8573 88.1569 43.4267 88.2476 42.996C88.3382 42.5427 88.4176 42.18 88.4856 41.908C88.7122 40.8653 88.9162 39.8567 89.0976 38.882C89.3016 37.8847 89.5056 36.8307 89.7096 35.72C89.9362 34.6093 90.1856 33.3287 90.4576 31.878C90.6389 30.8807 90.8202 29.872 91.0016 28.852C91.2056 27.8093 91.3982 26.7553 91.5796 25.69L96.7476 25.35C96.7476 25.35 96.6456 25.894 96.4416 26.982C96.2376 28.07 95.9429 29.7133 95.5576 31.912C95.3989 32.7507 95.2176 33.6913 95.0136 34.734C94.8322 35.7767 94.6282 36.8307 94.4016 37.896C94.1749 38.9613 93.9596 39.97 93.7556 40.922C93.5742 41.874 93.4042 42.69 93.2456 43.37C92.7922 45.2287 92.0896 46.6907 91.1376 47.756C90.1856 48.7987 89.1316 49.5353 87.9756 49.966C86.8422 50.3967 85.7542 50.612 84.7116 50.612ZM93.5157 50.17C94.1957 46.906 94.8417 43.744 95.4537 40.684C95.9524 37.8053 96.4397 35.04 96.9157 32.388C97.3917 29.736 97.7317 27.2993 97.9357 25.078C98.0944 25.1007 98.2304 25.112 98.3437 25.112C98.4797 25.112 98.593 25.112 98.6837 25.112H99.3977C99.987 25.112 100.644 25.1007 101.37 25.078C102.095 25.0327 102.764 24.9987 103.376 24.976C103.534 25.7693 103.682 26.5513 103.818 27.322C103.976 28.0927 104.112 28.8407 104.226 29.566C104.339 30.2007 104.464 30.858 104.6 31.538C104.736 32.1953 104.872 32.864 105.008 33.544C105.121 34.224 105.234 34.8587 105.348 35.448C105.484 36.0147 105.597 36.536 105.688 37.012C105.96 35.6747 106.209 34.36 106.436 33.068C106.685 31.776 106.923 30.6087 107.15 29.566L108.136 25.01L112.284 24.5C111.898 26.2227 111.536 27.9113 111.196 29.566C110.856 31.2207 110.538 32.8187 110.244 34.36C109.677 37.1253 109.178 39.732 108.748 42.18C108.317 44.628 107.988 46.7587 107.762 48.572C108.011 48.572 107.966 48.606 107.626 48.674C107.308 48.7193 106.832 48.7987 106.198 48.912C105.563 49.0027 104.883 49.1273 104.158 49.286C103.432 49.4447 102.786 49.6373 102.22 49.864C102.152 48.9573 102.084 48.0733 102.016 47.212C101.948 46.3507 101.868 45.512 101.778 44.696C101.642 43.2453 101.483 41.806 101.302 40.378C101.12 38.95 100.939 37.8167 100.758 36.978C100.599 37.9753 100.406 39.12 100.18 40.412C99.953 41.6813 99.7037 42.962 99.4317 44.254L98.4797 49.014L93.5157 50.17ZM110.759 50.17C110.441 50.17 110.124 50.1473 109.807 50.102C109.489 50.0793 109.172 50.0453 108.855 50L110.657 40.854C110.883 39.6073 111.121 38.2927 111.371 36.91C111.643 35.5047 111.903 34.122 112.153 32.762C112.402 31.3793 112.617 30.0987 112.799 28.92C113.003 27.7413 113.161 26.744 113.275 25.928C114.249 25.7467 115.235 25.5767 116.233 25.418C117.23 25.2593 118.25 25.18 119.293 25.18C120.97 25.18 122.296 25.5313 123.271 26.234C124.245 26.914 124.948 27.8207 125.379 28.954C125.809 30.0647 126.025 31.2887 126.025 32.626C126.025 33.8273 125.855 35.0967 125.515 36.434C125.175 37.7487 124.687 39.0633 124.053 40.378C123.441 41.67 122.704 42.894 121.843 44.05C120.505 45.8407 118.873 47.314 116.947 48.47C115.043 49.6033 112.98 50.17 110.759 50.17ZM114.805 45.886C115.598 45.3647 116.346 44.5713 117.049 43.506C117.774 42.4407 118.454 41.16 119.089 39.664C119.655 38.2813 120.097 36.978 120.415 35.754C120.732 34.5073 120.891 33.476 120.891 32.66C120.891 31.8213 120.653 31.164 120.177 30.688C119.723 30.212 118.998 29.974 118.001 29.974C117.638 31.9233 117.264 33.7253 116.879 35.38C116.516 37.0347 116.153 38.7007 115.791 40.378C115.451 42.0553 115.122 43.8913 114.805 45.886ZM123.999 50.034L128.453 25.86L139.197 24.942C139.038 25.4407 138.902 25.9507 138.789 26.472C138.675 26.9027 138.562 27.356 138.449 27.832C138.358 28.2853 138.279 28.6933 138.211 29.056C137.916 29.0787 137.497 29.1013 136.953 29.124C136.409 29.124 135.853 29.1353 135.287 29.158C134.72 29.158 134.233 29.158 133.825 29.158C133.417 29.158 133.201 29.158 133.179 29.158L131.989 35.244L133.961 35.142C134.21 35.1193 134.459 35.108 134.709 35.108C134.981 35.108 135.241 35.108 135.491 35.108C135.74 35.108 135.967 35.108 136.171 35.108C136.375 35.108 136.533 35.0967 136.647 35.074C136.601 35.3913 136.556 35.7087 136.511 36.026C136.488 36.3207 136.454 36.6267 136.409 36.944L136.103 38.814C135.989 38.8367 135.842 38.848 135.661 38.848C135.479 38.848 135.264 38.848 135.015 38.848C134.765 38.8707 134.505 38.882 134.233 38.882C133.961 38.882 133.7 38.8933 133.451 38.916C133.156 38.9387 132.85 38.95 132.533 38.95C132.215 38.95 131.875 38.9613 131.513 38.984L130.357 45.24L135.321 44.458L134.981 48.334L123.999 50.034ZM137.354 50.17C137.037 50.17 136.72 50.1473 136.402 50.102C136.085 50.0793 135.768 50.0453 135.45 50L137.252 40.854C137.479 39.6073 137.717 38.2927 137.966 36.91C138.238 35.5047 138.499 34.122 138.748 32.762C138.998 31.3793 139.213 30.0987 139.394 28.92C139.598 27.7413 139.757 26.744 139.87 25.928C140.845 25.7467 141.831 25.5767 142.828 25.418C143.826 25.2593 144.846 25.18 145.888 25.18C147.566 25.18 148.892 25.5313 149.866 26.234C150.841 26.914 151.544 27.8207 151.974 28.954C152.405 30.0647 152.62 31.2887 152.62 32.626C152.62 33.8273 152.45 35.0967 152.11 36.434C151.77 37.7487 151.283 39.0633 150.648 40.378C150.036 41.67 149.3 42.894 148.438 44.05C147.101 45.8407 145.469 47.314 143.542 48.47C141.638 49.6033 139.576 50.17 137.354 50.17ZM141.4 45.886C142.194 45.3647 142.942 44.5713 143.644 43.506C144.37 42.4407 145.05 41.16 145.684 39.664C146.251 38.2813 146.693 36.978 147.01 35.754C147.328 34.5073 147.486 33.476 147.486 32.66C147.486 31.8213 147.248 31.164 146.772 30.688C146.319 30.212 145.594 29.974 144.596 29.974C144.234 31.9233 143.86 33.7253 143.474 35.38C143.112 37.0347 142.749 38.7007 142.386 40.378C142.046 42.0553 141.718 43.8913 141.4 45.886Z" fill="#001E45"/>
<path d="M27.5469 77.5234V79H22.2559V77.5234H27.5469ZM22.8301 69.0469V79H20.9502V69.0469H22.8301ZM26.8564 73.1553V74.5977H22.2559V73.1553H26.8564ZM27.5264 69.0469V70.5303H22.2559V69.0469H27.5264ZM32.79 77.4277V74.0166C32.79 73.766 32.7467 73.5495 32.6602 73.3672C32.5736 73.1849 32.4414 73.0436 32.2637 72.9434C32.0859 72.8431 31.8604 72.793 31.5869 72.793C31.3454 72.793 31.1335 72.834 30.9512 72.916C30.7734 72.998 30.6367 73.1143 30.541 73.2646C30.4453 73.4105 30.3975 73.5791 30.3975 73.7705H28.5859C28.5859 73.4652 28.6589 73.1758 28.8047 72.9023C28.9505 72.6243 29.1579 72.3783 29.4268 72.1641C29.7002 71.9453 30.026 71.7744 30.4043 71.6514C30.7871 71.5283 31.2155 71.4668 31.6895 71.4668C32.25 71.4668 32.749 71.5625 33.1865 71.7539C33.6286 71.9408 33.9749 72.2233 34.2256 72.6016C34.4808 72.9798 34.6084 73.4561 34.6084 74.0303V77.2568C34.6084 77.626 34.6312 77.9427 34.6768 78.207C34.7269 78.4668 34.7998 78.6924 34.8955 78.8838V79H33.0566C32.9701 78.8132 32.904 78.5762 32.8584 78.2891C32.8128 77.9974 32.79 77.7103 32.79 77.4277ZM33.043 74.4951L33.0566 75.5684H31.915C31.6325 75.5684 31.3841 75.598 31.1699 75.6572C30.9557 75.7119 30.7803 75.7939 30.6436 75.9033C30.5068 76.0081 30.4043 76.1357 30.3359 76.2861C30.2676 76.432 30.2334 76.5983 30.2334 76.7852C30.2334 76.9674 30.2744 77.1315 30.3564 77.2773C30.443 77.4232 30.5661 77.5394 30.7256 77.626C30.8896 77.708 31.0811 77.749 31.2998 77.749C31.6188 77.749 31.8968 77.6852 32.1338 77.5576C32.3708 77.4255 32.5553 77.266 32.6875 77.0791C32.8197 76.8923 32.8903 76.7145 32.8994 76.5459L33.4189 77.3252C33.3551 77.512 33.2594 77.7103 33.1318 77.9199C33.0042 78.1296 32.8402 78.3255 32.6396 78.5078C32.4391 78.6901 32.1976 78.8405 31.915 78.959C31.6325 79.0775 31.3044 79.1367 30.9307 79.1367C30.4521 79.1367 30.0238 79.041 29.6455 78.8496C29.2673 78.6582 28.9688 78.3962 28.75 78.0635C28.5312 77.7308 28.4219 77.3525 28.4219 76.9287C28.4219 76.5368 28.4948 76.1904 28.6406 75.8896C28.7865 75.5889 29.0029 75.3359 29.29 75.1309C29.5771 74.9212 29.9326 74.764 30.3564 74.6592C30.7848 74.5498 31.2747 74.4951 31.8262 74.4951H33.043ZM38.04 73.1143V79H36.2354V71.6035H37.9443L38.04 73.1143ZM40.2891 71.5557L40.2617 73.2373C40.1615 73.2191 40.0475 73.2054 39.9199 73.1963C39.7969 73.1872 39.6807 73.1826 39.5713 73.1826C39.2933 73.1826 39.0495 73.2214 38.8398 73.2988C38.6302 73.3717 38.4548 73.4788 38.3135 73.6201C38.1768 73.7614 38.0719 73.9346 37.999 74.1396C37.9261 74.3402 37.8851 74.568 37.876 74.8232L37.4863 74.7754C37.4863 74.306 37.5342 73.8708 37.6299 73.4697C37.7256 73.0687 37.8646 72.7178 38.0469 72.417C38.2292 72.1162 38.457 71.8838 38.7305 71.7197C39.0085 71.5511 39.3275 71.4668 39.6875 71.4668C39.7878 71.4668 39.8949 71.4759 40.0088 71.4941C40.1273 71.5078 40.2207 71.5283 40.2891 71.5557ZM43.0508 73.1826V79H41.2461V71.6035H42.9414L43.0508 73.1826ZM42.7637 75.0352H42.2305C42.235 74.4974 42.3079 74.0098 42.4492 73.5723C42.5905 73.1348 42.7887 72.7588 43.0439 72.4443C43.3037 72.1299 43.6113 71.8883 43.9668 71.7197C44.3223 71.5511 44.7188 71.4668 45.1562 71.4668C45.5117 71.4668 45.833 71.5169 46.1201 71.6172C46.4072 71.7174 46.6533 71.877 46.8584 72.0957C47.068 72.3145 47.2275 72.6016 47.3369 72.957C47.4508 73.3079 47.5078 73.7409 47.5078 74.2559V79H45.6895V74.2422C45.6895 73.9049 45.6393 73.6383 45.5391 73.4424C45.4434 73.2464 45.3021 73.1074 45.1152 73.0254C44.9329 72.9434 44.7074 72.9023 44.4385 72.9023C44.1605 72.9023 43.9167 72.9593 43.707 73.0732C43.502 73.1826 43.3288 73.3353 43.1875 73.5312C43.0508 73.7272 42.946 73.9528 42.873 74.208C42.8001 74.4632 42.7637 74.7389 42.7637 75.0352ZM54.9521 79H53.1338V70.9199C53.1338 70.3639 53.2409 69.8968 53.4551 69.5186C53.6693 69.1357 53.9746 68.8464 54.3711 68.6504C54.7676 68.4544 55.2347 68.3564 55.7725 68.3564C55.9502 68.3564 56.1188 68.3678 56.2783 68.3906C56.4424 68.4134 56.6042 68.4453 56.7637 68.4863L56.7295 69.8604C56.6429 69.8376 56.5472 69.8216 56.4424 69.8125C56.3421 69.8034 56.2305 69.7988 56.1074 69.7988C55.8613 69.7988 55.6517 69.8421 55.4785 69.9287C55.3053 70.0153 55.1732 70.1429 55.082 70.3115C54.9954 70.4756 54.9521 70.6784 54.9521 70.9199V79ZM56.4492 71.6035V72.9023H52.0195V71.6035H56.4492ZM59.3682 73.1143V79H57.5635V71.6035H59.2725L59.3682 73.1143ZM61.6172 71.5557L61.5898 73.2373C61.4896 73.2191 61.3757 73.2054 61.248 73.1963C61.125 73.1872 61.0088 73.1826 60.8994 73.1826C60.6214 73.1826 60.3776 73.2214 60.168 73.2988C59.9583 73.3717 59.7829 73.4788 59.6416 73.6201C59.5049 73.7614 59.4001 73.9346 59.3271 74.1396C59.2542 74.3402 59.2132 74.568 59.2041 74.8232L58.8145 74.7754C58.8145 74.306 58.8623 73.8708 58.958 73.4697C59.0537 73.0687 59.1927 72.7178 59.375 72.417C59.5573 72.1162 59.7852 71.8838 60.0586 71.7197C60.3366 71.5511 60.6556 71.4668 61.0156 71.4668C61.1159 71.4668 61.223 71.4759 61.3369 71.4941C61.4554 71.5078 61.5488 71.5283 61.6172 71.5557ZM62.0957 75.377V75.2334C62.0957 74.6911 62.1732 74.1921 62.3281 73.7363C62.4831 73.276 62.7087 72.8773 63.0049 72.54C63.3011 72.2028 63.6634 71.9408 64.0918 71.7539C64.5202 71.5625 65.0078 71.4668 65.5547 71.4668C66.1107 71.4668 66.6029 71.5625 67.0312 71.7539C67.4642 71.9408 67.8288 72.2028 68.125 72.54C68.4212 72.8773 68.6468 73.276 68.8018 73.7363C68.9567 74.1921 69.0342 74.6911 69.0342 75.2334V75.377C69.0342 75.9147 68.9567 76.4137 68.8018 76.874C68.6468 77.3298 68.4212 77.7285 68.125 78.0703C67.8288 78.4076 67.4665 78.6696 67.0381 78.8564C66.6097 79.0433 66.1198 79.1367 65.5684 79.1367C65.0215 79.1367 64.5316 79.0433 64.0986 78.8564C63.6657 78.6696 63.3011 78.4076 63.0049 78.0703C62.7087 77.7285 62.4831 77.3298 62.3281 76.874C62.1732 76.4137 62.0957 75.9147 62.0957 75.377ZM63.9004 75.2334V75.377C63.9004 75.7005 63.9323 76.0036 63.9961 76.2861C64.0599 76.5687 64.1579 76.8171 64.29 77.0312C64.4222 77.2454 64.5931 77.4141 64.8027 77.5371C65.0169 77.6556 65.2721 77.7148 65.5684 77.7148C65.86 77.7148 66.1107 77.6556 66.3203 77.5371C66.5299 77.4141 66.7008 77.2454 66.833 77.0312C66.9697 76.8171 67.07 76.5687 67.1338 76.2861C67.1976 76.0036 67.2295 75.7005 67.2295 75.377V75.2334C67.2295 74.9144 67.1976 74.6159 67.1338 74.3379C67.07 74.0553 66.9697 73.807 66.833 73.5928C66.7008 73.374 66.5277 73.2031 66.3135 73.0801C66.1038 72.9525 65.8509 72.8887 65.5547 72.8887C65.263 72.8887 65.0124 72.9525 64.8027 73.0801C64.5931 73.2031 64.4222 73.374 64.29 73.5928C64.1579 73.807 64.0599 74.0553 63.9961 74.3379C63.9323 74.6159 63.9004 74.9144 63.9004 75.2334ZM72.1445 73.1211V79H70.3398V71.6035H72.042L72.1445 73.1211ZM71.8779 75.0352H71.3242C71.3242 74.5202 71.3857 74.0462 71.5088 73.6133C71.6364 73.1803 71.8232 72.8044 72.0693 72.4854C72.3154 72.1618 72.6185 71.9111 72.9785 71.7334C73.3431 71.5557 73.7646 71.4668 74.2432 71.4668C74.5758 71.4668 74.8812 71.5169 75.1592 71.6172C75.4372 71.7129 75.6764 71.8656 75.877 72.0752C76.082 72.2803 76.2393 72.5492 76.3486 72.8818C76.458 73.21 76.5127 73.6042 76.5127 74.0645V79H74.708V74.249C74.708 73.9027 74.6579 73.6315 74.5576 73.4355C74.4619 73.2396 74.3229 73.1029 74.1406 73.0254C73.9583 72.9434 73.7396 72.9023 73.4844 72.9023C73.2018 72.9023 72.958 72.9593 72.7529 73.0732C72.5524 73.1826 72.3861 73.3353 72.2539 73.5312C72.1263 73.7272 72.0306 73.9528 71.9668 74.208C71.9076 74.4632 71.8779 74.7389 71.8779 75.0352ZM76.376 74.7002L75.6309 74.8369C75.6354 74.3721 75.6992 73.9368 75.8223 73.5312C75.9453 73.1211 76.1253 72.7633 76.3623 72.458C76.6038 72.1481 76.9023 71.9066 77.2578 71.7334C77.6178 71.5557 78.0326 71.4668 78.502 71.4668C78.8665 71.4668 79.1947 71.5192 79.4863 71.624C79.7826 71.7243 80.0355 71.8861 80.2451 72.1094C80.4548 72.3281 80.6143 72.613 80.7236 72.9639C80.8376 73.3148 80.8945 73.7432 80.8945 74.249V79H79.0762V74.2422C79.0762 73.8822 79.026 73.6064 78.9258 73.415C78.8301 73.2236 78.6911 73.0915 78.5088 73.0186C78.3265 72.9411 78.1123 72.9023 77.8662 72.9023C77.6156 72.9023 77.3968 72.9502 77.21 73.0459C77.0277 73.137 76.8727 73.2646 76.7451 73.4287C76.6221 73.5928 76.5286 73.7842 76.4648 74.0029C76.4056 74.2171 76.376 74.4495 76.376 74.7002ZM88.168 78.1797L90.1504 71.6035H92.085L89.1182 80.1211C89.0498 80.3034 88.9609 80.5016 88.8516 80.7158C88.7467 80.93 88.6055 81.1328 88.4277 81.3242C88.25 81.5202 88.0267 81.6797 87.7578 81.8027C87.4935 81.9258 87.1722 81.9873 86.7939 81.9873C86.6299 81.9873 86.484 81.9759 86.3564 81.9531C86.2288 81.9303 86.0944 81.9007 85.9531 81.8643V80.5107C85.9987 80.5153 86.0511 80.5176 86.1104 80.5176C86.1742 80.5221 86.2288 80.5244 86.2744 80.5244C86.5387 80.5244 86.7575 80.4925 86.9307 80.4287C87.1038 80.3695 87.2428 80.2715 87.3477 80.1348C87.457 80.0026 87.5482 79.8294 87.6211 79.6152L88.168 78.1797ZM87.1904 71.6035L88.8652 77.0518L89.1592 78.959L87.915 79.1846L85.2422 71.6035H87.1904ZM92.5293 75.377V75.2334C92.5293 74.6911 92.6068 74.1921 92.7617 73.7363C92.9167 73.276 93.1423 72.8773 93.4385 72.54C93.7347 72.2028 94.097 71.9408 94.5254 71.7539C94.9538 71.5625 95.4414 71.4668 95.9883 71.4668C96.5443 71.4668 97.0365 71.5625 97.4648 71.7539C97.8978 71.9408 98.2624 72.2028 98.5586 72.54C98.8548 72.8773 99.0804 73.276 99.2354 73.7363C99.3903 74.1921 99.4678 74.6911 99.4678 75.2334V75.377C99.4678 75.9147 99.3903 76.4137 99.2354 76.874C99.0804 77.3298 98.8548 77.7285 98.5586 78.0703C98.2624 78.4076 97.9001 78.6696 97.4717 78.8564C97.0433 79.0433 96.5534 79.1367 96.002 79.1367C95.4551 79.1367 94.9652 79.0433 94.5322 78.8564C94.0993 78.6696 93.7347 78.4076 93.4385 78.0703C93.1423 77.7285 92.9167 77.3298 92.7617 76.874C92.6068 76.4137 92.5293 75.9147 92.5293 75.377ZM94.334 75.2334V75.377C94.334 75.7005 94.3659 76.0036 94.4297 76.2861C94.4935 76.5687 94.5915 76.8171 94.7236 77.0312C94.8558 77.2454 95.0267 77.4141 95.2363 77.5371C95.4505 77.6556 95.7057 77.7148 96.002 77.7148C96.2936 77.7148 96.5443 77.6556 96.7539 77.5371C96.9635 77.4141 97.1344 77.2454 97.2666 77.0312C97.4033 76.8171 97.5036 76.5687 97.5674 76.2861C97.6312 76.0036 97.6631 75.7005 97.6631 75.377V75.2334C97.6631 74.9144 97.6312 74.6159 97.5674 74.3379C97.5036 74.0553 97.4033 73.807 97.2666 73.5928C97.1344 73.374 96.9613 73.2031 96.7471 73.0801C96.5374 72.9525 96.2845 72.8887 95.9883 72.8887C95.6966 72.8887 95.446 72.9525 95.2363 73.0801C95.0267 73.2031 94.8558 73.374 94.7236 73.5928C94.5915 73.807 94.4935 74.0553 94.4297 74.3379C94.3659 74.6159 94.334 74.9144 94.334 75.2334ZM105.183 77.2432V71.6035H107.001V79H105.292L105.183 77.2432ZM105.415 75.7119L105.976 75.6982C105.976 76.195 105.921 76.653 105.812 77.0723C105.702 77.4915 105.531 77.8561 105.299 78.166C105.071 78.4714 104.782 78.7106 104.431 78.8838C104.08 79.0524 103.665 79.1367 103.187 79.1367C102.822 79.1367 102.489 79.0866 102.188 78.9863C101.888 78.8815 101.628 78.7197 101.409 78.501C101.195 78.2777 101.029 77.9928 100.91 77.6465C100.792 77.2956 100.732 76.874 100.732 76.3818V71.6035H102.537V76.3955C102.537 76.6416 102.564 76.8467 102.619 77.0107C102.678 77.1748 102.758 77.3092 102.858 77.4141C102.963 77.5143 103.084 77.5872 103.221 77.6328C103.362 77.6738 103.512 77.6943 103.672 77.6943C104.109 77.6943 104.453 77.6077 104.704 77.4346C104.959 77.2568 105.142 77.0199 105.251 76.7236C105.36 76.4229 105.415 76.0856 105.415 75.7119ZM110.405 73.1143V79H108.601V71.6035H110.31L110.405 73.1143ZM112.654 71.5557L112.627 73.2373C112.527 73.2191 112.413 73.2054 112.285 73.1963C112.162 73.1872 112.046 73.1826 111.937 73.1826C111.659 73.1826 111.415 73.2214 111.205 73.2988C110.995 73.3717 110.82 73.4788 110.679 73.6201C110.542 73.7614 110.437 73.9346 110.364 74.1396C110.291 74.3402 110.25 74.568 110.241 74.8232L109.852 74.7754C109.852 74.306 109.899 73.8708 109.995 73.4697C110.091 73.0687 110.23 72.7178 110.412 72.417C110.594 72.1162 110.822 71.8838 111.096 71.7197C111.374 71.5511 111.693 71.4668 112.053 71.4668C112.153 71.4668 112.26 71.4759 112.374 71.4941C112.493 71.5078 112.586 71.5283 112.654 71.5557ZM118.937 73.0254V81.8438H117.125V71.6035H118.8L118.937 73.0254ZM123.688 75.2266V75.3701C123.688 75.9079 123.624 76.4069 123.496 76.8672C123.373 77.3229 123.191 77.7217 122.949 78.0635C122.708 78.4007 122.407 78.665 122.047 78.8564C121.691 79.0433 121.281 79.1367 120.816 79.1367C120.361 79.1367 119.964 79.0501 119.627 78.877C119.29 78.6992 119.005 78.4486 118.772 78.125C118.54 77.8014 118.353 77.4255 118.212 76.9971C118.075 76.5641 117.973 76.0924 117.904 75.582V75.124C117.973 74.5817 118.075 74.0895 118.212 73.6475C118.353 73.2008 118.54 72.8158 118.772 72.4922C119.005 72.1641 119.287 71.9111 119.62 71.7334C119.957 71.5557 120.352 71.4668 120.803 71.4668C121.272 71.4668 121.685 71.5557 122.04 71.7334C122.4 71.9111 122.703 72.1663 122.949 72.499C123.195 72.8317 123.38 73.2282 123.503 73.6885C123.626 74.1488 123.688 74.6615 123.688 75.2266ZM121.876 75.3701V75.2266C121.876 74.8984 121.846 74.5954 121.787 74.3174C121.728 74.0348 121.637 73.7887 121.514 73.5791C121.391 73.3649 121.231 73.1986 121.035 73.0801C120.839 72.9616 120.602 72.9023 120.324 72.9023C120.046 72.9023 119.807 72.9479 119.606 73.0391C119.406 73.1302 119.242 73.2601 119.114 73.4287C118.987 73.5973 118.886 73.7979 118.813 74.0303C118.745 74.2581 118.7 74.5111 118.677 74.7891V75.9238C118.718 76.2611 118.798 76.5641 118.916 76.833C119.035 77.1019 119.208 77.3161 119.436 77.4756C119.668 77.6351 119.969 77.7148 120.338 77.7148C120.616 77.7148 120.853 77.6533 121.049 77.5303C121.245 77.4072 121.404 77.2386 121.527 77.0244C121.65 76.8057 121.739 76.555 121.794 76.2725C121.849 75.9899 121.876 75.6891 121.876 75.3701ZM126.921 71.6035V79H125.109V71.6035H126.921ZM124.986 69.6689C124.986 69.4001 125.077 69.1768 125.26 68.999C125.447 68.8213 125.697 68.7324 126.012 68.7324C126.326 68.7324 126.575 68.8213 126.757 68.999C126.944 69.1768 127.037 69.4001 127.037 69.6689C127.037 69.9333 126.944 70.1543 126.757 70.332C126.575 70.5098 126.326 70.5986 126.012 70.5986C125.697 70.5986 125.447 70.5098 125.26 70.332C125.077 70.1543 124.986 69.9333 124.986 69.6689ZM131.679 77.7148C131.934 77.7148 132.162 77.6647 132.362 77.5645C132.563 77.4642 132.722 77.3229 132.841 77.1406C132.964 76.9583 133.03 76.7464 133.039 76.5049H134.741C134.732 77.0062 134.591 77.4551 134.317 77.8516C134.044 78.248 133.679 78.5625 133.224 78.7949C132.772 79.0228 132.267 79.1367 131.706 79.1367C131.136 79.1367 130.64 79.041 130.216 78.8496C129.792 78.6582 129.439 78.3916 129.156 78.0498C128.878 77.708 128.669 77.3115 128.527 76.8604C128.391 76.4092 128.322 75.9261 128.322 75.4111V75.1924C128.322 74.6774 128.391 74.1943 128.527 73.7432C128.669 73.292 128.878 72.8955 129.156 72.5537C129.439 72.2119 129.792 71.9453 130.216 71.7539C130.64 71.5625 131.134 71.4668 131.699 71.4668C132.296 71.4668 132.82 71.583 133.271 71.8154C133.727 72.0479 134.083 72.376 134.338 72.7998C134.598 73.2236 134.732 73.7227 134.741 74.2969H133.039C133.03 74.0326 132.971 73.7956 132.861 73.5859C132.752 73.3763 132.597 73.2077 132.396 73.0801C132.196 72.9525 131.952 72.8887 131.665 72.8887C131.36 72.8887 131.104 72.9525 130.899 73.0801C130.699 73.2077 130.542 73.3831 130.428 73.6064C130.318 73.8252 130.241 74.0713 130.195 74.3447C130.154 74.6136 130.134 74.8962 130.134 75.1924V75.4111C130.134 75.7119 130.154 75.999 130.195 76.2725C130.241 76.5459 130.318 76.792 130.428 77.0107C130.542 77.2249 130.699 77.3958 130.899 77.5234C131.104 77.651 131.364 77.7148 131.679 77.7148ZM137.749 68.4932V79H135.944V68.4932H137.749ZM142.384 71.6035L139.164 75.2197L137.421 76.9902L136.847 75.5889L138.193 73.8936L140.203 71.6035H142.384ZM140.538 79L138.248 75.5547L139.451 74.3857L142.63 79H140.538ZM147.408 76.9766C147.408 76.8216 147.367 76.6826 147.285 76.5596C147.203 76.4365 147.048 76.3249 146.82 76.2246C146.597 76.1198 146.269 76.0218 145.836 75.9307C145.453 75.8486 145.1 75.7461 144.776 75.623C144.453 75.5 144.175 75.3519 143.942 75.1787C143.71 75.001 143.528 74.7936 143.396 74.5566C143.268 74.3151 143.204 74.0371 143.204 73.7227C143.204 73.4173 143.27 73.1302 143.402 72.8613C143.535 72.5879 143.726 72.3486 143.977 72.1436C144.227 71.9339 144.533 71.7699 144.893 71.6514C145.253 71.5283 145.658 71.4668 146.109 71.4668C146.738 71.4668 147.278 71.5693 147.729 71.7744C148.185 71.9795 148.534 72.262 148.775 72.6221C149.017 72.9775 149.138 73.3786 149.138 73.8252H147.333C147.333 73.6292 147.287 73.4515 147.196 73.292C147.11 73.1325 146.975 73.0049 146.793 72.9092C146.611 72.8089 146.381 72.7588 146.103 72.7588C145.852 72.7588 145.64 72.7998 145.467 72.8818C145.298 72.9639 145.171 73.071 145.084 73.2031C144.997 73.3353 144.954 73.4811 144.954 73.6406C144.954 73.7591 144.977 73.8662 145.022 73.9619C145.073 74.0531 145.152 74.1374 145.262 74.2148C145.371 74.2923 145.519 74.363 145.706 74.4268C145.897 74.4906 146.132 74.5521 146.41 74.6113C146.962 74.7207 147.442 74.8665 147.853 75.0488C148.267 75.2266 148.591 75.4635 148.823 75.7598C149.056 76.056 149.172 76.4342 149.172 76.8945C149.172 77.2227 149.101 77.5234 148.96 77.7969C148.819 78.0658 148.614 78.3005 148.345 78.501C148.076 78.7015 147.755 78.8587 147.381 78.9727C147.007 79.082 146.586 79.1367 146.116 79.1367C145.437 79.1367 144.863 79.016 144.394 78.7744C143.924 78.5283 143.569 78.2184 143.327 77.8447C143.086 77.4665 142.965 77.0745 142.965 76.6689H144.694C144.708 76.9561 144.785 77.1862 144.927 77.3594C145.068 77.5326 145.246 77.6579 145.46 77.7354C145.679 77.8083 145.909 77.8447 146.15 77.8447C146.424 77.8447 146.654 77.8083 146.841 77.7354C147.028 77.6579 147.169 77.5553 147.265 77.4277C147.36 77.2956 147.408 77.1452 147.408 76.9766Z" fill="#3E4347"/>
</g>
<defs>
<filter id="filter0_d_210_14148" x="0" y="0" width="422" height="106" filterUnits="userSpaceOnUse" color-interpolation-filters="sRGB">
<feFlood flood-opacity="0" result="BackgroundImageFix"/>
<feColorMatrix in="SourceAlpha" type="matrix" values="0 0 0 0 0 0 0 0 0 0 0 0 0 0 0 0 0 0 127 0" result="hardAlpha"/>
<feOffset dx="4" dy="4"/>
<feComposite in2="hardAlpha" operator="out"/>
<feColorMatrix type="matrix" values="0 0 0 0 0.149969 0 0 0 0 0.440422 0 0 0 0 0.818012 0 0 0 1 0"/>
<feBlend mode="normal" in2="BackgroundImageFix" result="effect1_dropShadow_210_14148"/>
<feBlend mode="normal" in="SourceGraphic" in2="effect1_dropShadow_210_14148" result="shape"/>
</filter>
</defs>
</svg>
