<svg width="422" height="106" viewBox="0 0 422 106" fill="none" xmlns="http://www.w3.org/2000/svg">
<g filter="url(#filter0_d_210_14134)">
<rect width="418" height="102" rx="20" fill="white" shape-rendering="crispEdges"/>
<path d="M23.06 50.034C23.3093 48.7873 23.5587 47.552 23.808 46.328C24.08 45.0813 24.3293 43.8573 24.556 42.656C25.4173 38.3493 26.12 34.224 26.664 30.28C26.4147 30.2347 26.154 30.212 25.882 30.212C25.61 30.1893 25.3493 30.1893 25.1 30.212C24.556 30.2573 24.0233 30.1893 23.502 30.008C23.5247 29.8267 23.536 29.634 23.536 29.43C23.536 29.2033 23.536 28.9767 23.536 28.75C23.536 28.5007 23.536 28.2627 23.536 28.036C23.536 27.7867 23.5473 27.5487 23.57 27.322C23.5927 27.0727 23.604 26.812 23.604 26.54C23.604 26.2453 23.6153 25.9507 23.638 25.656C24.2273 25.7013 24.8167 25.7353 25.406 25.758C25.9953 25.7807 26.5847 25.792 27.174 25.792C28.8513 25.792 30.4493 25.7353 31.968 25.622C33.5093 25.5087 34.926 25.3727 36.218 25.214L35.844 27.05L35.538 28.648C35.4247 29.2373 35.3227 29.702 35.232 30.042C34.9827 30.11 34.7333 30.1667 34.484 30.212C34.2347 30.2573 33.9853 30.2913 33.736 30.314C33.4867 30.3367 33.226 30.3707 32.954 30.416C32.7047 30.4613 32.4553 30.5067 32.206 30.552C31.866 32.2293 31.5827 33.68 31.356 34.904C31.152 36.128 30.9593 37.3067 30.778 38.44C30.6193 39.5507 30.4267 40.7747 30.2 42.112C29.8147 44.4013 29.4747 46.7247 29.18 49.082L23.06 50.034ZM41.1244 49.932C41.1697 49.5467 41.215 49.1727 41.2604 48.81C41.3057 48.4473 41.351 48.0847 41.3964 47.722L41.6004 45.818C41.623 45.5007 41.6457 45.206 41.6684 44.934C41.691 44.662 41.7137 44.4127 41.7364 44.186H38.7784L37.4184 49.082C36.9197 49.15 36.3304 49.2293 35.6504 49.32C34.9704 49.388 34.3357 49.456 33.7464 49.524C33.3837 49.5693 33.021 49.6147 32.6584 49.66C32.3184 49.7053 31.967 49.7507 31.6044 49.796L34.2904 40.888C34.6077 39.8227 34.9704 38.61 35.3784 37.25C35.7864 35.89 36.1944 34.496 36.6024 33.068C37.033 31.64 37.4297 30.3027 37.7924 29.056C38.1777 27.7867 38.4837 26.7213 38.7104 25.86C40.2517 25.7467 41.8157 25.6107 43.4024 25.452C45.0117 25.2933 46.5757 25.078 48.0944 24.806C47.981 26.0753 47.8677 27.5147 47.7544 29.124C47.6637 30.7107 47.573 32.354 47.4824 34.054C47.4144 35.754 47.335 37.4313 47.2444 39.086C47.199 40.65 47.1424 42.2707 47.0744 43.948C47.0064 45.6027 46.9384 47.3027 46.8704 49.048C46.5304 49.0933 46.1904 49.1387 45.8504 49.184C45.5104 49.2293 45.1704 49.2747 44.8304 49.32C44.2637 49.4107 43.6404 49.5127 42.9604 49.626C42.2804 49.7393 41.6684 49.8413 41.1244 49.932ZM39.5944 40.786C39.7304 40.786 39.9797 40.7747 40.3424 40.752C40.7277 40.7293 41.0904 40.7067 41.4304 40.684C41.7704 40.6613 41.9744 40.65 42.0424 40.65C42.0424 40.3553 42.0877 39.7547 42.1784 38.848C42.269 37.9413 42.3597 36.9893 42.4504 35.992C42.4957 35.4027 42.541 34.802 42.5864 34.19C42.6544 33.5553 42.7224 32.9093 42.7904 32.252L42.9944 29.294L42.4844 29.328L41.7024 32.252L39.5944 40.786ZM47.2653 50.034C47.6053 48.4473 47.934 46.8833 48.2513 45.342C48.5687 43.8007 48.8747 42.282 49.1693 40.786C49.6453 38.0887 50.11 35.4253 50.5633 32.796C51.0167 30.144 51.3453 27.6167 51.5493 25.214L53.3173 25.316C53.6347 25.3387 53.9407 25.3613 54.2353 25.384C54.5527 25.4067 54.8587 25.4293 55.1533 25.452C55.4933 25.4747 55.8333 25.4973 56.1733 25.52C56.5133 25.52 56.8533 25.52 57.1933 25.52C57.148 25.7013 57.0687 26.064 56.9553 26.608C56.8647 27.152 56.7627 27.7073 56.6493 28.274C56.5587 28.818 56.4907 29.192 56.4453 29.396L55.8333 32.762L56.0373 32.728C56.6947 31.708 57.454 30.5293 58.3153 29.192C59.1767 27.8547 59.9813 26.574 60.7293 25.35C61.8627 25.2593 62.996 25.1573 64.1293 25.044C65.2627 24.9307 66.396 24.7833 67.5293 24.602C67.008 25.3047 66.4867 26.0073 65.9653 26.71C65.444 27.4127 64.934 28.1153 64.4353 28.818C63.914 29.5433 63.3473 30.3367 62.7353 31.198C62.1233 32.0593 61.534 32.9093 60.9673 33.748C60.4233 34.564 59.97 35.2667 59.6073 35.856C59.8567 36.9893 60.1287 38.1113 60.4233 39.222C60.718 40.3327 61.0353 41.4207 61.3753 42.486C61.7153 43.5513 62.0553 44.628 62.3953 45.716C62.7353 46.804 63.0867 47.9033 63.4493 49.014C62.928 48.9913 62.3953 48.98 61.8513 48.98C61.3073 48.9573 60.7747 48.946 60.2533 48.946C59.596 48.946 58.9613 48.9573 58.3493 48.98C57.7373 48.98 57.1027 48.9913 56.4453 49.014C56.3547 48.2887 56.2527 47.5407 56.1393 46.77C56.026 45.9767 55.9127 45.172 55.7993 44.356C55.686 43.5627 55.5727 42.7807 55.4593 42.01C55.346 41.2167 55.2327 40.4573 55.1193 39.732L54.5073 40.446C54.3487 41.1033 54.1787 41.942 53.9973 42.962C53.9067 43.4607 53.8047 43.9593 53.6913 44.458C53.6007 44.934 53.51 45.3987 53.4193 45.852C53.3287 46.396 53.2267 46.9513 53.1133 47.518C53 48.062 52.8867 48.6287 52.7733 49.218L47.2653 50.034ZM63.0044 50.034L67.4584 25.86L78.2024 24.942C78.0438 25.4407 77.9078 25.9507 77.7944 26.472C77.6811 26.9027 77.5678 27.356 77.4544 27.832C77.3638 28.2853 77.2844 28.6933 77.2164 29.056C76.9218 29.0787 76.5024 29.1013 75.9584 29.124C75.4144 29.124 74.8591 29.1353 74.2924 29.158C73.7258 29.158 73.2384 29.158 72.8304 29.158C72.4224 29.158 72.2071 29.158 72.1844 29.158L70.9944 35.244L72.9664 35.142C73.2158 35.1193 73.4651 35.108 73.7144 35.108C73.9864 35.108 74.2471 35.108 74.4964 35.108C74.7458 35.108 74.9724 35.108 75.1764 35.108C75.3804 35.108 75.5391 35.0967 75.6524 35.074C75.6071 35.3913 75.5618 35.7087 75.5164 36.026C75.4938 36.3207 75.4598 36.6267 75.4144 36.944L75.1084 38.814C74.9951 38.8367 74.8478 38.848 74.6664 38.848C74.4851 38.848 74.2698 38.848 74.0204 38.848C73.7711 38.8707 73.5104 38.882 73.2384 38.882C72.9664 38.882 72.7058 38.8933 72.4564 38.916C72.1618 38.9387 71.8558 38.95 71.5384 38.95C71.2211 38.95 70.8811 38.9613 70.5184 38.984L69.3624 45.24L74.3264 44.458L73.9864 48.334L63.0044 50.034ZM89.7669 49.932C89.8123 49.5467 89.8576 49.1727 89.9029 48.81C89.9483 48.4473 89.9936 48.0847 90.0389 47.722L90.2429 45.818C90.2656 45.5007 90.2883 45.206 90.3109 44.934C90.3336 44.662 90.3563 44.4127 90.3789 44.186H87.4209L86.0609 49.082C85.5623 49.15 84.9729 49.2293 84.2929 49.32C83.6129 49.388 82.9783 49.456 82.3889 49.524C82.0263 49.5693 81.6636 49.6147 81.3009 49.66C80.9609 49.7053 80.6096 49.7507 80.2469 49.796L82.9329 40.888C83.2503 39.8227 83.6129 38.61 84.0209 37.25C84.4289 35.89 84.8369 34.496 85.2449 33.068C85.6756 31.64 86.0723 30.3027 86.4349 29.056C86.8203 27.7867 87.1263 26.7213 87.3529 25.86C88.8943 25.7467 90.4583 25.6107 92.0449 25.452C93.6543 25.2933 95.2183 25.078 96.7369 24.806C96.6236 26.0753 96.5103 27.5147 96.3969 29.124C96.3063 30.7107 96.2156 32.354 96.1249 34.054C96.0569 35.754 95.9776 37.4313 95.8869 39.086C95.8416 40.65 95.7849 42.2707 95.7169 43.948C95.6489 45.6027 95.5809 47.3027 95.5129 49.048C95.1729 49.0933 94.8329 49.1387 94.4929 49.184C94.1529 49.2293 93.8129 49.2747 93.4729 49.32C92.9063 49.4107 92.2829 49.5127 91.6029 49.626C90.9229 49.7393 90.3109 49.8413 89.7669 49.932ZM88.2369 40.786C88.3729 40.786 88.6223 40.7747 88.9849 40.752C89.3703 40.7293 89.7329 40.7067 90.0729 40.684C90.4129 40.6613 90.6169 40.65 90.6849 40.65C90.6849 40.3553 90.7303 39.7547 90.8209 38.848C90.9116 37.9413 91.0023 36.9893 91.0929 35.992C91.1383 35.4027 91.1836 34.802 91.2289 34.19C91.2969 33.5553 91.3649 32.9093 91.4329 32.252L91.6369 29.294L91.1269 29.328L90.3449 32.252L88.2369 40.786ZM108.499 50.068C107.071 50.068 105.903 49.3993 104.997 48.062C104.09 46.7247 103.637 44.8887 103.637 42.554C103.637 40.4233 103.931 38.3267 104.521 36.264C105.11 34.1787 105.937 32.3087 107.003 30.654C108.068 28.9993 109.326 27.6733 110.777 26.676C112.25 25.656 113.871 25.146 115.639 25.146C116.749 25.146 117.701 25.5767 118.495 26.438C119.288 27.2993 119.685 28.4553 119.685 29.906V30.314C119.685 30.4047 119.685 30.484 119.685 30.552C119.685 30.62 119.673 30.6993 119.651 30.79L115.197 31.98C114.925 31.4133 114.607 31.13 114.245 31.13C113.701 31.13 113.123 31.572 112.511 32.456C111.921 33.34 111.355 34.394 110.811 35.618C110.448 36.434 110.119 37.2727 109.825 38.134C109.553 38.9953 109.337 39.8 109.179 40.548C109.02 41.296 108.941 41.908 108.941 42.384C108.941 43.0867 109.043 43.5967 109.247 43.914C109.405 44.2087 109.655 44.356 109.995 44.356C110.335 44.356 110.709 44.1973 111.117 43.88C111.525 43.54 111.899 43.1207 112.239 42.622C112.601 42.1233 112.839 41.6247 112.953 41.126L116.829 42.69C115.718 45.2287 114.392 47.0987 112.851 48.3C111.332 49.4787 109.881 50.068 108.499 50.068ZM116.661 50.068C117.318 46.8947 117.93 43.8007 118.497 40.786C118.814 38.95 119.131 37.0913 119.449 35.21C119.789 33.3287 120.095 31.5267 120.367 29.804C120.639 28.0813 120.843 26.54 120.979 25.18C121.591 25.2027 122.089 25.2367 122.475 25.282C122.883 25.3047 123.257 25.3273 123.597 25.35C123.959 25.3727 124.356 25.3953 124.787 25.418C125.24 25.418 125.807 25.418 126.487 25.418C126.101 27.0273 125.716 28.6367 125.331 30.246C124.968 31.8553 124.628 33.476 124.311 35.108L127.677 34.734C127.835 33.9407 127.983 33.1587 128.119 32.388C128.277 31.5947 128.413 30.8127 128.527 30.042C128.64 29.294 128.776 28.5347 128.935 27.764C129.116 26.9707 129.309 26.1773 129.513 25.384C130.329 25.248 131.156 25.146 131.995 25.078C132.833 24.9873 133.536 24.9307 134.103 24.908C134.669 24.8627 134.953 24.84 134.953 24.84C134.658 25.7467 134.363 26.812 134.069 28.036C133.774 29.26 133.491 30.552 133.219 31.912C132.947 33.272 132.686 34.632 132.437 35.992C132.187 37.3293 131.961 38.576 131.757 39.732C131.507 41.1827 131.269 42.6447 131.043 44.118C130.816 45.5687 130.589 47.0533 130.363 48.572L125.059 49.184C125.217 48.504 125.353 47.8353 125.467 47.178C125.603 46.498 125.727 45.8407 125.841 45.206C126.067 44.118 126.294 42.9847 126.521 41.806C126.77 40.6273 126.963 39.6187 127.099 38.78L123.801 39.086C123.71 39.5167 123.619 39.9813 123.529 40.48C123.461 40.9787 123.37 41.5113 123.257 42.078C123.143 42.6447 123.03 43.2 122.917 43.744C122.826 44.2653 122.735 44.7867 122.645 45.308C122.531 45.92 122.407 46.532 122.271 47.144C122.135 47.756 122.01 48.368 121.897 48.98L116.661 50.068ZM140.202 49.932C140.248 49.5467 140.293 49.1727 140.338 48.81C140.384 48.4473 140.429 48.0847 140.474 47.722L140.678 45.818C140.701 45.5007 140.724 45.206 140.746 44.934C140.769 44.662 140.792 44.4127 140.814 44.186H137.856L136.496 49.082C135.998 49.15 135.408 49.2293 134.728 49.32C134.048 49.388 133.414 49.456 132.824 49.524C132.462 49.5693 132.099 49.6147 131.736 49.66C131.396 49.7053 131.045 49.7507 130.682 49.796L133.368 40.888C133.686 39.8227 134.048 38.61 134.456 37.25C134.864 35.89 135.272 34.496 135.68 33.068C136.111 31.64 136.508 30.3027 136.87 29.056C137.256 27.7867 137.562 26.7213 137.788 25.86C139.33 25.7467 140.894 25.6107 142.48 25.452C144.09 25.2933 145.654 25.078 147.172 24.806C147.059 26.0753 146.946 27.5147 146.832 29.124C146.742 30.7107 146.651 32.354 146.56 34.054C146.492 35.754 146.413 37.4313 146.322 39.086C146.277 40.65 146.22 42.2707 146.152 43.948C146.084 45.6027 146.016 47.3027 145.948 49.048C145.608 49.0933 145.268 49.1387 144.928 49.184C144.588 49.2293 144.248 49.2747 143.908 49.32C143.342 49.4107 142.718 49.5127 142.038 49.626C141.358 49.7393 140.746 49.8413 140.202 49.932ZM138.672 40.786C138.808 40.786 139.058 40.7747 139.42 40.752C139.806 40.7293 140.168 40.7067 140.508 40.684C140.848 40.6613 141.052 40.65 141.12 40.65C141.12 40.3553 141.166 39.7547 141.256 38.848C141.347 37.9413 141.438 36.9893 141.528 35.992C141.574 35.4027 141.619 34.802 141.664 34.19C141.732 33.5553 141.8 32.9093 141.868 32.252L142.072 29.294L141.562 29.328L140.78 32.252L138.672 40.786ZM146.513 50.068C146.763 48.2773 147.023 46.4753 147.295 44.662C147.59 42.8487 147.885 41.1033 148.179 39.426C148.497 37.726 148.791 36.196 149.063 34.836C149.358 33.3627 149.653 31.8667 149.947 30.348C150.242 28.8293 150.548 27.2993 150.865 25.758L156.815 24.976L155.047 32.66C154.73 33.9973 154.401 35.4367 154.061 36.978C153.744 38.4967 153.449 39.97 153.177 41.398C152.905 42.826 152.69 44.0953 152.531 45.206C153.098 45.1607 153.699 45.138 154.333 45.138C154.991 45.1153 155.569 45.104 156.067 45.104C156.09 45.6253 156.135 46.1807 156.203 46.77C156.271 47.3367 156.339 47.8353 156.407 48.266C156.498 48.674 156.543 48.9007 156.543 48.946C156.453 48.946 156.362 48.946 156.271 48.946C156.203 48.946 156.124 48.9347 156.033 48.912H155.489C154.605 48.912 153.619 48.9573 152.531 49.048C151.466 49.116 150.401 49.2407 149.335 49.422C148.293 49.5807 147.352 49.796 146.513 50.068ZM156.773 50.068C157.023 48.2773 157.283 46.4753 157.555 44.662C157.85 42.8487 158.145 41.1033 158.439 39.426C158.757 37.726 159.051 36.196 159.323 34.836C159.618 33.3627 159.913 31.8667 160.207 30.348C160.502 28.8293 160.808 27.2993 161.125 25.758L167.075 24.976L165.307 32.66C164.99 33.9973 164.661 35.4367 164.321 36.978C164.004 38.4967 163.709 39.97 163.437 41.398C163.165 42.826 162.95 44.0953 162.791 45.206C163.358 45.1607 163.959 45.138 164.593 45.138C165.251 45.1153 165.829 45.104 166.327 45.104C166.35 45.6253 166.395 46.1807 166.463 46.77C166.531 47.3367 166.599 47.8353 166.667 48.266C166.758 48.674 166.803 48.9007 166.803 48.946C166.713 48.946 166.622 48.946 166.531 48.946C166.463 48.946 166.384 48.9347 166.293 48.912H165.749C164.865 48.912 163.879 48.9573 162.791 49.048C161.726 49.116 160.661 49.2407 159.595 49.422C158.553 49.5807 157.612 49.796 156.773 50.068ZM166.897 50.034L171.351 25.86L182.095 24.942C181.936 25.4407 181.8 25.9507 181.687 26.472C181.574 26.9027 181.46 27.356 181.347 27.832C181.256 28.2853 181.177 28.6933 181.109 29.056C180.814 29.0787 180.395 29.1013 179.851 29.124C179.307 29.124 178.752 29.1353 178.185 29.158C177.618 29.158 177.131 29.158 176.723 29.158C176.315 29.158 176.1 29.158 176.077 29.158L174.887 35.244L176.859 35.142C177.108 35.1193 177.358 35.108 177.607 35.108C177.879 35.108 178.14 35.108 178.389 35.108C178.638 35.108 178.865 35.108 179.069 35.108C179.273 35.108 179.432 35.0967 179.545 35.074C179.5 35.3913 179.454 35.7087 179.409 36.026C179.386 36.3207 179.352 36.6267 179.307 36.944L179.001 38.814C178.888 38.8367 178.74 38.848 178.559 38.848C178.378 38.848 178.162 38.848 177.913 38.848C177.664 38.8707 177.403 38.882 177.131 38.882C176.859 38.882 176.598 38.8933 176.349 38.916C176.054 38.9387 175.748 38.95 175.431 38.95C175.114 38.95 174.774 38.9613 174.411 38.984L173.255 45.24L178.219 44.458L177.879 48.334L166.897 50.034ZM178.383 50.17C179.063 46.906 179.709 43.744 180.321 40.684C180.82 37.8053 181.307 35.04 181.783 32.388C182.259 29.736 182.599 27.2993 182.803 25.078C182.962 25.1007 183.098 25.112 183.211 25.112C183.347 25.112 183.46 25.112 183.551 25.112H184.265C184.854 25.112 185.512 25.1007 186.237 25.078C186.962 25.0327 187.631 24.9987 188.243 24.976C188.402 25.7693 188.549 26.5513 188.685 27.322C188.844 28.0927 188.98 28.8407 189.093 29.566C189.206 30.2007 189.331 30.858 189.467 31.538C189.603 32.1953 189.739 32.864 189.875 33.544C189.988 34.224 190.102 34.8587 190.215 35.448C190.351 36.0147 190.464 36.536 190.555 37.012C190.827 35.6747 191.076 34.36 191.303 33.068C191.552 31.776 191.79 30.6087 192.017 29.566L193.003 25.01L197.151 24.5C196.766 26.2227 196.403 27.9113 196.063 29.566C195.723 31.2207 195.406 32.8187 195.111 34.36C194.544 37.1253 194.046 39.732 193.615 42.18C193.184 44.628 192.856 46.7587 192.629 48.572C192.878 48.572 192.833 48.606 192.493 48.674C192.176 48.7193 191.7 48.7987 191.065 48.912C190.43 49.0027 189.75 49.1273 189.025 49.286C188.3 49.4447 187.654 49.6373 187.087 49.864C187.019 48.9573 186.951 48.0733 186.883 47.212C186.815 46.3507 186.736 45.512 186.645 44.696C186.509 43.2453 186.35 41.806 186.169 40.378C185.988 38.95 185.806 37.8167 185.625 36.978C185.466 37.9753 185.274 39.12 185.047 40.412C184.82 41.6813 184.571 42.962 184.299 44.254L183.347 49.014L178.383 50.17ZM201.168 50.816C200.329 50.816 199.525 50.6347 198.754 50.272C198.006 49.9093 197.36 49.354 196.816 48.606C196.249 47.8807 195.807 46.9627 195.49 45.852C195.173 44.7413 195.014 43.438 195.014 41.942C195.014 39.018 195.433 36.468 196.272 34.292C197.111 32.116 198.176 30.3027 199.468 28.852C200.737 27.4013 202.097 26.3247 203.548 25.622C205.021 24.9193 206.393 24.568 207.662 24.568C208.886 24.568 209.883 24.84 210.654 25.384C211.425 25.9053 211.991 26.608 212.354 27.492C212.717 28.376 212.898 29.362 212.898 30.45L208.24 31.334C208.036 30.4273 207.764 29.7813 207.424 29.396C207.084 29.0107 206.699 28.818 206.268 28.818C205.769 28.818 205.248 29.09 204.704 29.634C204.183 30.178 203.661 30.9147 203.14 31.844C202.641 32.7507 202.188 33.7707 201.78 34.904C201.372 36.0373 201.032 37.2047 200.76 38.406C200.511 39.6073 200.363 40.7407 200.318 41.806C200.318 43.2113 200.522 44.22 200.93 44.832C201.361 45.4213 201.905 45.716 202.562 45.716C203.197 45.716 203.82 45.512 204.432 45.104C205.067 44.696 205.588 44.152 205.996 43.472C206.427 42.7693 206.653 41.9873 206.676 41.126L203.038 41.67L203.684 38.304L206.812 37.896C207.673 37.7827 208.58 37.6467 209.532 37.488C210.507 37.3293 211.357 37.182 212.082 37.046C211.923 39.358 211.47 41.3867 210.722 43.132C209.997 44.8547 209.09 46.2827 208.002 47.416C206.914 48.5493 205.769 49.3993 204.568 49.966C203.389 50.5327 202.256 50.816 201.168 50.816ZM210.825 50.034L215.279 25.86L226.023 24.942C225.864 25.4407 225.728 25.9507 225.615 26.472C225.501 26.9027 225.388 27.356 225.275 27.832C225.184 28.2853 225.105 28.6933 225.037 29.056C224.742 29.0787 224.323 29.1013 223.779 29.124C223.235 29.124 222.679 29.1353 222.113 29.158C221.546 29.158 221.059 29.158 220.651 29.158C220.243 29.158 220.027 29.158 220.005 29.158L218.815 35.244L220.787 35.142C221.036 35.1193 221.285 35.108 221.535 35.108C221.807 35.108 222.067 35.108 222.317 35.108C222.566 35.108 222.793 35.108 222.997 35.108C223.201 35.108 223.359 35.0967 223.473 35.074C223.427 35.3913 223.382 35.7087 223.337 36.026C223.314 36.3207 223.28 36.6267 223.235 36.944L222.929 38.814C222.815 38.8367 222.668 38.848 222.487 38.848C222.305 38.848 222.09 38.848 221.841 38.848C221.591 38.8707 221.331 38.882 221.059 38.882C220.787 38.882 220.526 38.8933 220.277 38.916C219.982 38.9387 219.676 38.95 219.359 38.95C219.041 38.95 218.701 38.9613 218.339 38.984L217.183 45.24L222.147 44.458L221.807 48.334L210.825 50.034Z" fill="#001E45"/>
<path d="M24.7783 75.3701H22.2148V73.8936H24.7783C25.1976 73.8936 25.5371 73.8252 25.7969 73.6885C26.0612 73.5472 26.2549 73.3558 26.3779 73.1143C26.501 72.8682 26.5625 72.5879 26.5625 72.2734C26.5625 71.9681 26.501 71.6833 26.3779 71.4189C26.2549 71.1546 26.0612 70.9404 25.7969 70.7764C25.5371 70.6123 25.1976 70.5303 24.7783 70.5303H22.8301V79H20.9502V69.0469H24.7783C25.5531 69.0469 26.2139 69.1859 26.7607 69.4639C27.3122 69.7373 27.7314 70.1178 28.0186 70.6055C28.3102 71.0885 28.4561 71.64 28.4561 72.2598C28.4561 72.9023 28.3102 73.4561 28.0186 73.9209C27.7314 74.3857 27.3122 74.7435 26.7607 74.9941C26.2139 75.2448 25.5531 75.3701 24.7783 75.3701ZM31.6006 73.1143V79H29.7959V71.6035H31.5049L31.6006 73.1143ZM33.8496 71.5557L33.8223 73.2373C33.722 73.2191 33.6081 73.2054 33.4805 73.1963C33.3574 73.1872 33.2412 73.1826 33.1318 73.1826C32.8538 73.1826 32.61 73.2214 32.4004 73.2988C32.1908 73.3717 32.0153 73.4788 31.874 73.6201C31.7373 73.7614 31.6325 73.9346 31.5596 74.1396C31.4867 74.3402 31.4456 74.568 31.4365 74.8232L31.0469 74.7754C31.0469 74.306 31.0947 73.8708 31.1904 73.4697C31.2861 73.0687 31.4251 72.7178 31.6074 72.417C31.7897 72.1162 32.0176 71.8838 32.291 71.7197C32.569 71.5511 32.888 71.4668 33.248 71.4668C33.3483 71.4668 33.4554 71.4759 33.5693 71.4941C33.6878 71.5078 33.7812 71.5283 33.8496 71.5557ZM34.3281 75.377V75.2334C34.3281 74.6911 34.4056 74.1921 34.5605 73.7363C34.7155 73.276 34.9411 72.8773 35.2373 72.54C35.5335 72.2028 35.8958 71.9408 36.3242 71.7539C36.7526 71.5625 37.2402 71.4668 37.7871 71.4668C38.3431 71.4668 38.8353 71.5625 39.2637 71.7539C39.6966 71.9408 40.0612 72.2028 40.3574 72.54C40.6536 72.8773 40.8792 73.276 41.0342 73.7363C41.1891 74.1921 41.2666 74.6911 41.2666 75.2334V75.377C41.2666 75.9147 41.1891 76.4137 41.0342 76.874C40.8792 77.3298 40.6536 77.7285 40.3574 78.0703C40.0612 78.4076 39.6989 78.6696 39.2705 78.8564C38.8421 79.0433 38.3522 79.1367 37.8008 79.1367C37.2539 79.1367 36.764 79.0433 36.3311 78.8564C35.8981 78.6696 35.5335 78.4076 35.2373 78.0703C34.9411 77.7285 34.7155 77.3298 34.5605 76.874C34.4056 76.4137 34.3281 75.9147 34.3281 75.377ZM36.1328 75.2334V75.377C36.1328 75.7005 36.1647 76.0036 36.2285 76.2861C36.2923 76.5687 36.3903 76.8171 36.5225 77.0312C36.6546 77.2454 36.8255 77.4141 37.0352 77.5371C37.2493 77.6556 37.5046 77.7148 37.8008 77.7148C38.0924 77.7148 38.3431 77.6556 38.5527 77.5371C38.7624 77.4141 38.9333 77.2454 39.0654 77.0312C39.2021 76.8171 39.3024 76.5687 39.3662 76.2861C39.43 76.0036 39.4619 75.7005 39.4619 75.377V75.2334C39.4619 74.9144 39.43 74.6159 39.3662 74.3379C39.3024 74.0553 39.2021 73.807 39.0654 73.5928C38.9333 73.374 38.7601 73.2031 38.5459 73.0801C38.3363 72.9525 38.0833 72.8887 37.7871 72.8887C37.4954 72.8887 37.2448 72.9525 37.0352 73.0801C36.8255 73.2031 36.6546 73.374 36.5225 73.5928C36.3903 73.807 36.2923 74.0553 36.2285 74.3379C36.1647 74.6159 36.1328 74.9144 36.1328 75.2334ZM44.9238 77.6328L46.6465 71.6035H48.5332L45.9971 79H44.8486L44.9238 77.6328ZM43.666 71.6035L45.4092 77.6465L45.4707 79H44.3154L41.7725 71.6035H43.666ZM52.71 79.1367C52.1494 79.1367 51.6458 79.0456 51.1992 78.8633C50.7526 78.681 50.3721 78.4281 50.0576 78.1045C49.7477 77.7764 49.5085 77.3958 49.3398 76.9629C49.1758 76.5254 49.0938 76.056 49.0938 75.5547V75.2812C49.0938 74.7116 49.1758 74.1943 49.3398 73.7295C49.5039 73.2601 49.7363 72.8568 50.0371 72.5195C50.3379 72.1823 50.6979 71.9225 51.1172 71.7402C51.5365 71.5579 51.999 71.4668 52.5049 71.4668C53.029 71.4668 53.4915 71.5557 53.8926 71.7334C54.2936 71.9066 54.6286 72.1527 54.8975 72.4717C55.1663 72.7907 55.3691 73.1735 55.5059 73.6201C55.6426 74.0622 55.7109 74.5521 55.7109 75.0898V75.8486H49.9141V74.6045H53.9336V74.4678C53.9245 74.1807 53.8698 73.9186 53.7695 73.6816C53.6693 73.4401 53.5143 73.2487 53.3047 73.1074C53.0951 72.9616 52.8239 72.8887 52.4912 72.8887C52.2223 72.8887 51.9876 72.9479 51.7871 73.0664C51.5911 73.1803 51.4271 73.3444 51.2949 73.5586C51.1673 73.7682 51.0716 74.0189 51.0078 74.3105C50.944 74.6022 50.9121 74.9258 50.9121 75.2812V75.5547C50.9121 75.8646 50.9531 76.1517 51.0352 76.416C51.1217 76.6803 51.2471 76.9105 51.4111 77.1064C51.5798 77.2979 51.7803 77.4482 52.0127 77.5576C52.2497 77.6624 52.5186 77.7148 52.8193 77.7148C53.1976 77.7148 53.5394 77.6419 53.8447 77.4961C54.1546 77.3457 54.4235 77.1247 54.6514 76.833L55.5605 77.7764C55.4056 78.0042 55.196 78.223 54.9316 78.4326C54.6719 78.6423 54.3574 78.8132 53.9883 78.9453C53.6191 79.0729 53.193 79.1367 52.71 79.1367ZM62.5742 78.1797L64.5566 71.6035H66.4912L63.5244 80.1211C63.4561 80.3034 63.3672 80.5016 63.2578 80.7158C63.153 80.93 63.0117 81.1328 62.834 81.3242C62.6562 81.5202 62.4329 81.6797 62.1641 81.8027C61.8997 81.9258 61.5785 81.9873 61.2002 81.9873C61.0361 81.9873 60.8903 81.9759 60.7627 81.9531C60.6351 81.9303 60.5007 81.9007 60.3594 81.8643V80.5107C60.4049 80.5153 60.4574 80.5176 60.5166 80.5176C60.5804 80.5221 60.6351 80.5244 60.6807 80.5244C60.945 80.5244 61.1637 80.4925 61.3369 80.4287C61.5101 80.3695 61.6491 80.2715 61.7539 80.1348C61.8633 80.0026 61.9544 79.8294 62.0273 79.6152L62.5742 78.1797ZM61.5967 71.6035L63.2715 77.0518L63.5654 78.959L62.3213 79.1846L59.6484 71.6035H61.5967ZM66.9355 75.377V75.2334C66.9355 74.6911 67.013 74.1921 67.168 73.7363C67.3229 73.276 67.5485 72.8773 67.8447 72.54C68.141 72.2028 68.5033 71.9408 68.9316 71.7539C69.36 71.5625 69.8477 71.4668 70.3945 71.4668C70.9505 71.4668 71.4427 71.5625 71.8711 71.7539C72.304 71.9408 72.6686 72.2028 72.9648 72.54C73.2611 72.8773 73.4867 73.276 73.6416 73.7363C73.7965 74.1921 73.874 74.6911 73.874 75.2334V75.377C73.874 75.9147 73.7965 76.4137 73.6416 76.874C73.4867 77.3298 73.2611 77.7285 72.9648 78.0703C72.6686 78.4076 72.3063 78.6696 71.8779 78.8564C71.4495 79.0433 70.9596 79.1367 70.4082 79.1367C69.8613 79.1367 69.3714 79.0433 68.9385 78.8564C68.5055 78.6696 68.141 78.4076 67.8447 78.0703C67.5485 77.7285 67.3229 77.3298 67.168 76.874C67.013 76.4137 66.9355 75.9147 66.9355 75.377ZM68.7402 75.2334V75.377C68.7402 75.7005 68.7721 76.0036 68.8359 76.2861C68.8997 76.5687 68.9977 76.8171 69.1299 77.0312C69.262 77.2454 69.4329 77.4141 69.6426 77.5371C69.8568 77.6556 70.112 77.7148 70.4082 77.7148C70.6999 77.7148 70.9505 77.6556 71.1602 77.5371C71.3698 77.4141 71.5407 77.2454 71.6729 77.0312C71.8096 76.8171 71.9098 76.5687 71.9736 76.2861C72.0374 76.0036 72.0693 75.7005 72.0693 75.377V75.2334C72.0693 74.9144 72.0374 74.6159 71.9736 74.3379C71.9098 74.0553 71.8096 73.807 71.6729 73.5928C71.5407 73.374 71.3675 73.2031 71.1533 73.0801C70.9437 72.9525 70.6908 72.8887 70.3945 72.8887C70.1029 72.8887 69.8522 72.9525 69.6426 73.0801C69.4329 73.2031 69.262 73.374 69.1299 73.5928C68.9977 73.807 68.8997 74.0553 68.8359 74.3379C68.7721 74.6159 68.7402 74.9144 68.7402 75.2334ZM79.5889 77.2432V71.6035H81.4072V79H79.6982L79.5889 77.2432ZM79.8213 75.7119L80.3818 75.6982C80.3818 76.195 80.3271 76.653 80.2178 77.0723C80.1084 77.4915 79.9375 77.8561 79.7051 78.166C79.4772 78.4714 79.1878 78.7106 78.8369 78.8838C78.486 79.0524 78.0713 79.1367 77.5928 79.1367C77.2282 79.1367 76.8955 79.0866 76.5947 78.9863C76.2939 78.8815 76.0342 78.7197 75.8154 78.501C75.6012 78.2777 75.4349 77.9928 75.3164 77.6465C75.1979 77.2956 75.1387 76.874 75.1387 76.3818V71.6035H76.9434V76.3955C76.9434 76.6416 76.9707 76.8467 77.0254 77.0107C77.0846 77.1748 77.1644 77.3092 77.2646 77.4141C77.3695 77.5143 77.4902 77.5872 77.627 77.6328C77.7682 77.6738 77.9186 77.6943 78.0781 77.6943C78.5156 77.6943 78.8597 77.6077 79.1104 77.4346C79.3656 77.2568 79.5479 77.0199 79.6572 76.7236C79.7666 76.4229 79.8213 76.0856 79.8213 75.7119ZM84.8115 73.1143V79H83.0068V71.6035H84.7158L84.8115 73.1143ZM87.0605 71.5557L87.0332 73.2373C86.9329 73.2191 86.819 73.2054 86.6914 73.1963C86.5684 73.1872 86.4521 73.1826 86.3428 73.1826C86.0648 73.1826 85.821 73.2214 85.6113 73.2988C85.4017 73.3717 85.2262 73.4788 85.085 73.6201C84.9482 73.7614 84.8434 73.9346 84.7705 74.1396C84.6976 74.3402 84.6566 74.568 84.6475 74.8232L84.2578 74.7754C84.2578 74.306 84.3057 73.8708 84.4014 73.4697C84.4971 73.0687 84.6361 72.7178 84.8184 72.417C85.0007 72.1162 85.2285 71.8838 85.502 71.7197C85.7799 71.5511 86.099 71.4668 86.459 71.4668C86.5592 71.4668 86.6663 71.4759 86.7803 71.4941C86.8988 71.5078 86.9922 71.5283 87.0605 71.5557ZM96.8838 76.416C96.8838 76.2246 96.8542 76.0537 96.7949 75.9033C96.7402 75.7484 96.6377 75.6094 96.4873 75.4863C96.3415 75.3587 96.1341 75.2357 95.8652 75.1172C95.6009 74.9941 95.2591 74.8665 94.8398 74.7344C94.375 74.5885 93.9421 74.4245 93.541 74.2422C93.14 74.0599 92.7868 73.848 92.4814 73.6064C92.1807 73.3649 91.946 73.0869 91.7773 72.7725C91.6087 72.4535 91.5244 72.0843 91.5244 71.665C91.5244 71.2549 91.611 70.8812 91.7842 70.5439C91.9619 70.2067 92.2126 69.9173 92.5361 69.6758C92.8597 69.4297 93.2402 69.2406 93.6777 69.1084C94.1198 68.9762 94.6074 68.9102 95.1406 68.9102C95.8789 68.9102 96.5169 69.0446 97.0547 69.3135C97.597 69.5824 98.0163 69.9469 98.3125 70.4072C98.6087 70.8675 98.7568 71.3848 98.7568 71.959H96.8838C96.8838 71.6491 96.8177 71.3757 96.6855 71.1387C96.5579 70.9017 96.362 70.7148 96.0977 70.5781C95.8379 70.4414 95.5098 70.373 95.1133 70.373C94.7305 70.373 94.4115 70.43 94.1562 70.5439C93.9056 70.6579 93.7165 70.8128 93.5889 71.0088C93.4658 71.2048 93.4043 71.4235 93.4043 71.665C93.4043 71.8473 93.4476 72.0114 93.5342 72.1572C93.6208 72.2985 93.7507 72.4329 93.9238 72.5605C94.097 72.6836 94.3112 72.7998 94.5664 72.9092C94.8262 73.014 95.127 73.1188 95.4688 73.2236C96.0156 73.3877 96.4941 73.57 96.9043 73.7705C97.319 73.971 97.6631 74.1989 97.9365 74.4541C98.2145 74.7093 98.4219 74.9964 98.5586 75.3154C98.6999 75.6344 98.7705 75.9967 98.7705 76.4023C98.7705 76.8307 98.6862 77.2135 98.5176 77.5508C98.349 77.888 98.1074 78.1751 97.793 78.4121C97.4785 78.6491 97.1003 78.8291 96.6582 78.9521C96.2207 79.0752 95.7308 79.1367 95.1885 79.1367C94.7054 79.1367 94.2269 79.0729 93.7529 78.9453C93.2835 78.8132 92.8574 78.6172 92.4746 78.3574C92.0918 78.0931 91.7865 77.7604 91.5586 77.3594C91.3307 76.9538 91.2168 76.4798 91.2168 75.9375H93.1035C93.1035 76.252 93.1536 76.5208 93.2539 76.7441C93.3587 76.9629 93.5046 77.1429 93.6914 77.2842C93.8828 77.4209 94.1061 77.5212 94.3613 77.585C94.6165 77.6488 94.8923 77.6807 95.1885 77.6807C95.5713 77.6807 95.8857 77.6283 96.1318 77.5234C96.3825 77.4141 96.5693 77.2637 96.6924 77.0723C96.82 76.8809 96.8838 76.6621 96.8838 76.416ZM101.888 68.4932V79H100.083V68.4932H101.888ZM106.522 71.6035L103.303 75.2197L101.56 76.9902L100.985 75.5889L102.332 73.8936L104.342 71.6035H106.522ZM104.677 79L102.387 75.5547L103.59 74.3857L106.769 79H104.677ZM109.394 71.6035V79H107.582V71.6035H109.394ZM107.459 69.6689C107.459 69.4001 107.55 69.1768 107.732 68.999C107.919 68.8213 108.17 68.7324 108.484 68.7324C108.799 68.7324 109.047 68.8213 109.229 68.999C109.416 69.1768 109.51 69.4001 109.51 69.6689C109.51 69.9333 109.416 70.1543 109.229 70.332C109.047 70.5098 108.799 70.5986 108.484 70.5986C108.17 70.5986 107.919 70.5098 107.732 70.332C107.55 70.1543 107.459 69.9333 107.459 69.6689ZM113.03 68.5V79H111.219V68.5H113.03ZM116.667 68.5V79H114.855V68.5H116.667Z" fill="#3E4347"/>
</g>
<defs>
<filter id="filter0_d_210_14134" x="0" y="0" width="422" height="106" filterUnits="userSpaceOnUse" color-interpolation-filters="sRGB">
<feFlood flood-opacity="0" result="BackgroundImageFix"/>
<feColorMatrix in="SourceAlpha" type="matrix" values="0 0 0 0 0 0 0 0 0 0 0 0 0 0 0 0 0 0 127 0" result="hardAlpha"/>
<feOffset dx="4" dy="4"/>
<feComposite in2="hardAlpha" operator="out"/>
<feColorMatrix type="matrix" values="0 0 0 0 0.149969 0 0 0 0 0.440422 0 0 0 0 0.818012 0 0 0 1 0"/>
<feBlend mode="normal" in2="BackgroundImageFix" result="effect1_dropShadow_210_14134"/>
<feBlend mode="normal" in="SourceGraphic" in2="effect1_dropShadow_210_14134" result="shape"/>
</filter>
</defs>
</svg>
