<svg width="422" height="106" viewBox="0 0 422 106" fill="none" xmlns="http://www.w3.org/2000/svg">
<g filter="url(#filter0_d_210_14141)">
<rect width="418" height="102" rx="20" fill="white" shape-rendering="crispEdges"/>
<path d="M19.898 50.034C20.578 46.974 21.224 43.982 21.836 41.058C22.0853 39.8793 22.3347 38.6213 22.584 37.284C22.856 35.924 23.128 34.5527 23.4 33.17C23.672 31.7873 23.9213 30.484 24.148 29.26C24.3747 28.0133 24.556 26.9253 24.692 25.996C25.5987 25.724 26.5733 25.4747 27.616 25.248C28.6813 25.0213 29.6333 24.908 30.472 24.908C31.832 24.908 32.9087 25.2027 33.702 25.792C34.4953 26.3587 35.062 27.1293 35.402 28.104C35.742 29.0787 35.912 30.144 35.912 31.3C35.912 32.5693 35.674 33.7933 35.198 34.972C34.7447 36.128 34.1213 37.1707 33.328 38.1C32.5573 39.0293 31.662 39.766 30.642 40.31C29.6447 40.854 28.602 41.126 27.514 41.126H27.14C26.9587 41.8967 26.7887 42.7353 26.63 43.642C26.4713 44.5487 26.3353 45.3873 26.222 46.158C26.1313 46.6113 26.052 47.0647 25.984 47.518C25.916 47.9713 25.848 48.4247 25.78 48.878L19.898 50.034ZM27.82 37.556C28.3413 37.42 28.8627 37.08 29.384 36.536C29.9053 35.9693 30.336 35.2553 30.676 34.394C31.016 33.5327 31.186 32.592 31.186 31.572C31.186 30.7333 30.9933 30.0987 30.608 29.668C30.2453 29.2373 29.8373 29.022 29.384 29.022C29.1347 30.518 28.8853 31.9347 28.636 33.272C28.3867 34.6093 28.1147 36.0373 27.82 37.556ZM41.6888 49.932C41.7341 49.5467 41.7795 49.1727 41.8248 48.81C41.8701 48.4473 41.9155 48.0847 41.9608 47.722L42.1648 45.818C42.1875 45.5007 42.2101 45.206 42.2328 44.934C42.2555 44.662 42.2781 44.4127 42.3008 44.186H39.3428L37.9828 49.082C37.4841 49.15 36.8948 49.2293 36.2148 49.32C35.5348 49.388 34.9001 49.456 34.3108 49.524C33.9481 49.5693 33.5855 49.6147 33.2228 49.66C32.8828 49.7053 32.5315 49.7507 32.1688 49.796L34.8548 40.888C35.1721 39.8227 35.5348 38.61 35.9428 37.25C36.3508 35.89 36.7588 34.496 37.1668 33.068C37.5975 31.64 37.9941 30.3027 38.3568 29.056C38.7421 27.7867 39.0481 26.7213 39.2748 25.86C40.8161 25.7467 42.3801 25.6107 43.9668 25.452C45.5761 25.2933 47.1401 25.078 48.6588 24.806C48.5455 26.0753 48.4321 27.5147 48.3188 29.124C48.2281 30.7107 48.1375 32.354 48.0468 34.054C47.9788 35.754 47.8995 37.4313 47.8088 39.086C47.7635 40.65 47.7068 42.2707 47.6388 43.948C47.5708 45.6027 47.5028 47.3027 47.4348 49.048C47.0948 49.0933 46.7548 49.1387 46.4148 49.184C46.0748 49.2293 45.7348 49.2747 45.3948 49.32C44.8281 49.4107 44.2048 49.5127 43.5248 49.626C42.8448 49.7393 42.2328 49.8413 41.6888 49.932ZM40.1588 40.786C40.2948 40.786 40.5441 40.7747 40.9068 40.752C41.2921 40.7293 41.6548 40.7067 41.9948 40.684C42.3348 40.6613 42.5388 40.65 42.6068 40.65C42.6068 40.3553 42.6521 39.7547 42.7428 38.848C42.8335 37.9413 42.9241 36.9893 43.0148 35.992C43.0601 35.4027 43.1055 34.802 43.1508 34.19C43.2188 33.5553 43.2868 32.9093 43.3548 32.252L43.5588 29.294L43.0488 29.328L42.2668 32.252L40.1588 40.786ZM53.4058 50.068C52.4991 50.068 51.5925 49.83 50.6858 49.354C49.7791 48.8553 48.9065 48.0733 48.0678 47.008L50.5838 42.078C50.8331 42.5087 51.1958 42.9167 51.6718 43.302C52.1705 43.6873 52.6918 43.9933 53.2358 44.22C53.7798 44.4467 54.2445 44.56 54.6298 44.56C55.2191 44.56 55.7745 44.3787 56.2958 44.016C56.8398 43.6533 57.1118 43.166 57.1118 42.554C57.1118 41.7607 56.7491 41.0353 56.0238 40.378C55.2985 39.7207 54.4825 39.0747 53.5758 38.44C52.6918 37.8053 51.8758 37.0913 51.1278 36.298C50.4025 35.482 50.0398 34.5527 50.0398 33.51C50.0398 32.3313 50.3798 31.2433 51.0598 30.246C51.7398 29.226 52.6238 28.342 53.7118 27.594C54.7998 26.8233 55.9558 26.234 57.1798 25.826C58.4265 25.3953 59.6051 25.18 60.7158 25.18C61.5091 25.18 62.2458 25.316 62.9258 25.588C63.6058 25.8373 64.1498 26.2567 64.5578 26.846C64.9658 27.4353 65.1698 28.2287 65.1698 29.226C65.1698 29.3847 65.1585 29.5433 65.1358 29.702C65.1358 29.8607 65.1245 30.0193 65.1018 30.178C65.0791 30.3367 65.0451 30.5067 64.9998 30.688C64.9771 30.8467 64.9545 31.0167 64.9318 31.198L60.0018 32.626C60.0471 32.4447 60.0811 32.2633 60.1038 32.082C60.1491 31.9007 60.1718 31.7193 60.1718 31.538C60.1718 30.858 60.0471 30.3707 59.7978 30.076C59.5711 29.7587 59.2651 29.6 58.8798 29.6C58.6758 29.6 58.3811 29.7133 57.9958 29.94C57.6105 30.144 57.2591 30.4387 56.9418 30.824C56.6471 31.1867 56.4998 31.5947 56.4998 32.048C56.4998 32.796 56.8058 33.4193 57.4178 33.918C58.0525 34.394 58.7778 34.8813 59.5938 35.38C59.9791 35.6067 60.4098 35.9693 60.8858 36.468C61.3618 36.944 61.7698 37.6013 62.1098 38.44C62.4725 39.256 62.6538 40.31 62.6538 41.602C62.6538 43.2793 62.2345 44.7527 61.3958 46.022C60.5798 47.2913 59.4691 48.2887 58.0638 49.014C56.6585 49.7167 55.1058 50.068 53.4058 50.068ZM68.0152 50.068C67.1085 50.068 66.2018 49.83 65.2952 49.354C64.3885 48.8553 63.5158 48.0733 62.6772 47.008L65.1932 42.078C65.4425 42.5087 65.8052 42.9167 66.2812 43.302C66.7798 43.6873 67.3012 43.9933 67.8452 44.22C68.3892 44.4467 68.8538 44.56 69.2392 44.56C69.8285 44.56 70.3838 44.3787 70.9052 44.016C71.4492 43.6533 71.7212 43.166 71.7212 42.554C71.7212 41.7607 71.3585 41.0353 70.6332 40.378C69.9078 39.7207 69.0918 39.0747 68.1852 38.44C67.3012 37.8053 66.4852 37.0913 65.7372 36.298C65.0118 35.482 64.6492 34.5527 64.6492 33.51C64.6492 32.3313 64.9892 31.2433 65.6692 30.246C66.3492 29.226 67.2332 28.342 68.3212 27.594C69.4092 26.8233 70.5652 26.234 71.7892 25.826C73.0358 25.3953 74.2145 25.18 75.3252 25.18C76.1185 25.18 76.8552 25.316 77.5352 25.588C78.2152 25.8373 78.7592 26.2567 79.1672 26.846C79.5752 27.4353 79.7792 28.2287 79.7792 29.226C79.7792 29.3847 79.7678 29.5433 79.7452 29.702C79.7452 29.8607 79.7338 30.0193 79.7112 30.178C79.6885 30.3367 79.6545 30.5067 79.6092 30.688C79.5865 30.8467 79.5638 31.0167 79.5412 31.198L74.6112 32.626C74.6565 32.4447 74.6905 32.2633 74.7132 32.082C74.7585 31.9007 74.7812 31.7193 74.7812 31.538C74.7812 30.858 74.6565 30.3707 74.4072 30.076C74.1805 29.7587 73.8745 29.6 73.4892 29.6C73.2852 29.6 72.9905 29.7133 72.6052 29.94C72.2198 30.144 71.8685 30.4387 71.5512 30.824C71.2565 31.1867 71.1092 31.5947 71.1092 32.048C71.1092 32.796 71.4152 33.4193 72.0272 33.918C72.6618 34.394 73.3872 34.8813 74.2032 35.38C74.5885 35.6067 75.0192 35.9693 75.4952 36.468C75.9712 36.944 76.3792 37.6013 76.7192 38.44C77.0818 39.256 77.2632 40.31 77.2632 41.602C77.2632 43.2793 76.8438 44.7527 76.0052 46.022C75.1892 47.2913 74.0785 48.2887 72.6732 49.014C71.2678 49.7167 69.7152 50.068 68.0152 50.068ZM86.5112 50.034C86.7605 48.7873 87.0098 47.552 87.2592 46.328C87.5312 45.0813 87.7805 43.8573 88.0072 42.656C88.8685 38.3493 89.5712 34.224 90.1152 30.28C89.8658 30.2347 89.6052 30.212 89.3332 30.212C89.0612 30.1893 88.8005 30.1893 88.5512 30.212C88.0072 30.2573 87.4745 30.1893 86.9532 30.008C86.9758 29.8267 86.9872 29.634 86.9872 29.43C86.9872 29.2033 86.9872 28.9767 86.9872 28.75C86.9872 28.5007 86.9872 28.2627 86.9872 28.036C86.9872 27.7867 86.9985 27.5487 87.0212 27.322C87.0438 27.0727 87.0552 26.812 87.0552 26.54C87.0552 26.2453 87.0665 25.9507 87.0892 25.656C87.6785 25.7013 88.2678 25.7353 88.8572 25.758C89.4465 25.7807 90.0358 25.792 90.6252 25.792C92.3025 25.792 93.9005 25.7353 95.4192 25.622C96.9605 25.5087 98.3772 25.3727 99.6692 25.214L99.2952 27.05L98.9892 28.648C98.8758 29.2373 98.7738 29.702 98.6832 30.042C98.4338 30.11 98.1845 30.1667 97.9352 30.212C97.6858 30.2573 97.4365 30.2913 97.1872 30.314C96.9378 30.3367 96.6772 30.3707 96.4052 30.416C96.1558 30.4613 95.9065 30.5067 95.6572 30.552C95.3172 32.2293 95.0338 33.68 94.8072 34.904C94.6032 36.128 94.4105 37.3067 94.2292 38.44C94.0705 39.5507 93.8778 40.7747 93.6512 42.112C93.2658 44.4013 92.9258 46.7247 92.6312 49.082L86.5112 50.034ZM96.0415 50.068C96.6989 46.8947 97.3109 43.8007 97.8775 40.786C98.1949 38.95 98.5122 37.0913 98.8295 35.21C99.1695 33.3287 99.4755 31.5267 99.7475 29.804C100.02 28.0813 100.224 26.54 100.36 25.18C100.972 25.2027 101.47 25.2367 101.856 25.282C102.264 25.3047 102.638 25.3273 102.978 25.35C103.34 25.3727 103.737 25.3953 104.168 25.418C104.621 25.418 105.188 25.418 105.868 25.418C105.482 27.0273 105.097 28.6367 104.712 30.246C104.349 31.8553 104.009 33.476 103.692 35.108L107.058 34.734C107.216 33.9407 107.364 33.1587 107.5 32.388C107.658 31.5947 107.794 30.8127 107.908 30.042C108.021 29.294 108.157 28.5347 108.316 27.764C108.497 26.9707 108.69 26.1773 108.894 25.384C109.71 25.248 110.537 25.146 111.376 25.078C112.214 24.9873 112.917 24.9307 113.484 24.908C114.05 24.8627 114.334 24.84 114.334 24.84C114.039 25.7467 113.744 26.812 113.45 28.036C113.155 29.26 112.872 30.552 112.6 31.912C112.328 33.272 112.067 34.632 111.818 35.992C111.568 37.3293 111.342 38.576 111.138 39.732C110.888 41.1827 110.65 42.6447 110.424 44.118C110.197 45.5687 109.97 47.0533 109.744 48.572L104.44 49.184C104.598 48.504 104.734 47.8353 104.848 47.178C104.984 46.498 105.108 45.8407 105.222 45.206C105.448 44.118 105.675 42.9847 105.902 41.806C106.151 40.6273 106.344 39.6187 106.48 38.78L103.182 39.086C103.091 39.5167 103 39.9813 102.91 40.48C102.842 40.9787 102.751 41.5113 102.638 42.078C102.524 42.6447 102.411 43.2 102.298 43.744C102.207 44.2653 102.116 44.7867 102.026 45.308C101.912 45.92 101.788 46.532 101.652 47.144C101.516 47.756 101.391 48.368 101.278 48.98L96.0415 50.068ZM111.049 50.034L115.503 25.86L126.247 24.942C126.089 25.4407 125.953 25.9507 125.839 26.472C125.726 26.9027 125.613 27.356 125.499 27.832C125.409 28.2853 125.329 28.6933 125.261 29.056C124.967 29.0787 124.547 29.1013 124.003 29.124C123.459 29.124 122.904 29.1353 122.337 29.158C121.771 29.158 121.283 29.158 120.875 29.158C120.467 29.158 120.252 29.158 120.229 29.158L119.039 35.244L121.011 35.142C121.261 35.1193 121.51 35.108 121.759 35.108C122.031 35.108 122.292 35.108 122.541 35.108C122.791 35.108 123.017 35.108 123.221 35.108C123.425 35.108 123.584 35.0967 123.697 35.074C123.652 35.3913 123.607 35.7087 123.561 36.026C123.539 36.3207 123.505 36.6267 123.459 36.944L123.153 38.814C123.04 38.8367 122.893 38.848 122.711 38.848C122.53 38.848 122.315 38.848 122.065 38.848C121.816 38.8707 121.555 38.882 121.283 38.882C121.011 38.882 120.751 38.8933 120.501 38.916C120.207 38.9387 119.901 38.95 119.583 38.95C119.266 38.95 118.926 38.9613 118.563 38.984L117.407 45.24L122.371 44.458L122.031 48.334L111.049 50.034ZM135.194 50.068C133.766 50.068 132.599 49.3993 131.692 48.062C130.785 46.7247 130.332 44.8887 130.332 42.554C130.332 40.4233 130.627 38.3267 131.216 36.264C131.805 34.1787 132.633 32.3087 133.698 30.654C134.763 28.9993 136.021 27.6733 137.472 26.676C138.945 25.656 140.566 25.146 142.334 25.146C143.445 25.146 144.397 25.5767 145.19 26.438C145.983 27.2993 146.38 28.4553 146.38 29.906V30.314C146.38 30.4047 146.38 30.484 146.38 30.552C146.38 30.62 146.369 30.6993 146.346 30.79L141.892 31.98C141.62 31.4133 141.303 31.13 140.94 31.13C140.396 31.13 139.818 31.572 139.206 32.456C138.617 33.34 138.05 34.394 137.506 35.618C137.143 36.434 136.815 37.2727 136.52 38.134C136.248 38.9953 136.033 39.8 135.874 40.548C135.715 41.296 135.636 41.908 135.636 42.384C135.636 43.0867 135.738 43.5967 135.942 43.914C136.101 44.2087 136.35 44.356 136.69 44.356C137.03 44.356 137.404 44.1973 137.812 43.88C138.22 43.54 138.594 43.1207 138.934 42.622C139.297 42.1233 139.535 41.6247 139.648 41.126L143.524 42.69C142.413 45.2287 141.087 47.0987 139.546 48.3C138.027 49.4787 136.577 50.068 135.194 50.068ZM143.356 50.068C144.013 46.8947 144.625 43.8007 145.192 40.786C145.509 38.95 145.827 37.0913 146.144 35.21C146.484 33.3287 146.79 31.5267 147.062 29.804C147.334 28.0813 147.538 26.54 147.674 25.18C148.286 25.2027 148.785 25.2367 149.17 25.282C149.578 25.3047 149.952 25.3273 150.292 25.35C150.655 25.3727 151.051 25.3953 151.482 25.418C151.935 25.418 152.502 25.418 153.182 25.418C152.797 27.0273 152.411 28.6367 152.026 30.246C151.663 31.8553 151.323 33.476 151.006 35.108L154.372 34.734C154.531 33.9407 154.678 33.1587 154.814 32.388C154.973 31.5947 155.109 30.8127 155.222 30.042C155.335 29.294 155.471 28.5347 155.63 27.764C155.811 26.9707 156.004 26.1773 156.208 25.384C157.024 25.248 157.851 25.146 158.69 25.078C159.529 24.9873 160.231 24.9307 160.798 24.908C161.365 24.8627 161.648 24.84 161.648 24.84C161.353 25.7467 161.059 26.812 160.764 28.036C160.469 29.26 160.186 30.552 159.914 31.912C159.642 33.272 159.381 34.632 159.132 35.992C158.883 37.3293 158.656 38.576 158.452 39.732C158.203 41.1827 157.965 42.6447 157.738 44.118C157.511 45.5687 157.285 47.0533 157.058 48.572L151.754 49.184C151.913 48.504 152.049 47.8353 152.162 47.178C152.298 46.498 152.423 45.8407 152.536 45.206C152.763 44.118 152.989 42.9847 153.216 41.806C153.465 40.6273 153.658 39.6187 153.794 38.78L150.496 39.086C150.405 39.5167 150.315 39.9813 150.224 40.48C150.156 40.9787 150.065 41.5113 149.952 42.078C149.839 42.6447 149.725 43.2 149.612 43.744C149.521 44.2653 149.431 44.7867 149.34 45.308C149.227 45.92 149.102 46.532 148.966 47.144C148.83 47.756 148.705 48.368 148.592 48.98L143.356 50.068ZM166.898 49.932C166.943 49.5467 166.988 49.1727 167.034 48.81C167.079 48.4473 167.124 48.0847 167.17 47.722L167.374 45.818C167.396 45.5007 167.419 45.206 167.442 44.934C167.464 44.662 167.487 44.4127 167.51 44.186H164.552L163.192 49.082C162.693 49.15 162.104 49.2293 161.424 49.32C160.744 49.388 160.109 49.456 159.52 49.524C159.157 49.5693 158.794 49.6147 158.432 49.66C158.092 49.7053 157.74 49.7507 157.378 49.796L160.064 40.888C160.381 39.8227 160.744 38.61 161.152 37.25C161.56 35.89 161.968 34.496 162.376 33.068C162.806 31.64 163.203 30.3027 163.566 29.056C163.951 27.7867 164.257 26.7213 164.484 25.86C166.025 25.7467 167.589 25.6107 169.176 25.452C170.785 25.2933 172.349 25.078 173.868 24.806C173.754 26.0753 173.641 27.5147 173.528 29.124C173.437 30.7107 173.346 32.354 173.256 34.054C173.188 35.754 173.108 37.4313 173.018 39.086C172.972 40.65 172.916 42.2707 172.848 43.948C172.78 45.6027 172.712 47.3027 172.644 49.048C172.304 49.0933 171.964 49.1387 171.624 49.184C171.284 49.2293 170.944 49.2747 170.604 49.32C170.037 49.4107 169.414 49.5127 168.734 49.626C168.054 49.7393 167.442 49.8413 166.898 49.932ZM165.368 40.786C165.504 40.786 165.753 40.7747 166.116 40.752C166.501 40.7293 166.864 40.7067 167.204 40.684C167.544 40.6613 167.748 40.65 167.816 40.65C167.816 40.3553 167.861 39.7547 167.952 38.848C168.042 37.9413 168.133 36.9893 168.224 35.992C168.269 35.4027 168.314 34.802 168.36 34.19C168.428 33.5553 168.496 32.9093 168.564 32.252L168.768 29.294L168.258 29.328L167.476 32.252L165.368 40.786ZM173.209 50.068C173.458 48.2773 173.719 46.4753 173.991 44.662C174.285 42.8487 174.58 41.1033 174.875 39.426C175.192 37.726 175.487 36.196 175.759 34.836C176.053 33.3627 176.348 31.8667 176.643 30.348C176.937 28.8293 177.243 27.2993 177.561 25.758L183.511 24.976L181.743 32.66C181.425 33.9973 181.097 35.4367 180.757 36.978C180.439 38.4967 180.145 39.97 179.873 41.398C179.601 42.826 179.385 44.0953 179.227 45.206C179.793 45.1607 180.394 45.138 181.029 45.138C181.686 45.1153 182.264 45.104 182.763 45.104C182.785 45.6253 182.831 46.1807 182.899 46.77C182.967 47.3367 183.035 47.8353 183.103 48.266C183.193 48.674 183.239 48.9007 183.239 48.946C183.148 48.946 183.057 48.946 182.967 48.946C182.899 48.946 182.819 48.9347 182.729 48.912H182.185C181.301 48.912 180.315 48.9573 179.227 49.048C178.161 49.116 177.096 49.2407 176.031 49.422C174.988 49.5807 174.047 49.796 173.209 50.068ZM183.469 50.068C183.718 48.2773 183.979 46.4753 184.251 44.662C184.545 42.8487 184.84 41.1033 185.135 39.426C185.452 37.726 185.747 36.196 186.019 34.836C186.313 33.3627 186.608 31.8667 186.903 30.348C187.197 28.8293 187.503 27.2993 187.821 25.758L193.771 24.976L192.003 32.66C191.685 33.9973 191.357 35.4367 191.017 36.978C190.699 38.4967 190.405 39.97 190.133 41.398C189.861 42.826 189.645 44.0953 189.487 45.206C190.053 45.1607 190.654 45.138 191.289 45.138C191.946 45.1153 192.524 45.104 193.023 45.104C193.045 45.6253 193.091 46.1807 193.159 46.77C193.227 47.3367 193.295 47.8353 193.363 48.266C193.453 48.674 193.499 48.9007 193.499 48.946C193.408 48.946 193.317 48.946 193.227 48.946C193.159 48.946 193.079 48.9347 192.989 48.912H192.445C191.561 48.912 190.575 48.9573 189.487 49.048C188.421 49.116 187.356 49.2407 186.291 49.422C185.248 49.5807 184.307 49.796 183.469 50.068ZM193.592 50.034L198.046 25.86L208.79 24.942C208.632 25.4407 208.496 25.9507 208.382 26.472C208.269 26.9027 208.156 27.356 208.042 27.832C207.952 28.2853 207.872 28.6933 207.804 29.056C207.51 29.0787 207.09 29.1013 206.546 29.124C206.002 29.124 205.447 29.1353 204.88 29.158C204.314 29.158 203.826 29.158 203.418 29.158C203.01 29.158 202.795 29.158 202.772 29.158L201.582 35.244L203.554 35.142C203.804 35.1193 204.053 35.108 204.302 35.108C204.574 35.108 204.835 35.108 205.084 35.108C205.334 35.108 205.56 35.108 205.764 35.108C205.968 35.108 206.127 35.0967 206.24 35.074C206.195 35.3913 206.15 35.7087 206.104 36.026C206.082 36.3207 206.048 36.6267 206.002 36.944L205.696 38.814C205.583 38.8367 205.436 38.848 205.254 38.848C205.073 38.848 204.858 38.848 204.608 38.848C204.359 38.8707 204.098 38.882 203.826 38.882C203.554 38.882 203.294 38.8933 203.044 38.916C202.75 38.9387 202.444 38.95 202.126 38.95C201.809 38.95 201.469 38.9613 201.106 38.984L199.95 45.24L204.914 44.458L204.574 48.334L193.592 50.034ZM205.078 50.17C205.758 46.906 206.404 43.744 207.016 40.684C207.515 37.8053 208.002 35.04 208.478 32.388C208.954 29.736 209.294 27.2993 209.498 25.078C209.657 25.1007 209.793 25.112 209.906 25.112C210.042 25.112 210.156 25.112 210.246 25.112H210.96C211.55 25.112 212.207 25.1007 212.932 25.078C213.658 25.0327 214.326 24.9987 214.938 24.976C215.097 25.7693 215.244 26.5513 215.38 27.322C215.539 28.0927 215.675 28.8407 215.788 29.566C215.902 30.2007 216.026 30.858 216.162 31.538C216.298 32.1953 216.434 32.864 216.57 33.544C216.684 34.224 216.797 34.8587 216.91 35.448C217.046 36.0147 217.16 36.536 217.25 37.012C217.522 35.6747 217.772 34.36 217.998 33.068C218.248 31.776 218.486 30.6087 218.712 29.566L219.698 25.01L223.846 24.5C223.461 26.2227 223.098 27.9113 222.758 29.566C222.418 31.2207 222.101 32.8187 221.806 34.36C221.24 37.1253 220.741 39.732 220.31 42.18C219.88 44.628 219.551 46.7587 219.324 48.572C219.574 48.572 219.528 48.606 219.188 48.674C218.871 48.7193 218.395 48.7987 217.76 48.912C217.126 49.0027 216.446 49.1273 215.72 49.286C214.995 49.4447 214.349 49.6373 213.782 49.864C213.714 48.9573 213.646 48.0733 213.578 47.212C213.51 46.3507 213.431 45.512 213.34 44.696C213.204 43.2453 213.046 41.806 212.864 40.378C212.683 38.95 212.502 37.8167 212.32 36.978C212.162 37.9753 211.969 39.12 211.742 40.412C211.516 41.6813 211.266 42.962 210.994 44.254L210.042 49.014L205.078 50.17ZM227.863 50.816C227.025 50.816 226.22 50.6347 225.449 50.272C224.701 49.9093 224.055 49.354 223.511 48.606C222.945 47.8807 222.503 46.9627 222.185 45.852C221.868 44.7413 221.709 43.438 221.709 41.942C221.709 39.018 222.129 36.468 222.967 34.292C223.806 32.116 224.871 30.3027 226.163 28.852C227.433 27.4013 228.793 26.3247 230.243 25.622C231.717 24.9193 233.088 24.568 234.357 24.568C235.581 24.568 236.579 24.84 237.349 25.384C238.12 25.9053 238.687 26.608 239.049 27.492C239.412 28.376 239.593 29.362 239.593 30.45L234.935 31.334C234.731 30.4273 234.459 29.7813 234.119 29.396C233.779 29.0107 233.394 28.818 232.963 28.818C232.465 28.818 231.943 29.09 231.399 29.634C230.878 30.178 230.357 30.9147 229.835 31.844C229.337 32.7507 228.883 33.7707 228.475 34.904C228.067 36.0373 227.727 37.2047 227.455 38.406C227.206 39.6073 227.059 40.7407 227.013 41.806C227.013 43.2113 227.217 44.22 227.625 44.832C228.056 45.4213 228.6 45.716 229.257 45.716C229.892 45.716 230.515 45.512 231.127 45.104C231.762 44.696 232.283 44.152 232.691 43.472C233.122 42.7693 233.349 41.9873 233.371 41.126L229.733 41.67L230.379 38.304L233.507 37.896C234.369 37.7827 235.275 37.6467 236.227 37.488C237.202 37.3293 238.052 37.182 238.777 37.046C238.619 39.358 238.165 41.3867 237.417 43.132C236.692 44.8547 235.785 46.2827 234.697 47.416C233.609 48.5493 232.465 49.3993 231.263 49.966C230.085 50.5327 228.951 50.816 227.863 50.816ZM237.52 50.034L241.974 25.86L252.718 24.942C252.559 25.4407 252.423 25.9507 252.31 26.472C252.197 26.9027 252.083 27.356 251.97 27.832C251.879 28.2853 251.8 28.6933 251.732 29.056C251.437 29.0787 251.018 29.1013 250.474 29.124C249.93 29.124 249.375 29.1353 248.808 29.158C248.241 29.158 247.754 29.158 247.346 29.158C246.938 29.158 246.723 29.158 246.7 29.158L245.51 35.244L247.482 35.142C247.731 35.1193 247.981 35.108 248.23 35.108C248.502 35.108 248.763 35.108 249.012 35.108C249.261 35.108 249.488 35.108 249.692 35.108C249.896 35.108 250.055 35.0967 250.168 35.074C250.123 35.3913 250.077 35.7087 250.032 36.026C250.009 36.3207 249.975 36.6267 249.93 36.944L249.624 38.814C249.511 38.8367 249.363 38.848 249.182 38.848C249.001 38.848 248.785 38.848 248.536 38.848C248.287 38.8707 248.026 38.882 247.754 38.882C247.482 38.882 247.221 38.8933 246.972 38.916C246.677 38.9387 246.371 38.95 246.054 38.95C245.737 38.95 245.397 38.9613 245.034 38.984L243.878 45.24L248.842 44.458L248.502 48.334L237.52 50.034Z" fill="#001E45"/>
<path d="M22.1123 69.0469L24.2998 73.6885L26.501 69.0469H28.5654L25.2568 75.3564V79H23.3496V75.3564L20.0342 69.0469H22.1123ZM28.6543 75.377V75.2334C28.6543 74.6911 28.7318 74.1921 28.8867 73.7363C29.0417 73.276 29.2673 72.8773 29.5635 72.54C29.8597 72.2028 30.222 71.9408 30.6504 71.7539C31.0788 71.5625 31.5664 71.4668 32.1133 71.4668C32.6693 71.4668 33.1615 71.5625 33.5898 71.7539C34.0228 71.9408 34.3874 72.2028 34.6836 72.54C34.9798 72.8773 35.2054 73.276 35.3604 73.7363C35.5153 74.1921 35.5928 74.6911 35.5928 75.2334V75.377C35.5928 75.9147 35.5153 76.4137 35.3604 76.874C35.2054 77.3298 34.9798 77.7285 34.6836 78.0703C34.3874 78.4076 34.0251 78.6696 33.5967 78.8564C33.1683 79.0433 32.6784 79.1367 32.127 79.1367C31.5801 79.1367 31.0902 79.0433 30.6572 78.8564C30.2243 78.6696 29.8597 78.4076 29.5635 78.0703C29.2673 77.7285 29.0417 77.3298 28.8867 76.874C28.7318 76.4137 28.6543 75.9147 28.6543 75.377ZM30.459 75.2334V75.377C30.459 75.7005 30.4909 76.0036 30.5547 76.2861C30.6185 76.5687 30.7165 76.8171 30.8486 77.0312C30.9808 77.2454 31.1517 77.4141 31.3613 77.5371C31.5755 77.6556 31.8307 77.7148 32.127 77.7148C32.4186 77.7148 32.6693 77.6556 32.8789 77.5371C33.0885 77.4141 33.2594 77.2454 33.3916 77.0312C33.5283 76.8171 33.6286 76.5687 33.6924 76.2861C33.7562 76.0036 33.7881 75.7005 33.7881 75.377V75.2334C33.7881 74.9144 33.7562 74.6159 33.6924 74.3379C33.6286 74.0553 33.5283 73.807 33.3916 73.5928C33.2594 73.374 33.0863 73.2031 32.8721 73.0801C32.6624 72.9525 32.4095 72.8887 32.1133 72.8887C31.8216 72.8887 31.571 72.9525 31.3613 73.0801C31.1517 73.2031 30.9808 73.374 30.8486 73.5928C30.7165 73.807 30.6185 74.0553 30.5547 74.3379C30.4909 74.6159 30.459 74.9144 30.459 75.2334ZM41.3076 77.2432V71.6035H43.126V79H41.417L41.3076 77.2432ZM41.54 75.7119L42.1006 75.6982C42.1006 76.195 42.0459 76.653 41.9365 77.0723C41.8271 77.4915 41.6562 77.8561 41.4238 78.166C41.196 78.4714 40.9066 78.7106 40.5557 78.8838C40.2048 79.0524 39.79 79.1367 39.3115 79.1367C38.9469 79.1367 38.6143 79.0866 38.3135 78.9863C38.0127 78.8815 37.7529 78.7197 37.5342 78.501C37.32 78.2777 37.1536 77.9928 37.0352 77.6465C36.9167 77.2956 36.8574 76.874 36.8574 76.3818V71.6035H38.6621V76.3955C38.6621 76.6416 38.6895 76.8467 38.7441 77.0107C38.8034 77.1748 38.8831 77.3092 38.9834 77.4141C39.0882 77.5143 39.209 77.5872 39.3457 77.6328C39.487 77.6738 39.6374 77.6943 39.7969 77.6943C40.2344 77.6943 40.5785 77.6077 40.8291 77.4346C41.0843 77.2568 41.2666 77.0199 41.376 76.7236C41.4854 76.4229 41.54 76.0856 41.54 75.7119ZM52.915 71.6035H54.5557V78.7744C54.5557 79.4443 54.4098 80.0117 54.1182 80.4766C53.8311 80.946 53.4277 81.3014 52.9082 81.543C52.3887 81.7891 51.7848 81.9121 51.0967 81.9121C50.8005 81.9121 50.4792 81.8711 50.1328 81.7891C49.791 81.707 49.4606 81.5771 49.1416 81.3994C48.8271 81.2262 48.5651 81.0007 48.3555 80.7227L49.1689 79.6562C49.415 79.9434 49.693 80.1598 50.0029 80.3057C50.3128 80.4561 50.6478 80.5312 51.0078 80.5312C51.3724 80.5312 51.6823 80.4629 51.9375 80.3262C52.1973 80.194 52.3955 79.998 52.5322 79.7383C52.6735 79.4831 52.7441 79.1686 52.7441 78.7949V73.292L52.915 71.6035ZM47.918 75.3906V75.2471C47.918 74.682 47.9863 74.1693 48.123 73.709C48.2598 73.2441 48.4557 72.8454 48.7109 72.5127C48.9707 72.18 49.2829 71.9225 49.6475 71.7402C50.0166 71.5579 50.4313 71.4668 50.8916 71.4668C51.3792 71.4668 51.7894 71.5557 52.1221 71.7334C52.4593 71.9111 52.7373 72.1641 52.9561 72.4922C53.1794 72.8203 53.3525 73.21 53.4756 73.6611C53.6032 74.1077 53.7012 74.5999 53.7695 75.1377V75.5273C53.7057 76.0514 53.6032 76.5322 53.4619 76.9697C53.3252 77.4072 53.1429 77.79 52.915 78.1182C52.6872 78.4417 52.4046 78.6924 52.0674 78.8701C51.7301 79.0479 51.3337 79.1367 50.8779 79.1367C50.4222 79.1367 50.012 79.0433 49.6475 78.8564C49.2829 78.6696 48.9707 78.4076 48.7109 78.0703C48.4557 77.7331 48.2598 77.3366 48.123 76.8809C47.9863 76.4251 47.918 75.9284 47.918 75.3906ZM49.7227 75.2471V75.3906C49.7227 75.7096 49.7546 76.0081 49.8184 76.2861C49.8822 76.5641 49.9801 76.8102 50.1123 77.0244C50.2445 77.234 50.4108 77.3981 50.6113 77.5166C50.8118 77.6351 51.0511 77.6943 51.3291 77.6943C51.7028 77.6943 52.0081 77.6169 52.2451 77.4619C52.4867 77.3024 52.6689 77.0859 52.792 76.8125C52.9196 76.5345 53.0016 76.2223 53.0381 75.876V74.8027C53.0153 74.5293 52.9652 74.2764 52.8877 74.0439C52.8148 73.8115 52.7122 73.611 52.5801 73.4424C52.4479 73.2738 52.2793 73.1416 52.0742 73.0459C51.8691 72.9502 51.6253 72.9023 51.3428 72.9023C51.0693 72.9023 50.8301 72.9639 50.625 73.0869C50.4199 73.2054 50.2513 73.3717 50.1191 73.5859C49.987 73.8001 49.8867 74.0485 49.8184 74.3311C49.7546 74.6136 49.7227 74.9189 49.7227 75.2471ZM55.8613 75.377V75.2334C55.8613 74.6911 55.9388 74.1921 56.0938 73.7363C56.2487 73.276 56.4743 72.8773 56.7705 72.54C57.0667 72.2028 57.429 71.9408 57.8574 71.7539C58.2858 71.5625 58.7734 71.4668 59.3203 71.4668C59.8763 71.4668 60.3685 71.5625 60.7969 71.7539C61.2298 71.9408 61.5944 72.2028 61.8906 72.54C62.1868 72.8773 62.4124 73.276 62.5674 73.7363C62.7223 74.1921 62.7998 74.6911 62.7998 75.2334V75.377C62.7998 75.9147 62.7223 76.4137 62.5674 76.874C62.4124 77.3298 62.1868 77.7285 61.8906 78.0703C61.5944 78.4076 61.2321 78.6696 60.8037 78.8564C60.3753 79.0433 59.8854 79.1367 59.334 79.1367C58.7871 79.1367 58.2972 79.0433 57.8643 78.8564C57.4313 78.6696 57.0667 78.4076 56.7705 78.0703C56.4743 77.7285 56.2487 77.3298 56.0938 76.874C55.9388 76.4137 55.8613 75.9147 55.8613 75.377ZM57.666 75.2334V75.377C57.666 75.7005 57.6979 76.0036 57.7617 76.2861C57.8255 76.5687 57.9235 76.8171 58.0557 77.0312C58.1878 77.2454 58.3587 77.4141 58.5684 77.5371C58.7826 77.6556 59.0378 77.7148 59.334 77.7148C59.6257 77.7148 59.8763 77.6556 60.0859 77.5371C60.2956 77.4141 60.4665 77.2454 60.5986 77.0312C60.7354 76.8171 60.8356 76.5687 60.8994 76.2861C60.9632 76.0036 60.9951 75.7005 60.9951 75.377V75.2334C60.9951 74.9144 60.9632 74.6159 60.8994 74.3379C60.8356 74.0553 60.7354 73.807 60.5986 73.5928C60.4665 73.374 60.2933 73.2031 60.0791 73.0801C59.8695 72.9525 59.6165 72.8887 59.3203 72.8887C59.0286 72.8887 58.778 72.9525 58.5684 73.0801C58.3587 73.2031 58.1878 73.374 58.0557 73.5928C57.9235 73.807 57.8255 74.0553 57.7617 74.3379C57.6979 74.6159 57.666 74.9144 57.666 75.2334ZM67.6123 71.6035V72.9023H63.374V71.6035H67.6123ZM64.5088 69.7852H66.3203V76.8672C66.3203 77.0859 66.3499 77.2546 66.4092 77.373C66.4684 77.4915 66.5573 77.5713 66.6758 77.6123C66.7943 77.6533 66.9355 77.6738 67.0996 77.6738C67.2181 77.6738 67.3275 77.667 67.4277 77.6533C67.528 77.6396 67.6123 77.626 67.6807 77.6123L67.6875 78.9658C67.5371 79.016 67.3662 79.057 67.1748 79.0889C66.988 79.1208 66.776 79.1367 66.5391 79.1367C66.1335 79.1367 65.778 79.0684 65.4727 78.9316C65.1673 78.7904 64.9303 78.5648 64.7617 78.2549C64.5931 77.9404 64.5088 77.5257 64.5088 77.0107V69.7852ZM75.8018 71.6035V72.9023H71.5635V71.6035H75.8018ZM72.6982 69.7852H74.5098V76.8672C74.5098 77.0859 74.5394 77.2546 74.5986 77.373C74.6579 77.4915 74.7467 77.5713 74.8652 77.6123C74.9837 77.6533 75.125 77.6738 75.2891 77.6738C75.4076 77.6738 75.5169 77.667 75.6172 77.6533C75.7174 77.6396 75.8018 77.626 75.8701 77.6123L75.877 78.9658C75.7266 79.016 75.5557 79.057 75.3643 79.0889C75.1774 79.1208 74.9655 79.1367 74.7285 79.1367C74.3229 79.1367 73.9674 79.0684 73.6621 78.9316C73.3568 78.7904 73.1198 78.5648 72.9512 78.2549C72.7826 77.9404 72.6982 77.5257 72.6982 77.0107V69.7852ZM78.7754 68.5V79H76.9639V68.5H78.7754ZM78.4883 75.0352H77.9551C77.9551 74.5202 78.0234 74.0462 78.1602 73.6133C78.2969 73.1803 78.4906 72.8044 78.7412 72.4854C78.9919 72.1618 79.2904 71.9111 79.6367 71.7334C79.9876 71.5557 80.375 71.4668 80.7988 71.4668C81.1634 71.4668 81.4938 71.5192 81.79 71.624C82.0908 71.7243 82.3483 71.8861 82.5625 72.1094C82.7767 72.3327 82.9408 72.6243 83.0547 72.9844C83.1732 73.3398 83.2324 73.7728 83.2324 74.2832V79H81.4141V74.2695C81.4141 73.9277 81.3639 73.6589 81.2637 73.4629C81.1634 73.2624 81.0199 73.1188 80.833 73.0322C80.6507 72.9456 80.4251 72.9023 80.1562 72.9023C79.8646 72.9023 79.6139 72.9593 79.4043 73.0732C79.1947 73.1826 79.0215 73.3353 78.8848 73.5312C78.7526 73.7272 78.6523 73.9528 78.584 74.208C78.5202 74.4632 78.4883 74.7389 78.4883 75.0352ZM86.7393 71.6035V79H84.9277V71.6035H86.7393ZM84.8047 69.6689C84.8047 69.4001 84.8958 69.1768 85.0781 68.999C85.265 68.8213 85.5156 68.7324 85.8301 68.7324C86.1445 68.7324 86.3929 68.8213 86.5752 68.999C86.762 69.1768 86.8555 69.4001 86.8555 69.6689C86.8555 69.9333 86.762 70.1543 86.5752 70.332C86.3929 70.5098 86.1445 70.5986 85.8301 70.5986C85.5156 70.5986 85.265 70.5098 85.0781 70.332C84.8958 70.1543 84.8047 69.9333 84.8047 69.6689ZM92.5293 76.9766C92.5293 76.8216 92.4883 76.6826 92.4062 76.5596C92.3242 76.4365 92.1693 76.3249 91.9414 76.2246C91.7181 76.1198 91.39 76.0218 90.957 75.9307C90.5742 75.8486 90.221 75.7461 89.8975 75.623C89.5739 75.5 89.2959 75.3519 89.0635 75.1787C88.8311 75.001 88.6488 74.7936 88.5166 74.5566C88.389 74.3151 88.3252 74.0371 88.3252 73.7227C88.3252 73.4173 88.3913 73.1302 88.5234 72.8613C88.6556 72.5879 88.847 72.3486 89.0977 72.1436C89.3483 71.9339 89.6536 71.7699 90.0137 71.6514C90.3737 71.5283 90.7793 71.4668 91.2305 71.4668C91.8594 71.4668 92.3994 71.5693 92.8506 71.7744C93.3063 71.9795 93.6549 72.262 93.8965 72.6221C94.138 72.9775 94.2588 73.3786 94.2588 73.8252H92.4541C92.4541 73.6292 92.4085 73.4515 92.3174 73.292C92.2308 73.1325 92.0964 73.0049 91.9141 72.9092C91.7318 72.8089 91.5016 72.7588 91.2236 72.7588C90.973 72.7588 90.7611 72.7998 90.5879 72.8818C90.4193 72.9639 90.2917 73.071 90.2051 73.2031C90.1185 73.3353 90.0752 73.4811 90.0752 73.6406C90.0752 73.7591 90.098 73.8662 90.1436 73.9619C90.1937 74.0531 90.2734 74.1374 90.3828 74.2148C90.4922 74.2923 90.6403 74.363 90.8271 74.4268C91.0186 74.4906 91.2533 74.5521 91.5312 74.6113C92.0827 74.7207 92.5635 74.8665 92.9736 75.0488C93.3883 75.2266 93.7119 75.4635 93.9443 75.7598C94.1768 76.056 94.293 76.4342 94.293 76.8945C94.293 77.2227 94.2223 77.5234 94.0811 77.7969C93.9398 78.0658 93.7347 78.3005 93.4658 78.501C93.1969 78.7015 92.8757 78.8587 92.502 78.9727C92.1283 79.082 91.7067 79.1367 91.2373 79.1367C90.5583 79.1367 89.984 79.016 89.5146 78.7744C89.0452 78.5283 88.6898 78.2184 88.4482 77.8447C88.2067 77.4665 88.0859 77.0745 88.0859 76.6689H89.8154C89.8291 76.9561 89.9066 77.1862 90.0479 77.3594C90.1891 77.5326 90.3669 77.6579 90.5811 77.7354C90.7998 77.8083 91.0299 77.8447 91.2715 77.8447C91.5449 77.8447 91.7751 77.8083 91.9619 77.7354C92.1488 77.6579 92.29 77.5553 92.3857 77.4277C92.4814 77.2956 92.5293 77.1452 92.5293 76.9766Z" fill="#3E4347"/>
</g>
<defs>
<filter id="filter0_d_210_14141" x="0" y="0" width="422" height="106" filterUnits="userSpaceOnUse" color-interpolation-filters="sRGB">
<feFlood flood-opacity="0" result="BackgroundImageFix"/>
<feColorMatrix in="SourceAlpha" type="matrix" values="0 0 0 0 0 0 0 0 0 0 0 0 0 0 0 0 0 0 127 0" result="hardAlpha"/>
<feOffset dx="4" dy="4"/>
<feComposite in2="hardAlpha" operator="out"/>
<feColorMatrix type="matrix" values="0 0 0 0 0.149969 0 0 0 0 0.440422 0 0 0 0 0.818012 0 0 0 1 0"/>
<feBlend mode="normal" in2="BackgroundImageFix" result="effect1_dropShadow_210_14141"/>
<feBlend mode="normal" in="SourceGraphic" in2="effect1_dropShadow_210_14141" result="shape"/>
</filter>
</defs>
</svg>
