<svg width="138" height="40" viewBox="0 0 138 40" fill="none" xmlns="http://www.w3.org/2000/svg">
<rect width="138" height="40" rx="20" fill="#E1306C"/>
<path fill-rule="evenodd" clip-rule="evenodd" d="M24 8C21.7909 8 20 9.79086 20 12V28C20 30.2091 21.7909 32 24 32H40C42.2091 32 44 30.2091 44 28V12C44 9.79086 42.2091 8 40 8H24ZM39.2 13.9999C39.8627 13.9999 40.4 13.4626 40.4 12.7999C40.4 12.1371 39.8627 11.5999 39.2 11.5999C38.5373 11.5999 38 12.1371 38 12.7999C38 13.4626 38.5373 13.9999 39.2 13.9999ZM38 20C38 23.3137 35.3137 26 32 26C28.6863 26 26 23.3137 26 20C26 16.6863 28.6863 14 32 14C35.3137 14 38 16.6863 38 20ZM32.0001 23.6001C33.9884 23.6001 35.6001 21.9884 35.6001 20.0001C35.6001 18.0119 33.9884 16.4001 32.0001 16.4001C30.0119 16.4001 28.4001 18.0119 28.4001 20.0001C28.4001 21.9884 30.0119 23.6001 32.0001 23.6001Z" fill="white"/>
<path d="M56.9531 15.0469V25H55.0732V15.0469H56.9531ZM60.6172 19.1826V25H58.8125V17.6035H60.5078L60.6172 19.1826ZM60.3301 21.0352H59.7969C59.8014 20.4974 59.8743 20.0098 60.0156 19.5723C60.1569 19.1348 60.3551 18.7588 60.6104 18.4443C60.8701 18.1299 61.1777 17.8883 61.5332 17.7197C61.8887 17.5511 62.2852 17.4668 62.7227 17.4668C63.0781 17.4668 63.3994 17.5169 63.6865 17.6172C63.9736 17.7174 64.2197 17.877 64.4248 18.0957C64.6344 18.3145 64.7939 18.6016 64.9033 18.957C65.0173 19.3079 65.0742 19.7409 65.0742 20.2559V25H63.2559V20.2422C63.2559 19.9049 63.2057 19.6383 63.1055 19.4424C63.0098 19.2464 62.8685 19.1074 62.6816 19.0254C62.4993 18.9434 62.2738 18.9023 62.0049 18.9023C61.7269 18.9023 61.4831 18.9593 61.2734 19.0732C61.0684 19.1826 60.8952 19.3353 60.7539 19.5312C60.6172 19.7272 60.5124 19.9528 60.4395 20.208C60.3665 20.4632 60.3301 20.7389 60.3301 21.0352ZM70.7344 22.9766C70.7344 22.8216 70.6934 22.6826 70.6113 22.5596C70.5293 22.4365 70.3743 22.3249 70.1465 22.2246C69.9232 22.1198 69.5951 22.0218 69.1621 21.9307C68.7793 21.8486 68.4261 21.7461 68.1025 21.623C67.779 21.5 67.501 21.3519 67.2686 21.1787C67.0361 21.001 66.8538 20.7936 66.7217 20.5566C66.5941 20.3151 66.5303 20.0371 66.5303 19.7227C66.5303 19.4173 66.5964 19.1302 66.7285 18.8613C66.8607 18.5879 67.0521 18.3486 67.3027 18.1436C67.5534 17.9339 67.8587 17.7699 68.2188 17.6514C68.5788 17.5283 68.9844 17.4668 69.4355 17.4668C70.0645 17.4668 70.6045 17.5693 71.0557 17.7744C71.5114 17.9795 71.86 18.262 72.1016 18.6221C72.3431 18.9775 72.4639 19.3786 72.4639 19.8252H70.6592C70.6592 19.6292 70.6136 19.4515 70.5225 19.292C70.4359 19.1325 70.3014 19.0049 70.1191 18.9092C69.9368 18.8089 69.7067 18.7588 69.4287 18.7588C69.1781 18.7588 68.9661 18.7998 68.793 18.8818C68.6243 18.9639 68.4967 19.071 68.4102 19.2031C68.3236 19.3353 68.2803 19.4811 68.2803 19.6406C68.2803 19.7591 68.3031 19.8662 68.3486 19.9619C68.3988 20.0531 68.4785 20.1374 68.5879 20.2148C68.6973 20.2923 68.8454 20.363 69.0322 20.4268C69.2236 20.4906 69.4583 20.5521 69.7363 20.6113C70.2878 20.7207 70.7686 20.8665 71.1787 21.0488C71.5934 21.2266 71.917 21.4635 72.1494 21.7598C72.3818 22.056 72.498 22.4342 72.498 22.8945C72.498 23.2227 72.4274 23.5234 72.2861 23.7969C72.1449 24.0658 71.9398 24.3005 71.6709 24.501C71.402 24.7015 71.0807 24.8587 70.707 24.9727C70.3333 25.082 69.9118 25.1367 69.4424 25.1367C68.7633 25.1367 68.1891 25.016 67.7197 24.7744C67.2503 24.5283 66.8949 24.2184 66.6533 23.8447C66.4118 23.4665 66.291 23.0745 66.291 22.6689H68.0205C68.0342 22.9561 68.1117 23.1862 68.2529 23.3594C68.3942 23.5326 68.5719 23.6579 68.7861 23.7354C69.0049 23.8083 69.235 23.8447 69.4766 23.8447C69.75 23.8447 69.9801 23.8083 70.167 23.7354C70.3538 23.6579 70.4951 23.5553 70.5908 23.4277C70.6865 23.2956 70.7344 23.1452 70.7344 22.9766ZM77.3721 17.6035V18.9023H73.1338V17.6035H77.3721ZM74.2686 15.7852H76.0801V22.8672C76.0801 23.0859 76.1097 23.2546 76.1689 23.373C76.2282 23.4915 76.3171 23.5713 76.4355 23.6123C76.554 23.6533 76.6953 23.6738 76.8594 23.6738C76.9779 23.6738 77.0872 23.667 77.1875 23.6533C77.2878 23.6396 77.3721 23.626 77.4404 23.6123L77.4473 24.9658C77.2969 25.016 77.126 25.057 76.9346 25.0889C76.7477 25.1208 76.5358 25.1367 76.2988 25.1367C75.8932 25.1367 75.5378 25.0684 75.2324 24.9316C74.9271 24.7904 74.6901 24.5648 74.5215 24.2549C74.3529 23.9404 74.2686 23.5257 74.2686 23.0107V15.7852ZM82.6494 23.4277V20.0166C82.6494 19.766 82.6061 19.5495 82.5195 19.3672C82.4329 19.1849 82.3008 19.0436 82.123 18.9434C81.9453 18.8431 81.7197 18.793 81.4463 18.793C81.2048 18.793 80.9928 18.834 80.8105 18.916C80.6328 18.998 80.4961 19.1143 80.4004 19.2646C80.3047 19.4105 80.2568 19.5791 80.2568 19.7705H78.4453C78.4453 19.4652 78.5182 19.1758 78.6641 18.9023C78.8099 18.6243 79.0173 18.3783 79.2861 18.1641C79.5596 17.9453 79.8854 17.7744 80.2637 17.6514C80.6465 17.5283 81.0749 17.4668 81.5488 17.4668C82.1094 17.4668 82.6084 17.5625 83.0459 17.7539C83.488 17.9408 83.8343 18.2233 84.085 18.6016C84.3402 18.9798 84.4678 19.4561 84.4678 20.0303V23.2568C84.4678 23.626 84.4906 23.9427 84.5361 24.207C84.5863 24.4668 84.6592 24.6924 84.7549 24.8838V25H82.916C82.8294 24.8132 82.7633 24.5762 82.7178 24.2891C82.6722 23.9974 82.6494 23.7103 82.6494 23.4277ZM82.9023 20.4951L82.916 21.5684H81.7744C81.4919 21.5684 81.2435 21.598 81.0293 21.6572C80.8151 21.7119 80.6396 21.7939 80.5029 21.9033C80.3662 22.0081 80.2637 22.1357 80.1953 22.2861C80.127 22.432 80.0928 22.5983 80.0928 22.7852C80.0928 22.9674 80.1338 23.1315 80.2158 23.2773C80.3024 23.4232 80.4255 23.5394 80.585 23.626C80.749 23.708 80.9404 23.749 81.1592 23.749C81.4782 23.749 81.7562 23.6852 81.9932 23.5576C82.2301 23.4255 82.4147 23.266 82.5469 23.0791C82.679 22.8923 82.7497 22.7145 82.7588 22.5459L83.2783 23.3252C83.2145 23.512 83.1188 23.7103 82.9912 23.9199C82.8636 24.1296 82.6995 24.3255 82.499 24.5078C82.2985 24.6901 82.057 24.8405 81.7744 24.959C81.4919 25.0775 81.1637 25.1367 80.79 25.1367C80.3115 25.1367 79.8831 25.041 79.5049 24.8496C79.1266 24.6582 78.8281 24.3962 78.6094 24.0635C78.3906 23.7308 78.2812 23.3525 78.2812 22.9287C78.2812 22.5368 78.3542 22.1904 78.5 21.8896C78.6458 21.5889 78.8623 21.3359 79.1494 21.1309C79.4365 20.9212 79.792 20.764 80.2158 20.6592C80.6442 20.5498 81.1341 20.4951 81.6855 20.4951H82.9023ZM90.7979 17.6035H92.4385V24.7744C92.4385 25.4443 92.2926 26.0117 92.001 26.4766C91.7139 26.946 91.3105 27.3014 90.791 27.543C90.2715 27.7891 89.6676 27.9121 88.9795 27.9121C88.6833 27.9121 88.362 27.8711 88.0156 27.7891C87.6738 27.707 87.3434 27.5771 87.0244 27.3994C86.71 27.2262 86.4479 27.0007 86.2383 26.7227L87.0518 25.6562C87.2979 25.9434 87.5758 26.1598 87.8857 26.3057C88.1956 26.4561 88.5306 26.5312 88.8906 26.5312C89.2552 26.5312 89.5651 26.4629 89.8203 26.3262C90.0801 26.194 90.2783 25.998 90.415 25.7383C90.5563 25.4831 90.627 25.1686 90.627 24.7949V19.292L90.7979 17.6035ZM85.8008 21.3906V21.2471C85.8008 20.682 85.8691 20.1693 86.0059 19.709C86.1426 19.2441 86.3385 18.8454 86.5938 18.5127C86.8535 18.18 87.1657 17.9225 87.5303 17.7402C87.8994 17.5579 88.3141 17.4668 88.7744 17.4668C89.262 17.4668 89.6722 17.5557 90.0049 17.7334C90.3421 17.9111 90.6201 18.1641 90.8389 18.4922C91.0622 18.8203 91.2354 19.21 91.3584 19.6611C91.486 20.1077 91.584 20.5999 91.6523 21.1377V21.5273C91.5885 22.0514 91.486 22.5322 91.3447 22.9697C91.208 23.4072 91.0257 23.79 90.7979 24.1182C90.57 24.4417 90.2874 24.6924 89.9502 24.8701C89.613 25.0479 89.2165 25.1367 88.7607 25.1367C88.305 25.1367 87.8949 25.0433 87.5303 24.8564C87.1657 24.6696 86.8535 24.4076 86.5938 24.0703C86.3385 23.7331 86.1426 23.3366 86.0059 22.8809C85.8691 22.4251 85.8008 21.9284 85.8008 21.3906ZM87.6055 21.2471V21.3906C87.6055 21.7096 87.6374 22.0081 87.7012 22.2861C87.765 22.5641 87.863 22.8102 87.9951 23.0244C88.1273 23.234 88.2936 23.3981 88.4941 23.5166C88.6947 23.6351 88.9339 23.6943 89.2119 23.6943C89.5856 23.6943 89.891 23.6169 90.1279 23.4619C90.3695 23.3024 90.5518 23.0859 90.6748 22.8125C90.8024 22.5345 90.8844 22.2223 90.9209 21.876V20.8027C90.8981 20.5293 90.848 20.2764 90.7705 20.0439C90.6976 19.8115 90.5951 19.611 90.4629 19.4424C90.3307 19.2738 90.1621 19.1416 89.957 19.0459C89.752 18.9502 89.5081 18.9023 89.2256 18.9023C88.9521 18.9023 88.7129 18.9639 88.5078 19.0869C88.3027 19.2054 88.1341 19.3717 88.002 19.5859C87.8698 19.8001 87.7695 20.0485 87.7012 20.3311C87.6374 20.6136 87.6055 20.9189 87.6055 21.2471ZM95.8701 19.1143V25H94.0654V17.6035H95.7744L95.8701 19.1143ZM98.1191 17.5557L98.0918 19.2373C97.9915 19.2191 97.8776 19.2054 97.75 19.1963C97.627 19.1872 97.5107 19.1826 97.4014 19.1826C97.1234 19.1826 96.8796 19.2214 96.6699 19.2988C96.4603 19.3717 96.2848 19.4788 96.1436 19.6201C96.0068 19.7614 95.902 19.9346 95.8291 20.1396C95.7562 20.3402 95.7152 20.568 95.7061 20.8232L95.3164 20.7754C95.3164 20.306 95.3643 19.8708 95.46 19.4697C95.5557 19.0687 95.6947 18.7178 95.877 18.417C96.0592 18.1162 96.2871 17.8838 96.5605 17.7197C96.8385 17.5511 97.1576 17.4668 97.5176 17.4668C97.6178 17.4668 97.7249 17.4759 97.8389 17.4941C97.9574 17.5078 98.0508 17.5283 98.1191 17.5557ZM102.952 23.4277V20.0166C102.952 19.766 102.909 19.5495 102.822 19.3672C102.736 19.1849 102.604 19.0436 102.426 18.9434C102.248 18.8431 102.022 18.793 101.749 18.793C101.507 18.793 101.296 18.834 101.113 18.916C100.936 18.998 100.799 19.1143 100.703 19.2646C100.607 19.4105 100.56 19.5791 100.56 19.7705H98.748C98.748 19.4652 98.821 19.1758 98.9668 18.9023C99.1126 18.6243 99.32 18.3783 99.5889 18.1641C99.8623 17.9453 100.188 17.7744 100.566 17.6514C100.949 17.5283 101.378 17.4668 101.852 17.4668C102.412 17.4668 102.911 17.5625 103.349 17.7539C103.791 17.9408 104.137 18.2233 104.388 18.6016C104.643 18.9798 104.771 19.4561 104.771 20.0303V23.2568C104.771 23.626 104.793 23.9427 104.839 24.207C104.889 24.4668 104.962 24.6924 105.058 24.8838V25H103.219C103.132 24.8132 103.066 24.5762 103.021 24.2891C102.975 23.9974 102.952 23.7103 102.952 23.4277ZM103.205 20.4951L103.219 21.5684H102.077C101.795 21.5684 101.546 21.598 101.332 21.6572C101.118 21.7119 100.942 21.7939 100.806 21.9033C100.669 22.0081 100.566 22.1357 100.498 22.2861C100.43 22.432 100.396 22.5983 100.396 22.7852C100.396 22.9674 100.437 23.1315 100.519 23.2773C100.605 23.4232 100.728 23.5394 100.888 23.626C101.052 23.708 101.243 23.749 101.462 23.749C101.781 23.749 102.059 23.6852 102.296 23.5576C102.533 23.4255 102.717 23.266 102.85 23.0791C102.982 22.8923 103.052 22.7145 103.062 22.5459L103.581 23.3252C103.517 23.512 103.422 23.7103 103.294 23.9199C103.166 24.1296 103.002 24.3255 102.802 24.5078C102.601 24.6901 102.36 24.8405 102.077 24.959C101.795 25.0775 101.466 25.1367 101.093 25.1367C100.614 25.1367 100.186 25.041 99.8076 24.8496C99.4294 24.6582 99.1309 24.3962 98.9121 24.0635C98.6934 23.7308 98.584 23.3525 98.584 22.9287C98.584 22.5368 98.6569 22.1904 98.8027 21.8896C98.9486 21.5889 99.165 21.3359 99.4521 21.1309C99.7393 20.9212 100.095 20.764 100.519 20.6592C100.947 20.5498 101.437 20.4951 101.988 20.4951H103.205ZM108.195 19.1211V25H106.391V17.6035H108.093L108.195 19.1211ZM107.929 21.0352H107.375C107.375 20.5202 107.437 20.0462 107.56 19.6133C107.687 19.1803 107.874 18.8044 108.12 18.4854C108.366 18.1618 108.669 17.9111 109.029 17.7334C109.394 17.5557 109.815 17.4668 110.294 17.4668C110.627 17.4668 110.932 17.5169 111.21 17.6172C111.488 17.7129 111.727 17.8656 111.928 18.0752C112.133 18.2803 112.29 18.5492 112.399 18.8818C112.509 19.21 112.563 19.6042 112.563 20.0645V25H110.759V20.249C110.759 19.9027 110.709 19.6315 110.608 19.4355C110.513 19.2396 110.374 19.1029 110.191 19.0254C110.009 18.9434 109.79 18.9023 109.535 18.9023C109.253 18.9023 109.009 18.9593 108.804 19.0732C108.603 19.1826 108.437 19.3353 108.305 19.5312C108.177 19.7272 108.081 19.9528 108.018 20.208C107.958 20.4632 107.929 20.7389 107.929 21.0352ZM112.427 20.7002L111.682 20.8369C111.686 20.3721 111.75 19.9368 111.873 19.5312C111.996 19.1211 112.176 18.7633 112.413 18.458C112.655 18.1481 112.953 17.9066 113.309 17.7334C113.669 17.5557 114.083 17.4668 114.553 17.4668C114.917 17.4668 115.245 17.5192 115.537 17.624C115.833 17.7243 116.086 17.8861 116.296 18.1094C116.506 18.3281 116.665 18.613 116.774 18.9639C116.888 19.3148 116.945 19.7432 116.945 20.249V25H115.127V20.2422C115.127 19.8822 115.077 19.6064 114.977 19.415C114.881 19.2236 114.742 19.0915 114.56 19.0186C114.377 18.9411 114.163 18.9023 113.917 18.9023C113.666 18.9023 113.448 18.9502 113.261 19.0459C113.078 19.137 112.924 19.2646 112.796 19.4287C112.673 19.5928 112.579 19.7842 112.516 20.0029C112.456 20.2171 112.427 20.4495 112.427 20.7002Z" fill="white"/>
</svg>
