<svg width="50" height="50" viewBox="0 0 50 50" fill="none" xmlns="http://www.w3.org/2000/svg">
<rect width="50" height="50" rx="25" fill="#E7992A" fill-opacity="0.1"/>
<path d="M23.0328 16.2714C23.8375 14.5762 26.1625 14.5762 26.9672 16.2714L28.3579 19.2012C28.6774 19.8743 29.2951 20.3409 30.0096 20.4489L33.1193 20.9187C34.9187 21.1905 35.6371 23.4895 34.3351 24.8091L32.0849 27.0896C31.5679 27.6136 31.332 28.3685 31.454 29.1084L31.9852 32.3285C32.2926 34.1918 30.4116 35.6126 28.8022 34.7329L26.0208 33.2126C25.3817 32.8633 24.6183 32.8633 23.9792 33.2126L21.1978 34.7329C19.5884 35.6126 17.7074 34.1918 18.0148 32.3286L18.546 29.1084C18.668 28.3685 18.4321 27.6136 17.9151 27.0896L15.6649 24.8091C14.3629 23.4895 15.0813 21.1905 16.8807 20.9187L19.9904 20.4489C20.7049 20.3409 21.3226 19.8743 21.6421 19.2012L23.0328 16.2714Z" fill="#E7992A"/>
</svg>
