<svg width="126" height="40" viewBox="0 0 126 40" fill="none" xmlns="http://www.w3.org/2000/svg">
<rect width="126" height="40" rx="20" fill="#FF0000"/>
<path fill-rule="evenodd" clip-rule="evenodd" d="M25.1401 11C22.931 11 21.1401 12.7909 21.1401 15V25C21.1401 27.2091 22.931 29 25.1401 29H38.86C41.0691 29 42.86 27.2091 42.86 25V15C42.86 12.7909 41.0691 11 38.86 11H25.1401ZM35.2112 19.1056L30.4473 16.7236C29.7824 16.3912 29.0001 16.8747 29.0001 17.618V22.382C29.0001 23.1253 29.7824 23.6088 30.4473 23.2764L35.2112 20.8944C35.9483 20.5259 35.9483 19.4741 35.2112 19.1056Z" fill="white"/>
<path d="M56.1123 15.0469L58.2998 19.6885L60.501 15.0469H62.5654L59.2568 21.3564V25H57.3496V21.3564L54.0342 15.0469H56.1123ZM62.6543 21.377V21.2334C62.6543 20.6911 62.7318 20.1921 62.8867 19.7363C63.0417 19.276 63.2673 18.8773 63.5635 18.54C63.8597 18.2028 64.222 17.9408 64.6504 17.7539C65.0788 17.5625 65.5664 17.4668 66.1133 17.4668C66.6693 17.4668 67.1615 17.5625 67.5898 17.7539C68.0228 17.9408 68.3874 18.2028 68.6836 18.54C68.9798 18.8773 69.2054 19.276 69.3604 19.7363C69.5153 20.1921 69.5928 20.6911 69.5928 21.2334V21.377C69.5928 21.9147 69.5153 22.4137 69.3604 22.874C69.2054 23.3298 68.9798 23.7285 68.6836 24.0703C68.3874 24.4076 68.0251 24.6696 67.5967 24.8564C67.1683 25.0433 66.6784 25.1367 66.127 25.1367C65.5801 25.1367 65.0902 25.0433 64.6572 24.8564C64.2243 24.6696 63.8597 24.4076 63.5635 24.0703C63.2673 23.7285 63.0417 23.3298 62.8867 22.874C62.7318 22.4137 62.6543 21.9147 62.6543 21.377ZM64.459 21.2334V21.377C64.459 21.7005 64.4909 22.0036 64.5547 22.2861C64.6185 22.5687 64.7165 22.8171 64.8486 23.0312C64.9808 23.2454 65.1517 23.4141 65.3613 23.5371C65.5755 23.6556 65.8307 23.7148 66.127 23.7148C66.4186 23.7148 66.6693 23.6556 66.8789 23.5371C67.0885 23.4141 67.2594 23.2454 67.3916 23.0312C67.5283 22.8171 67.6286 22.5687 67.6924 22.2861C67.7562 22.0036 67.7881 21.7005 67.7881 21.377V21.2334C67.7881 20.9144 67.7562 20.6159 67.6924 20.3379C67.6286 20.0553 67.5283 19.807 67.3916 19.5928C67.2594 19.374 67.0863 19.2031 66.8721 19.0801C66.6624 18.9525 66.4095 18.8887 66.1133 18.8887C65.8216 18.8887 65.571 18.9525 65.3613 19.0801C65.1517 19.2031 64.9808 19.374 64.8486 19.5928C64.7165 19.807 64.6185 20.0553 64.5547 20.3379C64.4909 20.6159 64.459 20.9144 64.459 21.2334ZM75.3076 23.2432V17.6035H77.126V25H75.417L75.3076 23.2432ZM75.54 21.7119L76.1006 21.6982C76.1006 22.195 76.0459 22.653 75.9365 23.0723C75.8271 23.4915 75.6562 23.8561 75.4238 24.166C75.196 24.4714 74.9066 24.7106 74.5557 24.8838C74.2048 25.0524 73.79 25.1367 73.3115 25.1367C72.9469 25.1367 72.6143 25.0866 72.3135 24.9863C72.0127 24.8815 71.7529 24.7197 71.5342 24.501C71.32 24.2777 71.1536 23.9928 71.0352 23.6465C70.9167 23.2956 70.8574 22.874 70.8574 22.3818V17.6035H72.6621V22.3955C72.6621 22.6416 72.6895 22.8467 72.7441 23.0107C72.8034 23.1748 72.8831 23.3092 72.9834 23.4141C73.0882 23.5143 73.209 23.5872 73.3457 23.6328C73.487 23.6738 73.6374 23.6943 73.7969 23.6943C74.2344 23.6943 74.5785 23.6077 74.8291 23.4346C75.0843 23.2568 75.2666 23.0199 75.376 22.7236C75.4854 22.4229 75.54 22.0856 75.54 21.7119ZM82.2256 17.6035V18.9023H77.9873V17.6035H82.2256ZM79.1221 15.7852H80.9336V22.8672C80.9336 23.0859 80.9632 23.2546 81.0225 23.373C81.0817 23.4915 81.1706 23.5713 81.2891 23.6123C81.4076 23.6533 81.5488 23.6738 81.7129 23.6738C81.8314 23.6738 81.9408 23.667 82.041 23.6533C82.1413 23.6396 82.2256 23.626 82.2939 23.6123L82.3008 24.9658C82.1504 25.016 81.9795 25.057 81.7881 25.0889C81.6012 25.1208 81.3893 25.1367 81.1523 25.1367C80.7467 25.1367 80.3913 25.0684 80.0859 24.9316C79.7806 24.7904 79.5436 24.5648 79.375 24.2549C79.2064 23.9404 79.1221 23.5257 79.1221 23.0107V15.7852ZM87.8311 23.2432V17.6035H89.6494V25H87.9404L87.8311 23.2432ZM88.0635 21.7119L88.624 21.6982C88.624 22.195 88.5693 22.653 88.46 23.0723C88.3506 23.4915 88.1797 23.8561 87.9473 24.166C87.7194 24.4714 87.43 24.7106 87.0791 24.8838C86.7282 25.0524 86.3135 25.1367 85.835 25.1367C85.4704 25.1367 85.1377 25.0866 84.8369 24.9863C84.5361 24.8815 84.2764 24.7197 84.0576 24.501C83.8434 24.2777 83.6771 23.9928 83.5586 23.6465C83.4401 23.2956 83.3809 22.874 83.3809 22.3818V17.6035H85.1855V22.3955C85.1855 22.6416 85.2129 22.8467 85.2676 23.0107C85.3268 23.1748 85.4066 23.3092 85.5068 23.4141C85.6117 23.5143 85.7324 23.5872 85.8691 23.6328C86.0104 23.6738 86.1608 23.6943 86.3203 23.6943C86.7578 23.6943 87.1019 23.6077 87.3525 23.4346C87.6077 23.2568 87.79 23.0199 87.8994 22.7236C88.0088 22.4229 88.0635 22.0856 88.0635 21.7119ZM91.2422 14.5H93.0537V23.3662L92.876 25H91.2422V14.5ZM97.8115 21.2266V21.3701C97.8115 21.9215 97.75 22.4274 97.627 22.8877C97.5085 23.348 97.3285 23.7467 97.0869 24.084C96.8454 24.4167 96.5446 24.6764 96.1846 24.8633C95.8291 25.0456 95.4121 25.1367 94.9336 25.1367C94.4779 25.1367 94.0814 25.0479 93.7441 24.8701C93.4115 24.6924 93.1312 24.4417 92.9033 24.1182C92.6755 23.79 92.4932 23.4049 92.3564 22.9629C92.2197 22.5163 92.1172 22.0286 92.0488 21.5V21.1104C92.1172 20.5771 92.2197 20.0895 92.3564 19.6475C92.4932 19.2054 92.6755 18.8203 92.9033 18.4922C93.1312 18.1641 93.4115 17.9111 93.7441 17.7334C94.0768 17.5557 94.4688 17.4668 94.9199 17.4668C95.403 17.4668 95.8245 17.5602 96.1846 17.7471C96.5492 17.9294 96.8499 18.1891 97.0869 18.5264C97.3285 18.859 97.5085 19.2555 97.627 19.7158C97.75 20.1715 97.8115 20.6751 97.8115 21.2266ZM96 21.3701V21.2266C96 20.9121 95.9749 20.6159 95.9248 20.3379C95.8747 20.0553 95.7926 19.807 95.6787 19.5928C95.5648 19.3786 95.4098 19.21 95.2139 19.0869C95.0179 18.9639 94.7718 18.9023 94.4756 18.9023C94.193 18.9023 93.9515 18.9502 93.751 19.0459C93.555 19.1416 93.391 19.2738 93.2588 19.4424C93.1312 19.611 93.0309 19.8092 92.958 20.0371C92.8896 20.265 92.8441 20.5111 92.8213 20.7754V21.8418C92.8532 22.1927 92.9284 22.5094 93.0469 22.792C93.1654 23.07 93.3408 23.291 93.5732 23.4551C93.8102 23.6191 94.1156 23.7012 94.4893 23.7012C94.7809 23.7012 95.0247 23.6442 95.2207 23.5303C95.4167 23.4118 95.5716 23.2477 95.6855 23.0381C95.7995 22.8239 95.8792 22.5755 95.9248 22.293C95.9749 22.0104 96 21.7028 96 21.3701ZM102.446 25.1367C101.886 25.1367 101.382 25.0456 100.936 24.8633C100.489 24.681 100.108 24.4281 99.7939 24.1045C99.484 23.7764 99.2448 23.3958 99.0762 22.9629C98.9121 22.5254 98.8301 22.056 98.8301 21.5547V21.2812C98.8301 20.7116 98.9121 20.1943 99.0762 19.7295C99.2402 19.2601 99.4727 18.8568 99.7734 18.5195C100.074 18.1823 100.434 17.9225 100.854 17.7402C101.273 17.5579 101.735 17.4668 102.241 17.4668C102.765 17.4668 103.228 17.5557 103.629 17.7334C104.03 17.9066 104.365 18.1527 104.634 18.4717C104.903 18.7907 105.105 19.1735 105.242 19.6201C105.379 20.0622 105.447 20.5521 105.447 21.0898V21.8486H99.6504V20.6045H103.67V20.4678C103.661 20.1807 103.606 19.9186 103.506 19.6816C103.406 19.4401 103.251 19.2487 103.041 19.1074C102.831 18.9616 102.56 18.8887 102.228 18.8887C101.959 18.8887 101.724 18.9479 101.523 19.0664C101.327 19.1803 101.163 19.3444 101.031 19.5586C100.904 19.7682 100.808 20.0189 100.744 20.3105C100.68 20.6022 100.648 20.9258 100.648 21.2812V21.5547C100.648 21.8646 100.689 22.1517 100.771 22.416C100.858 22.6803 100.983 22.9105 101.147 23.1064C101.316 23.2979 101.517 23.4482 101.749 23.5576C101.986 23.6624 102.255 23.7148 102.556 23.7148C102.934 23.7148 103.276 23.6419 103.581 23.4961C103.891 23.3457 104.16 23.1247 104.388 22.833L105.297 23.7764C105.142 24.0042 104.932 24.223 104.668 24.4326C104.408 24.6423 104.094 24.8132 103.725 24.9453C103.355 25.0729 102.929 25.1367 102.446 25.1367Z" fill="white"/>
</svg>
